<?xml version="1.0" encoding="utf-8"?>
<!-- Generator: Adobe Illustrator 24.1.1, SVG Export Plug-In . SVG Version: 6.00 Build 0)  -->
<svg version="1.1" id="Capa_1" xmlns="http://www.w3.org/2000/svg" xmlns:xlink="http://www.w3.org/1999/xlink" x="0px" y="0px"
	 viewBox="0 0 512 512" style="enable-background:new 0 0 512 512;" xml:space="preserve">
<style type="text/css">
	.st0{fill:#FFFFFF00;}
	.st1{fill:none;stroke:#FFFFFF;stroke-width:1.3;stroke-linecap:round;stroke-miterlimit:10;}
	.st2{fill:#B1B0B0;}
</style>
<g>
	<g>
		<path class="st0" d="M256,460.5c-0.2,0-0.4,0-0.7,0c-112.7-0.4-204.2-92.4-203.8-205.1c0.2-54.6,21.6-105.9,60.3-144.4
			c38.6-38.3,89.7-59.4,144-59.4c0.2,0,0.5,0,0.7,0c112.7,0.4,204.2,92.4,203.8,205.1c-0.2,54.6-21.6,105.9-60.4,144.4
			C361.5,439.4,310.4,460.5,256,460.5z M255.9,72.8c-48.7,0-94.5,18.9-129,53.2C92.2,160.5,73,206.5,72.8,255.4
			c-0.3,101,81.6,183.4,182.6,183.8c49.7,0.1,95-18.8,129.7-53.2c34.7-34.5,53.9-80.4,54.1-129.3c0.3-101-81.6-183.4-182.6-183.8
			l0,0C256.4,72.8,256.1,72.8,255.9,72.8z M265.9,131.9c-7.5,0-13.6,2.6-18.8,7.8l0,0c-5.3,5.3-7.9,11.6-7.9,19.2
			c0,7.5,2.5,13.8,7.9,19.1c5.3,5.3,11.5,8,19,8c0,0,0,0,0.1,0c7.5,0,13.8-2.6,19.1-7.9c5.3-5.3,7.9-11.6,7.9-19.2
			c0-7.5-2.5-13.8-7.8-19.2C280.1,134.5,274.4,131.8,265.9,131.9z"/>
	</g>

</g>
</svg>
