<?xml version="1.0" encoding="utf-8"?>
<!-- Generator: Adobe Illustrator 24.1.1, SVG Export Plug-In . SVG Version: 6.00 Build 0)  -->
<svg version="1.1" id="Capa_1" xmlns="http://www.w3.org/2000/svg" xmlns:xlink="http://www.w3.org/1999/xlink" x="0px" y="0px"
	 viewBox="0 0 512 512" style="enable-background:new 0 0 512 512;" xml:space="preserve">
<style type="text/css">
	.st0{fill:#FFFFFF;}
	.st1{fill:none;stroke:#FFFFFF;stroke-width:1.3;stroke-linecap:round;stroke-miterlimit:10;}
	.st2{fill:#B1B0B0;}
</style>
<g>
	<g>
		<path class="st0" d="M446.2,408.8H65.3l0.1-19.4c0.2-33.3,21.8-63.2,52.7-74.3v-82.5c0-75.9,61.8-137.7,137.7-137.7
			c75.9,0,137.7,61.8,137.7,137.7v82.5c31.2,11.1,52.5,40.4,52.7,74.3L446.2,408.8z M88.6,385.8h334.3
			c-1.8-24.3-19.6-45.3-43.5-50.8l-9-2.1V232.6c0-63.2-51.4-114.7-114.7-114.7c-63.2,0-114.6,51.4-114.6,114.7v100.3l-9,2.1
			C108.2,340.5,90.4,361.5,88.6,385.8z"/>
	</g>
	<g>
		<path class="st0" d="M232.3,117.2c-3.8,0-7.5-1.9-9.7-5.3c-4.1-6.4-6.3-13.8-6.3-21.4c0-21.8,17.7-39.5,39.4-39.5
			s39.5,17.7,39.5,39.5c0,7.5-2.1,14.8-6.1,21.1c-3.4,5.4-10.5,7-15.9,3.6c-5.4-3.4-7-10.5-3.6-15.9c1.6-2.6,2.5-5.6,2.5-8.7
			c0-9-7.3-16.4-16.4-16.4c-9,0-16.4,7.3-16.4,16.4c0,3.2,0.9,6.2,2.6,8.8c3.5,5.4,1.9,12.5-3.4,15.9
			C236.6,116.6,234.4,117.2,232.3,117.2z"/>
	</g>
	<g>
		<path class="st0" d="M302.2,333.7H129.6c-6.4,0-11.5-5.2-11.5-11.5c0-6.4,5.2-11.5,11.5-11.5h172.6c6.4,0,11.5,5.2,11.5,11.5
			C313.7,328.6,308.5,333.7,302.2,333.7z"/>
	</g>
	<g>
		<path class="st0" d="M381.9,333.7h-26.5c-6.4,0-11.5-5.2-11.5-11.5c0-6.4,5.2-11.5,11.5-11.5h26.5c6.4,0,11.5,5.2,11.5,11.5
			C393.4,328.6,388.3,333.7,381.9,333.7z"/>
	</g>
	<g>
		<path class="st0" d="M255.7,460.9c-36.6,0-68-26.1-74.6-62c-1.2-6.3,3-12.3,9.2-13.4c6.1-1.2,12.3,3,13.4,9.2
			c4.6,25,26.5,43.1,51.9,43.1c25.1,0,46.9-17.9,51.8-42.5c1.2-6.2,7.2-10.3,13.6-9.1c6.2,1.2,10.3,7.3,9.1,13.6
			C323.1,435.3,291.8,460.9,255.7,460.9z"/>
	</g>
</g>
</svg>
