<svg id="Capa_1" data-name="Capa 1" xmlns="http://www.w3.org/2000/svg" viewBox="0 0 256 256"><defs><style>.cls-1{fill:#fff;}.cls-2,.cls-3{fill:none;stroke:#fff;stroke-linecap:round;stroke-width:2.5px;}.cls-2{stroke-linejoin:round;}.cls-3{stroke-miterlimit:10;}</style></defs><path class="cls-1" d="M128,240A112,112,0,1,1,240,128,112.08,112.08,0,0,1,128,240Zm0-219.67A107.72,107.72,0,1,0,235.72,128,107.84,107.84,0,0,0,128,20.28Z"/><polyline class="cls-2" points="49.3 132.25 125.95 60.16 206.7 132.25"/><line class="cls-3" x1="165.71" y1="68.15" x2="165.71" y2="94.6"/><path class="cls-1" d="M181.09,130.7,127.35,80.58a2.12,2.12,0,0,0-2.88,0L70.81,130.7a2.11,2.11,0,0,0-.67,1.55v63.56a2.11,2.11,0,0,0,2.11,2.11h38.53a2.11,2.11,0,0,0,2.12-2.11V166.14H139v29.67a2.11,2.11,0,0,0,2.12,2.11h38.53a2.1,2.1,0,0,0,2.11-2.11V132.25A2.11,2.11,0,0,0,181.09,130.7ZM96.17,155.48a1.84,1.84,0,0,1-1.84,1.84H80.56a1.84,1.84,0,0,1-1.84-1.84V134.09a1.84,1.84,0,0,1,1.84-1.84H94.33a1.84,1.84,0,0,1,1.84,1.84Zm25.67,0a1.84,1.84,0,0,1-1.84,1.84H106.23a1.84,1.84,0,0,1-1.84-1.84V134.09a1.84,1.84,0,0,1,1.84-1.84H120a1.84,1.84,0,0,1,1.84,1.84Zm25.67,0a1.84,1.84,0,0,1-1.84,1.84H131.9a1.84,1.84,0,0,1-1.84-1.84V134.09a1.84,1.84,0,0,1,1.84-1.84h13.77a1.84,1.84,0,0,1,1.84,1.84Zm25.67,0a1.84,1.84,0,0,1-1.84,1.84H157.57a1.84,1.84,0,0,1-1.84-1.84V134.09a1.84,1.84,0,0,1,1.84-1.84h13.77a1.84,1.84,0,0,1,1.84,1.84Z"/><path class="cls-1" d="M128,240A112,112,0,1,1,240,128,112.08,112.08,0,0,1,128,240Zm0-219.67A107.72,107.72,0,1,0,235.72,128,107.84,107.84,0,0,0,128,20.28Z"/><path class="cls-1" d="M208,130.76l-40.33-36s0-.1,0-.15V68.15a2,2,0,0,0-4,0v23L127.28,58.67a2,2,0,0,0-2.7,0L47.93,130.79a2,2,0,1,0,2.74,2.91L126,62.88l79.38,70.86a2,2,0,0,0,2.66-3Z"/><path class="cls-1" d="M181.09,130.7,127.35,80.58a2.12,2.12,0,0,0-2.88,0L70.81,130.7a2.11,2.11,0,0,0-.67,1.55v63.56a2.11,2.11,0,0,0,2.11,2.11h38.53a2.11,2.11,0,0,0,2.12-2.11V166.14H139v29.67a2.11,2.11,0,0,0,2.12,2.11h38.53a2.1,2.1,0,0,0,2.11-2.11V132.25A2.11,2.11,0,0,0,181.09,130.7ZM96.17,155.48a1.84,1.84,0,0,1-1.84,1.84H80.56a1.84,1.84,0,0,1-1.84-1.84V134.09a1.84,1.84,0,0,1,1.84-1.84H94.33a1.84,1.84,0,0,1,1.84,1.84Zm25.67,0a1.84,1.84,0,0,1-1.84,1.84H106.23a1.84,1.84,0,0,1-1.84-1.84V134.09a1.84,1.84,0,0,1,1.84-1.84H120a1.84,1.84,0,0,1,1.84,1.84Zm25.67,0a1.84,1.84,0,0,1-1.84,1.84H131.9a1.84,1.84,0,0,1-1.84-1.84V134.09a1.84,1.84,0,0,1,1.84-1.84h13.77a1.84,1.84,0,0,1,1.84,1.84Zm25.67,0a1.84,1.84,0,0,1-1.84,1.84H157.57a1.84,1.84,0,0,1-1.84-1.84V134.09a1.84,1.84,0,0,1,1.84-1.84h13.77a1.84,1.84,0,0,1,1.84,1.84Z"/></svg>