<svg id="Capa_1" data-name="Capa 1" xmlns="http://www.w3.org/2000/svg" viewBox="0 0 256 256"><defs><style>.cls-1{fill:#fff;}</style></defs><path class="cls-1" d="M128,240A112,112,0,1,1,240,128,112.08,112.08,0,0,1,128,240Zm0-219.67A107.72,107.72,0,1,0,235.72,128,107.84,107.84,0,0,0,128,20.28Z"/><path class="cls-1" d="M105.31,152.63c-2.37.17-4.75-.48-5.22-3.33s-3.33-1.9-5.71,3.33-16.63,25.66-22.33,29.94-7.6,3.58-4.75,6.78,15.68-.71,16.16,2.9,6.65,4.57,10,2.67,14.26-6.28,17.59-2.67,11.4,4.59,19,3.63,24.23.7,32.79.35,4.75-1.89,9-4,15.69,1.14,19,0-20-26.32-23.28-30.12S154.26,144.07,150,144.55s-1.42,7.6-8.07,5.7-6.69-19-13.33-20.43-11.38,2.85-12.34,6.65-5.22,5.26-5.22,5.26S112,152.15,105.31,152.63Z"/><path class="cls-1" d="M108.64,98.45s-2.38,1.48,1.9,2.88,3.09,9,3.09,11.38c0,1.29,10.46,1.19,10.46,1.19l1.18-12.57,1.25,12.57s9.6.34,10.16-2.61c.71-1.91,1.19-11.17,1.19-11.17A2.68,2.68,0,0,0,141,98.45c.36-4.21,8-2.26,10.65-1.9,3.67.48,8.39-2.14,8.39-8.61s-2.82-13.13-11.37-10c0,0,2.66-13.72-13.55-9.21,0,0-1.72-9-11.22-9S112.92,69,112.92,69s-13.55-4-12.6,8.68c0,0-6.41-2.68-10.21.17S84.88,88,89.63,90.61s11.32,1,11.32,1S98.42,98,108.64,98.45Z"/><path class="cls-1" d="M107.69,128.08c-2.7,2.39-5.07,5.06-2.85,6.33s4.12,2.85,4.75,0S109.53,126.44,107.69,128.08Z"/><path class="cls-1" d="M115,122.06s-1,0-1,2.86,1.26,4.74,3.48,2.84S117.51,120.79,115,122.06Z"/><path class="cls-1" d="M128.58,118.89c-1.57,2.21-4.41,2.53-2.83,0S128.58,118.89,128.58,118.89Z"/><path class="cls-1" d="M118.42,116.35s-2.53,0-2.2,1.41,2.2,1.46,2.2,1.46Z"/><path class="cls-1" d="M137.79,113.91s-3.17,4-1.27,5.31,4.12-.32,5.39-1.43S143.49,110.52,137.79,113.91Z"/><path class="cls-1" d="M135.91,127.76c-1.61-.32-1.87,3.82,0,4.12"/></svg>