<?xml version="1.0" encoding="utf-8"?>
<!-- Generator: Adobe Illustrator 23.0.0, SVG Export Plug-In . SVG Version: 6.00 Build 0)  -->
<svg version="1.1" id="Capa_1" xmlns="http://www.w3.org/2000/svg" xmlns:xlink="http://www.w3.org/1999/xlink" x="0px" y="0px"
	 viewBox="0 0 27.1 43" style="enable-background:new 0 0 27.1 43;" xml:space="preserve">
<style type="text/css">
	.st0{fill:#D4372E;}
</style>
<g>
	<path class="st0" d="M26.1,19L8.1,1C7.4,0.3,6.6,0,5.6,0S3.8,0.3,3.1,1L1,3.1C0.3,3.8,0,4.6,0,5.6c0,1,0.3,1.8,1,2.5l13.4,13.4
		L1,34.9c-0.7,0.7-1,1.5-1,2.5c0,1,0.3,1.8,1,2.5L3.1,42c0.7,0.7,1.5,1,2.5,1c1,0,1.8-0.3,2.5-1l18-18c0.7-0.7,1-1.6,1-2.5
		C27.1,20.5,26.8,19.7,26.1,19z"/>
</g>
</svg>
