<?xml version="1.0" encoding="utf-8"?>
<!-- Generator: Adobe Illustrator 24.2.0, SVG Export Plug-In . SVG Version: 6.00 Build 0)  -->
<svg version="1.1" id="Capa_1" xmlns="http://www.w3.org/2000/svg" xmlns:xlink="http://www.w3.org/1999/xlink" x="0px" y="0px"
	 viewBox="0 0 512 512" style="enable-background:new 0 0 512 512;" xml:space="preserve">
<style type="text/css">
	.st0{fill:#3D4D00;}
</style>
<g>
	<path class="st0" d="M54.5,122.9c-6.2,0-11.2-5-11.2-11.2V70c0-6.2,5-11.2,11.2-11.2h47.3c6.2,0,11.2,5,11.2,11.2v41.7
		c0,6.2-5,11.2-11.2,11.2C101.8,122.9,54.5,122.9,54.5,122.9z"/>
	<path class="st0" d="M54.5,233c-6.2,0-11.2-5-11.2-11.2v-41.7c0-6.2,5-11.2,11.2-11.2h47.3c6.2,0,11.2,5,11.2,11.2v41.7
		c0,6.2-5,11.2-11.2,11.2H54.5z"/>
	<path class="st0" d="M54.5,343.1c-6.2,0-11.2-5-11.2-11.2v-41.7c0-6.2,5-11.2,11.2-11.2h47.3c6.2,0,11.2,5,11.2,11.2v41.7
		c0,6.2-5,11.2-11.2,11.2H54.5z"/>
	<path class="st0" d="M54.5,453.2c-6.2,0-11.2-5-11.2-11.2v-41.7c0-6.2,5-11.2,11.2-11.2h47.3c6.2,0,11.2,5,11.2,11.2V442
		c0,6.2-5,11.2-11.2,11.2H54.5z"/>
	<g>
		<path class="st0" d="M453.6,105.9H187.4c-8.3,0-15.1-6.7-15.1-15.1s6.8-15.1,15.1-15.1h266.2c8.3,0,15.1,6.7,15.1,15.1
			S461.9,105.9,453.6,105.9z"/>
	</g>
	<g>
		<path class="st0" d="M453.6,216H187.4c-8.3,0-15.1-6.7-15.1-15.1s6.8-15.1,15.1-15.1h266.2c8.3,0,15.1,6.7,15.1,15.1
			S461.9,216,453.6,216z"/>
	</g>
	<g>
		<path class="st0" d="M453.6,326.1H187.4c-8.3,0-15.1-6.7-15.1-15.1c0-8.3,6.8-15.1,15.1-15.1h266.2c8.3,0,15.1,6.7,15.1,15.1
			S461.9,326.1,453.6,326.1z"/>
	</g>
	<g>
		<path class="st0" d="M453.6,436.2H187.4c-8.3,0-15.1-6.7-15.1-15.1c0-8.3,6.8-15.1,15.1-15.1h266.2c8.3,0,15.1,6.7,15.1,15.1
			S461.9,436.2,453.6,436.2z"/>
	</g>
</g>
</svg>
