<?xml version="1.0" encoding="utf-8"?>
<!-- Generator: Adobe Illustrator 24.2.0, SVG Export Plug-In . SVG Version: 6.00 Build 0)  -->
<svg version="1.1" id="Capa_1" xmlns="http://www.w3.org/2000/svg" xmlns:xlink="http://www.w3.org/1999/xlink" x="0px" y="0px"
	 viewBox="0 0 512 512" style="enable-background:new 0 0 512 512;" xml:space="preserve">
<style type="text/css">
	.st0{fill:#3D4D00;}
</style>
<g>
	<g>
		<path class="st0" d="M430.8,215.1l-27.3-4.6c-2.8-9.2-6.5-18.1-11-26.5l16.1-22.5c6.8-9.6,5.8-22.7-2.6-31l-24.2-24.2
			c-4.6-4.6-10.6-7.1-17-7.1c-5,0-9.8,1.5-13.9,4.5l-22.6,16.1c-8.8-4.6-18-8.5-27.5-11.3l-4.6-27c-2-11.6-12-20.1-23.8-20.1h-34.2
			c-11.8,0-21.8,8.5-23.8,20.1l-4.7,27.7c-9.1,2.8-18,6.6-26.4,11.1l-22.4-16.1c-4.1-2.9-8.9-4.5-14-4.5c-6.4,0-12.5,2.5-17,7.1
			L105.6,131c-8.3,8.3-9.4,21.4-2.6,31l16.3,22.9c-4.5,8.5-8.1,17.4-10.8,26.6l-27,4.6c-11.6,2-20.1,12-20.1,23.8v34.2
			c0,11.8,8.5,21.8,20.1,23.8l27.7,4.7c2.8,9.1,6.6,18,11.1,26.4l-16,22.3c-6.8,9.6-5.8,22.7,2.6,31l24.2,24.2
			c4.6,4.6,10.6,7.1,17,7.1c5,0,9.8-1.5,13.9-4.5l22.9-16.3c8.2,4.3,16.8,7.8,25.7,10.6l4.6,27.3c2,11.6,12,20.1,23.8,20.1h34.3
			c11.8,0,21.8-8.5,23.8-20.1l4.6-27.3c9.2-2.8,18.1-6.5,26.5-11l22.5,16.1c4.1,2.9,8.9,4.5,14,4.5l0,0c6.4,0,12.4-2.5,17-7.1
			l24.2-24.2c8.3-8.3,9.4-21.4,2.6-31l-16.1-22.6c4.5-8.5,8.2-17.4,11-26.5l27.3-4.6c11.6-2,20.1-12,20.1-23.8V239
			C450.8,227.1,442.4,217.1,430.8,215.1z M428.9,273.1c0,1.1-0.7,2-1.8,2.1l-34.2,5.7c-4.3,0.7-7.7,3.9-8.8,8.1
			c-3.1,12-7.8,23.4-14.2,34.1c-2.2,3.7-2,8.4,0.5,12l20.1,28.3c0.6,0.8,0.5,2-0.2,2.8l-24.2,24.2c-0.6,0.6-1.1,0.6-1.5,0.6
			c-0.5,0-0.9-0.2-1.2-0.4l-28.2-20.1c-3.5-2.5-8.2-2.7-12-0.5c-10.7,6.3-22.1,11.1-34.1,14.2c-4.2,1.1-7.4,4.6-8.1,8.8l-5.8,34.2
			c-0.2,1.1-1.1,1.8-2.1,1.8h-34.2c-1.1,0-2-0.7-2.1-1.8l-5.7-34.2c-0.7-4.3-3.9-7.7-8.1-8.8c-11.6-3-22.9-7.6-33.4-13.7
			c-1.7-1-3.7-1.5-5.5-1.5c-2.2,0-4.5,0.7-6.3,2l-28.5,20.3c-0.4,0.2-0.8,0.4-1.2,0.4c-0.3,0-1-0.1-1.5-0.7l-24.2-24.2
			c-0.7-0.7-0.8-1.9-0.2-2.8l20-28.1c2.5-3.6,2.7-8.3,0.5-12c-6.3-10.6-11.2-22-14.3-34c-1.1-4.1-4.6-7.3-8.8-8.1L85.1,276
			c-1.1-0.2-1.8-1.1-1.8-2.1v-34.2c0-1.1,0.7-2,1.8-2.1l33.9-5.7c4.3-0.7,7.8-3.9,8.9-8.1c3-12,7.6-23.5,13.9-34.2
			c2.2-3.7,2-8.4-0.6-11.9l-20.3-28.5c-0.6-0.8-0.5-2,0.2-2.8l24.2-24.2c0.6-0.6,1.1-0.7,1.5-0.7c0.5,0,0.9,0.2,1.2,0.4l28.1,20
			c3.6,2.5,8.3,2.7,12,0.5c10.6-6.3,22-11.2,34-14.3c4.1-1.1,7.3-4.6,8.1-8.8l5.9-34.4c0.2-1.1,1.1-1.8,2.1-1.8h34.2
			c1.1,0,2,0.7,2.1,1.8l5.7,33.9c0.7,4.3,3.9,7.8,8.1,8.9c12.3,3.1,24,7.9,34.9,14.3c3.7,2.2,8.4,2,12-0.5l28.1-20.2
			c0.4-0.2,0.8-0.4,1.2-0.4c0.3,0,1,0.1,1.5,0.6l24.2,24.2c0.7,0.7,0.8,1.9,0.2,2.8l-20.1,28.2c-2.5,3.5-2.7,8.2-0.5,12
			c6.3,10.7,11.1,22.1,14.2,34.1c1.1,4.2,4.6,7.4,8.8,8.1l34.2,5.8c1.1,0.2,1.8,1.1,1.8,2.1L428.9,273.1L428.9,273.1z"/>
		<path class="st0" d="M256,171.9c-46.4,0-84,37.7-84,84c0,46.4,37.7,84,84,84c46.4,0,84-37.7,84-84
			C340.1,209.6,302.4,171.9,256,171.9z M256,318c-34.2,0-62.1-27.8-62.1-62.1s27.8-62.1,62.1-62.1c34.2,0,62.1,27.8,62.1,62.1
			S290.3,318,256,318z"/>
	</g>
</g>
</svg>
