<?xml version="1.0" encoding="utf-8"?>
<!-- Generator: Adobe Illustrator 24.1.1, SVG Export Plug-In . SVG Version: 6.00 Build 0)  -->
<svg version="1.1" xmlns="http://www.w3.org/2000/svg" xmlns:xlink="http://www.w3.org/1999/xlink" x="0px" y="0px"
	 viewBox="0 0 512 512" style="enable-background:new 0 0 512 512;" xml:space="preserve">
<style type="text/css">
	.st0{fill:#D9D9F2;}
	.st1{fill:#9ED4FF;}
	.st2{fill:#00FFFF;}
	.st3{fill:#00FF00;}
	.st4{fill:#FFFF00;}
	.st5{fill:#FFAA00;}
	.st6{fill:#FF0000;}
	.st7{fill:#646464;}
	.st8{fill:#FFFFFF;}
</style>
<g id="Capa_2">
</g>
<g id="Capa_1">
	<path id="XMLID_4_" class="st4" d="M256.1,2c140.3,0,254,113.7,254,254c0,140.2-113.6,253.9-254,253.9C115.8,510,2,396.3,2,256.1
		C2,115.8,115.8,2,256.1,2z"/>
	<path class="st7" d="M314.8,289.3c0,8.2-1.4,15.9-4.2,23c-2.8,7.1-6.7,13.2-11.7,18.4c-5,5.2-11.1,9.3-18.3,12.4
		c-7.2,3-15,4.5-23.6,4.5c-8.7,0-16.8-1.4-24.1-4.2c-7.3-2.8-13.7-6.9-19-12.5c-5.4-5.5-9.6-12.5-12.6-20.9
		c-3-8.4-4.5-18.2-4.5-29.2c0-16.6,2.4-31.7,7.2-45.1c4.8-13.4,11.3-25.2,19.4-35.2c8.1-10,17.6-18.1,28.5-24.2
		c10.9-6.1,22.3-10.2,34.4-12.2l7.3,26c-8.4,1.3-16.1,3.9-23.2,7.8c-7.1,3.9-13.3,8.5-18.8,13.9c-5.5,5.4-10.1,11.4-13.9,18
		c-3.8,6.6-6.4,13.5-7.9,20.5c3.4-4.2,7.7-7.7,13.1-10.7c5.4-2.9,12.1-4.4,20.2-4.4c7.6,0,14.5,1.2,20.9,3.5
		c6.4,2.3,11.9,5.9,16.4,10.5c4.6,4.6,8.1,10.3,10.6,17C313.5,272.8,314.8,280.6,314.8,289.3z M283,291.1c0-18.8-9.2-28.2-27.7-28.2
		c-6.7,0-12.4,1.5-17,4.5c-4.6,3-7.9,6.6-9.7,10.6c-0.3,1.9-0.5,3.4-0.5,4.8c0,1.3,0,2.7,0,4c0,4,0.6,8,1.8,12
		c1.2,3.9,2.9,7.5,5.2,10.6c2.3,3.1,5.2,5.7,8.7,7.6c3.5,1.9,7.7,2.9,12.6,2.9c7.9,0,14.3-2.7,19.3-8.1
		C280.5,306.4,283,299.5,283,291.1z"/>
</g>
</svg>
