<?xml version="1.0" encoding="utf-8"?>
<!-- Generator: Adobe Illustrator 24.1.1, SVG Export Plug-In . SVG Version: 6.00 Build 0)  -->
<svg version="1.1" xmlns="http://www.w3.org/2000/svg" xmlns:xlink="http://www.w3.org/1999/xlink" x="0px" y="0px"
	 viewBox="0 0 512 512" style="enable-background:new 0 0 512 512;" xml:space="preserve">
<style type="text/css">
	.st0{fill:#D9D9F2;}
	.st1{fill:#9ED4FF;}
	.st2{fill:#00FFFF;}
	.st3{fill:#00FF00;}
	.st4{fill:#FFFF00;}
	.st5{fill:#FFAA00;}
	.st6{fill:#FF0000;}
	.st7{fill:#646464;}
	.st8{fill:#FFFFFF;}
</style>
<g id="Capa_2">
</g>
<g id="Capa_1">
	<path id="XMLID_2855_" class="st0" d="M256.1,2c140.3,0,254,113.7,254,254c0,140.2-113.6,253.9-254,253.9
		C115.8,510,2,396.3,2,256.1C2,115.8,115.8,2,256.1,2z"/>
	<g>
		<path class="st7" d="M304.9,212.2c0,8.6-1.5,17.2-4.7,26c-3.1,8.7-7.1,17.3-11.9,25.7c-4.8,8.4-10.1,16.5-15.9,24.4
			c-5.8,7.8-11.5,15-17,21.5l-13.4,10.3v1.3l18.1-3.5h48.4v27.7H202.5v-16.9c4-4.2,8.6-9.1,13.6-14.8c5-5.6,10.1-11.6,15.3-17.9
			c5.1-6.3,10.1-12.8,15-19.5c4.9-6.7,9.2-13.5,13.1-20.3c3.9-6.8,6.9-13.4,9.2-19.8c2.3-6.4,3.4-12.4,3.4-18.2c0-6.9-2-12.6-5.9-17
			c-4-4.4-10.2-6.7-18.8-6.7c-5.4,0-10.9,1.2-16.5,3.4c-5.6,2.3-10.4,5.2-14.2,8.7l-13.1-23.2c6.6-5.4,14-9.7,22.3-13
			c8.3-3.3,18.1-4.9,29.4-4.9c7.2,0,13.9,1,19.9,3c6,2,11.3,5,15.6,8.8c4.4,3.9,7.8,8.7,10.3,14.5
			C303.6,197.8,304.9,204.5,304.9,212.2z"/>
	</g>
</g>
</svg>
