<?xml version="1.0" encoding="utf-8"?>
<!-- Generator: Adobe Illustrator 24.1.1, SVG Export Plug-In . SVG Version: 6.00 Build 0)  -->
<svg version="1.1" xmlns="http://www.w3.org/2000/svg" xmlns:xlink="http://www.w3.org/1999/xlink" x="0px" y="0px"
	 viewBox="0 0 512 512" style="enable-background:new 0 0 512 512;" xml:space="preserve">
<style type="text/css">
	.st0{fill:#D9D9F2;}
	.st1{fill:#9ED4FF;}
	.st2{fill:#00FFFF;}
	.st3{fill:#00FF00;}
	.st4{fill:#FFFF00;}
	.st5{fill:#FFAA00;}
	.st6{fill:#FF0000;}
	.st7{fill:#646464;}
	.st8{fill:#FFFFFF;}
</style>
<g id="Capa_2">
</g>
<g id="Capa_1">
	<path id="XMLID_3_" class="st3" d="M256.1,2c140.3,0,254,113.7,254,254c0,140.2-113.6,253.9-254,253.9C115.8,510,2,396.3,2,256.1
		C2,115.8,115.8,2,256.1,2z"/>
	<path class="st7" d="M241.3,316.8c11.1,0,19.6-2.7,25.5-8.1c5.9-5.4,8.8-12.8,8.8-22.2c0-10.1-3.4-17.5-10.3-22.2
		c-6.9-4.7-16.7-7.1-29.5-7.1l-19.9,0.8v-92.3h86.7v30.8H244v34.1l10.3-1c8.2,0.3,15.7,1.8,22.3,4.5c6.6,2.7,12.3,6.4,17,11.2
		c4.7,4.8,8.3,10.6,10.8,17.4c2.5,6.8,3.8,14.4,3.8,22.8c0,9.9-1.7,18.7-5,26.2c-3.4,7.6-8,13.9-14,18.9c-6,5-13,8.8-21,11.3
		c-8.1,2.5-16.9,3.8-26.5,3.8c-7.6,0-14.8-0.7-21.6-1.9c-6.8-1.3-12.6-3-17.3-5.2l8.8-27.2c3.9,1.7,8.1,3,12.7,3.9
		C229.1,316.3,234.7,316.8,241.3,316.8z"/>
</g>
</svg>
