<svg id="Capa_1" data-name="Capa 1" xmlns="http://www.w3.org/2000/svg" viewBox="0 0 70 70"><defs><style>.cls-1{opacity:0.11;}.cls-2{fill:#fff;}</style></defs><g class="cls-1"><path class="cls-2" d="M63.06,35.91H58.64a.63.63,0,0,0-.59.42l-.7,2.07L56,31.72a.63.63,0,0,0-.65-.51.65.65,0,0,0-.6.57L53.24,46.71,50.58,16.59A.62.62,0,0,0,50,16a.63.63,0,0,0-.63.59L47.88,37.28l-1.13-9.64a.64.64,0,0,0-.59-.55.63.63,0,0,0-.65.48l-2.08,8.34H26.53a.64.64,0,0,0-.6.42l-.7,2.07-1.32-6.68a.63.63,0,0,0-.65-.51.64.64,0,0,0-.6.57L21.13,46.71,18.47,16.59a.64.64,0,0,0-.63-.58h0a.62.62,0,0,0-.62.59L15.76,37.29l-1.13-9.65a.62.62,0,0,0-.58-.55.64.64,0,0,0-.66.48l-2.07,8.34H6.94a.64.64,0,0,0-.64.63.64.64,0,0,0,.64.63h4.88a.63.63,0,0,0,.61-.48l1.35-5.45L15.3,44.15a.65.65,0,0,0,.64.56.63.63,0,0,0,.61-.59l1.36-19.46,2.54,28.75a.63.63,0,0,0,.63.58h0a.64.64,0,0,0,.63-.57l1.78-17.33,1,4.87a.64.64,0,0,0,.58.5.63.63,0,0,0,.64-.42L27,37.17h17a.63.63,0,0,0,.61-.48l1.36-5.45,1.51,12.91a.63.63,0,0,0,1.26,0L50,24.66l2.54,28.75a.63.63,0,0,0,.63.58h0a.64.64,0,0,0,.63-.57L55.6,36.09l1,4.87a.65.65,0,0,0,.58.5.62.62,0,0,0,.64-.42l1.32-3.87h4a.64.64,0,0,0,.64-.63A.64.64,0,0,0,63.06,35.91Z"/><path class="cls-2" d="M35,2.09A32.91,32.91,0,1,0,67.91,35,32.94,32.94,0,0,0,35,2.09Zm0,64.34A31.43,31.43,0,1,1,66.43,35,31.47,31.47,0,0,1,35,66.43Z"/></g></svg>