<svg id="Capa_1" data-name="Capa 1" xmlns="http://www.w3.org/2000/svg" viewBox="0 0 70 70"><defs><style>.cls-1{opacity:0.11;}.cls-2{fill:#fff;}</style></defs><g class="cls-1"><polygon class="cls-2" points="36.35 56.94 36.35 35.48 33.46 35.48 33.46 56.94 24.56 48.59 22.52 50.5 34.91 62.11 47.34 50.46 45.3 48.55 36.35 56.94"/><path class="cls-2" d="M35,2.09A32.91,32.91,0,1,0,67.91,35,32.94,32.94,0,0,0,35,2.09Zm0,1.48A31.48,31.48,0,0,1,64.7,24.75c-2.89.32-4.86,2.18-6.76,4-2.17,2.07-4.22,4-7.71,4s-5.48-2-7.64-4-4.27-4.08-7.68-4.08-5.55,2.06-7.63,4.06-4.22,4-7.71,4-5.48-2-7.64-4c-1.88-1.79-3.81-3.63-6.64-4A31.48,31.48,0,0,1,35,3.57Zm0,62.86a31.43,31.43,0,0,1-30.5-39c2.07.12,3.61,1.57,5.37,3.25,2.37,2.26,5.05,4.82,9.7,4.82s7.4-2.57,9.77-4.84c1.82-1.74,3.39-3.25,5.57-3.25s3.79,1.52,5.62,3.27c2.37,2.26,5,4.82,9.7,4.82s7.4-2.57,9.77-4.84c1.8-1.72,3.36-3.21,5.49-3.24A31.4,31.4,0,0,1,35,66.43Z"/></g></svg>