<svg id="Capa_1" data-name="Capa 1" xmlns="http://www.w3.org/2000/svg" viewBox="0 0 70 70"><defs><style>.cls-1{opacity:0.11;}.cls-2{fill:#fff;}</style></defs><g class="cls-1"><path class="cls-2" d="M35,10.47A15.83,15.83,0,0,0,19.17,26.3a16,16,0,0,0,.57,4.23,16.27,16.27,0,0,0,.53,1.58l.48,1.09L35,59.53,49.27,33.17l.43-1a16.82,16.82,0,0,0,.56-1.65,16,16,0,0,0,.57-4.23A15.83,15.83,0,0,0,35,10.47ZM47.31,29.71c-.13.44-.27.87-.44,1.29l-.36.81L35,53.09,23.51,31.85l-.41-.92a12.31,12.31,0,0,1-.77-3.24h5.85a7,7,0,0,0,13.65,0h5.84A12.57,12.57,0,0,1,47.31,29.71ZM31.06,26.15A3.94,3.94,0,1,1,35,30.09,3.94,3.94,0,0,1,31.06,26.15Zm10.76-1.53a7,7,0,0,0-13.64,0H22.36a12.75,12.75,0,0,1,25.28,0Z"/><path class="cls-2" d="M35,2.09A32.91,32.91,0,1,0,67.91,35,32.94,32.94,0,0,0,35,2.09Zm0,64.34A31.43,31.43,0,1,1,66.43,35,31.47,31.47,0,0,1,35,66.43Z"/></g></svg>