<svg id="Capa_1" data-name="Capa 1" xmlns="http://www.w3.org/2000/svg" width="512" height="512" viewBox="0 0 512 512">
  <defs>
    <style>
      .cls-1 {
        fill: #646464;
      }

      .cls-2 {
        fill: #fff;
      }
    </style>
  </defs>
  <g>
    <circle class="cls-1" cx="255.65324" cy="257.12201" r="232.34553" transform="translate(-106.93362 256.08343) rotate(-45)"/>
    <g>
      <path class="cls-2" d="M338.40137,167.47791H172.90381A34.57963,34.57963,0,0,0,138.426,201.95569V312.288a34.57974,34.57974,0,0,0,34.47778,34.47809H338.40137A34.03739,34.03739,0,0,0,372.88171,312.288V201.95569A34.58017,34.58017,0,0,0,338.40137,167.47791ZM172.90381,181.26849H338.40137a20.97457,20.97457,0,0,1,20.68725,20.6872v79.11548c-31.2384-1.47174-48.74975-11.72217-65.50866-20.5011-18.10254-9.48352-36.20252-18.96222-66.371-18.96222-33.88317,0-60.49267,18.364-74.99243,31.13245V201.95569A20.97629,20.97629,0,0,1,172.90381,181.26849Zm165.49756,151.707H172.90381A20.97645,20.97645,0,0,1,152.21655,312.288V291.45526c7.15027-7.50159,36.11841-35.19714,74.13-35.19714,26.72131,0,43.09924,8.62158,59.47448,18.10278,18.61963,9.71368,38.75843,20.94678,73.26758,22.27918V312.288A20.97473,20.97473,0,0,1,338.40137,332.97546Z"/>
      <path class="cls-2" d="M317.71411,248.50189A20.6872,20.6872,0,1,0,297.027,227.8147,20.97452,20.97452,0,0,0,317.71411,248.50189Zm0-27.58374c4.30957,0,6.89673,2.58716,6.89673,6.89655s-2.58716,6.8966-6.89673,6.8966c-4.30932,0-6.894-2.58715-6.894-6.8966S313.40479,220.91815,317.71411,220.91815Z"/>
    </g>
  </g>
</svg>
