<svg id="Capa_1" data-name="Capa 1" xmlns="http://www.w3.org/2000/svg" width="512" height="512" viewBox="0 0 512 512">
  <defs>
    <style>
      .cls-1 {
        fill: #646464;
      }

      .cls-2 {
        fill: #fff;
      }
    </style>
  </defs>
  <g>
    <circle class="cls-1" cx="256.00063" cy="256" r="232.34485" transform="translate(-37.60155 467.82559) rotate(-80.8093)"/>
    <g>
      <path class="cls-2" d="M331.40091,222.14615l-66.168-66.16522c-3.848-2.30884-9.233-4.61774-13.85071-4.61774H206.75882a30.86489,30.86489,0,0,0-30.77509,30.77509V329.86172a30.86493,30.86493,0,0,0,30.77509,30.77509h98.4823a30.37915,30.37915,0,0,0,30.77515-30.77509V235.99716C336.01627,230.60977,335.24649,225.99454,331.40091,222.14615Zm-69.24646-50.78021,53.85889,53.85894H280.62051a18.72272,18.72272,0,0,1-18.46606-18.46606Zm43.08667,176.96179h-98.4823a18.72271,18.72271,0,0,1-18.46606-18.466V182.13828a18.72223,18.72223,0,0,1,18.46606-18.46357v-.0025h43.08655v43.08661a30.865,30.865,0,0,0,30.77514,30.77509h43.08411v92.32781A18.72049,18.72049,0,0,1,305.24112,348.32773Z"/>
      <path class="cls-2" d="M292.9296,317.55264H219.06784c-3.84564,0-6.15454,2.3064-6.15454,6.15454,0,3.84565,2.3089,6.15454,6.15454,6.15454H292.9296c3.84814,0,6.157-2.30889,6.157-6.15454C299.08658,319.859,296.77774,317.55264,292.9296,317.55264Z"/>
      <path class="cls-2" d="M292.9296,286.77487H219.06784c-3.84564,0-6.15454,2.30908-6.15454,6.15723,0,3.8454,2.3089,6.15448,6.15454,6.15448H292.9296c3.84814,0,6.157-2.30908,6.157-6.15448C299.08658,289.084,296.77774,286.77487,292.9296,286.77487Z"/>
      <path class="cls-2" d="M292.9296,256H219.06784c-3.84564,0-6.15454,2.3089-6.15454,6.15454,0,3.84815,2.3089,6.157,6.15454,6.157H292.9296c3.84814,0,6.157-2.30883,6.157-6.157C299.08658,258.30887,296.77774,256,292.9296,256Z"/>
    </g>
  </g>
</svg>
