<svg id="Capa_1" data-name="Capa 1" xmlns="http://www.w3.org/2000/svg" width="512" height="512" viewBox="0 0 512 512">
  <defs>
    <style>
      .cls-1 {
        fill: #646464;
      }

      .cls-2 {
        fill: #fff;
      }
    </style>
  </defs>
  <g>
    <path class="cls-1" d="M256.00251,488.3449C127.67771,488.3449,23.65259,384.31957,23.65259,256c0-128.31978,104.02512-232.3449,232.34992-232.3449,128.31978,0,232.3449,104.02512,232.3449,232.3449C488.34741,384.31957,384.32229,488.3449,256.00251,488.3449Z"/>
    <g>
      <path class="cls-2" d="M251.16162,280.18814c.80725,1.61194,3.22644,1.61194,4.83838,1.61194s4.03113,0,3.22644-1.61194l38.69946-38.702a6.27168,6.27168,0,1,0-8.8695-8.8695l-26.60608,26.60608V165.69907c0-4.03113-2.41919-6.45032-6.45032-6.45032s-6.45032,2.41919-6.45032,6.45032v95.13769l-28.218-28.22015a6.27171,6.27171,0,1,0-8.86957,8.8695Z"/>
      <path class="cls-2" d="M346.30219,288.25046c-4.0337,0-6.45038,2.41662-6.45038,6.45032V320.4996a19.62074,19.62074,0,0,1-19.351,19.351H191.49915a19.61855,19.61855,0,0,1-19.34845-19.351V294.70078c0-4.0337-2.41919-6.45032-6.45038-6.45032s-6.45032,2.41662-6.45032,6.45032V320.4996a32.34515,32.34515,0,0,0,32.24915,32.25165h129.0017A31.83551,31.83551,0,0,0,352.75,320.4996V294.70078C352.75,290.66708,350.33331,288.25046,346.30219,288.25046Z"/>
    </g>
  </g>
</svg>
