<?xml version="1.0" encoding="iso-8859-1"?>
<!-- Generator: Adobe Illustrator 19.0.0, SVG Export Plug-In . SVG Version: 6.00 Build 0)  -->
<svg version="1.1" id="Capa_1" xmlns="http://www.w3.org/2000/svg" xmlns:xlink="http://www.w3.org/1999/xlink" x="0px" y="0px"
	 viewBox="0 0 512 512" style="enable-background:new 0 0 512 512;" xml:space="preserve">
<g>
	<g>
		<g>
			<path d="M338.278,288.213c-8.716-6.782-21.284-5.211-28.065,3.508L256,361.423l-54.213-69.702
				c-6.782-8.718-19.348-10.289-28.066-3.508s-10.289,19.347-3.508,28.066l70,90C244.002,411.15,249.828,414,256,414
				s11.998-2.85,15.787-7.721l70-90C348.568,307.56,346.998,294.994,338.278,288.213z"/>
			<path d="M256,0C114.516,0,0,114.497,0,256c0,141.484,114.497,256,256,256c141.483,0,256-114.497,256-256
				C512,114.516,397.503,0,256,0z M256,472c-119.377,0-216-96.607-216-216c0-119.377,96.607-216,216-216
				c119.377,0,216,96.607,216,216C472,375.377,375.393,472,256,472z"/>
			<path d="M271.787,105.721C267.998,100.85,262.172,98,256,98s-11.998,2.85-15.787,7.721l-70,90
				c-6.782,8.719-5.211,21.285,3.508,28.066c8.72,6.783,21.286,5.211,28.066-3.508L256,150.577l54.213,69.702
				c6.741,8.666,19.293,10.33,28.065,3.508c8.72-6.781,10.29-19.347,3.509-28.066L271.787,105.721z"/>
		</g>
	</g>
</g>
<g>
</g>
<g>
</g>
<g>
</g>
<g>
</g>
<g>
</g>
<g>
</g>
<g>
</g>
<g>
</g>
<g>
</g>
<g>
</g>
<g>
</g>
<g>
</g>
<g>
</g>
<g>
</g>
<g>
</g>
</svg>
