<svg id="Capa_1" data-name="Capa 1" xmlns="http://www.w3.org/2000/svg" viewBox="0 0 512 512"><defs><style>.cls-1{fill:#fff;}</style></defs><path class="cls-1" d="M256,65.7C151.07,65.7,65.7,151.07,65.7,256S151.07,446.3,256,446.3,446.3,360.93,446.3,256,360.93,65.7,256,65.7Zm0,373.38C155.05,439.08,72.92,357,72.92,256S155.05,72.92,256,72.92,439.08,155.05,439.08,256,357,439.08,256,439.08Z"/><polygon class="cls-1" points="333.47 335.62 335.13 337.36 336.29 336.24 334.62 334.52 333.47 335.62"/><path class="cls-1" d="M197.27,352.05c.92.56,1.86,1.11,2.79,1.65l1.2-2.08q-1.38-.8-2.73-1.62Z"/><path class="cls-1" d="M202.89,355.27c1,.52,1.92,1,2.89,1.5l1.07-2.15c-.94-.47-1.88-1-2.81-1.46Z"/><path class="cls-1" d="M191.85,348.5c.88.62,1.78,1.22,2.69,1.82l1.31-2c-.89-.58-1.77-1.17-2.63-1.77Z"/><path class="cls-1" d="M186.63,344.66c.85.66,1.71,1.32,2.58,2l1.43-1.94c-.86-.63-1.7-1.27-2.54-1.91Z"/><path class="cls-1" d="M181.64,340.52q1.22,1.07,2.46,2.1l1.54-1.85c-.82-.67-1.62-1.36-2.42-2.06Z"/><path class="cls-1" d="M208.7,358.18c1,.46,2,.9,3,1.33l1-2.21c-1-.42-1.94-.85-2.9-1.3Z"/><path class="cls-1" d="M176.89,336.1q1.16,1.14,2.34,2.25l1.64-1.76c-.78-.73-1.54-1.45-2.3-2.2Z"/><path class="cls-1" d="M318.65,347.52l1.34,2c.9-.6,1.78-1.21,2.66-1.84l-1.39-2C320.4,346.33,319.53,346.93,318.65,347.52Z"/><path class="cls-1" d="M284.08,363l.59,2.33c1.05-.27,2.09-.55,3.13-.84l-.66-2.31C286.13,362.42,285.11,362.69,284.08,363Z"/><path class="cls-1" d="M296.16,359.14l.86,2.25c1-.38,2-.78,3-1.19l-.92-2.23C298.14,358.38,297.16,358.77,296.16,359.14Z"/><path class="cls-1" d="M290.18,361.22l.72,2.29c1-.33,2.06-.66,3.07-1l-.78-2.27C292.19,360.57,291.18,360.9,290.18,361.22Z"/><path class="cls-1" d="M307.73,354l1.12,2.14q1.42-.75,2.85-1.53l-1.17-2.1C309.61,353,308.68,353.49,307.73,354Z"/><path class="cls-1" d="M302,356.72l1,2.2c1-.44,2-.9,2.94-1.37l-1-2.16C304,355.85,303,356.29,302,356.72Z"/><path class="cls-1" d="M328.76,339.86l1.56,1.83c.82-.69,1.63-1.41,2.43-2.13l-1.6-1.79C330.36,338.48,329.57,339.18,328.76,339.86Z"/><path class="cls-1" d="M323.81,343.84l1.45,1.91c.86-.65,1.72-1.31,2.56-2l-1.51-1.87C325.49,342.55,324.66,343.2,323.81,343.84Z"/><path class="cls-1" d="M313.28,350.9l1.23,2.07c.93-.55,1.85-1.11,2.76-1.69l-1.28-2C315.1,349.81,314.2,350.36,313.28,350.9Z"/><path class="cls-1" d="M227,364.84c1,.28,2.09.55,3.15.8l.56-2.34c-1-.25-2.06-.51-3.08-.78Z"/><path class="cls-1" d="M220.75,363c1,.34,2.05.67,3.09,1l.7-2.3c-1-.31-2-.62-3-1Z"/><path class="cls-1" d="M214.65,360.75c1,.4,2,.79,3,1.15l.82-2.25c-1-.37-2-.74-3-1.13Z"/><polygon class="cls-1" points="173.44 332.57 174.55 333.74 176.29 332.08 175.2 330.93 173.44 332.57"/><polygon class="cls-1" points="179.66 172.58 178.04 170.8 176.85 171.9 178.49 173.66 179.66 172.58"/><path class="cls-1" d="M317.15,158.61c-.91-.58-1.83-1.13-2.75-1.68L313.18,159c.9.54,1.8,1.08,2.68,1.64Z"/><path class="cls-1" d="M189.23,164.66l-1.4-1.95q-1.31.94-2.58,1.92l1.46,1.91C187.54,165.9,188.38,165.27,189.23,164.66Z"/><path class="cls-1" d="M222.24,145.82c-1,.31-2.05.62-3.06,1l.74,2.28c1-.32,2-.63,3-.92Z"/><path class="cls-1" d="M184.24,168.49l-1.51-1.88q-1.24,1-2.46,2.07l1.56,1.82C182.63,169.82,183.43,169.14,184.24,168.49Z"/><path class="cls-1" d="M204.32,152.8c-1,.47-1.92,1-2.87,1.46l1.13,2.12c.92-.49,1.86-1,2.8-1.43Z"/><path class="cls-1" d="M229,146.53l-.54-2.34c-1,.24-2.09.5-3.12.77l.61,2.32C227,147,228,146.76,229,146.53Z"/><path class="cls-1" d="M281.67,144c-1.05-.24-2.1-.45-3.15-.66l-.46,2.36c1,.2,2.05.41,3.07.64Z"/><path class="cls-1" d="M287.9,145.56c-1-.3-2.07-.58-3.11-.84l-.59,2.33c1,.26,2,.53,3,.82Z"/><path class="cls-1" d="M327.61,166c-.83-.66-1.68-1.32-2.53-2L323.63,166c.84.63,1.67,1.28,2.49,1.93Z"/><path class="cls-1" d="M235.14,145.27l-.41-2.36c-1,.18-2.11.38-3.15.59l.48,2.36C233.08,145.65,234.11,145.46,235.14,145.27Z"/><path class="cls-1" d="M210.16,150.13q-1.49.63-2.94,1.29l1,2.19c1-.43,1.92-.86,2.88-1.26Z"/><path class="cls-1" d="M322.49,162.18c-.88-.63-1.76-1.23-2.65-1.83l-1.34,2c.88.58,1.74,1.17,2.59,1.79Z"/><path class="cls-1" d="M311.61,155.34c-.94-.52-1.88-1-2.83-1.51l-1.1,2.13c.93.48,1.85,1,2.77,1.49Z"/><path class="cls-1" d="M296.19,150.84c1,.37,2,.75,2.93,1.15l.91-2.22c-1-.41-2-.8-3-1.18Z"/><path class="cls-1" d="M290.25,148.77c1,.32,2,.65,3,1l.78-2.27c-1-.35-2-.69-3-1Z"/><path class="cls-1" d="M305.91,152.4c-1-.47-1.94-.92-2.92-1.36l-1,2.2q1.42.63,2.85,1.32Z"/><path class="cls-1" d="M193.13,159.1c-.9.58-1.79,1.17-2.68,1.77l1.36,2c.86-.6,1.74-1.17,2.62-1.74Z"/><path class="cls-1" d="M198.64,155.79c-.94.52-1.86,1.06-2.78,1.61l1.24,2.06,2.72-1.58Z"/><path class="cls-1" d="M216.14,147.8c-1,.37-2,.74-3,1.13l.88,2.24c1-.38,2-.75,2.94-1.1Z"/><polygon class="cls-1" points="331.38 169.19 330.16 168.13 328.6 169.96 329.8 171 331.38 169.19"/><path class="cls-1" d="M150,195.63a24.2,24.2,0,1,0-24.2-24.2A24.23,24.23,0,0,0,150,195.63ZM150,152a19.39,19.39,0,1,1-19.39,19.39A19.41,19.41,0,0,1,150,152Z"/><path class="cls-1" d="M275.26,355.93h-3.35a18.1,18.1,0,0,0-6.09-6.09v-3.35a2.41,2.41,0,0,0-2.41-2.41H249.74a2.4,2.4,0,0,0-2.4,2.41v3.35a18,18,0,0,0-6.09,6.09H237.9a2.41,2.41,0,0,0-2.41,2.41V372a2.4,2.4,0,0,0,2.41,2.41h3.35a17.92,17.92,0,0,0,6.09,6.09v3.35a2.4,2.4,0,0,0,2.4,2.41h13.67a2.41,2.41,0,0,0,2.41-2.41V380.5a18.1,18.1,0,0,0,6.09-6.09h3.35a2.4,2.4,0,0,0,2.4-2.41V358.34A2.4,2.4,0,0,0,275.26,355.93Zm-2.41,13.67h-2.36a2.4,2.4,0,0,0-2.16,1.34,13.26,13.26,0,0,1-6,6,2.41,2.41,0,0,0-1.35,2.16v2.37h-8.85v-2.37a2.39,2.39,0,0,0-1.35-2.16,13.19,13.19,0,0,1-6-6,2.4,2.4,0,0,0-2.16-1.34H240.3v-8.85h2.37a2.41,2.41,0,0,0,2.16-1.35,13.24,13.24,0,0,1,6-6,2.39,2.39,0,0,0,1.35-2.16V348.9H261v2.36a2.41,2.41,0,0,0,1.35,2.16,13.31,13.31,0,0,1,6,6,2.41,2.41,0,0,0,2.16,1.35h2.36Z"/><path class="cls-1" d="M256.58,355.83a9.34,9.34,0,1,0,9.34,9.34A9.36,9.36,0,0,0,256.58,355.83Zm0,15.07a5.73,5.73,0,1,1,5.73-5.73A5.74,5.74,0,0,1,256.58,370.9Z"/><path class="cls-1" d="M256.6,158.08a18.47,18.47,0,1,0-18.47-18.47A18.49,18.49,0,0,0,256.6,158.08Zm0-32.13a13.66,13.66,0,1,1-13.66,13.66A13.67,13.67,0,0,1,256.6,126Z"/><rect class="cls-1" x="158.28" y="230.11" width="10.06" height="5.86"/><path class="cls-1" d="M362,195.63a24.2,24.2,0,1,0-24.2-24.2A24.23,24.23,0,0,0,362,195.63ZM362,152a19.39,19.39,0,1,1-19.39,19.39A19.41,19.41,0,0,1,362,152Z"/><path class="cls-1" d="M385.14,198H341.08c-3.14,0-20.23,3.73-20.23,20.23v62.2a2.4,2.4,0,0,0,1.93,2.36A24.24,24.24,0,0,0,327.36,298l-3.56,15.62a2.39,2.39,0,0,0,2.34,2.94H340v48.62a2.4,2.4,0,0,0,2.4,2.41h41.52a2.4,2.4,0,0,0,2.4-2.41V316.55h13.81a2.41,2.41,0,0,0,1.88-.9,2.39,2.39,0,0,0,.46-2L399,298.46a24.12,24.12,0,0,0,4.93-15.83,2.42,2.42,0,0,0,1.47-2.22v-62.2C405.37,201.71,388.28,198,385.14,198Zm-10.85,4.81,3.9,3.82-3.77,4a1.81,1.81,0,0,0-.12,2.33l2.07,2.74L365,223.46l7.84-20.67Zm-22.36,0h1.43l7.84,20.67-11.35-7.78,2.07-2.74a1.81,1.81,0,0,0-.12-2.33l-3.77-4Zm-24.33,80h3.22L329,291A21.58,21.58,0,0,1,327.6,282.82Zm33.1,79.95H344.76v-8.23H360.7Zm0-13H344.76V316.55H360.7Zm.63-38H329.16L345.53,240a2.48,2.48,0,0,0,.06-.54v-9.33h-4.81v9.06L331.92,278h-6.26V218.21c0-13.65,15.27-15.42,15.42-15.42h5.69l-2.53,2.47a1.81,1.81,0,0,0-.05,2.53l3.93,4.19-2.29,3a1.79,1.79,0,0,0-.34,1.38,1.82,1.82,0,0,0,.76,1.2l15.05,10.3c0,2.9,0,5.3,0,5.69h.05C361.31,262.83,361.29,301.43,361.33,311.74Zm-4.11-109H369l-5.89,15.53Zm24.24,160H365.52v-8.23h15.94Zm0-13H365.52V316.55h15.94Zm16-58-2-8.91h3.68A21.06,21.06,0,0,1,397.43,291.73ZM400.56,278H394.3l-8.86-38.83v-9.06h-4.81v9.33a2.48,2.48,0,0,0,.06.54l16.37,71.76H364.93c0-10.7,0-55.78,0-83.85l15-10.29a1.82,1.82,0,0,0,.76-1.2,1.79,1.79,0,0,0-.34-1.38l-2.29-3,3.93-4.19a1.8,1.8,0,0,0,0-2.53l-2.53-2.47h5.69c.15,0,15.42,1.77,15.42,15.42Z"/><rect class="cls-1" x="368.46" y="230.11" width="10.06" height="5.86"/><path class="cls-1" d="M179.39,314.15V302c7.71-5.78,9-14.76,9.11-19.17a2.41,2.41,0,0,0,2.1-2.38v-62.2c0-16.5-17.09-20.23-20.23-20.23H126.86c-3.14,0-20.23,3.73-20.23,20.23v62.2a2.39,2.39,0,0,0,1.35,2.15c.09,4.35,1.28,13.58,9.2,19.46v12.13a2.4,2.4,0,0,0,2.41,2.4h7v48.62a2.4,2.4,0,0,0,2.4,2.41h39.3a2.41,2.41,0,0,0,2.41-2.41V316.55H177A2.4,2.4,0,0,0,179.39,314.15Zm0-18.86V282.82h4.28C183.55,285.72,182.82,291,179.39,295.29Zm-19.23-92.5,3.9,3.82-3.77,4a1.8,1.8,0,0,0-.13,2.33l2.08,2.74-11.35,7.78,7.84-20.67Zm-22.37,0h1.43l7.84,20.67-11.35-7.78,2.07-2.74a1.81,1.81,0,0,0-.12-2.33l-3.77-4ZM117.18,295.4c-3.5-4.31-4.25-9.65-4.37-12.58h4.37Zm29.3,67.37H131.37v-8.23h15.11Zm0-13H131.37V316.55h15.11Zm.72-38H122V230.06h-4.81V278h-5.74V218.21c0-13.65,15.27-15.42,15.42-15.42h5.77l-2.53,2.47a1.81,1.81,0,0,0,0,2.53L134,212l-2.3,3a1.83,1.83,0,0,0-.34,1.38,1.85,1.85,0,0,0,.76,1.2l15,10.3c0,2.9,0,5.3,0,5.69h.06C147.17,266.75,147.15,302,147.2,311.74Zm-4.12-109h11.79L149,218.32Zm22.78,160H151.3v-8.23h14.56Zm0-13H151.3V316.55h14.56Zm8.72-38H150.8c0-10.7,0-55.78,0-83.85l15-10.29a1.85,1.85,0,0,0,.76-1.2,1.83,1.83,0,0,0-.34-1.38l-2.3-3,3.94-4.19a1.81,1.81,0,0,0-.05-2.53l-2.53-2.47h5c.16,0,15.42,1.77,15.42,15.42V278h-6.39V230.06h-4.81Z"/><path class="cls-1" d="M242.29,301.15a1.79,1.79,0,0,0,1.29.54,1.8,1.8,0,0,0,1.28-3.07c-3.3-3.36-7.5-1.56-9.27-.14a1.81,1.81,0,0,0,2.27,2.82C238.12,301.09,240.49,299.32,242.29,301.15Z"/><path class="cls-1" d="M265.59,298.78a1.79,1.79,0,0,0,.3,2.49,1.82,1.82,0,0,0,2.52-.24c.33-.39,1.61-1.5,4.16.33a1.86,1.86,0,0,0,1.05.33,1.8,1.8,0,0,0,1.05-3.27C270.21,295.23,266.78,297.26,265.59,298.78Z"/><path class="cls-1" d="M248.82,211.34c-3.3-3.36-7.51-1.56-9.27-.13a1.8,1.8,0,0,0,2.26,2.81c.26-.21,2.63-2,4.43-.15a1.79,1.79,0,0,0,1.29.54,1.8,1.8,0,0,0,1.29-3.07Z"/><path class="cls-1" d="M272.48,213.66a1.81,1.81,0,0,0-.42-2.52c-4.47-3.19-7.89-1.16-9.08.36a1.81,1.81,0,0,0,2.85,2.22c.05-.07,1.33-1.64,4.13.36a1.79,1.79,0,0,0,1.05.33A1.81,1.81,0,0,0,272.48,213.66Z"/><path class="cls-1" d="M263.62,307.45c-2.76,0-8.63.25-8.76.26s-6.15-.28-8.89-.26c-.43,0-4.3.13-6.2,2.66a5.53,5.53,0,0,0-.71,5,10,10,0,0,0,.64,1.68l0,0c2.53,5.29,9.56,8.86,15.08,8.86,6.08,0,14-4.34,15.73-10.57a5.56,5.56,0,0,0-.71-5C267.91,307.58,264.05,307.45,263.62,307.45Zm-8.82,15.81c-4.85,0-10.3-3.12-12.55-6.84a6.93,6.93,0,0,1,3.76-1.16c2.66,0,8.67.25,8.85.25s6.08-.29,8.72-.25a6.85,6.85,0,0,1,3.76,1.16C265.09,320.14,259.64,323.26,254.8,323.26Zm13.47-9.12a10,10,0,0,0-4.65-1.29c-2.74-.05-8.63.25-8.76.26s-6.18-.29-8.89-.26a10,10,0,0,0-4.65,1.29,3,3,0,0,1,.38-2.58c1-1.31,3.25-1.69,4.31-1.71h.56c2.85,0,8.12.26,8.29.26s6.08-.3,8.72-.26c1.06,0,3.33.4,4.31,1.71A3,3,0,0,1,268.27,314.14Z"/><path class="cls-1" d="M282.88,293.43V270.24a9.7,9.7,0,0,0-2-6.8c-1.65-2-4.17-3.17-7.51-3.4a7.47,7.47,0,0,0-3.28.67c-2.51-1.32-10.74-5.31-18.58-5.39-9,0-19,4.1-22.21,7.16a14.12,14.12,0,0,0-4.32,8.85,11.65,11.65,0,0,0-2.78,7.79,1.82,1.82,0,0,0,.94,1.63,1.79,1.79,0,0,0,1.88-.09,11,11,0,0,1,2.37-1.09v13.91a8.35,8.35,0,0,0,.49,16.35c.93,4.46,3.57,12.5,10.88,17.14,4.89,3.11,10.2,5.67,16.51,5.67,5,0,10.57-1.59,17.07-5.76.39-.31,8.67-6.84,10.25-17a8.32,8.32,0,0,0,.25-16.42Zm-58.27,8.17a4.74,4.74,0,0,1,2.82-4.33v8.66A4.74,4.74,0,0,1,224.61,301.6Zm1.74-25.48c.81-2.39,2.55-3.74,5.06-5,1.55-.8,4,.05,6.38.88a20.16,20.16,0,0,0,4.88,1.25c4.57.23,7.9-4.46,8-4.66l-3-2c-.57.85-2.75,3.14-4.82,3.1a18,18,0,0,1-3.94-1.06c-2.94-1-6.28-2.18-9.2-.68h0a10.72,10.72,0,0,1,2.1-2.8c2.62-2.51,11.8-6.1,19.67-6.16,6.76.07,14.2,3.57,16.72,4.86,0,1.57.08,4.64.14,7.75-3.76,4.56-11.83,9.33-18.18,9.34h-.05c-7.24,0-11-1.46-15.11-4A10.24,10.24,0,0,0,226.35,276.12Zm52.93,30.38c0,10.28-9,17.43-9,17.43-12.24,7.86-20.38,5.83-29.56,0C232,318.38,231,306.5,231,306.5V279.21a5.6,5.6,0,0,1,2.09.77c5.34,3.28,10,4.51,17,4.51h.06c6.26,0,13.5-3.7,18.26-7.89,0,1.82.05,3.27.05,3.84a12.94,12.94,0,0,0,10.78,11.5Zm0-36.49v18.24a9.42,9.42,0,0,1-7.17-7.81c0-1.86-.2-12.81-.27-16.53a5,5,0,0,1,1.37-.26,6.65,6.65,0,0,1,4.9,2.05A6.19,6.19,0,0,1,279.28,270Zm3.61,36.06v-8.94a4.71,4.71,0,0,1,0,8.94Z"/><path class="cls-1" d="M224.09,241.84a28.87,28.87,0,0,0,11,2,34.68,34.68,0,0,0,16.13-4.08,22.61,22.61,0,0,0,3.56.29,28.78,28.78,0,0,0,5.51-.53A32.39,32.39,0,0,0,276.52,244a26.33,26.33,0,0,0,11.42-2.41,1.85,1.85,0,0,0,.9-1.13,1.82,1.82,0,0,0-.21-1.44c-3.84-6.08-2.57-19.15-2.25-21.88a8.31,8.31,0,0,0,1.86-5.25,8.17,8.17,0,0,0-1.51-4.76c0-1.81,0-7.64,0-13.1,0-9.13-5.76-21.34-21.77-25.72-15.28-4.2-23,4-25,6.6-8.67,1.36-10.42,5.24-12.92,10.79-2.34,5.2-1.71,17.36-1.48,20.83a8.33,8.33,0,0,0,.78,11.52c.36,2.84,1.5,14.42-3,21.1a1.81,1.81,0,0,0,.76,2.65Zm3.39-2.63c3.14-6.31,3-14.61,2.67-19.12.17,0,.35.06.52.09a19.2,19.2,0,0,0,1.34,3.88c1,2.05,5.5,10.37,14,14.13A29.18,29.18,0,0,1,227.48,239.21Zm27.32-2.76c-12.11,0-18.4-11.64-19.54-14a22.14,22.14,0,0,1-1.68-6.92V204.44c2.74-.65,8.35-2.52,11.3-7.37,3.69,3.2,12.43,9.72,23.16,10.43.26,0,5.87.52,10.07.61V216c0,3.25-1.48,7.05-4.63,11.6A23.45,23.45,0,0,1,254.8,236.45ZM265.37,238a26.13,26.13,0,0,0,11.31-8.68,29.53,29.53,0,0,0,4.48-9.18,8.44,8.44,0,0,0,1.34-.32c-.35,4.86-.49,13.44,2.09,19.26A26.35,26.35,0,0,1,265.37,238Zm19.26-26.11a4.76,4.76,0,0,1-2.92,4.38c0-.09,0-.18,0-.27v-8.49A4.75,4.75,0,0,1,284.63,211.93Zm-54.22-25c2.35-5.21,3.41-7.58,10.77-8.56a1.84,1.84,0,0,0,1.31-.85c.25-.4,6.34-9.9,21.52-5.74,18.12,5,19.1,19.41,19.11,22.25,0,3.68,0,7.53,0,10.21a9.3,9.3,0,0,0-1.41-.46V201.5a1.81,1.81,0,0,0-3.61,0v3c-4.08-.09-9.69-.59-9.79-.6-12.6-.83-22.61-11-22.71-11.08a1.8,1.8,0,0,0-3,.66c-2.25,6.41-11,7.68-11.07,7.69A1.81,1.81,0,0,0,230,203v.85a8.84,8.84,0,0,0-1,.3C228.79,198.91,228.8,190.56,230.41,187ZM230,207.62v8s0,.26,0,.61a4.74,4.74,0,0,1-.05-8.65Z"/><path class="cls-1" d="M261.59,224.84a7.89,7.89,0,0,1-11.11,0,1.21,1.21,0,1,0-1.7,1.71,10.15,10.15,0,0,0,14.41,0,1.2,1.2,0,1,0-1.6-1.79Z"/></svg>