<svg id="Capa_1" data-name="Capa 1" xmlns="http://www.w3.org/2000/svg" viewBox="0 0 512 512"><defs><style>.cls-1{fill:#fff;}</style></defs><path class="cls-1" d="M256,65.7C151.07,65.7,65.7,151.07,65.7,256S151.07,446.3,256,446.3,446.3,360.93,446.3,256,360.93,65.7,256,65.7Zm0,373.38C155.05,439.08,72.92,357,72.92,256S155.05,72.92,256,72.92,439.08,155.05,439.08,256,357,439.08,256,439.08Z"/><path class="cls-1" d="M334.75,254.44H268c-8.34,0-13,3.77-15.46,6.89-2.45-3.12-7.13-6.89-15.47-6.89H170.24a2.41,2.41,0,0,0,0,4.82H237c9,0,12.26,5.54,13.05,7.22a2.49,2.49,0,0,0,2.47,2.11,2.42,2.42,0,0,0,2.4-2.18c.85-1.78,4.16-7.15,13-7.15h66.79a2.41,2.41,0,0,0,0-4.82Z"/><path class="cls-1" d="M187,203.56h48.47a2.4,2.4,0,0,0,2.41-2.4V139.78a2.41,2.41,0,0,0-2.41-2.41H187a2.41,2.41,0,0,0-2.41,2.41v61.38A2.4,2.4,0,0,0,187,203.56Zm2.4-61.37h43.66v56.56H189.41Z"/><path class="cls-1" d="M235.48,211.86H187a1.81,1.81,0,1,0,0,3.61h48.47a1.81,1.81,0,1,0,0-3.61Z"/><path class="cls-1" d="M235.48,221.14H187a1.81,1.81,0,1,0,0,3.61h48.47a1.81,1.81,0,1,0,0-3.61Z"/><path class="cls-1" d="M235.48,230.42H187a1.81,1.81,0,1,0,0,3.61h48.47a1.81,1.81,0,1,0,0-3.61Z"/><path class="cls-1" d="M269.35,215.47h48.48a1.81,1.81,0,0,0,0-3.61H269.35a1.81,1.81,0,0,0,0,3.61Z"/><path class="cls-1" d="M269.35,224.75h48.48a1.81,1.81,0,0,0,0-3.61H269.35a1.81,1.81,0,0,0,0,3.61Z"/><path class="cls-1" d="M269.35,234h48.48a1.81,1.81,0,0,0,0-3.61H269.35a1.81,1.81,0,0,0,0,3.61Z"/><path class="cls-1" d="M291.41,202.58a2.42,2.42,0,0,0,3.89,0l17.82-24.31a25,25,0,0,0,5.46-15.68,25.23,25.23,0,1,0-45,15.64Zm1.95-60.39a20.43,20.43,0,0,1,20.41,20.4,20.21,20.21,0,0,1-4.42,12.69l.21.16c-1.71,1.9-5.57,7.15-16.2,21.65l-15.94-21.74-.05-.07A20.16,20.16,0,0,1,273,162.59,20.42,20.42,0,0,1,293.36,142.19Z"/><path class="cls-1" d="M293.91,178.58a14.24,14.24,0,1,0-14.24-14.24A14.26,14.26,0,0,0,293.91,178.58Zm0-24.87a10.63,10.63,0,1,1-10.63,10.63A10.64,10.64,0,0,1,293.91,153.71Z"/><path class="cls-1" d="M347.09,133.51h-9.94v-10a2.39,2.39,0,0,0-2.4-2.4h-73a13.51,13.51,0,0,0-9.24,4.51,13.58,13.58,0,0,0-9.37-4.51H170.24a2.39,2.39,0,0,0-2.4,2.4v10h-9.93a2.41,2.41,0,0,0-2.41,2.41v133a2.41,2.41,0,0,0,2.41,2.41H237a15.78,15.78,0,0,0,31,0h79.09a2.41,2.41,0,0,0,2.41-2.41v-133A2.41,2.41,0,0,0,347.09,133.51ZM261.87,126h70.47V241.62H268c-6.11,0-10.26,2-13,4.34V133c0-.34,0-.66-.05-1C255.54,126.57,261.32,126,261.87,126Zm-89.22,0H243c.69,0,6.48.62,7.11,6,0,.33-.05.65-.05,1V246c-2.74-2.31-6.88-4.34-13-4.34H172.65Zm172,140.56H265.85a2.4,2.4,0,0,0-2.4,2.32,11,11,0,0,1-21.9,0,2.41,2.41,0,0,0-2.41-2.32H160.31V138.33h7.53V244a2.4,2.4,0,0,0,2.4,2.41H237c8.93,0,12.21,5.45,13,7.17a2.4,2.4,0,0,0,2,2.11h.13a2.56,2.56,0,0,0,.39,0,1.71,1.71,0,0,0,.39,0,2.4,2.4,0,0,0,2-2.11c.82-1.74,4.1-7.18,13-7.18h66.79a2.4,2.4,0,0,0,2.4-2.41V138.33h7.54Z"/><path class="cls-1" d="M252.29,294.46a93,93,0,0,0-92.87,92.86v2.41H345.15v-2.41A93,93,0,0,0,252.29,294.46ZM182,384.92c0-.79.07-1.58.12-2.36l2.36,2.36Zm5.88,0-5.48-5.49c.23-2.08.54-4.13,1-6.15L195,384.92Zm10.52,0L184,370.51c.46-1.87,1-3.7,1.61-5.51l19.91,19.92Zm11.52,0h-1l-22.42-22.43c.64-1.7,1.35-3.36,2.11-5l22,22A42.48,42.48,0,0,0,210,384.92Zm1.28-8.24-21.47-21.46c.8-1.55,1.65-3.08,2.56-4.56L213,371.35A40.64,40.64,0,0,0,211.24,376.68Zm-17.58-28.09q1.41-2.13,3-4.14l20,20a40.52,40.52,0,0,0-2.56,4.55ZM249.75,345a41.85,41.85,0,0,0-6.27.84L221.68,324c1.62-.79,3.28-1.5,5-2.16Zm-20.63-24q2.67-.94,5.44-1.68l26.56,26.57a42.47,42.47,0,0,0-8-.92Zm11.64,25.56a43,43,0,0,0-5.25,1.86L214.93,327.8q2.2-1.38,4.5-2.61Zm-7.56,3a44.57,44.57,0,0,0-4.49,2.62l-19.93-19.93c1.32-1.05,2.68-2.07,4.09-3Zm-6.47,4a41.49,41.49,0,0,0-3.83,3.29l-19.72-19.72q1.8-1.75,3.72-3.39Zm-5.52,5a42.6,42.6,0,0,0-3.21,3.9l-19.87-19.86c1.07-1.3,2.2-2.54,3.36-3.76Zm12.34,26.41a18.89,18.89,0,0,1,37.48,0Zm42.34,0a23.72,23.72,0,0,0-47.2,0H214.78a37.59,37.59,0,0,1,75,0Zm18.73,0a41.28,41.28,0,0,0-.86-6.43l6.43,6.43Zm9,0L292.47,373.8a42.59,42.59,0,0,0-26.66-26.66l-28.5-28.5c2-.44,4-.78,6.08-1l67.31,67.32Zm10.52,0-67.65-67.64c1.93-.16,3.87-.26,5.83-.26l1.05,0,67.88,67.88Zm-57.22-67.74a69.64,69.64,0,0,1,8.11,1l56.42,56.42a69.81,69.81,0,0,1,1,8.12Zm60,42.34a70.19,70.19,0,0,1,3.64,10.76l-51.17-51.16a69.12,69.12,0,0,1,10.76,3.64Zm-30-33.36a70.86,70.86,0,0,1,26.57,26.56Zm40.46,58.76a75.1,75.1,0,0,0-150.12,0h-13a88.05,88.05,0,0,1,176,0Z"/></svg>