<svg id="Capa_1" data-name="Capa 1" xmlns="http://www.w3.org/2000/svg" viewBox="0 0 512 512"><defs><style>.cls-1{fill:#fff;}</style></defs><path class="cls-1" d="M256,65.7C151.07,65.7,65.7,151.07,65.7,256S151.07,446.3,256,446.3,446.3,360.93,446.3,256,360.93,65.7,256,65.7Zm0,373.38C155.05,439.08,72.92,357,72.92,256S155.05,72.92,256,72.92,439.08,155.05,439.08,256,357,439.08,256,439.08Z"/><path class="cls-1" d="M357.94,353.38h-16.4V124.61a2.4,2.4,0,0,0-2.41-2.4H181.85a2.39,2.39,0,0,0-2.4,2.4V353.38h-16.4a8.46,8.46,0,0,0-8.45,8.45v17.43a8.46,8.46,0,0,0,8.45,8.45H357.94a8.46,8.46,0,0,0,8.44-8.45V361.83A8.46,8.46,0,0,0,357.94,353.38ZM184.26,127H336.73v143.1h-30V250.91a6.14,6.14,0,0,0-6.15-6.14H275.84c19-3.16,32.3-12.19,32.3-23.13a1.21,1.21,0,1,0-2.41,0c0,12.09-20.11,21.93-44.84,21.93s-44.83-9.84-44.83-21.93a1.21,1.21,0,1,0-2.41,0c0,10.94,13.35,20,32.3,23.13H220.38a6.14,6.14,0,0,0-6.15,6.14v19.21h-30ZM301.94,250.91v16.8H219.05v-16.8a1.34,1.34,0,0,1,1.33-1.33H300.6A1.34,1.34,0,0,1,301.94,250.91Zm-117.68,24H336.73v78.45H184.26ZM361.57,379.26a3.64,3.64,0,0,1-3.63,3.63H163.05a3.63,3.63,0,0,1-3.63-3.63V361.83a3.63,3.63,0,0,1,3.63-3.64H357.94a3.64,3.64,0,0,1,3.63,3.64Z"/><path class="cls-1" d="M309.85,293.24H211.13a8.57,8.57,0,0,0-8.56,8.56v24.71a8.56,8.56,0,0,0,8.56,8.55h98.72a8.56,8.56,0,0,0,8.56-8.55V301.8A8.57,8.57,0,0,0,309.85,293.24Zm3.74,33.27a3.75,3.75,0,0,1-3.74,3.74H211.13a3.75,3.75,0,0,1-3.74-3.74V301.8a3.74,3.74,0,0,1,3.74-3.74h98.72a3.74,3.74,0,0,1,3.74,3.74Z"/><path class="cls-1" d="M283.62,311.75H237.36a2.41,2.41,0,0,0,0,4.81h46.26a2.41,2.41,0,1,0,0-4.81Z"/><path class="cls-1" d="M222,217.59l.08.09a55.33,55.33,0,0,0,29.74,18.95,52.22,52.22,0,0,0,20,0A46.63,46.63,0,0,0,288,230.3a1.7,1.7,0,0,0,.46-.29,48.08,48.08,0,0,0,15.51-16.69.59.59,0,0,1,0-.08c.36-.62.71-1.25,1-1.9l.06-.13s.24-.57.57-1.54a56,56,0,0,0,2.88-20.62c-.73-11.69-5.7-21-14.79-27.67a31.55,31.55,0,0,0-10.45-6.1,34.37,34.37,0,0,0-8.9-1.93,1.17,1.17,0,0,0-.32,0,38.16,38.16,0,0,0-13.72,1.57l-.07,0q-1.95.59-4,1.41c-2.38-2.52-7-7.46-8.08-9.11a23.76,23.76,0,0,0-6.66-6.83,13.86,13.86,0,0,0-7.64-2.27,13.32,13.32,0,0,0-7.11,1.91,11.9,11.9,0,0,0-2.39,2.52,73.15,73.15,0,0,0-7.83,11.35,60.24,60.24,0,0,0-4.32,9.88,55.18,55.18,0,0,0-1.72,30.64.53.53,0,0,0,0,.17c.27,1.2.58,2.4.94,3.6a55.66,55.66,0,0,0,8,16.16C220.27,215.39,221.09,216.48,222,217.59Zm17,10.68a51.52,51.52,0,0,1-14.35-12.22c-.23-.28-.06-1.52-.06-1.87a17.09,17.09,0,0,1,.28-2.85c.42-2.19,1.35-4.44,3.31-5.65l0,0c.1-.07,9.42-6.19,16.56-2l.64.72,0,0a26.67,26.67,0,0,0,3,2.84,24.85,24.85,0,0,0,2.4,1.77,16.86,16.86,0,0,0-7.11,4.46,24.34,24.34,0,0,0-4,5.28A10.73,10.73,0,0,0,239,228.27Zm31.93-54.93a19.49,19.49,0,0,1,3.06.52l.07,0,.44.12h0a1.64,1.64,0,0,1,.26.88,2.63,2.63,0,0,1-.8,2,8,8,0,0,0-1.63,2.31,9.65,9.65,0,0,0-1-.26,2.07,2.07,0,0,1-.76-.86,1,1,0,0,1,.12-.8,1,1,0,0,0,0-.1A5.73,5.73,0,0,0,270.9,173.34ZM261.27,210c.08.12.17.24.25.37A27.09,27.09,0,0,1,255,207.9c-.49-.26-.56-2.19-.57-2.64s-.1-1.25.36-1.66,1-.32,1.38-.54a6.52,6.52,0,0,0,2.69-3.29c.11-.25.2-.49.29-.73a14.39,14.39,0,0,0,3.14,1.58c.53.19.09,2.49,0,2.84a7.49,7.49,0,0,1-1,1.66,3.61,3.61,0,0,0-.6,1.21A5.43,5.43,0,0,0,261.27,210Zm-9.9-4.29c-.61-.45-1-.74-1-.75l-.05,0a23.45,23.45,0,0,1-2.5-2.33A16.51,16.51,0,0,1,247,198c-.06-2.34,2.51-1.83,4.21-2.19a6.48,6.48,0,0,0,3.25-1.75c.17.29.34.57.53.85a11.41,11.41,0,0,0,1.6,2.07,8.51,8.51,0,0,1-1.15,2.7c-.56.76-1.26.74-2.05,1.1a3.92,3.92,0,0,0-2,3.16A10.55,10.55,0,0,0,251.37,205.69ZM245,194.64a5.41,5.41,0,0,0-.9,2.51,24.68,24.68,0,0,1-2.12-6.46c.6-1.25,2.05-3.71,3.59-4.25a1.52,1.52,0,0,1,1.31.12,7.6,7.6,0,0,0,5.92.71,14.68,14.68,0,0,0,.39,3.55c-.42.74-1.69,2.36-4.72,2.27A3.92,3.92,0,0,0,245,194.64Zm14.75-5.83c0,.12,0,.24,0,.37a1.62,1.62,0,0,0-.13.33c-.14.56-.5,1.52-1.08,1.77s-1.38-.25-1.87-.66a1.9,1.9,0,0,1-.57-.56c-.07-.13-.13-1.07-.21-1.1A6.36,6.36,0,0,0,259.77,188.81Zm-3.66-4.12a17.18,17.18,0,0,1,1-3.5l0-.06a9.57,9.57,0,0,0,3.5,2.87,9.35,9.35,0,0,0-.51,1.44c-1,.49-2.6,1-3.37.6C256.42,185.86,256.2,185.41,256.11,184.69Zm6.25,11.55a2.57,2.57,0,0,1-2.11-.09,10.85,10.85,0,0,1-.86-.71.93.93,0,0,0-.18-.16,11.13,11.13,0,0,1-.85-.91,3.84,3.84,0,0,0,.95-.15,4,4,0,0,0,1.94-1.29,10.53,10.53,0,0,0,2.15,2.28A2.71,2.71,0,0,1,262.36,196.24Zm.68-6.4a4.37,4.37,0,0,1-.15-2.94.94.94,0,0,0,0-.16,7.71,7.71,0,0,1,.25-1,4.19,4.19,0,0,0,1,1,5.26,5.26,0,0,0,.49.3,4.44,4.44,0,0,0-.06,1.1,4.58,4.58,0,0,0,.35,1.5,1.71,1.71,0,0,1-1.39.2A1.66,1.66,0,0,0,263,189.84Zm6.47,3.79a6.64,6.64,0,0,1-3,0,2.74,2.74,0,0,0-.28-.05l-.07,0a4.15,4.15,0,0,1-.5-.45,4.68,4.68,0,0,0,2-1.12c.24.07-.1.11,1,.14h0C268.61,192.2,269.44,193,269.51,193.63Zm-3.56,3.2a8.68,8.68,0,0,0,1.95.23,8.55,8.55,0,0,0,1-.07,1.58,1.58,0,0,1-.17,1.46,14.06,14.06,0,0,1-3.93-.25A6,6,0,0,0,266,196.83Zm-1.18,8.32a7.39,7.39,0,0,0,.67-3.77,17.72,17.72,0,0,0,3.53.09,10,10,0,0,1,.15,3c-.23,1.48-.77,2.44.32,3.73A7.11,7.11,0,0,0,272,210l-.12,0-.09,0a18.52,18.52,0,0,1-4.09.78,6,6,0,0,1-3.72-2.27C263.07,207.06,264.16,206.43,264.77,205.15ZM272,205a13.82,13.82,0,0,0-.08-4,12.38,12.38,0,0,0,2.41-1c1.11,1.65,3.14,4.2,5.57,5a23,23,0,0,1-3.06,2.51,6.19,6.19,0,0,1-4.39-.5C271.73,206.54,271.94,205.8,272,205Zm3.14-16.42h0a1.52,1.52,0,0,1,1.19-1.1,7.69,7.69,0,0,1,.31,3.89,4.7,4.7,0,0,0-1.3-.6A5.55,5.55,0,0,0,275.18,188.58Zm1.59,9.56a9.86,9.86,0,0,0,1.42-1.92,8,8,0,0,1,2.66.24,8.17,8.17,0,0,0,4.68,0,7.4,7.4,0,0,1-.4,1l0,.07a26.36,26.36,0,0,1-2.08,3.78c-.74.93-1.31,1-1.67,1C279.81,202.12,277.9,199.84,276.77,198.14Zm8.28-4.77a4.76,4.76,0,0,1-3.41.18,10,10,0,0,0-2.27-.36,15.56,15.56,0,0,0,.4-2.65c.43-.49,1.3-1.29,2.07-1.14,1.64.3,3.12-.84,4.23-2.16a20.33,20.33,0,0,1,.34,2.64,1.09,1.09,0,0,0,0,.36c0,.28,0,.56,0,.82A3.4,3.4,0,0,1,285.05,193.37Zm-2.66-7a4.39,4.39,0,0,0-2.94.54,12.57,12.57,0,0,0-1.16-2.89,3,3,0,0,1,1.65-1.61,4.94,4.94,0,0,0,2.44-2.89,3.94,3.94,0,0,0,.14-.49,10.35,10.35,0,0,1,.81,1.07,24.79,24.79,0,0,1,1.65,3.37C284.05,185.12,282.84,186.41,282.39,186.42Zm-3.84-6.65a7,7,0,0,0-2.22,1.75,9,9,0,0,0-1.3-1.05,5,5,0,0,1,1.09-1.54,5.86,5.86,0,0,0,1.36-2.2,5.27,5.27,0,0,0,.28-1.41l.49.27a1.11,1.11,0,0,0,.3.17c.41.25.8.5,1.15.75C279.79,177.37,279.8,179.13,278.55,179.77Zm-3.14,14.93a7.73,7.73,0,0,1-1.4,1.86,6.76,6.76,0,0,1-1.72,1.16,4.54,4.54,0,0,0-.24-1.71,5.43,5.43,0,0,0,.85-.56,7.6,7.6,0,0,0,1.35-1.55A1.47,1.47,0,0,1,275.41,194.7Zm-2.11-9.14a7.67,7.67,0,0,0-1.5-1.17c-.09-1,.34-1.35.63-1.43a1.46,1.46,0,0,0,.51-.22,6.54,6.54,0,0,1,1.41,1.2,7.31,7.31,0,0,1,.48.62A4.64,4.64,0,0,0,273.3,185.56ZM272,189.49a2.55,2.55,0,0,1-.09,1.76,4.23,4.23,0,0,0-3.15-2.39l-.09,0s-.1,0-.1,0h0a.61.61,0,0,0-.19,0c-.45,0-.56-.46-.59-.82s.06-1.07.63-1.17C269.88,186.58,271.52,188,272,189.49Zm-3.5-6c-.2,0-.42,0-.63.07a3.77,3.77,0,0,0-1.55.65.4.4,0,0,1-.27-.07,1.87,1.87,0,0,1-.5-1.09,1.59,1.59,0,0,0-.06-.3,6.44,6.44,0,0,1,1.28-.65l.12,0a5.73,5.73,0,0,1,2.23-.45A4.79,4.79,0,0,0,268.54,183.52ZM268,176a4,4,0,0,0-.31,2.8c-.32.06-.65.14-1,.23a13.34,13.34,0,0,1-3-4.2,15.71,15.71,0,0,1,3.64-1.17h.05a1.31,1.31,0,0,1,.66.64A2.56,2.56,0,0,1,268,176Zm-4.21,4.37a9.32,9.32,0,0,0-1.39,1.15,9.14,9.14,0,0,1-1.65-1c-1.51-1.11-1.55-2-1.44-2.54a12.67,12.67,0,0,1,1.77-1.62A15.15,15.15,0,0,0,263.76,180.32Zm-7.33-3.68c-2,0-4-.31-4.44-.68,0,0-3.43-3.19-6.83-3.92a37.25,37.25,0,0,1,5.3-7.18,2.07,2.07,0,0,1,1.6.22c.33.15.73.32,1.26.53,1.25.5,2.35,2.68,3.23,4.43.4.8.78,1.56,1.18,2.19a5.76,5.76,0,0,0,1.57,1.64A15.54,15.54,0,0,0,256.43,176.64Zm-6.52,1.5c1,.94,2.93,1.31,4.63,1.44,0,.11-.11.21-.16.31a.08.08,0,0,1,0,0,19.49,19.49,0,0,0-1.17,3.87c-.05.25-1.09.54-1.3.59a4.55,4.55,0,0,1-2.26,0,12,12,0,0,1-1.32-.44,6.2,6.2,0,0,0-2.91-.58,6.44,6.44,0,0,0-3.78,2.36,25.58,25.58,0,0,1,2.13-10.83C245.5,174.83,248.61,176.91,249.91,178.14Zm2.61,55.55a57.3,57.3,0,0,1-7.91-2.63,1.66,1.66,0,0,0-.32-.38c-3.37-2.77-3.62-7.44-1.6-11.08a19.65,19.65,0,0,1,6.08-6.45,11.51,11.51,0,0,1,6.4-1.66h.17a27.27,27.27,0,0,0,7.13,2.16c-1.62,1.72-3,4.21-4.58,8.49-1.8,5,.73,9.64,2.85,12.4A43,43,0,0,1,252.52,233.69Zm18.79,0a48.93,48.93,0,0,1-6.64.81c-1.4-1.43-5.65-6.31-4-11.18a.56.56,0,0,1,0-.12c2.29-6.34,4-7.92,6.25-9.26a22,22,0,0,0,5.61-1,16,16,0,0,0,2.27-.83c-1,2.86-1.68,6.59-.2,9.49,1.92,3.75,5.88,6.26,9.18,7.67A44.28,44.28,0,0,1,271.31,233.65Zm15.88-6.38c-2.85-.86-7.86-3.2-9.83-7.05-1.57-3.08.71-8.49,1.91-10.68a26,26,0,0,0,5.24-5.15c.58,3,1.9,6.91,4.93,9.46l.08.06a12.4,12.4,0,0,0,9.41,1.69A43.41,43.41,0,0,1,287.19,227.27Zm15.61-18.58c-.24.7-.42,1.15-.48,1.31-.25.48-.52.95-.78,1.42-5.55,3-9.75.38-10.21.07-3.78-3.24-4.2-9.64-4.25-11.17.26-.5.52-1,.76-1.54a14.71,14.71,0,0,0,.58-1.45,18.8,18.8,0,0,0,.75-3c1.83,2.2,4.46,4.69,7.39,5.3a11.16,11.16,0,0,0,8.73-2.18A55.06,55.06,0,0,1,302.8,208.69Zm2.73-19.45c.07,1.27.09,2.53.06,3.75-1.26,1.77-4.78,4.47-8.41,3.71-3.13-.66-6.49-5.11-7.77-7.15a23,23,0,0,0-1.12-5.74c.12.37,2.62.66,3,.72a13.58,13.58,0,0,0,3.43.09c4.1-.44,6.55-4,8-7.5A36.12,36.12,0,0,1,305.53,189.24ZM294,165.42a32.29,32.29,0,0,1,6.78,7.85,14.91,14.91,0,0,1-2.91,6.61c-1.89,2.07-4.83,2-7.35,1.39a21.08,21.08,0,0,1-2.05-.63c-.32-.12-1.65-.43-1.8-.73s-.46-.86-.72-1.31a14,14,0,0,0-2-2.47c.23.22,1.9-.29,2.2-.37a9.27,9.27,0,0,0,2.26-.87,11.56,11.56,0,0,0,5.62-9.47Zm-11.83-7.35a30.83,30.83,0,0,1,8.57,4.69c1,4.9-1.76,9.75-6.87,10.33a14.75,14.75,0,0,1-4.14-.15,20,20,0,0,0-2.5-1.2,19.45,19.45,0,0,0,3.95-6.34,10.75,10.75,0,0,0,.42-1.6,7.36,7.36,0,0,0-1.52-6.38C280.75,157.62,281.45,157.83,282.14,158.07Zm-8.44-1.76c6,2.94,5,6.53,5,6.66a.86.86,0,0,0-.06.23c-.58,3.28-3.44,6.36-4.66,7.55a24,24,0,0,0-3.25-.47h0a12.31,12.31,0,0,0-1.31,0c.56-2.21,1.13-5.59.34-8.36a9.46,9.46,0,0,0-3.93-5.22A33.32,33.32,0,0,1,273.7,156.31Zm-17.07,3.15c1.4-.59,2.78-1.09,4.15-1.53,5,1,5.94,4.6,6,4.74a.29.29,0,0,0,0,.09c.77,2.66-.21,6.41-.71,8a19.38,19.38,0,0,0-3.34,1.1,1.81,1.81,0,0,0-.52-.07,2.42,2.42,0,0,1-1.94-1.21c-.31-.49-.65-1.18-1-1.91-1.11-2.21-2.49-5-4.81-5.89-.5-.19-.87-.36-1.17-.49l-.14-.05A38.5,38.5,0,0,1,256.63,159.46Zm-30-14.86c3.91-4.94,10.88-4.18,15.16-.26a26.31,26.31,0,0,1,3.91,4.58c1.26,1.85,5.72,6.67,7.9,9a42.41,42.41,0,0,0-10.78,12c-8.66-8.67-14.87-10.72-15.67-11-4.35-1.6-8.4,1-11.42,4.07A68.65,68.65,0,0,1,226.66,144.6Zm-13.34,26.73c.86-1.5,7-11.75,12.85-9.55l.13,0c.07,0,6.27,1.84,15.08,10.88a29,29,0,0,0-2.78,13.43c0,.08,0,.22,0,.41a22.5,22.5,0,0,0-18.25-4.73c-3.69.44-6.2,3.76-7.76,6.81A51.86,51.86,0,0,1,213.32,171.33Zm1.11,26c-.31-1-.58-2.08-.83-3.13a27,27,0,0,1,1.82-4.53c1.23-2.34,2.79-4.4,5.5-4.91A19.57,19.57,0,0,1,239,191.17a27.07,27.07,0,0,0,2.88,8.24,18.62,18.62,0,0,0-8.79.7,27.54,27.54,0,0,0-6.53,3c-3.37,2.1-4.53,5.92-4.87,9a53.18,53.18,0,0,1-7.22-14.72S214.44,197.36,214.43,197.35Z"/></svg>