<svg id="Capa_1" data-name="Capa 1" xmlns="http://www.w3.org/2000/svg" viewBox="0 0 512 512"><defs><style>.cls-1{fill:#fff;}</style></defs><path class="cls-1" d="M256,65.7C151.07,65.7,65.7,151.07,65.7,256S151.07,446.3,256,446.3,446.3,360.93,446.3,256,360.93,65.7,256,65.7Zm0,373.38C155.05,439.08,72.92,357,72.92,256S155.05,72.92,256,72.92,439.08,155.05,439.08,256,357,439.08,256,439.08Z"/><path class="cls-1" d="M337.58,264.16l.34-18.83,10.23-12.2a2.42,2.42,0,0,0,.11-3l-3.59-4.95a2.42,2.42,0,0,0-1.95-1h-8.47c1.77-2.42,3-4.06,3.05-4.15a26.92,26.92,0,0,0-19.45-43.59v0l-3.61-.08v.12A26.9,26.9,0,0,0,291,212.88l-8.5-2.23-16-1L265,204.32l-1.7-9.94a2.3,2.3,0,0,0-.28-.81l-5.73-9.86-1.32-14.91,3-13.37,15.14-11.31,11-5.93a2.4,2.4,0,0,0,1.25-2.44l-.84-6.11a2.4,2.4,0,0,0-.67-1.37l-4.13-4.18a2.4,2.4,0,0,0-1.71-.72H272.9a2.39,2.39,0,0,0-1.45.49l-10.26,7.78-10.34,6.59-8.38,4.61-13.57,3.63L216,151.62a2.47,2.47,0,0,0-1.16,1c-2.4,3.93-5.19,8.36-5.82,9.17a2.37,2.37,0,0,0-.61,1l-1.08,3.5a44.08,44.08,0,0,0-54.5,42.84,43.58,43.58,0,0,0,9.52,27.36l23.46,32-2.17,5.16-3.1,2.41h-.08v.06l-3.6,2.8v-2.86h-3.61v3.61h2.64l-7.78,6L162.35,292a2.38,2.38,0,0,0-.6,1.23l-1.38,8.25a2.42,2.42,0,0,0,.86,2.26l15.24,12.38a2.47,2.47,0,0,0,1.22.52L212.21,321c9.5,6.79,19.94,14.41,21.64,15.92,1,1.5,3.89,4.33,11.49,11.45l13.88,9.28a2.47,2.47,0,0,0,1.48.4l28.14-1.71,5.43,2.55-5.37,13.25-6.79,14.09a2.4,2.4,0,0,0,2.6,3.41l11.18-2,7,5.83a2.39,2.39,0,0,0,1.54.56,2.53,2.53,0,0,0,.77-.12,2.43,2.43,0,0,0,1.58-1.75l6.18-27,4.39-11.94a2.46,2.46,0,0,0-.14-2L305.54,329.6l.95-4.83L313.3,314a2.41,2.41,0,0,0,0-2.51l-4.9-8.29,12.33-2.57,20.54-1.15a2.39,2.39,0,0,0,1-.28l5.13-2.76a2.41,2.41,0,0,0,1.26-2.12v-8.42a2.47,2.47,0,0,0-.27-1.13ZM316.21,180a23.33,23.33,0,0,1,23.3,23.31,23,23,0,0,1-5,14.48l.19.15c-1.6,1.77-5.68,7.33-18.45,24.75L298,217.88l0,0a23,23,0,0,1-5.05-14.48A23.34,23.34,0,0,1,316.21,180Zm-150,53.56-.06-.08a38.86,38.86,0,0,1-8.51-24.4,39.28,39.28,0,1,1,78.55,0,38.85,38.85,0,0,1-8.5,24.4l.27.22c-2.37,2.66-9,11.61-31,41.75ZM343.9,292.86l-3.39,1.83-20.36,1.16-16,3.3a2.41,2.41,0,0,0-1.59,3.59l5.87,9.91-6.27,9.93a2.64,2.64,0,0,0-.32.82l-1.21,6.11a2.41,2.41,0,0,0,.25,1.6l11.52,21.48-4.1,11.21-5.39,23.45-4.82-4a2.28,2.28,0,0,0-2-.52l-7.64,1.38,4.8-10,6.28-15.51a2.41,2.41,0,0,0-1.2-3.08l-8.05-3.78a2.62,2.62,0,0,0-1.17-.22l-27.94,1.7-12.9-8.59c-4.47-4.21-9.47-9.06-10.35-10.16-1.17-1.77-6.06-5.29-23.46-17.72a2.36,2.36,0,0,0-1.09-.43L179,311.93l-13.61-11.05,1-6.17,5-5.47,15.74-12.17a2.45,2.45,0,0,0,.74-1l1.3-3.09,5.85,8a2.4,2.4,0,0,0,1.94,1,2.43,2.43,0,0,0,1.94-1s32.17-43.89,32.6-44.46a43.62,43.62,0,0,0,9.55-27.4,44.17,44.17,0,0,0-29.07-41.45l.93-3c.75-1,2.23-3.24,5.66-8.83L230.41,151,244,147.42a3.07,3.07,0,0,0,.54-.22l8.77-4.83,10.63-6.78,9.78-7.41h4.23l2.86,2.9.5,3.67-9.81,5.32-16.15,12a2.37,2.37,0,0,0-.91,1.4l-3.28,14.62a2.57,2.57,0,0,0-.05.73l1.4,15.82a2.31,2.31,0,0,0,.32,1l5.77,10,1.68,9.78,2.1,7.24a2.41,2.41,0,0,0,2.17,1.73l17.23,1,12.31,3.27c.33.47.66.94,1,1.4l19.65,26.8a1.8,1.8,0,0,0,2.91,0L330.72,229h10.77l1.77,2.44-9.57,11.41a2.37,2.37,0,0,0-.57,1.5l-.37,20.3a2.49,2.49,0,0,0,.28,1.17l10.87,20.61Z"/><path class="cls-1" d="M316.82,219.72a15.49,15.49,0,1,0-15.49-15.48A15.5,15.5,0,0,0,316.82,219.72Zm0-27.36a11.88,11.88,0,1,1-11.88,11.88A11.89,11.89,0,0,1,316.82,192.36Z"/><path class="cls-1" d="M266,301.52a14.87,14.87,0,0,0-11.67,24.09l10.22,13.93a1.8,1.8,0,0,0,2.91,0l10.2-13.91a14.73,14.73,0,0,0,3.22-9.24A14.89,14.89,0,0,0,266,301.52Zm9,22c-1.09,1.21-3.34,4.25-9,11.92l-8.78-12,0-.06a11.27,11.27,0,1,1,17.65,0Z"/><path class="cls-1" d="M266.3,309.55a7.12,7.12,0,1,0,7.12,7.12A7.12,7.12,0,0,0,266.3,309.55Zm-.72,2.18a3.46,3.46,0,0,1,.49-.06,3.94,3.94,0,0,1,.47,0,4.35,4.35,0,0,1,.5,0,3.46,3.46,0,0,1,.49.06,3.47,3.47,0,0,1,.06.45c0,.14,0,.29,0,.44s0,.3,0,.45a3.47,3.47,0,0,1-.06.45,3.5,3.5,0,0,1-.48.06h-1a3.46,3.46,0,0,1-.49-.06,5.47,5.47,0,0,1-.08-.9A5.65,5.65,0,0,1,265.58,311.73Zm2.14,9.89a5.45,5.45,0,0,1-1.86,0v-5.48H265l-.06-.37c0-.13,0-.25,0-.37a3.36,3.36,0,0,1,.08-.71h2.76Z"/><path class="cls-1" d="M222.45,210.76a24.52,24.52,0,1,0-24.52,24.52A24.55,24.55,0,0,0,222.45,210.76Zm-45.43,0a20.91,20.91,0,1,1,20.91,20.91A20.93,20.93,0,0,1,177,210.76Z"/><path class="cls-1" d="M196.37,203.33l1.16,0,1.18,0a8.54,8.54,0,0,0,1.17-.13,10.12,10.12,0,0,0,.13-1.09c0-.36,0-.72,0-1.06s0-.73,0-1.08a10.57,10.57,0,0,0-.13-1.08c-.37-.06-.76-.11-1.19-.14s-.83-.05-1.19-.05-.72,0-1.14.05-.81.08-1.18.14a13.73,13.73,0,0,0-.19,2.16,13.21,13.21,0,0,0,.19,2.15A8.5,8.5,0,0,0,196.37,203.33Z"/><path class="cls-1" d="M198.08,222.82a13.49,13.49,0,0,0,2.25-.19V206H193.7a8.15,8.15,0,0,0-.19,1.71,6.87,6.87,0,0,0,.05.88,7.37,7.37,0,0,0,.14.88h2.16v13.16A13.32,13.32,0,0,0,198.08,222.82Z"/><path class="cls-1" d="M316.24,199.72l.7,0,.72,0a5.13,5.13,0,0,0,.71-.08c0-.22.06-.44.08-.66s0-.44,0-.65,0-.44,0-.65,0-.43-.08-.65c-.22,0-.47-.07-.72-.09l-.73,0-.69,0c-.26,0-.49.05-.72.09a8.55,8.55,0,0,0-.11,1.3,8.37,8.37,0,0,0,.11,1.31A5.43,5.43,0,0,0,316.24,199.72Z"/><path class="cls-1" d="M314.61,203.45h1.31v8a7.77,7.77,0,0,0,2.72,0V201.34h-4a4.94,4.94,0,0,0-.08,1.58C314.55,203.11,314.58,203.29,314.61,203.45Z"/><rect class="cls-1" x="174.42" y="363.35" width="26.88" height="3.77"/><rect class="cls-1" x="183.08" y="369.79" width="18.23" height="3.77"/><rect class="cls-1" x="182.27" y="376.23" width="19.04" height="3.77"/><rect class="cls-1" x="171.72" y="376.23" width="8.35" height="3.77"/><path class="cls-1" d="M207,380h27V363.35H207Zm4.16-12.49h18.72v8.33H211.14Z"/><path class="cls-1" d="M238.94,380h27V363.35h-27Zm4.16-12.49h18.72v8.33H243.1Z"/><rect class="cls-1" x="144.43" y="276.06" width="3.6" height="3.61"/><rect class="cls-1" x="158.84" y="276.06" width="3.6" height="3.61"/><rect class="cls-1" x="151.64" y="276.06" width="3.6" height="3.61"/><rect class="cls-1" x="166.05" y="276.06" width="3.6" height="3.61"/><polygon class="cls-1" points="137.19 279.64 140.8 279.7 140.83 276.06 137.25 276.06 137.19 279.64"/><rect class="cls-1" x="136.56" y="319.02" width="3.58" height="3.61" transform="translate(-184.6 454.15) rotate(-89.1)"/><rect class="cls-1" x="136.68" y="311.87" width="3.58" height="3.61" transform="translate(-177.33 447.22) rotate(-89.1)"/><rect class="cls-1" x="136.34" y="333.34" width="3.58" height="3.61" transform="translate(-199.13 468.02) rotate(-89.1)"/><rect class="cls-1" x="136.45" y="326.18" width="3.58" height="3.61" transform="translate(-191.87 461.09) rotate(-89.1)"/><rect class="cls-1" x="135.89" y="361.98" width="3.58" height="3.61" transform="translate(-228.21 495.76) rotate(-89.1)"/><rect class="cls-1" x="135.78" y="369.13" width="3.58" height="3.61" transform="translate(-235.48 502.7) rotate(-89.1)"/><rect class="cls-1" x="136.11" y="347.66" width="3.58" height="3.61" transform="translate(-213.67 481.89) rotate(-89.1)"/><rect class="cls-1" x="136" y="354.82" width="3.58" height="3.61" transform="translate(-220.94 488.82) rotate(-89.1)"/><rect class="cls-1" x="136.23" y="340.5" width="3.58" height="3.61" transform="translate(-206.4 474.96) rotate(-89.1)"/><rect class="cls-1" x="137.12" y="283.23" width="3.58" height="3.61" transform="translate(-148.26 419.48) rotate(-89.1)"/><rect class="cls-1" x="136.79" y="304.71" width="3.58" height="3.61" transform="translate(-170.06 440.29) rotate(-89.1)"/><rect class="cls-1" x="137.01" y="290.39" width="3.58" height="3.61" transform="translate(-155.53 426.42) rotate(-89.1)"/><rect class="cls-1" x="136.9" y="297.55" width="3.58" height="3.61" transform="translate(-162.8 433.35) rotate(-89.1)"/><polygon class="cls-1" points="135.62 379.92 139.26 379.92 139.29 376.34 135.68 376.28 135.62 379.92"/><rect class="cls-1" x="142.87" y="376.31" width="3.61" height="3.61"/><rect class="cls-1" x="164.56" y="376.31" width="3.61" height="3.61"/><rect class="cls-1" x="157.33" y="376.31" width="3.61" height="3.61"/><rect class="cls-1" x="150.1" y="376.31" width="3.61" height="3.61"/><rect class="cls-1" x="344.5" y="132.14" width="1.8" height="3.61"/><rect class="cls-1" x="329.8" y="132.14" width="3.68" height="3.61"/><rect class="cls-1" x="322.45" y="132.14" width="3.68" height="3.61"/><rect class="cls-1" x="337.15" y="132.14" width="3.68" height="3.61"/><polygon class="cls-1" points="318.77 132.14 315.2 132.14 315.12 135.71 318.73 135.79 318.77 132.14"/><rect class="cls-1" x="314.48" y="161.68" width="3.7" height="3.61" transform="translate(145.89 476.12) rotate(-88.73)"/><rect class="cls-1" x="314.96" y="139.49" width="3.7" height="3.61" transform="translate(168.54 454.9) rotate(-88.73)"/><rect class="cls-1" x="314.32" y="169.07" width="3.7" height="3.61" transform="translate(138.34 483.19) rotate(-88.73)"/><rect class="cls-1" x="314.64" y="154.28" width="3.7" height="3.61" transform="translate(153.43 469.04) rotate(-88.73)"/><rect class="cls-1" x="314.8" y="146.89" width="3.7" height="3.61" transform="translate(160.99 461.97) rotate(-88.73)"/><path class="cls-1" d="M351.84,147.56h27V130.92h-27ZM356,135.08h18.72v8.32H356Z"/></svg>