<svg id="Capa_1" data-name="Capa 1" xmlns="http://www.w3.org/2000/svg" viewBox="0 0 512 512"><defs><style>.cls-1{fill:#fff;}</style></defs><path class="cls-1" d="M256,65.7C151.07,65.7,65.7,151.07,65.7,256S151.07,446.3,256,446.3,446.3,360.93,446.3,256,360.93,65.7,256,65.7Zm0,373.38C155.05,439.08,72.92,357,72.92,256S155.05,72.92,256,72.92,439.08,155.05,439.08,256,357,439.08,256,439.08Z"/><path class="cls-1" d="M347.43,125.61H177.32c-7.39,0-13.13,2.07-17.07,6.15A19.85,19.85,0,0,0,155,145.1V363.18c0,6.74,2.1,12.08,6.23,15.85,5.74,5.25,13.76,5.88,17.2,5.88h.5a2.37,2.37,0,0,0,1.68.69,2.42,2.42,0,0,0,1.74-.74H347.43a2.4,2.4,0,0,0,2.4-2.41V128A2.4,2.4,0,0,0,347.43,125.61ZM178.18,380.09c-3,0-9.36-.61-13.73-4.61-3.1-2.82-4.67-7-4.67-12.3V161.77a20.72,20.72,0,0,0,1.92,2.16c6.13,5.85,14.36,6.29,16.48,6.3ZM345,380H313.68a21.85,21.85,0,0,1-3.07-6.7,17.09,17.09,0,0,1,12.19-20.88,13.18,13.18,0,0,1,16.08,9.38,10.06,10.06,0,0,1-7.15,12.26,7.54,7.54,0,0,1-9.19-5.36,5.54,5.54,0,0,1,3.93-6.73,3.93,3.93,0,0,1,4.77,2.77l4.89-1.28a9,9,0,0,0-10.95-6.38,10.58,10.58,0,0,0-7.52,12.9A12.58,12.58,0,0,0,333,379a15.09,15.09,0,0,0,10.74-18.42,18.23,18.23,0,0,0-22.25-13,22.14,22.14,0,0,0-15.79,27.06,27,27,0,0,0,2.11,5.42H280.45c-3-22.57,11.24-45.09,33.36-50.9A35.51,35.51,0,0,1,345,335.63Zm0-50.61c-.5-.33-1-.64-1.52-.94a40.53,40.53,0,0,0-31-4.23,49.84,49.84,0,0,0-30.74,23.88A51.45,51.45,0,0,0,275.35,380h-4.62a51.56,51.56,0,0,1-.7-8.43A53.92,53.92,0,0,1,324.13,318,53.28,53.28,0,0,1,345,322.34Zm0-12.5a58.27,58.27,0,0,0-20.86-4A59,59,0,0,0,265,371.58a56.76,56.76,0,0,0,.64,8.46h-4.75a63,63,0,0,1-.59-8.47A63.55,63.55,0,0,1,345,311.88Zm0-10.35a68,68,0,0,0-20.82-3.38A68.28,68.28,0,0,0,255.76,380h-4.2a72.42,72.42,0,0,1,72.67-81A72.15,72.15,0,0,1,345,302.21Zm0-9.66A77.55,77.55,0,0,0,246.48,380H183V170.22h16.67v60.65a1.81,1.81,0,0,0,3.09,1.27l25.76-26,24.54,26a1.77,1.77,0,0,0,1.31.56,1.88,1.88,0,0,0,.66-.12,1.81,1.81,0,0,0,1.14-1.68V170.22H345ZM252.55,170.22v56.11l-22.7-24a1.8,1.8,0,0,0-1.29-.57,2.07,2.07,0,0,0-1.3.54l-24,24.21V170.22Zm-47.77-4.81,7-13.18h48.81l-7,13.18ZM345,139.64H277.58a1.81,1.81,0,0,0,0,3.61H345v9.58H323.65a1.81,1.81,0,1,0,0,3.61H345v9H257.67l7.48-14.15a1.78,1.78,0,0,0,0-1.77,1.81,1.81,0,0,0-1.55-.87H210.67a1.79,1.79,0,0,0-1.6,1l-8.37,15.83H178.59c-.08,0-8.06.29-13.56-5-3.48-3.33-5.25-8.25-5.25-14.61V145a15.18,15.18,0,0,1,4-10c3-3.07,7.56-4.63,13.57-4.63H345Z"/></svg>