<svg id="Capa_1" data-name="Capa 1" xmlns="http://www.w3.org/2000/svg" viewBox="0 0 512 512"><defs><style>.cls-1{fill:#fff;}</style></defs><path class="cls-1" d="M256,65.7C151.07,65.7,65.7,151.07,65.7,256S151.07,446.3,256,446.3,446.3,360.93,446.3,256,360.93,65.7,256,65.7Zm0,373.38C155.05,439.08,72.92,357,72.92,256S155.05,72.92,256,72.92,439.08,155.05,439.08,256,357,439.08,256,439.08Z"/><path class="cls-1" d="M326,297.9H275.62a26.84,26.84,0,0,0-3.89-5.55l-.3-1.34-.83.17A27.06,27.06,0,0,0,260,284.84a81.27,81.27,0,0,0-6.07-162.15,2.42,2.42,0,0,0-1.63-.64,81.87,81.87,0,0,0-9.71,163.17,27,27,0,0,0-9.5,6l-.8-.17-.28,1.3a26.84,26.84,0,0,0-3.89,5.55H194a7.61,7.61,0,0,0-7.6,7.59v11.86a7.52,7.52,0,0,0,1.14,4H173.33a1.81,1.81,0,0,0-1.81,1.81v32.31a1.81,1.81,0,0,0,1.81,1.8h2.81a7.58,7.58,0,0,0-1.16,4v20.44a7.65,7.65,0,0,0,7.64,7.64H321.13a7.64,7.64,0,0,0,7.63-7.64V361.27a7.65,7.65,0,0,0-5.28-7.26V324.94H326a7.6,7.6,0,0,0,7.6-7.59V305.49A7.61,7.61,0,0,0,326,297.9Zm-71.27-156,1.08.05L254.72,143Zm0,6.24,5.74-5.75c1.2.16,2.39.35,3.56.57l-9.3,9.31Zm0,9.23,13.47-13.46c1.07.28,2.13.6,3.19.94l-16.66,16.66Zm0,9.24,20.41-20.41c1,.39,1.94.8,2.89,1.24l-20,20q-1.65-.26-3.33-.36ZM289.13,201a33.89,33.89,0,0,0-.47-3.66l19.82-19.82c.44.94.86,1.9,1.26,2.87Zm22-16.89c.35,1,.67,2.09,1,3.16l-23.49,23.49a36.66,36.66,0,0,0,.58-4.72Zm-23.46,9.11a31.47,31.47,0,0,0-1.08-3l18.65-18.65c.53.86,1,1.73,1.52,2.61ZM285,186.69q-.72-1.33-1.53-2.61l18-18c.6.78,1.19,1.58,1.75,2.38Zm-3.65-5.59c-.61-.77-1.24-1.52-1.9-2.23l17.76-17.76c.67.7,1.33,1.42,2,2.16Zm-4.48-4.76c-.73-.65-1.49-1.28-2.27-1.87l17.86-17.85q1.11.94,2.19,1.95Zm-5.3-3.94c-.86-.53-1.75-1-2.66-1.47l18.31-18.31c.82.55,1.62,1.13,2.41,1.72Zm-6.2-3c-1-.38-2.06-.72-3.12-1l19.22-19.22q1.33.72,2.64,1.5ZM254.72,187.2a16.9,16.9,0,0,1,0,33.46Zm0,37.11a20.52,20.52,0,0,0,0-40.76V170.69a33.38,33.38,0,0,1,30.93,33.24c0,.21,0,.41,0,.62a1.8,1.8,0,0,0-.1,2,33.36,33.36,0,0,1-30.81,30.61Zm0,16.48a36,36,0,0,0,4.43-.56l-4.43,4.43Zm0,9,11.69-11.69a37.16,37.16,0,0,0,20-20.05l26.65-26.66c.24,1.16.44,2.34.61,3.52l-59,59Zm0,9.23,59.49-59.49c.1,1.31.16,2.64.17,4l-59.66,59.66Zm19.68,2.93a60.53,60.53,0,0,1-6.11,2l44-44a60.48,60.48,0,0,1-2,6.11Zm31.05-26a62.51,62.51,0,0,1-21.09,21.1Zm-43.64,29.3c-1.53.24-3.08.4-4.65.52l57-57c-.12,1.57-.28,3.12-.52,4.66Zm-7.09,4.28a65.54,65.54,0,0,0,8.1-.79,2,2,0,0,0,.34-.06,65.81,65.81,0,0,0,12.53-3.4,2,2,0,0,0,.61-.25,66,66,0,0,0,37.14-37.13,1.9,1.9,0,0,0,.24-.62,64.78,64.78,0,0,0,3.4-12.52,1.59,1.59,0,0,0,.07-.38,65.83,65.83,0,0,0,.84-10.09v-.16c0-.08,0-.15,0-.23a66.1,66.1,0,0,0-.55-8.37,1.66,1.66,0,0,0-.07-.49,65.24,65.24,0,0,0-1.47-7.59,1.56,1.56,0,0,0-.1-.37,64.35,64.35,0,0,0-2.16-6.64,1.77,1.77,0,0,0-.24-.61c-.8-2-1.7-4-2.69-5.92a1.69,1.69,0,0,0-.3-.58q-1.46-2.78-3.17-5.37a1.62,1.62,0,0,0-.38-.59,61.05,61.05,0,0,0-3.66-4.93,1.69,1.69,0,0,0-.29-.41l-.11-.09c-1.3-1.56-2.67-3.07-4.11-4.51a2.11,2.11,0,0,0-.19-.23,2.34,2.34,0,0,0-.31-.24,65.91,65.91,0,0,0-16-11.52,1.73,1.73,0,0,0-.56-.28,61.39,61.39,0,0,0-6.09-2.68,1.54,1.54,0,0,0-.42-.17,65.74,65.74,0,0,0-6.86-2.13,1.58,1.58,0,0,0-.42-.09,63.75,63.75,0,0,0-7.61-1.38,1.61,1.61,0,0,0-.44-.06c-1.68-.19-3.38-.31-5.09-.38v-12a77.66,77.66,0,0,1,0,155.24ZM249.9,126.9v18.85l-4.24-3.26-20.78.52-5.32,2.16-2.75-2.62-6.42-.37-4.2.34-.32,0A76.65,76.65,0,0,1,249.9,126.9Zm-35.39,81.23H230.4l4.93,4.44,5.45,6.53,5.91,4.84h1.49l1.72.23V238h-.45l-2.69,2.36-4.39,11.3-8.78,8.19v9.44l-.67.52L228.15,264l-1.86-3.27,0-19.29-1.16-4.81-10.79-8.25-2.25-4-.25-7.22,3.18-8.46Zm33.91,12.2H248l-4.67-3.78-5.37-6.47-6.15-5.56H213c-.78-.5-2.87-2.13-4.55-3.52l-.38-.31-5.19-.86L202,198l2.39-3.82,4.18-1.47,2.51.38.59,3,5.63,0,.51-.93c.5-.9.21-1.77-.73-3.33l.4-3.62,20.75-20.44,4.68-.47,5.17-3-1.2-6.6-5.24-4.64.5-1.14,7.8-3.09v71.66ZM202,145.63l4.12.48,4.31-.33,4.86.3,3.53,3.36,6.52-2.83,19.15-.48.87.67-6,2.35-2.11,4.93,6.25,5.54.53,2.93-1.95,1.2-5.53.56L214,186.54l-.36,3.29-5.45-.84-6.22,2.2-4.11,6.58,1.31,2.71-5-.64L190.62,197l-3.52-4.66-6.73-2.37-2.94-4.2A77.11,77.11,0,0,1,202,145.63Zm-26.74,58.3a77.23,77.23,0,0,1,1.18-13.34l1.65,2.36,6.81,2.39,3.15,4.09,4.62,3.86,9.62,1.21,5.57,1.43,3,3.48-2.68,7.13.28,8.37,2.89,5.55,10.55,8.25.8,3.14v19.83l2.5,4.34,7.19,8.81L237.2,271v-9.61l7.94-7.41,4.35-11.24.41-.36V281A77.16,77.16,0,0,1,175.24,203.93Zm76.63,83.22a23.37,23.37,0,0,1,19.58,10.75H232.29A23.35,23.35,0,0,1,251.87,287.15Zm-76.74,66.49v-28.7H198v28.7H175.13Zm150,7.63v20.44a4,4,0,0,1-4,4H234.69V372.67a1.81,1.81,0,0,0-3.61,0v13.07h-7.57V372.67a1.81,1.81,0,0,0-3.61,0v13.07h-7.57V372.67a1.81,1.81,0,0,0-3.61,0v13.07h-26.1a4,4,0,0,1-4-4V361.27a4,4,0,0,1,4-4H286.87v15.42a1.81,1.81,0,0,0,1.8,1.81,1.84,1.84,0,0,0,1-.32l8-5.53,7,5.47a1.81,1.81,0,0,0,2.91-1.43V357.25h13.47A4,4,0,0,1,325.15,361.27ZM201.6,353.64v-28.7h40.22v28.7Zm43.83,0v-28.7h41.44v28.7Zm45.05,15.59V324.94h13.57v44l-5.17-4a1.8,1.8,0,0,0-2.14-.07Zm17.18-15.59v-28.7h12.21v28.7ZM330,317.35a4,4,0,0,1-4,4H194a4,4,0,0,1-4-4V305.49a4,4,0,0,1,4-4h8.68v15.28h3.61V301.51H313.69v15.28h3.61V301.51H326a4,4,0,0,1,4,4Z"/><path class="cls-1" d="M233.31,331.35a2.4,2.4,0,0,0-2.41,2.4v11.08a2.41,2.41,0,1,0,4.81,0V333.75A2.39,2.39,0,0,0,233.31,331.35Z"/><path class="cls-1" d="M169.61,241l-3.28,1.53c.51,1.09,1,2.16,1.6,3.23l3.2-1.67C170.61,243.07,170.09,242,169.61,241Z"/><path class="cls-1" d="M166.9,234.63l-3.37,1.29c.42,1.12.87,2.23,1.34,3.33l3.32-1.41Q167.52,236.25,166.9,234.63Z"/><path class="cls-1" d="M164.7,228.09l-3.47,1q.51,1.72,1.08,3.42l3.43-1.15C165.37,230.29,165,229.2,164.7,228.09Z"/><path class="cls-1" d="M172.78,247.13l-3.14,1.78q.88,1.56,1.83,3.09l3.07-1.9C173.94,249.12,173.35,248.13,172.78,247.13Z"/><path class="cls-1" d="M192.45,271.07q-1.32-1.12-2.58-2.31l-2.47,2.64c.88.82,1.77,1.62,2.68,2.4Z"/><path class="cls-1" d="M177.67,260.82q1.11,1.41,2.28,2.79l2.74-2.35c-.74-.87-1.48-1.77-2.19-2.67Z"/><path class="cls-1" d="M173.43,255c.67,1,1.36,2,2.06,2.94l2.92-2.13c-.68-.93-1.34-1.87-2-2.83Z"/><path class="cls-1" d="M187.38,266.35c-.81-.82-1.61-1.65-2.39-2.5l-2.66,2.45c.82.88,1.65,1.75,2.49,2.6Z"/><path class="cls-1" d="M163,221.38l-3.53.75c.25,1.18.52,2.35.82,3.51l3.49-.89C163.5,223.64,163.24,222.51,163,221.38Z"/><path class="cls-1" d="M212.68,284.31l-1.56,3.26c1.08.52,2.17,1,3.28,1.49l1.43-3.31C214.77,285.29,213.71,284.81,212.68,284.31Z"/><path class="cls-1" d="M200.67,277.41l-2,3c1,.67,2,1.33,3,2l1.92-3.05C202.59,278.69,201.63,278.06,200.67,277.41Z"/><path class="cls-1" d="M219,287.06l-1.31,3.37q1.68.65,3.39,1.23l1.17-3.41C221.2,287.88,220.11,287.48,219,287.06Z"/><path class="cls-1" d="M197.85,275.4c-.93-.69-1.84-1.39-2.74-2.11l-2.26,2.82c.94.75,1.89,1.48,2.85,2.2Z"/><path class="cls-1" d="M206.54,281.09l-1.8,3.13q1.56.9,3.15,1.74l1.69-3.2C208.55,282.22,207.54,281.67,206.54,281.09Z"/><path class="cls-1" d="M225.59,289.31l-1,3.46c1.15.35,2.3.67,3.47,1l.9-3.49C227.81,290,226.7,289.65,225.59,289.31Z"/><path class="cls-1" d="M161.82,214.56l-3.58.49c.16,1.19.34,2.37.54,3.55l3.56-.61C162.14,216.85,162,215.71,161.82,214.56Z"/><path class="cls-1" d="M161.16,207.67l-3.6.21c.07,1.2.16,2.4.27,3.59l3.6-.34C161.31,210,161.23,208.83,161.16,207.67Z"/><polygon class="cls-1" points="161.01 202.39 157.4 202.39 157.42 204.23 161.03 204.16 161.01 202.39"/><polygon class="cls-1" points="342.5 204.16 346.11 204.23 346.13 202.39 342.52 202.39 342.5 204.16"/><path class="cls-1" d="M342.11,211.06l3.59.34c.12-1.19.2-2.38.27-3.58l-3.6-.21C342.3,208.77,342.22,209.92,342.11,211.06Z"/><path class="cls-1" d="M341.2,217.9l3.55.62c.21-1.17.39-2.36.54-3.55l-3.57-.48C341.56,215.64,341.39,216.77,341.2,217.9Z"/><path class="cls-1" d="M305.75,275.35l2.15,2.89q1.44-1.07,2.85-2.19l-2.26-2.82C307.59,274,306.68,274.66,305.75,275.35Z"/><path class="cls-1" d="M339.76,224.67l3.5.88c.29-1.16.56-2.33.81-3.5l-3.53-.75C340.3,222.43,340,223.55,339.76,224.67Z"/><path class="cls-1" d="M313.51,273.75q1.35-1.17,2.67-2.4l-2.47-2.64c-.84.79-1.7,1.56-2.57,2.31Z"/><path class="cls-1" d="M295.76,285.88c1.06-.55,2.11-1.13,3.15-1.73L297.1,281c-1,.58-2,1.14-3,1.67Z"/><path class="cls-1" d="M302,282.3c1-.64,2-1.3,3-2l-2-3q-1.43,1-2.88,1.89Z"/><path class="cls-1" d="M325.89,260.78l-2.83-2.23q-1.08,1.35-2.19,2.67l2.74,2.34C324.39,262.65,325.15,261.72,325.89,260.78Z"/><path class="cls-1" d="M316.19,266.31l2.56,2.54c.85-.85,1.67-1.72,2.49-2.6l-2.67-2.45C317.8,264.65,317,265.49,316.19,266.31Z"/><path class="cls-1" d="M330.13,255l-3-2c-.64,1-1.3,1.9-2,2.83l2.91,2.13Q329.13,256.46,330.13,255Z"/><path class="cls-1" d="M289.3,289c1.1-.48,2.19-1,3.26-1.49L291,284.25c-1,.49-2.08,1-3.14,1.43Z"/><path class="cls-1" d="M332.42,244l3.21,1.66c.55-1.07,1.08-2.14,1.59-3.23L334,240.94C333.46,242,333,243,332.42,244Z"/><path class="cls-1" d="M335.35,237.78l3.33,1.41c.47-1.1.91-2.22,1.34-3.34l-3.37-1.28C336.23,235.65,335.8,236.72,335.35,237.78Z"/><path class="cls-1" d="M337.81,231.3l3.43,1.16c.38-1.14.74-2.28,1.08-3.44l-3.47-1C338.53,229.11,338.18,230.21,337.81,231.3Z"/><path class="cls-1" d="M329,250.05l3.07,1.9c.63-1,1.24-2,1.83-3.09l-3.14-1.78C330.2,248.08,329.61,249.07,329,250.05Z"/><path class="cls-1" d="M282.62,291.59c1.13-.39,2.26-.8,3.37-1.24L284.68,287c-1.07.42-2.15.81-3.24,1.19Z"/><path class="cls-1" d="M275.76,293.68c1.16-.31,2.31-.63,3.45-1l-1-3.46c-1.1.34-2.2.65-3.32.94Z"/></svg>