<svg id="Capa_1" data-name="Capa 1" xmlns="http://www.w3.org/2000/svg" viewBox="0 0 512.56 513.64"><defs><style>.cls-1{fill:#fff;}</style></defs><title>phone</title><path class="cls-1" d="M499.66,377,428,305.28c-25.6-25.6-69.12-15.36-79.36,17.92-7.68,23-33.28,35.84-56.32,30.72C241.1,341.12,172,274.56,159.18,220.8c-7.68-23,7.68-48.64,30.72-56.32,33.28-10.24,43.52-53.76,17.92-79.36L136.14,13.44C115.66-4.48,84.94-4.48,67,13.44L18.38,62.08C-30.26,113.28,23.5,249,143.82,369.28s256,176.64,307.2,125.44l48.64-48.64C517.58,425.6,517.58,394.88,499.66,377Z" transform="translate(-0.54 0)"/></svg>