<svg id="Capa_1" data-name="Capa 1" xmlns="http://www.w3.org/2000/svg" width="27" height="27" viewBox="0 0 27 27">
  <defs>
    <style>
      .cls-1 {
        fill: #c9d644;
      }
    </style>
  </defs>
  <path class="cls-1" d="M13.5001.4122a13.0878,13.0878,0,1,0,13.09,13.0909A13.09319,13.09319,0,0,0,13.5001.4122Zm8.8918,21.9782a12.52686,12.52686,0,1,1,2.695-3.9956A12.53409,12.53409,0,0,1,22.3919,22.3904Z"/>
  <g>
    <path class="cls-1" d="M12.15308,6.62061v5.4392H6.71388V7.7554a1.13608,1.13608,0,0,1,1.1348-1.13479h4.3044m.62436-.75H7.84868A1.88479,1.88479,0,0,0,5.96388,7.7554v4.92877a.12564.12564,0,0,0,.12564.12564h6.68792a.12564.12564,0,0,0,.12564-.12564V5.99625a.12564.12564,0,0,0-.12564-.12564Z"/>
    <path class="cls-1" d="M20.28612,14.94019V19.2446a1.13608,1.13608,0,0,1-1.1348,1.13479h-4.3044v-5.4392h5.4392m.62436-.75H14.22256a.12564.12564,0,0,0-.12564.12564v6.68792a.12564.12564,0,0,0,.12564.12564h4.92876a1.88479,1.88479,0,0,0,1.8848-1.88479V14.31583a.12564.12564,0,0,0-.12564-.12564Z"/>
    <path class="cls-1" d="M20.28612,6.62061v5.4392h-5.4392V6.62061h5.4392m.75-.75h-6.9392v6.9392h6.9392V5.87061Z"/>
    <path class="cls-1" d="M12.15308,14.94019v5.4392H6.71388v-5.4392h5.4392m.75-.75H5.96388v6.9392h6.9392v-6.9392Z"/>
  </g>
</svg>
