<?xml version="1.0" encoding="utf-8"?>
<!-- Generator: Adobe Illustrator 25.1.0, SVG Export Plug-In . SVG Version: 6.00 Build 0)  -->
<svg version="1.1" id="Capa_1" xmlns="http://www.w3.org/2000/svg" xmlns:xlink="http://www.w3.org/1999/xlink" x="0px" y="0px"
	 viewBox="0 0 27 27" style="enable-background:new 0 0 27 27;" xml:space="preserve">
<style type="text/css">
	.st0{fill:#667F00;}
</style>
<g>
	<path class="st0" d="M13.5,0.41C6.27,0.41,0.41,6.27,0.41,13.5c0,7.23,5.86,13.09,13.09,13.09c7.23,0,13.08-5.86,13.09-13.08
		C26.59,6.27,20.73,0.41,13.5,0.41C13.5,0.41,13.5,0.41,13.5,0.41z M22.39,22.39c-4.9,4.88-12.83,4.87-17.72-0.03
		C-0.21,17.46-0.2,9.53,4.7,4.65c4.9-4.88,12.83-4.87,17.72,0.03c3.59,3.61,4.65,9.03,2.67,13.72
		C24.46,19.89,23.54,21.25,22.39,22.39z"/>
	<polygon class="st0" points="18.59,9.61 18.37,9.16 16.56,10.04 19.74,3.8 19.29,3.57 15.44,11.14 	"/>
	<polygon class="st0" points="9.22,15.86 9.44,16.31 11.25,15.43 7.26,23.26 7.71,23.48 12.37,14.33 	"/>
	<path class="st0" d="M5.29,12.06L5.29,12.06c0.29,0,0.57-0.04,0.85-0.11c0.27-0.07,0.52-0.19,0.75-0.36
		c0.22-0.17,0.41-0.39,0.53-0.65c0.14-0.3,0.21-0.63,0.2-0.95c0.01-0.36-0.07-0.71-0.23-1.03C7.26,8.73,7.08,8.55,6.87,8.4
		L6.71,8.29C6.48,8.17,6.23,8.08,5.98,8.04c-0.56-0.08-1.14-0.09-1.7-0.03C4.01,8.03,3.76,8.06,3.5,8.11L3.42,8.13V14h1.34v-1.96
		l0.02,0c0.06,0.01,0.13,0.01,0.2,0.01c0.07,0,0.13,0,0.19,0L5.29,12.06z M4.79,11.83c-0.04,0-0.08-0.01-0.12-0.02l-0.13-0.02v1.99
		H3.63V8.31c0.21-0.04,0.43-0.07,0.66-0.09c0.55-0.06,1.1-0.05,1.65,0.03C6.17,8.29,6.39,8.37,6.6,8.48l0.16,0.1
		C6.93,8.71,7.09,8.87,7.2,9.06c0.15,0.28,0.22,0.6,0.21,0.92c0.01,0.3-0.05,0.59-0.18,0.86c-0.11,0.22-0.27,0.42-0.47,0.57
		c-0.2,0.15-0.43,0.26-0.67,0.33c-0.26,0.07-0.52,0.1-0.79,0.1H5.16c-0.06,0-0.12,0-0.19,0C4.91,11.84,4.85,11.83,4.79,11.83
		L4.79,11.83z"/>
	<path class="st0" d="M6.01,10.87c0.13-0.09,0.24-0.21,0.31-0.35c0.08-0.17,0.12-0.36,0.11-0.56c0.01-0.17-0.03-0.35-0.11-0.5
		C6.26,9.34,6.16,9.22,6.03,9.14c-0.12-0.08-0.26-0.14-0.4-0.16C5.38,8.94,5.13,8.93,4.87,8.95c-0.1,0.01-0.19,0.02-0.25,0.03
		L4.54,9v2.03l0.08,0.02c0.04,0.01,0.07,0.02,0.11,0.02c0.05,0,0.09,0.01,0.15,0.01c0.05,0,0.1,0,0.15,0h0.11
		c0.15,0,0.3-0.01,0.45-0.04C5.74,11.01,5.88,10.96,6.01,10.87z M5.13,10.87h-0.1c-0.04,0-0.09,0-0.14,0
		c-0.05,0-0.09-0.01-0.14-0.01h0V9.18c0.04,0,0.09-0.01,0.14-0.01c0.23-0.02,0.47-0.01,0.7,0.03c0.12,0.02,0.23,0.07,0.33,0.13
		c0.09,0.06,0.17,0.15,0.22,0.24c0.06,0.12,0.09,0.26,0.09,0.4c0.01,0.16-0.02,0.32-0.09,0.46C6.08,10.54,6,10.63,5.9,10.69
		c-0.11,0.07-0.23,0.11-0.35,0.14C5.41,10.86,5.27,10.87,5.13,10.87z"/>
	<path class="st0" d="M7.9,9.61c-0.17,0.45-0.25,0.93-0.24,1.42c-0.01,0.47,0.06,0.93,0.2,1.38c0.12,0.36,0.31,0.69,0.56,0.97
		c0.24,0.25,0.53,0.44,0.86,0.56c0.33,0.12,0.68,0.18,1.03,0.18l0.03,0c0.33,0,0.66-0.05,0.97-0.13c0.32-0.08,0.61-0.23,0.86-0.44
		l0.04-0.03v-2.71H9.87v0.88l1.24,0.13v0.93c-0.08,0.05-0.17,0.09-0.26,0.11c-0.13,0.03-0.26,0.05-0.39,0.05
		c-0.19,0-0.37-0.04-0.54-0.11c-0.17-0.07-0.32-0.18-0.44-0.32c-0.14-0.17-0.24-0.37-0.3-0.58c-0.08-0.28-0.12-0.57-0.11-0.86
		c-0.01-0.3,0.03-0.6,0.11-0.88c0.06-0.21,0.17-0.41,0.31-0.58c0.13-0.14,0.29-0.25,0.47-0.32c0.19-0.07,0.39-0.1,0.59-0.1h0.02
		c0.21,0,0.42,0.01,0.63,0.04c0.15,0.03,0.3,0.07,0.44,0.12l0.11,0.04l0.28-1.15l-0.09-0.03c-0.2-0.07-0.4-0.12-0.61-0.16
		c-0.28-0.05-0.56-0.08-0.84-0.08c-0.36,0-0.71,0.05-1.05,0.17C9.11,8.22,8.8,8.4,8.54,8.64C8.26,8.92,8.05,9.24,7.9,9.61z
		 M9.51,8.31c0.31-0.11,0.65-0.16,0.98-0.15c0.27,0,0.53,0.02,0.8,0.07c0.16,0.03,0.33,0.07,0.49,0.12l-0.18,0.73
		C11.47,9.03,11.35,9,11.23,8.98c-0.22-0.04-0.44-0.05-0.66-0.05c-0.23,0-0.46,0.04-0.68,0.11C9.67,9.13,9.48,9.26,9.32,9.43
		c-0.17,0.19-0.29,0.42-0.36,0.66c-0.09,0.31-0.13,0.63-0.12,0.94c-0.01,0.31,0.03,0.62,0.12,0.92c0.07,0.24,0.18,0.46,0.34,0.65
		c0.14,0.17,0.32,0.3,0.52,0.39c0.2,0.08,0.4,0.12,0.62,0.12c0.15,0,0.31-0.02,0.45-0.06c0.14-0.03,0.27-0.09,0.38-0.18l0.04-0.03
		v-1.23l-1.24-0.13v-0.48H12v2.4c-0.22,0.17-0.47,0.3-0.74,0.36c-0.3,0.08-0.61,0.13-0.92,0.13c-0.33,0-0.67-0.05-0.98-0.17
		c-0.29-0.11-0.56-0.28-0.77-0.51c-0.23-0.26-0.41-0.56-0.52-0.89c-0.14-0.42-0.2-0.86-0.19-1.31v0c-0.01-0.46,0.06-0.91,0.23-1.34
		C8.24,9.35,8.44,9.05,8.69,8.8C8.93,8.58,9.21,8.41,9.51,8.31z"/>
	<path class="st0" d="M19.48,17.7l-0.52-1.47l0.02-0.02l-0.04-0.03l-1.52-4.25h-0.83l-2.06,5.77h1.12l0.43-1.27h1.76l0.14,0.4l0,0
		L18,16.85l0.31,0.85L19.48,17.7z M16.37,15.53l0.42-1.27l0.17-0.91H17l0.17,0.9l0.43,1.28H16.37z"/>
	<polygon class="st0" points="14.66,11.79 18.97,3.32 18.53,3.09 14.15,11.67 14.2,11.79 	"/>
	<polygon class="st0" points="13.19,13.58 13.18,13.59 8.03,23.68 8.48,23.91 13.95,13.17 13.84,13.1 	"/>
	<polygon class="st0" points="12.58,12.04 13.32,12.57 13.11,13.46 13.84,12.92 14.62,13.39 14.34,12.53 15.02,11.94 14.11,11.94 
		13.76,11.1 13.49,11.97 	"/>
	<path class="st0" d="M5.03,13.28l0.25,0.01c0-0.08,0.01-0.16,0.01-0.25l-0.25-0.01C5.03,13.11,5.03,13.19,5.03,13.28z"/>
	<path class="st0" d="M5.33,12.55l-0.25-0.03c-0.01,0.08-0.02,0.17-0.03,0.25l0.25,0.02C5.31,12.71,5.32,12.63,5.33,12.55z"/>
	<path class="st0" d="M7.48,19.46c0.06,0.06,0.12,0.12,0.18,0.18l0.17-0.18c-0.06-0.06-0.12-0.12-0.18-0.17L7.48,19.46z"/>
	<path class="st0" d="M8.23,20.14c0.07,0.05,0.13,0.1,0.2,0.16l0.15-0.2c-0.07-0.05-0.13-0.1-0.19-0.15L8.23,20.14z"/>
	<path class="st0" d="M8.03,19.98l0.16-0.19c-0.06-0.05-0.12-0.11-0.19-0.16l-0.17,0.19C7.9,19.87,7.97,19.92,8.03,19.98z"/>
	<path class="st0" d="M6.71,18.15l-0.21,0.14c0.05,0.07,0.1,0.14,0.15,0.21l0.2-0.15C6.81,18.29,6.76,18.22,6.71,18.15z"/>
	<path class="st0" d="M6.21,17.31l-0.22,0.12c0.04,0.08,0.08,0.15,0.12,0.22l0.22-0.12C6.28,17.45,6.24,17.38,6.21,17.31z"/>
	<path class="st0" d="M5.99,16.87l-0.23,0.1c0.03,0.08,0.07,0.15,0.11,0.23l0.23-0.11C6.06,17.02,6.03,16.94,5.99,16.87z"/>
	<path class="st0" d="M6.45,17.74l-0.21,0.13c0.04,0.07,0.09,0.14,0.13,0.21l0.21-0.13C6.53,17.88,6.49,17.81,6.45,17.74z"/>
	<path class="st0" d="M7.2,8.22L7.02,8.05C6.94,8.12,6.86,8.22,6.86,8.22l0,0L6.83,8.25l0.2,0.15C7.03,8.4,7.12,8.3,7.2,8.22z"/>
	<path class="st0" d="M5.64,15.95l-0.24,0.07c0.02,0.08,0.05,0.16,0.08,0.24l0.24-0.08C5.69,16.11,5.67,16.03,5.64,15.95z"/>
	<path class="st0" d="M5.8,16.41L5.57,16.5c0.03,0.08,0.06,0.16,0.09,0.24l0.23-0.1C5.86,16.57,5.83,16.49,5.8,16.41z"/>
	<path class="st0" d="M7.48,19.11c-0.06-0.06-0.11-0.12-0.16-0.18l-0.19,0.16c0.06,0.06,0.11,0.13,0.17,0.19L7.48,19.11z"/>
	<path class="st0" d="M5.34,14.51l-0.25,0.03c0.01,0.08,0.02,0.17,0.03,0.25l0.25-0.04C5.36,14.67,5.35,14.59,5.34,14.51z"/>
	<path class="st0" d="M5.51,15.48l-0.24,0.06c0.02,0.08,0.04,0.16,0.06,0.24l0.24-0.07C5.55,15.63,5.53,15.56,5.51,15.48z"/>
	<path class="st0" d="M5.29,14.02l-0.25,0.02c0.01,0.09,0.01,0.17,0.02,0.25l0.25-0.02C5.3,14.18,5.29,14.1,5.29,14.02z"/>
	<path class="st0" d="M5.41,15l-0.25,0.04c0.02,0.08,0.03,0.17,0.05,0.25l0.24-0.05C5.44,15.16,5.42,15.08,5.41,15z"/>
	<path class="st0" d="M5.27,13.53l-0.25,0c0,0.08,0,0.17,0,0.25l0.25-0.01C5.28,13.69,5.27,13.61,5.27,13.53z"/>
	<path class="st0" d="M7,18.55l-0.2,0.15c0.05,0.07,0.1,0.13,0.16,0.2l0.19-0.16C7.11,18.68,7.05,18.61,7,18.55z"/>
	<path class="st0" d="M19.15,7.52c0.06,0.06,0.12,0.11,0.18,0.17l0.18-0.18c-0.06-0.06-0.12-0.12-0.18-0.18L19.15,7.52z"/>
	<path class="st0" d="M21.58,11.98l0.25-0.04c-0.01-0.08-0.03-0.17-0.05-0.25l-0.24,0.05C21.55,11.82,21.57,11.9,21.58,11.98z"/>
	<path class="st0" d="M21.48,11.5l0.24-0.06c-0.02-0.08-0.04-0.16-0.06-0.25l-0.24,0.07C21.44,11.34,21.46,11.42,21.48,11.5z"/>
	<path class="st0" d="M21.35,11.03l0.24-0.08c-0.03-0.08-0.05-0.16-0.08-0.24l-0.24,0.08C21.3,10.87,21.32,10.95,21.35,11.03z"/>
	<path class="st0" d="M21.19,10.56l0.23-0.09c-0.03-0.08-0.06-0.16-0.09-0.24l-0.23,0.1C21.13,10.41,21.16,10.48,21.19,10.56z"/>
	<path class="st0" d="M18.59,7.04l0.15-0.2c-0.07-0.05-0.13-0.1-0.2-0.15l-0.15,0.2C18.46,6.94,18.53,6.99,18.59,7.04z"/>
	<path class="st0" d="M21.71,12.95l0.25-0.01c0-0.09-0.01-0.17-0.02-0.25l-0.25,0.02C21.7,12.79,21.7,12.87,21.71,12.95z"/>
	<path class="st0" d="M21.66,12.46l0.25-0.03c-0.01-0.08-0.02-0.17-0.04-0.25l-0.25,0.04C21.64,12.3,21.65,12.38,21.66,12.46z"/>
	<path class="st0" d="M19.98,8.43l0.2-0.15c-0.05-0.07-0.11-0.13-0.16-0.2l-0.19,0.16C19.88,8.3,19.93,8.37,19.98,8.43z"/>
	<path class="st0" d="M21,10.11L21.22,10c-0.04-0.08-0.07-0.15-0.11-0.23l-0.22,0.11C20.93,9.96,20.96,10.03,21,10.11z"/>
	<polygon class="st0" points="18.97,7.36 19.14,7.17 18.95,7 18.78,7.2 	"/>
	<path class="st0" d="M19.5,7.87c0.06,0.06,0.11,0.12,0.16,0.18l0.19-0.17c-0.06-0.06-0.11-0.13-0.17-0.19L19.5,7.87z"/>
	<path class="st0" d="M20.27,8.83l0.21-0.14c-0.05-0.07-0.1-0.14-0.15-0.21l-0.2,0.15C20.18,8.69,20.22,8.76,20.27,8.83z"/>
	<path class="st0" d="M20.78,9.67L21,9.55c-0.04-0.07-0.08-0.15-0.12-0.22l-0.22,0.12C20.7,9.52,20.74,9.59,20.78,9.67z"/>
	<path class="st0" d="M20.54,9.24l0.21-0.13c-0.04-0.07-0.09-0.14-0.13-0.21l-0.21,0.14C20.45,9.1,20.5,9.17,20.54,9.24z"/>
	<path class="st0" d="M19.4,19.23l0.18,0.18c0.06-0.06,0.12-0.12,0.17-0.18l-0.18-0.17C19.51,19.11,19.46,19.17,19.4,19.23z"/>
	<polygon class="st0" points="19.73,18.87 19.92,19.03 20.08,18.84 19.89,18.68 	"/>
	<polygon class="st0" points="20.33,18.09 20.54,18.23 20.67,18.02 20.46,17.88 	"/>
	<path class="st0" d="M19.05,19.58l0.17,0.19c0.06-0.06,0.12-0.12,0.19-0.17l-0.17-0.18C19.17,19.46,19.11,19.52,19.05,19.58z"/>
	<path class="st0" d="M20.04,18.49l0.2,0.15c0.05-0.07,0.1-0.13,0.15-0.2l-0.2-0.15C20.14,18.36,20.09,18.42,20.04,18.49z"/>
	<path class="st0" d="M18.28,20.19l0.14,0.2c0.07-0.05,0.14-0.1,0.2-0.15l-0.15-0.2C18.42,20.1,18.35,20.15,18.28,20.19z"/>
	<path class="st0" d="M17.45,20.72l0.12,0.22c0.08-0.04,0.15-0.08,0.22-0.12l-0.13-0.21C17.59,20.64,17.52,20.68,17.45,20.72z"/>
	<path class="st0" d="M18.67,19.9l0.15,0.2c0.07-0.05,0.13-0.11,0.2-0.16l-0.16-0.19C18.8,19.79,18.74,19.84,18.67,19.9z"/>
	<path class="st0" d="M17.88,20.47l0.13,0.21c0.07-0.05,0.14-0.09,0.21-0.14l-0.14-0.21C18.01,20.38,17.95,20.42,17.88,20.47z"/>
	<path class="st0" d="M20.59,17.67l0.22,0.12c0.04-0.07,0.08-0.15,0.12-0.22l-0.22-0.12C20.67,17.53,20.63,17.6,20.59,17.67z"/>
	<path class="st0" d="M21.04,16.79l0.23,0.1c0.03-0.08,0.07-0.16,0.1-0.23l-0.23-0.09C21.11,16.64,21.07,16.72,21.04,16.79z"/>
	<path class="st0" d="M21.61,14.91l0.25,0.04c0.01-0.08,0.03-0.17,0.04-0.25l-0.25-0.04C21.63,14.75,21.62,14.83,21.61,14.91z"/>
	<path class="st0" d="M21.71,13.94l0.25,0.01c0-0.08,0.01-0.17,0.01-0.25l-0.25-0.01C21.72,13.77,21.72,13.85,21.71,13.94z"/>
	<path class="st0" d="M21.67,14.43l0.25,0.03c0.01-0.09,0.02-0.17,0.03-0.25l-0.25-0.02C21.69,14.26,21.68,14.34,21.67,14.43z"/>
	<path class="st0" d="M21.72,13.2c0,0.08,0,0.16,0,0.25h0.25c0-0.09,0-0.17,0-0.25L21.72,13.2z"/>
	<path class="st0" d="M21.22,16.34l0.23,0.09c0.03-0.08,0.06-0.16,0.08-0.24l-0.24-0.08C21.28,16.18,21.25,16.26,21.22,16.34z"/>
	<path class="st0" d="M10.23,21.33c0.08,0.03,0.16,0.06,0.23,0.09l0.09-0.23c-0.08-0.03-0.15-0.06-0.23-0.09L10.23,21.33z"/>
	<path class="st0" d="M17.02,20.94l0.11,0.23c0.08-0.04,0.15-0.07,0.23-0.11l-0.11-0.22C17.16,20.87,17.09,20.91,17.02,20.94z"/>
	<path class="st0" d="M20.83,17.24l0.22,0.11c0.04-0.07,0.08-0.15,0.11-0.23l-0.22-0.11C20.9,17.09,20.87,17.17,20.83,17.24z"/>
	<path class="st0" d="M21.38,15.87l0.24,0.07c0.03-0.08,0.05-0.16,0.07-0.24l-0.24-0.06C21.43,15.71,21.4,15.79,21.38,15.87z"/>
	<path class="st0" d="M21.51,15.39l0.24,0.06c0.02-0.08,0.04-0.16,0.05-0.25l-0.24-0.05C21.54,15.23,21.53,15.31,21.51,15.39z"/>
	<path class="st0" d="M14.67,21.64l0.04,0.25c0.08-0.01,0.17-0.03,0.25-0.04l-0.05-0.25C14.83,21.62,14.75,21.63,14.67,21.64z"/>
	<path class="st0" d="M16.1,21.31l0.08,0.24c0.08-0.03,0.16-0.05,0.24-0.08l-0.09-0.23C16.26,21.25,16.18,21.28,16.1,21.31z"/>
	<path class="st0" d="M14.18,21.7l0.02,0.25c0.08-0.01,0.17-0.02,0.25-0.02l-0.03-0.25C14.35,21.68,14.26,21.69,14.18,21.7z"/>
	<path class="st0" d="M15.16,21.56l0.05,0.24c0.08-0.02,0.16-0.03,0.25-0.05l-0.06-0.24C15.31,21.53,15.24,21.54,15.16,21.56z"/>
	<path class="st0" d="M16.57,21.14l0.09,0.23c0.08-0.03,0.16-0.06,0.23-0.1l-0.1-0.23C16.72,21.07,16.64,21.11,16.57,21.14z"/>
	<path class="st0" d="M13.69,21.72l0.01,0.25c0.08,0,0.17,0,0.25-0.01l-0.01-0.25C13.85,21.72,13.77,21.72,13.69,21.72z"/>
	<path class="st0" d="M15.63,21.45l0.06,0.24c0.08-0.02,0.16-0.04,0.24-0.07l-0.07-0.24C15.79,21.4,15.71,21.43,15.63,21.45z"/>
	<path class="st0" d="M12.18,21.87c0.08,0.01,0.17,0.03,0.25,0.04l0.03-0.25c-0.08-0.01-0.16-0.02-0.24-0.03L12.18,21.87z"/>
	<path class="st0" d="M11.19,21.66c0.08,0.02,0.16,0.04,0.24,0.07l0.06-0.24c-0.08-0.02-0.16-0.04-0.24-0.06L11.19,21.66z"/>
	<path class="st0" d="M10.71,21.5c0.08,0.03,0.16,0.05,0.24,0.08l0.08-0.24c-0.08-0.03-0.16-0.05-0.23-0.08L10.71,21.5z"/>
	<path class="st0" d="M13.19,21.97c0.08,0,0.17,0,0.25,0.01l0-0.25c-0.08,0-0.16,0-0.25-0.01L13.19,21.97z"/>
	<path class="st0" d="M11.68,21.78c0.08,0.02,0.16,0.04,0.25,0.05l0.05-0.25c-0.08-0.02-0.16-0.03-0.24-0.05L11.68,21.78z"/>
	<path class="st0" d="M12.68,21.94c0.08,0.01,0.17,0.02,0.25,0.02l0.02-0.25c-0.08-0.01-0.16-0.01-0.25-0.02L12.68,21.94z"/>
	<path class="st0" d="M7.45,7.92L7.27,7.75C7.21,7.81,7.16,7.88,7.1,7.94l0.19,0.16C7.34,8.04,7.4,7.98,7.45,7.92z"/>
	<path class="st0" d="M8.55,6.93L8.4,6.73c-0.07,0.05-0.13,0.1-0.2,0.16l0.16,0.19C8.42,7.03,8.48,6.98,8.55,6.93z"/>
	<path class="st0" d="M8.95,6.65L8.81,6.44C8.74,6.49,8.67,6.53,8.6,6.58l0.15,0.2C8.81,6.74,8.88,6.69,8.95,6.65z"/>
	<path class="st0" d="M8.16,7.24L8,7.05C7.94,7.1,7.87,7.16,7.81,7.22L7.98,7.4C8.04,7.35,8.1,7.29,8.16,7.24z"/>
	<path class="st0" d="M9.36,6.39L9.24,6.17C9.16,6.21,9.09,6.26,9.02,6.3l0.13,0.21C9.22,6.47,9.29,6.43,9.36,6.39z"/>
	<path class="st0" d="M7.8,7.57L7.62,7.39C7.56,7.45,7.5,7.51,7.44,7.57l0.18,0.17C7.68,7.69,7.74,7.63,7.8,7.57z"/>
	<path class="st0" d="M12.12,5.39l-0.04-0.25c-0.08,0.01-0.17,0.03-0.25,0.05l0.05,0.25C11.96,5.42,12.04,5.4,12.12,5.39z"/>
	<path class="st0" d="M13.1,5.28l-0.01-0.25c-0.09,0-0.17,0.01-0.25,0.02l0.02,0.25C12.93,5.29,13.02,5.29,13.1,5.28z"/>
	<path class="st0" d="M12.61,5.32l-0.03-0.25c-0.08,0.01-0.17,0.02-0.25,0.03l0.03,0.25C12.44,5.34,12.53,5.33,12.61,5.32z"/>
	<path class="st0" d="M11.16,5.61l-0.07-0.24c-0.08,0.02-0.16,0.05-0.24,0.08l0.08,0.24C11.01,5.66,11.09,5.63,11.16,5.61z"/>
	<path class="st0" d="M11.64,5.48l-0.06-0.24c-0.08,0.02-0.16,0.04-0.25,0.06l0.06,0.24C11.48,5.52,11.56,5.5,11.64,5.48z"/>
	<path class="st0" d="M9.8,6.15L9.68,5.93C9.61,5.97,9.53,6.01,9.46,6.05l0.12,0.22C9.65,6.23,9.72,6.19,9.8,6.15z"/>
	<path class="st0" d="M10.24,5.95l-0.1-0.23c-0.08,0.03-0.16,0.07-0.23,0.1l0.11,0.23C10.09,6.01,10.16,5.98,10.24,5.95z"/>
	<path class="st0" d="M10.7,5.76l-0.09-0.24c-0.08,0.03-0.16,0.06-0.24,0.09l0.09,0.23C10.54,5.82,10.62,5.79,10.7,5.76z"/>
	<polygon class="st0" points="13.5,5.27 13.59,5.27 13.59,5.02 13.5,5.02 13.34,5.03 13.34,5.28 	"/>
	<path class="st0" d="M15.6,5.29c-0.08-0.02-0.16-0.04-0.25-0.06L15.3,5.47c0.08,0.02,0.16,0.04,0.24,0.06L15.6,5.29z"/>
	<path class="st0" d="M16.08,5.43c-0.08-0.03-0.16-0.05-0.24-0.07l-0.07,0.24c0.08,0.02,0.16,0.05,0.23,0.07L16.08,5.43z"/>
	<path class="st0" d="M16.56,5.6c-0.08-0.03-0.16-0.06-0.24-0.09l-0.08,0.24c0.08,0.03,0.15,0.06,0.23,0.09L16.56,5.6z"/>
	<polygon class="st0" points="16.89,5.73 16.8,5.69 16.7,5.92 16.8,5.96 	"/>
	<path class="st0" d="M15.1,5.17c-0.08-0.02-0.17-0.03-0.25-0.04l-0.04,0.25c0.08,0.01,0.16,0.03,0.24,0.04L15.1,5.17z"/>
	<path class="st0" d="M14.1,5.05c-0.08-0.01-0.17-0.01-0.25-0.01l-0.01,0.25c0.08,0,0.16,0.01,0.24,0.01L14.1,5.05z"/>
	<path class="st0" d="M14.6,5.1c-0.08-0.01-0.17-0.02-0.25-0.03l-0.03,0.25c0.08,0.01,0.16,0.02,0.24,0.03L14.6,5.1z"/>
	<path class="st0" d="M5.13,12.11c-0.02,0.08-0.03,0.16-0.03,0.16l0,0L5.1,12.32l0.25,0.01c0,0,0.02-0.12,0.04-0.22
		C5.27,12.12,5.18,12.12,5.13,12.11z"/>
</g>
</svg>
