<?xml version="1.0" encoding="utf-8"?>
<!-- Generator: Adobe Illustrator 24.1.3, SVG Export Plug-In . SVG Version: 6.00 Build 0)  -->
<svg version="1.1" id="Capa_1" xmlns="http://www.w3.org/2000/svg" xmlns:xlink="http://www.w3.org/1999/xlink" x="0px" y="0px"
	 viewBox="0 0 27 27" style="enable-background:new 0 0 27 27;" xml:space="preserve">
<style type="text/css">
	.st0{fill:#C9D644;}
</style>
<g>
	<path class="st0" d="M13.5,0.4C6.3,0.4,0.4,6.3,0.4,13.5c0,7.2,5.9,13.1,13.1,13.1c7.2,0,13.1-5.9,13.1-13.1
		C26.6,6.3,20.7,0.4,13.5,0.4z M22.4,22.4c-1.2,1.2-2.5,2.1-4,2.7c-1.6,0.7-3.2,1-4.9,1c-1.7,0-3.3-0.3-4.9-1
		c-1.5-0.6-2.8-1.5-4-2.7c-1.2-1.2-2.1-2.5-2.7-4c-0.7-1.5-1-3.2-1-4.9c0-1.7,0.3-3.3,1-4.9c0.6-1.5,1.5-2.8,2.7-4
		c1.2-1.2,2.5-2.1,4-2.7c1.5-0.7,3.2-1,4.9-1c1.7,0,3.3,0.3,4.9,1c1.5,0.6,2.8,1.5,4,2.7c1.2,1.2,2.1,2.5,2.7,4c0.7,1.6,1,3.2,1,4.9
		c0,1.7-0.3,3.3-1,4.9C24.5,19.9,23.5,21.2,22.4,22.4z"/>
	<path class="st0" d="M21.2,10.1h-5.6V8H12v2.1H6.6v8.3H5.3v1.1c0,0.9,0.7,1.5,1.5,1.5h6.3v-0.5H6.9c-0.6,0-1-0.5-1-1v-0.6h0.8h14.6
		H22v0.6c0,0.6-0.5,1-1,1h-6.2v0.5h6.2c0.9,0,1.5-0.7,1.5-1.5v-1.1h-1.3V10.1z M15.6,11.5h4.2v2.6H18c0,0-0.1,0-0.1,0.1l-0.3,0.5
		l-0.5-1.3c0-0.1-0.1-0.1-0.1-0.1c-0.1,0-0.1,0-0.1,0.1l-0.4,2.4L16,13.6l1.6-1.5h-2V11.5z M10.2,12.1l1,1l0,0l-0.5,1.4l-0.4-0.7
		c0,0-0.1-0.1-0.1-0.1c0,0-0.1,0-0.1,0.1l-0.4,0.5H8.1v-2.7H12v0.6H10.2z M11.4,13.2L11.4,13.2L11.4,13.2L11.4,13.2z M9.8,14.4
		c0,0,0.1,0,0.1-0.1l0.3-0.4l0.4,0.8c0,0,0.1,0.1,0.1,0.1c0,0,0,0,0,0c0.1,0,0.1,0,0.1-0.1l0.5-1.4l0.8,3c0,0.1,0.1,0.1,0.1,0.1
		c0,0,0,0,0,0c0.1,0,0.1,0,0.1-0.1l0.4-1.8l1.1,1.1l0,0l0.4,1.3c0,0.1,0.1,0.1,0.1,0.1c0,0,0,0,0,0c0.1,0,0.1,0,0.1-0.1l0.4-2.3
		l0.9-0.8l0.5,2.7c0,0.1,0.1,0.1,0.1,0.1c0,0,0,0,0,0c0.1,0,0.1,0,0.1-0.1l0.5-2.6l0.4,1.1c0,0,0.1,0.1,0.1,0.1c0,0,0.1,0,0.1-0.1
		l0.4-0.6h1.7v3.2H8.1v-3.1H9.8z M11.7,13.5l0.9,0.9l-0.3,1.4L11.7,13.5z M14.2,15.4l0.5-0.5l-0.2,1.4L14.2,15.4z M12.5,12.6V8.5
		h2.6v4.1h1.3l-2.4,2.3l-2.4-2.3H12.5z M20.7,18.4H7.1v-7.8H12v0.6H7.8v6.6H20v-6.6h-4.4v-0.6h5.1V18.4z"/>
	<polygon class="st0" points="10.5,6.3 17.4,6.3 17.4,8.2 17.9,8.2 17.9,5.8 9.9,5.8 9.9,8.2 10.5,8.2 	"/>
	<circle class="st0" cx="13.9" cy="20.8" r="0.4"/>
</g>
</svg>
