<?xml version="1.0" encoding="utf-8"?>
<!-- Generator: Adobe Illustrator 25.2.1, SVG Export Plug-In . SVG Version: 6.00 Build 0)  -->
<svg version="1.1" id="Capa_1" xmlns="http://www.w3.org/2000/svg" xmlns:xlink="http://www.w3.org/1999/xlink" x="0px" y="0px"
	 viewBox="0 0 512 512" style="enable-background:new 0 0 512 512;" xml:space="preserve">
<style type="text/css">
	.st0{fill:#F1F1F2;}
	.st1{fill:#FFFFFF;}
	.st2{fill:#667F00;}
</style>
<rect class="st0" width="512" height="512"/>
<g>
	<circle class="st1" cx="256" cy="256.4" r="218.7"/>
	<g>
		<path class="st2" d="M256,36.9C135,36.9,36.9,135,36.9,256c0,121,98.2,219.1,219.1,219.1c121,0,219.1-98.1,219.1-219.1
			C475.1,135,377,36.9,256,36.9z M404.9,404.8c-19.3,19.3-41.9,34.5-66.9,45.1c-26,11-53.5,16.5-81.9,16.5c-28.4,0-56-5.6-81.9-16.5
			c-25.1-10.6-47.6-25.8-66.9-45.1C87.8,385.5,72.6,363,62,338c-11-25.9-16.5-53.5-16.5-81.9c0-28.4,5.6-56,16.5-81.9
			c10.6-25.1,25.8-47.6,45.1-66.9c19.3-19.3,41.9-34.5,66.9-45.1c25.9-11,53.5-16.5,81.9-16.5c28.4,0,56,5.6,81.9,16.5
			c25.1,10.6,47.6,25.8,66.9,45.1c19.3,19.3,34.5,41.8,45.1,66.9c11,25.9,16.5,53.5,16.5,82c0,28.4-5.6,56-16.5,81.9
			C439.4,363,424.2,385.5,404.9,404.8z"/>
		<g>
			<polygon class="st2" points="340.3,190.9 336.6,183.3 306.3,198.1 359.5,93.6 352,89.8 287.5,216.5 			"/>
			<polygon class="st2" points="183.4,295.5 187.1,303 217.4,288.3 150.6,419.3 158.2,423 236.2,269.9 			"/>
			<path class="st2" d="M117.7,231.9L117.7,231.9c4.9,0,9.5-0.7,14.2-1.8c4.5-1.2,8.7-3.2,12.6-6c3.7-2.8,6.9-6.5,8.9-10.9
				c2.3-5,3.5-10.5,3.3-15.9c0.2-6-1.2-11.9-3.8-17.2c-2.2-3.8-5.2-6.9-8.7-9.4l-2.7-1.8c-3.8-2-8-3.5-12.2-4.2
				c-9.4-1.3-19.1-1.5-28.5-0.5c-4.5,0.3-8.7,0.8-13.1,1.7l-1.3,0.3v98.2h22.4v-32.8h0.3c1,0.2,2.2,0.2,3.3,0.2s2.2,0,3.2,0
				L117.7,231.9z M109.3,228c-0.7,0-1.3-0.2-2-0.3l-2.2-0.3v33.3H89.9v-91.6c3.5-0.7,7.2-1.2,11-1.5c9.2-1,18.4-0.8,27.6,0.5
				c3.8,0.7,7.5,2,11,3.8l2.7,1.7c2.8,2.2,5.5,4.9,7.4,8c2.5,4.7,3.7,10,3.5,15.4c0.2,5-0.8,9.9-3,14.4c-1.8,3.7-4.5,7-7.9,9.5
				c-3.3,2.5-7.2,4.4-11.2,5.5c-4.4,1.2-8.7,1.7-13.2,1.7h-2.3c-1,0-2,0-3.2,0C111.3,228.2,110.3,228,109.3,228L109.3,228z"/>
			<path class="st2" d="M129.7,212c2.2-1.5,4-3.5,5.2-5.9c1.3-2.8,2-6,1.8-9.4c0.2-2.8-0.5-5.9-1.8-8.4c-1-2-2.7-4-4.9-5.4
				c-2-1.3-4.4-2.3-6.7-2.7c-4.2-0.7-8.4-0.8-12.7-0.5c-1.7,0.2-3.2,0.3-4.2,0.5l-1.3,0.3v34l1.3,0.3c0.7,0.2,1.2,0.3,1.8,0.3
				c0.8,0,1.5,0.2,2.5,0.2c0.8,0,1.7,0,2.5,0h1.8c2.5,0,5-0.2,7.5-0.7C125.2,214.3,127.5,213.5,129.7,212z M115,212h-1.7
				c-0.7,0-1.5,0-2.3,0c-0.8,0-1.5-0.2-2.3-0.2l0,0v-28.1c0.7,0,1.5-0.2,2.3-0.2c3.8-0.3,7.9-0.2,11.7,0.5c2,0.3,3.8,1.2,5.5,2.2
				c1.5,1,2.8,2.5,3.7,4c1,2,1.5,4.4,1.5,6.7c0.2,2.7-0.3,5.4-1.5,7.7c-1,1.8-2.3,3.3-4,4.4c-1.8,1.2-3.8,1.8-5.9,2.3
				C119.7,211.8,117.3,212,115,212z"/>
			<path class="st2" d="M161.3,190.9c-2.8,7.5-4.2,15.6-4,23.8c-0.2,7.9,1,15.6,3.3,23.1c2,6,5.2,11.5,9.4,16.2
				c4,4.2,8.9,7.4,14.4,9.4s11.4,3,17.2,3h0.5c5.5,0,11-0.8,16.2-2.2c5.4-1.3,10.2-3.8,14.4-7.4l0.7-0.5V211h-39.2v14.7l20.8,2.2
				v15.6c-1.3,0.8-2.8,1.5-4.4,1.8c-2.2,0.5-4.4,0.8-6.5,0.8c-3.2,0-6.2-0.7-9-1.8c-2.8-1.2-5.4-3-7.4-5.4c-2.3-2.8-4-6.2-5-9.7
				c-1.3-4.7-2-9.5-1.8-14.4c-0.2-5,0.5-10,1.8-14.7c1-3.5,2.8-6.9,5.2-9.7c2.2-2.3,4.9-4.2,7.9-5.4c3.2-1.2,6.5-1.7,9.9-1.7h0.3
				c3.5,0,7,0.2,10.5,0.7c2.5,0.5,5,1.2,7.4,2l1.8,0.7l4.7-19.2l-1.5-0.5c-3.3-1.2-6.7-2-10.2-2.7c-4.7-0.8-9.4-1.3-14.1-1.3
				c-6,0-11.9,0.8-17.6,2.8c-5.5,1.8-10.7,4.9-15.1,8.9C167.4,179.3,163.9,184.7,161.3,190.9z M188.3,169.1
				c5.2-1.8,10.9-2.7,16.4-2.5c4.5,0,8.9,0.3,13.4,1.2c2.7,0.5,5.5,1.2,8.2,2l-3,12.2c-2.2-0.8-4.2-1.3-6.2-1.7
				c-3.7-0.7-7.4-0.8-11-0.8c-3.8,0-7.7,0.7-11.4,1.8c-3.7,1.5-6.9,3.7-9.5,6.5c-2.8,3.2-4.9,7-6,11c-1.5,5.2-2.2,10.5-2,15.7
				c-0.2,5.2,0.5,10.4,2,15.4c1.2,4,3,7.7,5.7,10.9c2.3,2.8,5.4,5,8.7,6.5c3.3,1.3,6.7,2,10.4,2c2.5,0,5.2-0.3,7.5-1
				c2.3-0.5,4.5-1.5,6.4-3l0.7-0.5v-20.6l-20.8-2.2v-8H230v40.2c-3.7,2.8-7.9,5-12.4,6c-5,1.3-10.2,2.2-15.4,2.2
				c-5.5,0-11.2-0.8-16.4-2.8c-4.9-1.8-9.4-4.7-12.9-8.5c-3.8-4.4-6.9-9.4-8.7-14.9c-2.3-7-3.3-14.4-3.2-21.9l0,0
				c-0.2-7.7,1-15.2,3.8-22.4c2.2-5.4,5.5-10.4,9.7-14.6C178.6,173.6,183.3,170.8,188.3,169.1z"/>
			<path class="st2" d="M355.2,326.3l-8.7-24.6l0.3-0.3l-0.7-0.5l-25.4-71.1h-13.9l-34.5,96.6h18.7l7.2-21.3h29.5l2.3,6.7l0,0
				l0.3,0.3l5.2,14.2H355.2z M303.1,290l7-21.3l2.8-15.2h0.7l2.8,15.1l7.2,21.4H303.1z"/>
			<polygon class="st2" points="274.5,227.4 346.6,85.6 339.3,81.7 265.9,225.4 266.8,227.4 			"/>
			<polygon class="st2" points="249.9,257.3 249.7,257.5 163.5,426.4 171,430.2 262.6,250.5 260.8,249.3 			"/>
			<polygon class="st2" points="239.7,231.5 252.1,240.4 248.5,255.3 260.8,246.3 273.8,254.1 269.1,239.7 280.5,229.9 265.3,229.9 
				259.4,215.8 254.9,230.4 			"/>
			<path class="st2" d="M113.3,252.3l4.2,0.2c0-1.3,0.2-2.7,0.2-4.2l-4.2-0.2C113.3,249.5,113.3,250.8,113.3,252.3z"/>
			<path class="st2" d="M118.3,240.1l-4.2-0.5c-0.2,1.3-0.3,2.8-0.5,4.2l4.2,0.3C118,242.8,118.2,241.4,118.3,240.1z"/>
			<path class="st2" d="M154.3,355.7c1,1,2,2,3,3l2.8-3c-1-1-2-2-3-2.8L154.3,355.7z"/>
			<path class="st2" d="M166.9,367.1c1.2,0.8,2.2,1.7,3.3,2.7l2.5-3.3c-1.2-0.8-2.2-1.7-3.2-2.5L166.9,367.1z"/>
			<path class="st2" d="M163.5,364.4l2.7-3.2c-1-0.8-2-1.8-3.2-2.7l-2.8,3.2C161.3,362.6,162.5,363.4,163.5,364.4z"/>
			<path class="st2" d="M141.4,333.8l-3.5,2.3c0.8,1.2,1.7,2.3,2.5,3.5l3.3-2.5C143.1,336.2,142.3,335,141.4,333.8z"/>
			<path class="st2" d="M133.1,319.8l-3.7,2c0.7,1.3,1.3,2.5,2,3.7l3.7-2C134.2,322.1,133.6,320.9,133.1,319.8z"/>
			<path class="st2" d="M129.4,312.4l-3.8,1.7c0.5,1.3,1.2,2.5,1.8,3.8l3.8-1.8C130.5,314.9,130,313.6,129.4,312.4z"/>
			<path class="st2" d="M137.1,327l-3.5,2.2c0.7,1.2,1.5,2.3,2.2,3.5l3.5-2.2C138.4,329.3,137.7,328.1,137.1,327z"/>
			<path class="st2" d="M149.6,167.6l-3-2.8c-1.3,1.2-2.7,2.8-2.7,2.8l0,0l-0.5,0.5l3.3,2.5C146.8,170.6,148.3,168.9,149.6,167.6z"
				/>
			<path class="st2" d="M123.5,297l-4,1.2c0.3,1.3,0.8,2.7,1.3,4l4-1.3C124.3,299.7,124,298.3,123.5,297z"/>
			<path class="st2" d="M126.2,304.7l-3.8,1.5c0.5,1.3,1,2.7,1.5,4l3.8-1.7C127.2,307.4,126.7,306,126.2,304.7z"/>
			<path class="st2" d="M154.3,349.9c-1-1-1.8-2-2.7-3l-3.2,2.7c1,1,1.8,2.2,2.8,3.2L154.3,349.9z"/>
			<path class="st2" d="M118.5,272.9l-4.2,0.5c0.2,1.3,0.3,2.8,0.5,4.2l4.2-0.7C118.8,275.6,118.7,274.2,118.5,272.9z"/>
			<path class="st2" d="M121.3,289.1l-4,1c0.3,1.3,0.7,2.7,1,4l4-1.2C122,291.6,121.7,290.5,121.3,289.1z"/>
			<path class="st2" d="M117.7,264.7l-4.2,0.3c0.2,1.5,0.2,2.8,0.3,4.2l4.2-0.3C117.8,267.4,117.7,266,117.7,264.7z"/>
			<path class="st2" d="M119.7,281.1l-4.2,0.7c0.3,1.3,0.5,2.8,0.8,4.2l4-0.8C120.2,283.8,119.8,282.4,119.7,281.1z"/>
			<path class="st2" d="M117.3,256.5h-4.2c0,1.3,0,2.8,0,4.2l4.2-0.2C117.5,259.2,117.3,257.8,117.3,256.5z"/>
			<path class="st2" d="M146.3,340.5l-3.3,2.5c0.8,1.2,1.7,2.2,2.7,3.3l3.2-2.7C148.1,342.7,147.1,341.5,146.3,340.5z"/>
			<path class="st2" d="M349.6,155.9c1,1,2,1.8,3,2.8l3-3c-1-1-2-2-3-3L349.6,155.9z"/>
			<path class="st2" d="M390.3,230.5l4.2-0.7c-0.2-1.3-0.5-2.8-0.8-4.2l-4,0.8C389.8,227.9,390.1,229.2,390.3,230.5z"/>
			<path class="st2" d="M388.6,222.5l4-1c-0.3-1.3-0.7-2.7-1-4.2l-4,1.2C388,219.8,388.3,221.2,388.6,222.5z"/>
			<path class="st2" d="M386.5,214.6l4-1.3c-0.5-1.3-0.8-2.7-1.3-4l-4,1.3C385.6,212,386,213.3,386.5,214.6z"/>
			<path class="st2" d="M383.8,206.8l3.8-1.5c-0.5-1.3-1-2.7-1.5-4l-3.8,1.7C382.8,204.3,383.3,205.4,383.8,206.8z"/>
			<path class="st2" d="M340.3,147.9l2.5-3.3c-1.2-0.8-2.2-1.7-3.3-2.5l-2.5,3.3C338.1,146.2,339.3,147,340.3,147.9z"/>
			<path class="st2" d="M392.5,246.8l4.2-0.2c0-1.5-0.2-2.8-0.3-4.2l-4.2,0.3C392.3,244.1,392.3,245.4,392.5,246.8z"/>
			<path class="st2" d="M391.6,238.6l4.2-0.5c-0.2-1.3-0.3-2.8-0.7-4.2l-4.2,0.7C391.3,235.9,391.5,237.2,391.6,238.6z"/>
			<path class="st2" d="M363.5,171.1l3.3-2.5c-0.8-1.2-1.8-2.2-2.7-3.3l-3.2,2.7C361.9,168.9,362.7,170.1,363.5,171.1z"/>
			<path class="st2" d="M380.6,199.2l3.7-1.8c-0.7-1.3-1.2-2.5-1.8-3.8l-3.7,1.8C379.4,196.7,379.9,197.9,380.6,199.2z"/>
			<polygon class="st2" points="346.6,153.2 349.5,150 346.3,147.2 343.4,150.5 			"/>
			<path class="st2" d="M355.5,161.8c1,1,1.8,2,2.7,3l3.2-2.8c-1-1-1.8-2.2-2.8-3.2L355.5,161.8z"/>
			<path class="st2" d="M368.4,177.8l3.5-2.3c-0.8-1.2-1.7-2.3-2.5-3.5l-3.3,2.5C366.9,175.5,367.5,176.6,368.4,177.8z"/>
			<path class="st2" d="M376.9,191.9l3.7-2c-0.7-1.2-1.3-2.5-2-3.7l-3.7,2C375.6,189.4,376.3,190.5,376.9,191.9z"/>
			<path class="st2" d="M372.9,184.7l3.5-2.2c-0.7-1.2-1.5-2.3-2.2-3.5l-3.5,2.3C371.4,182.3,372.2,183.5,372.9,184.7z"/>
			<path class="st2" d="M353.8,351.9l3,3c1-1,2-2,2.8-3l-3-2.8C355.7,349.9,354.8,350.9,353.8,351.9z"/>
			<polygon class="st2" points="359.3,345.9 362.5,348.5 365.2,345.4 362,342.7 			"/>
			<polygon class="st2" points="369.4,332.8 372.9,335.2 375.1,331.6 371.6,329.3 			"/>
			<path class="st2" d="M348,357.7l2.8,3.2c1-1,2-2,3.2-2.8l-2.8-3C350,355.7,349,356.7,348,357.7z"/>
			<path class="st2" d="M364.5,339.5l3.3,2.5c0.8-1.2,1.7-2.2,2.5-3.3l-3.3-2.5C366.2,337.3,365.4,338.3,364.5,339.5z"/>
			<path class="st2" d="M335.1,368l2.3,3.3c1.2-0.8,2.3-1.7,3.3-2.5l-2.5-3.3C337.4,366.5,336.2,367.3,335.1,368z"/>
			<path class="st2" d="M321.2,376.8l2,3.7c1.3-0.7,2.5-1.3,3.7-2l-2.2-3.5C323.5,375.5,322.4,376.2,321.2,376.8z"/>
			<path class="st2" d="M341.6,363.1l2.5,3.3c1.2-0.8,2.2-1.8,3.3-2.7l-2.7-3.2C343.8,361.3,342.8,362.1,341.6,363.1z"/>
			<path class="st2" d="M328.4,372.6l2.2,3.5c1.2-0.8,2.3-1.5,3.5-2.3l-2.3-3.5C330.6,371.1,329.6,371.8,328.4,372.6z"/>
			<path class="st2" d="M373.7,325.8l3.7,2c0.7-1.2,1.3-2.5,2-3.7l-3.7-2C375.1,323.4,374.4,324.6,373.7,325.8z"/>
			<path class="st2" d="M381.3,311.1l3.8,1.7c0.5-1.3,1.2-2.7,1.7-3.8l-3.8-1.5C382.4,308.5,381.8,309.9,381.3,311.1z"/>
			<path class="st2" d="M390.8,279.6l4.2,0.7c0.2-1.3,0.5-2.8,0.7-4.2l-4.2-0.7C391.1,276.9,391,278.2,390.8,279.6z"/>
			<path class="st2" d="M392.5,263.3l4.2,0.2c0-1.3,0.2-2.8,0.2-4.2l-4.2-0.2C392.7,260.5,392.7,261.8,392.5,263.3z"/>
			<path class="st2" d="M391.8,271.6l4.2,0.5c0.2-1.5,0.3-2.8,0.5-4.2l-4.2-0.3C392.2,268.7,392,270,391.8,271.6z"/>
			<path class="st2" d="M392.7,251c0,1.3,0,2.7,0,4.2h4.2c0-1.5,0-2.8,0-4.2H392.7z"/>
			<path class="st2" d="M384.3,303.5l3.8,1.5c0.5-1.3,1-2.7,1.3-4l-4-1.3C385.3,300.8,384.8,302.2,384.3,303.5z"/>
			<path class="st2" d="M200.3,387c1.3,0.5,2.7,1,3.8,1.5l1.5-3.8c-1.3-0.5-2.5-1-3.8-1.5L200.3,387z"/>
			<path class="st2" d="M314,380.5l1.8,3.8c1.3-0.7,2.5-1.2,3.8-1.8l-1.8-3.7C316.3,379.3,315.2,380,314,380.5z"/>
			<path class="st2" d="M377.8,318.6l3.7,1.8c0.7-1.2,1.3-2.5,1.8-3.8l-3.7-1.8C378.9,316.1,378.4,317.4,377.8,318.6z"/>
			<path class="st2" d="M387,295.7l4,1.2c0.5-1.3,0.8-2.7,1.2-4l-4-1C387.8,293,387.3,294.3,387,295.7z"/>
			<path class="st2" d="M389.1,287.6l4,1c0.3-1.3,0.7-2.7,0.8-4.2l-4-0.8C389.6,284.9,389.5,286.3,389.1,287.6z"/>
			<path class="st2" d="M274.7,392.2l0.7,4.2c1.3-0.2,2.8-0.5,4.2-0.7l-0.8-4.2C277.3,391.9,276,392.1,274.7,392.2z"/>
			<path class="st2" d="M298.6,386.7l1.3,4c1.3-0.5,2.7-0.8,4-1.3l-1.5-3.8C301.3,385.7,299.9,386.2,298.6,386.7z"/>
			<path class="st2" d="M266.5,393.2l0.3,4.2c1.3-0.2,2.8-0.3,4.2-0.3l-0.5-4.2C269.3,392.9,267.8,393.1,266.5,393.2z"/>
			<path class="st2" d="M282.9,390.9l0.8,4c1.3-0.3,2.7-0.5,4.2-0.8l-1-4C285.4,390.4,284.2,390.6,282.9,390.9z"/>
			<path class="st2" d="M306.5,383.9l1.5,3.8c1.3-0.5,2.7-1,3.8-1.7l-1.7-3.8C309,382.7,307.6,383.4,306.5,383.9z"/>
			<path class="st2" d="M258.3,393.6l0.2,4.2c1.3,0,2.8,0,4.2-0.2l-0.2-4.2C260.9,393.6,259.6,393.6,258.3,393.6z"/>
			<path class="st2" d="M290.7,389l1,4c1.3-0.3,2.7-0.7,4-1.2l-1.2-4C293.4,388.2,292.1,388.7,290.7,389z"/>
			<path class="st2" d="M233,396.1c1.3,0.2,2.8,0.5,4.2,0.7l0.5-4.2c-1.3-0.2-2.7-0.3-4-0.5L233,396.1z"/>
			<path class="st2" d="M216.4,392.6c1.3,0.3,2.7,0.7,4,1.2l1-4c-1.3-0.3-2.7-0.7-4-1L216.4,392.6z"/>
			<path class="st2" d="M208.4,389.9c1.3,0.5,2.7,0.8,4,1.3l1.3-4c-1.3-0.5-2.7-0.8-3.8-1.3L208.4,389.9z"/>
			<path class="st2" d="M249.9,397.8c1.3,0,2.8,0,4.2,0.2v-4.2c-1.3,0-2.7,0-4.2-0.2V397.8z"/>
			<path class="st2" d="M224.6,394.6c1.3,0.3,2.7,0.7,4.2,0.8l0.8-4.2c-1.3-0.3-2.7-0.5-4-0.8L224.6,394.6z"/>
			<path class="st2" d="M241.3,397.3c1.3,0.2,2.8,0.3,4.2,0.3l0.3-4.2c-1.3-0.2-2.7-0.2-4.2-0.3L241.3,397.3z"/>
			<path class="st2" d="M153.8,162.6l-3-2.8c-1,1-1.8,2.2-2.8,3.2l3.2,2.7C152,164.6,153,163.6,153.8,162.6z"/>
			<path class="st2" d="M172.2,146l-2.5-3.3c-1.2,0.8-2.2,1.7-3.3,2.7l2.7,3.2C170,147.7,171,146.9,172.2,146z"/>
			<path class="st2" d="M178.9,141.3l-2.3-3.5c-1.2,0.8-2.3,1.5-3.5,2.3l2.5,3.3C176.6,142.8,177.7,142,178.9,141.3z"/>
			<path class="st2" d="M165.7,151.2L163,148c-1,0.8-2.2,1.8-3.2,2.8l2.8,3C163.7,153,164.7,152,165.7,151.2z"/>
			<path class="st2" d="M185.8,137l-2-3.7c-1.3,0.7-2.5,1.5-3.7,2.2l2.2,3.5C183.4,138.3,184.6,137.7,185.8,137z"/>
			<path class="st2" d="M159.7,156.7l-3-3c-1,1-2,2-3,3l3,2.8C157.7,158.7,158.7,157.7,159.7,156.7z"/>
			<path class="st2" d="M232,120.2l-0.7-4.2c-1.3,0.2-2.8,0.5-4.2,0.8l0.8,4.2C229.3,120.7,230.6,120.4,232,120.2z"/>
			<path class="st2" d="M248.4,118.4l-0.2-4.2c-1.5,0-2.8,0.2-4.2,0.3l0.3,4.2C245.5,118.6,247,118.6,248.4,118.4z"/>
			<path class="st2" d="M240.2,119.1l-0.5-4.2c-1.3,0.2-2.8,0.3-4.2,0.5l0.5,4.2C237.3,119.4,238.8,119.2,240.2,119.1z"/>
			<path class="st2" d="M215.9,123.9l-1.2-4c-1.3,0.3-2.7,0.8-4,1.3l1.3,4C213.4,124.8,214.7,124.3,215.9,123.9z"/>
			<path class="st2" d="M223.9,121.7l-1-4c-1.3,0.3-2.7,0.7-4.2,1l1,4C221.3,122.4,222.6,122.1,223.9,121.7z"/>
			<path class="st2" d="M193.1,133l-2-3.7c-1.2,0.7-2.5,1.3-3.7,2l2,3.7C190.6,134.3,191.8,133.6,193.1,133z"/>
			<path class="st2" d="M200.5,129.6l-1.7-3.8c-1.3,0.5-2.7,1.2-3.8,1.7l1.8,3.8C198,130.6,199.2,130.1,200.5,129.6z"/>
			<path class="st2" d="M208.2,126.4l-1.5-4c-1.3,0.5-2.7,1-4,1.5l1.5,3.8C205.5,127.4,206.9,126.9,208.2,126.4z"/>
			<polygon class="st2" points="255.1,118.2 256.6,118.2 256.6,114.1 255.1,114.1 252.4,114.2 252.4,118.4 			"/>
			<path class="st2" d="M290.2,118.6c-1.3-0.3-2.7-0.7-4.2-1l-0.8,4c1.3,0.3,2.7,0.7,4,1L290.2,118.6z"/>
			<path class="st2" d="M298.3,120.9c-1.3-0.5-2.7-0.8-4-1.2l-1.2,4c1.3,0.3,2.7,0.8,3.8,1.2L298.3,120.9z"/>
			<path class="st2" d="M306.3,123.8c-1.3-0.5-2.7-1-4-1.5l-1.3,4c1.3,0.5,2.5,1,3.8,1.5L306.3,123.8z"/>
			<polygon class="st2" points="311.8,125.9 310.3,125.3 308.6,129.1 310.3,129.8 			"/>
			<path class="st2" d="M281.9,116.6c-1.3-0.3-2.8-0.5-4.2-0.7l-0.7,4.2c1.3,0.2,2.7,0.5,4,0.7L281.9,116.6z"/>
			<path class="st2" d="M265.1,114.6c-1.3-0.2-2.8-0.2-4.2-0.2l-0.2,4.2c1.3,0,2.7,0.2,4,0.2L265.1,114.6z"/>
			<path class="st2" d="M273.5,115.4c-1.3-0.2-2.8-0.3-4.2-0.5l-0.5,4.2c1.3,0.2,2.7,0.3,4,0.5L273.5,115.4z"/>
			<path class="st2" d="M115,232.7c-0.3,1.3-0.5,2.7-0.5,2.7l0,0v0.8l4.2,0.2c0,0,0.3-2,0.7-3.7C117.3,232.9,115.8,232.9,115,232.7z
				"/>
		</g>
	</g>
</g>
</svg>
