<svg id="Capa_1" data-name="Capa 1" xmlns="http://www.w3.org/2000/svg" viewBox="0 0 512 512"><defs><style>.cls-1{fill:#f1f1f2;}.cls-2{fill:#fff;}.cls-3{fill:#667f00;}</style></defs><rect class="cls-1" width="512" height="512"/><circle class="cls-2" cx="256" cy="256.35001" r="218.73"/><path class="cls-3" d="M256,36.89c-120.97,0-219.15,98.13-219.15,219.16,0,120.96,98.18,219.06,219.15,219.06,121.03,0,219.15-98.1,219.15-219.06C475.15,135.02,377.04,36.89,256,36.89ZM404.86,404.84a209.64895,209.64895,0,1,1,45.13-66.89A209.88052,209.88052,0,0,1,404.86,404.84Z"/><polygon class="cls-3" points="340.264 190.876 336.582 183.344 306.287 198.073 359.513 93.63 351.981 89.781 287.541 216.484 340.264 190.876"/><polygon class="cls-3" points="183.433 295.486 187.115 303.018 217.41 288.289 150.627 419.344 158.159 423.026 236.157 269.877 183.433 295.486"/><path class="cls-3" d="M117.65441,231.88289h0a58.18815,58.18815,0,0,0,14.227-1.84113,36.26814,36.26814,0,0,0,12.55319-6.02552,29.62562,29.62562,0,0,0,8.87093-10.87943,35.31719,35.31719,0,0,0,3.34751-15.9007,36.132,36.132,0,0,0-3.84965-17.23971,29.173,29.173,0,0,0-8.70354-9.37309l-2.678-1.84113a40.68548,40.68548,0,0,0-12.21844-4.1844,115.66362,115.66362,0,0,0-28.4539-.50212,111.28876,111.28876,0,0,0-13.05532,1.67375l-1.339.33476V264.3538H108.7835V231.54813h.33475a21.33931,21.33931,0,0,0,3.34751.16738h3.18015Zm-8.36879-3.84965a8.4011,8.4011,0,0,1-2.00851-.33476l-2.17589-.33476v33.30779H89.87V169.11694a109.96294,109.96294,0,0,1,11.04681-1.50639,108.988,108.988,0,0,1,27.617.50213,37.72507,37.72507,0,0,1,11.0468,3.84964l2.678,1.67376a28.17041,28.17041,0,0,1,7.36454,8.03405,30.64827,30.64827,0,0,1,3.5149,15.39858,30.532,30.532,0,0,1-3.01277,14.39432,27.07567,27.07567,0,0,1-7.86666,9.54042,35.07542,35.07542,0,0,1-11.21418,5.5234,50.26,50.26,0,0,1-13.2227,1.67377h-5.52341c-1.00425,0-2.00851-.16738-3.01276-.16738Z"/><path class="cls-3" d="M129.70548,211.96515a15.86729,15.86729,0,0,0,5.18865-5.85816,19.60243,19.60243,0,0,0,1.84114-9.37305,16.15024,16.15024,0,0,0-1.84114-8.3688,13.45186,13.45186,0,0,0-4.8539-5.356,16.59838,16.59838,0,0,0-6.695-2.678,53.669,53.669,0,0,0-12.72057-.50213c-1.67376.16737-3.18015.33475-4.1844.50212l-1.339.33476v33.97729l1.339.33476a7.118,7.118,0,0,0,1.84114.33476c.83688,0,1.50638.16738,2.51064.16738h4.35177a38.20029,38.20029,0,0,0,7.53191-.6695A18.34387,18.34387,0,0,0,129.70548,211.96515Zm-14.72908,0h-4.017c-.83689,0-1.50639-.16738-2.34326-.16738h0V183.67864c.6695,0,1.50638-.16738,2.34326-.16738a45.8765,45.8765,0,0,1,11.7163.50212,15.89446,15.89446,0,0,1,5.52341,2.17589,12.04,12.04,0,0,1,3.68226,4.017,17.86969,17.86969,0,0,1,0,14.39432,11.228,11.228,0,0,1-4.017,4.35177,19.53242,19.53242,0,0,1-5.85815,2.34327A33.34649,33.34649,0,0,1,114.9764,211.96515Z"/><path class="cls-3" d="M161.33952,190.87579a63.41271,63.41271,0,0,0-4.017,23.76737A72.16631,72.16631,0,0,0,160.67,237.741a46.34954,46.34954,0,0,0,9.37305,16.23546,37.67379,37.67379,0,0,0,14.39432,9.37305,50.52281,50.52281,0,0,0,17.23971,3.01277h.50212a65.46367,65.46367,0,0,0,16.23547-2.17588,35.73388,35.73388,0,0,0,14.39432-7.36453l.6695-.50213V210.96092H194.31256V225.69l20.7546,2.17589v15.566a14.20308,14.20308,0,0,1-4.35177,1.84113,29.07917,29.07917,0,0,1-6.52767.83688,23.57066,23.57066,0,0,1-9.03829-1.84113,19.46818,19.46818,0,0,1-7.36454-5.356,26.88092,26.88092,0,0,1-5.02127-9.7078,46.60383,46.60383,0,0,1-1.84113-14.39432,48.09269,48.09269,0,0,1,1.84113-14.72908,27.26878,27.26878,0,0,1,5.18865-9.7078,21.24329,21.24329,0,0,1,7.86667-5.356,28.48626,28.48626,0,0,1,9.87518-1.67376h.33476a74.35415,74.35415,0,0,1,10.54468.6695,52.99,52.99,0,0,1,7.36453,2.00851l1.84113.6695,4.68652-19.24822-1.50638-.50212a70.414,70.414,0,0,0-10.20992-2.678,79.96206,79.96206,0,0,0-14.05958-1.339,52.26947,52.26947,0,0,0-17.57447,2.84539,41.71352,41.71352,0,0,0-15.06382,8.87087A48.16133,48.16133,0,0,0,161.33952,190.87579ZM188.287,169.11694a45.46216,45.46216,0,0,1,16.40283-2.51063,72.39212,72.39212,0,0,1,13.39007,1.17162,73.151,73.151,0,0,1,8.20142,2.00851l-3.01277,12.21843a31.14819,31.14819,0,0,0-6.19291-1.67376,61.40593,61.40593,0,0,0-11.0468-.83688,37.66754,37.66754,0,0,0-11.38157,1.84112,26.95129,26.95129,0,0,0-9.54042,6.52768,28.57255,28.57255,0,0,0-6.02552,11.04681,50.81373,50.81373,0,0,0-2.00851,15.73332,48.12354,48.12354,0,0,0,2.00851,15.39858,29.49145,29.49145,0,0,0,5.69078,10.87943,23.88593,23.88593,0,0,0,8.70354,6.52766,27.27851,27.27851,0,0,0,10.3773,2.00851,28.19273,28.19273,0,0,0,7.53191-1.00426,14.918,14.918,0,0,0,6.36028-3.01277l.66951-.50212V224.351l-20.75461-2.17589v-8.034h32.30355v40.17022a31.65835,31.65835,0,0,1-12.38581,6.02553,60.00244,60.00244,0,0,1-15.39858,2.17589,45.75271,45.75271,0,0,1-16.40283-2.8454,33.45072,33.45072,0,0,1-12.88795-8.53617,43.1062,43.1062,0,0,1-8.70355-14.89646,64.47609,64.47609,0,0,1-3.18014-21.92624h0A57.089,57.089,0,0,1,164.8544,191.88a44.41994,44.41994,0,0,1,9.7078-14.56167A38.47057,38.47057,0,0,1,188.287,169.11694Z"/><path class="cls-3" d="M355.16076,326.28288l-8.70355-24.60424.33476-.33476-.66952-.50214L320.68131,229.707h-13.8922l-34.47942,96.57588h18.7461l7.19715-21.25674H327.7111l2.34325,6.695h0l.33479.33476,5.18864,14.22695ZM303.10689,289.9623l7.02978-21.25672,2.8454-15.2312h.66948l2.84539,15.06382,7.19717,21.4241Z"/><polygon class="cls-3" points="274.486 227.364 346.625 85.596 339.26 81.747 265.949 225.355 266.786 227.364 274.486 227.364"/><polygon class="cls-3" points="249.881 257.324 249.714 257.491 163.515 426.374 171.047 430.223 262.602 250.462 260.761 249.29 249.881 257.324"/><polygon class="cls-3" points="239.671 231.548 252.057 240.419 248.542 255.316 260.761 246.277 273.816 254.144 269.13 239.75 280.511 229.874 265.28 229.874 259.422 215.815 254.903 230.377 239.671 231.548"/><path class="cls-3" d="M113.30265,252.30273l4.18439.16738c0-1.339.16738-2.678.16738-4.18439l-4.18439-.16738A33.61323,33.61323,0,0,0,113.30265,252.30273Z"/><path class="cls-3" d="M118.32392,240.0843l-4.1844-.50212c-.16738,1.339-.33475,2.84539-.50213,4.1844l4.1844.33476Z"/><path class="cls-3" d="M154.30973,355.741q1.50637,1.50636,3.01276,3.01277l2.84539-3.01277c-1.00425-1.00425-2.00851-2.00853-3.01276-2.84539Z"/><path class="cls-3" d="M166.86291,367.12257c1.17163.83687,2.17589,1.67377,3.34752,2.678l2.51063-3.34753c-1.17163-.83686-2.17589-1.67376-3.18014-2.51063Z"/><path class="cls-3" d="M163.5154,364.44456l2.678-3.18015c-1.00426-.83687-2.00851-1.84115-3.18014-2.678l-2.84539,3.18015A26.08455,26.08455,0,0,1,163.5154,364.44456Z"/><path class="cls-3" d="M141.42179,333.81478l-3.5149,2.34325,2.51064,3.51488,3.34752-2.51063C143.09555,336.15806,142.25867,334.9864,141.42179,333.81478Z"/><path class="cls-3" d="M133.053,319.7552l-3.68226,2.00853c.6695,1.339,1.339,2.51063,2.00851,3.68225l3.68226-2.00852A27.39512,27.39512,0,0,1,133.053,319.7552Z"/><path class="cls-3" d="M129.37072,312.39069l-3.84964,1.67376a40.222,40.222,0,0,0,1.84113,3.84964l3.84965-1.84114C130.54236,314.90132,130.04023,313.56231,129.37072,312.39069Z"/><path class="cls-3" d="M137.07,326.95237l-3.51489,2.17587c.6695,1.17163,1.50638,2.34325,2.17589,3.51488l3.51489-2.17587A40.0442,40.0442,0,0,1,137.07,326.95237Z"/><path class="cls-3" d="M149.6232,167.61055l-3.01276-2.84539a26.19978,26.19978,0,0,0-2.678,2.84539h0l-.50213.50213,3.34751,2.51063S148.2842,168.94956,149.6232,167.61055Z"/><path class="cls-3" d="M123.51257,296.99209l-4.017,1.17164a37.66388,37.66388,0,0,0,1.339,4.017l4.017-1.339C124.34945,299.67012,124.0147,298.33111,123.51257,296.99209Z"/><path class="cls-3" d="M126.19059,304.69138l-3.84965,1.50639,1.50639,4.017L127.697,308.541C127.19484,307.36939,126.69271,306.03039,126.19059,304.69138Z"/><path class="cls-3" d="M154.30973,349.88288c-1.00425-1.00425-1.84114-2.00853-2.678-3.01277l-3.18014,2.678c1.00425,1.00424,1.84113,2.17587,2.84539,3.18015Z"/><path class="cls-3" d="M118.4913,272.89l-4.1844.50213c.16738,1.339.33475,2.84539.50213,4.18439l4.1844-.6695Q118.74236,274.89847,118.4913,272.89Z"/><path class="cls-3" d="M121.33669,289.12542l-4.017,1.00426,1.00425,4.017,4.017-1.17163C122.00619,291.63607,121.67144,290.46444,121.33669,289.12542Z"/><path class="cls-3" d="M117.65441,264.68856l-4.18439.33476c.16738,1.50638.16738,2.84539.33475,4.1844l4.1844-.33476A38.255,38.255,0,0,1,117.65441,264.68856Z"/><path class="cls-3" d="M119.66292,281.09139l-4.18439.6695c.33475,1.339.50213,2.84539.83688,4.1844l4.017-.83689C120.16505,283.7694,119.8303,282.43039,119.66292,281.09139Z"/><path class="cls-3" d="M117.31966,256.48713h-4.18439v4.1844l4.18439-.16738A32.16674,32.16674,0,0,0,117.31966,256.48713Z"/><path class="cls-3" d="M146.27569,340.50981l-3.34752,2.51063c.83689,1.17162,1.67376,2.17587,2.678,3.34753l3.18015-2.678C148.11682,342.68571,147.11257,341.51408,146.27569,340.50981Z"/><path class="cls-3" d="M349.63736,155.89424c1.00424,1.00425,2.00852,1.84114,3.01277,2.84539l3.01277-3.01276q-1.50637-1.50639-3.01277-3.01277Z"/><path class="cls-3" d="M390.3097,230.54387l4.18439-.66951a37.018,37.018,0,0,0-.83686-4.18439l-4.017.83688C389.80756,227.86586,390.14232,229.20486,390.3097,230.54387Z"/><path class="cls-3" d="M388.63593,222.50983l4.017-1.00426c-.33476-1.339-.66952-2.678-1.00425-4.18439l-4.017,1.17162Q388.13383,220.50133,388.63593,222.50983Z"/><path class="cls-3" d="M386.46006,214.64316l4.017-1.339c-.50214-1.339-.83687-2.678-1.339-4.017l-4.017,1.339C385.62316,211.96515,385.95792,213.30416,386.46006,214.64316Z"/><path class="cls-3" d="M383.78205,206.77651l3.84964-1.50639q-.75321-2.0085-1.50639-4.017l-3.84964,1.67376C382.77777,204.26586,383.27991,205.43749,383.78205,206.77651Z"/><path class="cls-3" d="M340.26432,147.8602l2.51063-3.34752c-1.17163-.83688-2.17587-1.67375-3.34753-2.51064l-2.51063,3.34752C338.08841,146.18644,339.26007,147.02331,340.26432,147.8602Z"/><path class="cls-3" d="M392.48557,246.77933l4.1844-.16738a32.60613,32.60613,0,0,0-.33476-4.1844l-4.1844.33476C392.31822,244.10132,392.31822,245.44033,392.48557,246.77933Z"/><path class="cls-3" d="M391.6487,238.57792l4.1844-.50213a36.24677,36.24677,0,0,0-.66952-4.18439l-4.1844.6695A33.51376,33.51376,0,0,1,391.6487,238.57792Z"/><path class="cls-3" d="M363.52955,171.12545l3.34753-2.51063c-.83686-1.17163-1.84114-2.17589-2.678-3.34752l-3.18015,2.678C361.85579,168.94956,362.69269,170.12119,363.52955,171.12545Z"/><path class="cls-3" d="M380.6019,199.24458l3.68226-1.84113c-.66952-1.339-1.17163-2.51063-1.84115-3.84963l-3.68226,1.84113C379.43027,196.734,379.93238,197.90558,380.6019,199.24458Z"/><polygon class="cls-3" points="346.625 153.216 349.47 150.036 346.29 147.191 343.444 150.538 346.625 153.216"/><path class="cls-3" d="M355.49552,161.75239c1.00425,1.00426,1.84114,2.00851,2.678,3.01277l3.18015-2.84539c-1.00425-1.00425-1.84114-2.17589-2.84539-3.18014Z"/><path class="cls-3" d="M368.38347,177.82048l3.51488-2.34327q-1.2553-1.75745-2.51064-3.51489l-3.34753,2.51063C366.87708,175.47721,367.54657,176.64885,368.38347,177.82048Z"/><path class="cls-3" d="M376.91964,191.88005l3.68226-2.00851c-.66952-1.17162-1.339-2.51063-2.00853-3.68227l-3.68225,2.00851C375.58064,189.36942,376.25012,190.54105,376.91964,191.88005Z"/><path class="cls-3" d="M372.90262,184.68288l3.51488-2.17588c-.66952-1.17163-1.50638-2.34327-2.17587-3.5149l-3.51488,2.34327C371.39624,182.33963,372.23311,183.51126,372.90262,184.68288Z"/><path class="cls-3" d="M353.82175,351.89137l3.01277,3.01277c1.00425-1.00425,2.00853-2.00852,2.8454-3.01277l-3.01278-2.84539C355.6629,349.88288,354.826,350.88712,353.82175,351.89137Z"/><polygon class="cls-3" points="359.345 345.866 362.525 348.544 365.203 345.364 362.023 342.686 359.345 345.866"/><polygon class="cls-3" points="369.388 332.811 372.903 335.154 375.078 331.639 371.564 329.296 369.388 332.811"/><path class="cls-3" d="M347.96359,357.74953l2.84539,3.18015a25.72776,25.72776,0,0,1,3.18015-2.84539l-2.84539-3.01277A15.89993,15.89993,0,0,0,347.96359,357.74953Z"/><path class="cls-3" d="M364.53383,339.50556l3.34753,2.51063c.83687-1.17162,1.67377-2.17587,2.51063-3.34753l-3.34753-2.51063C366.20756,337.32969,365.3707,338.33393,364.53383,339.50556Z"/><path class="cls-3" d="M335.07567,367.95947l2.34326,3.34753c1.17162-.83687,2.34325-1.67377,3.34753-2.51063l-2.51063-3.34753A11.72678,11.72678,0,0,1,335.07567,367.95947Z"/><path class="cls-3" d="M321.18348,376.83037l2.00852,3.68226c1.339-.66952,2.51064-1.339,3.68226-2.00853l-2.17587-3.51487A35.41673,35.41673,0,0,0,321.18348,376.83037Z"/><path class="cls-3" d="M341.60332,363.10555l2.51064,3.34753c1.17162-.83686,2.17587-1.84114,3.34753-2.678l-2.678-3.18015A34.30825,34.30825,0,0,0,341.60332,363.10555Z"/><path class="cls-3" d="M328.38061,372.646l2.17588,3.51488c1.17162-.83687,2.34325-1.50638,3.51487-2.34325l-2.34325-3.51488C330.55652,371.13959,329.55227,371.80911,328.38061,372.646Z"/><path class="cls-3" d="M373.73949,325.78074l3.68226,2.00853c.66952-1.17163,1.339-2.51063,2.00852-3.68226l-3.68225-2.00852C375.0785,323.43749,374.409,324.60912,373.73949,325.78074Z"/><path class="cls-3" d="M381.27142,311.05168l3.84963,1.67377c.50214-1.339,1.17163-2.678,1.67377-3.84964l-3.84964-1.50639C382.443,308.541,381.77352,309.88,381.27142,311.05168Z"/><path class="cls-3" d="M390.81184,279.585l4.18439.6695c.16738-1.339.50214-2.84539.66952-4.18439l-4.18439-.66951C391.14656,276.907,390.97922,278.246,390.81184,279.585Z"/><path class="cls-3" d="M392.48557,263.34954l4.1844.16738c0-1.339.16738-2.84539.16738-4.1844l-4.1844-.16738A36.40387,36.40387,0,0,1,392.48557,263.34954Z"/><path class="cls-3" d="M391.81608,271.551l4.1844.50212c.16738-1.50638.33476-2.84539.50214-4.1844l-4.1844-.33476Q392.06715,269.29141,391.81608,271.551Z"/><path class="cls-3" d="M392.65295,250.96373v4.18439h4.1844v-4.18439Z"/><path class="cls-3" d="M384.28416,303.51976l3.84963,1.50638a37.66388,37.66388,0,0,0,1.339-4.017l-4.017-1.339A19.882,19.882,0,0,1,384.28416,303.51976Z"/><path class="cls-3" d="M200.33808,387.04031c1.339.50214,2.678,1.00424,3.84964,1.50638l1.50639-3.84963c-1.339-.50214-2.51063-1.00425-3.84964-1.50639Z"/><path class="cls-3" d="M313.98631,380.51266l1.84115,3.84964c1.339-.66952,2.51063-1.17163,3.84963-1.84115l-1.84114-3.68226C316.32956,379.341,315.15794,380.01052,313.98631,380.51266Z"/><path class="cls-3" d="M377.75651,318.58358l3.68226,1.84114a27.22986,27.22986,0,0,0,1.84114-3.84964l-3.68226-1.84114C378.92813,316.073,378.426,317.412,377.75651,318.58358Z"/><path class="cls-3" d="M386.96217,295.65309l4.017,1.17162a36.34891,36.34891,0,0,0,1.17163-4.017l-4.017-1.00426C387.79907,292.97507,387.29693,294.31408,386.96217,295.65309Z"/><path class="cls-3" d="M389.13807,287.61905l4.017,1.00426a30.83425,30.83425,0,0,0,.83687-4.18439l-4.017-.83689C389.64021,284.941,389.47283,286.28005,389.13807,287.61905Z"/><path class="cls-3" d="M274.653,392.229l.6695,4.1844c1.339-.16738,2.84539-.50214,4.1844-.66952l-.83689-4.1844A33.5076,33.5076,0,0,1,274.653,392.229Z"/><path class="cls-3" d="M298.58773,386.70555l1.339,4.017c1.339-.50214,2.678-.83687,4.017-1.339l-1.50638-3.84964A19.88607,19.88607,0,0,0,298.58773,386.70555Z"/><path class="cls-3" d="M266.45156,393.23323l.33476,4.1844a35.23555,35.23555,0,0,1,4.1844-.33476l-.50212-4.1844A35.41131,35.41131,0,0,0,266.45156,393.23323Z"/><path class="cls-3" d="M282.85439,390.89l.83688,4.017c1.339-.33476,2.678-.50214,4.1844-.83686l-1.00426-4.017C285.365,390.38784,284.1934,390.55522,282.85439,390.89Z"/><path class="cls-3" d="M306.45439,383.86016l1.50638,3.84964a26.70487,26.70487,0,0,0,3.84964-1.67377l-1.67377-3.84964C308.965,382.68853,307.626,383.35805,306.45439,383.86016Z"/><path class="cls-3" d="M258.25013,393.568l.16738,4.18439a34.98412,34.98412,0,0,0,4.1844-.16738l-.16738-4.18439A36.40378,36.40378,0,0,1,258.25013,393.568Z"/><path class="cls-3" d="M290.72106,389.04883l1.00426,4.017a36.356,36.356,0,0,0,4.017-1.17163l-1.17163-4.017C293.39907,388.21193,292.06007,388.71407,290.72106,389.04883Z"/><path class="cls-3" d="M232.97639,396.07862c1.339.16738,2.84539.50214,4.1844.66952l.50212-4.1844-4.017-.50214Z"/><path class="cls-3" d="M216.40617,392.56371a36.35589,36.35589,0,0,1,4.017,1.17163l1.00427-4.017q-2.00852-.50214-4.017-1.00425Z"/><path class="cls-3" d="M208.37213,389.8857c1.339.50214,2.678.83687,4.017,1.339l1.339-4.017c-1.339-.50214-2.678-.83687-3.84964-1.339Z"/><path class="cls-3" d="M249.88134,397.75235a34.9842,34.9842,0,0,1,4.1844.16738v-4.18439a36.40413,36.40413,0,0,1-4.1844-.16738Z"/><path class="cls-3" d="M224.6076,394.57223a30.83425,30.83425,0,0,0,4.18439.83687l.83689-4.1844c-1.339-.33475-2.678-.50213-4.017-.83686Z"/><path class="cls-3" d="M241.34518,397.25025a35.23571,35.23571,0,0,0,4.1844.33476l.33476-4.1844c-1.339-.16738-2.678-.16738-4.1844-.33476Z"/><path class="cls-3" d="M153.8076,162.58928l-3.01276-2.8454c-1.00426,1.00426-1.84114,2.17589-2.8454,3.18015l3.18015,2.678C151.96647,164.59778,152.97072,163.59353,153.8076,162.58928Z"/><path class="cls-3" d="M172.219,146.01906l-2.51065-3.34751c-1.17162.83688-2.17589,1.67375-3.34751,2.678l2.678,3.18014C170.04306,147.69283,171.04731,146.85594,172.219,146.01906Z"/><path class="cls-3" d="M178.914,141.33254l-2.34325-3.51489c-1.17165.83687-2.34327,1.50638-3.5149,2.34326l2.51063,3.34751C176.57073,142.83892,177.74235,142.002,178.914,141.33254Z"/><path class="cls-3" d="M165.69129,151.20771l-2.678-3.18013c-1.00425.83687-2.17588,1.84113-3.18014,2.84538l2.84539,3.01277C163.68278,153.04885,164.687,152.04459,165.69129,151.20771Z"/><path class="cls-3" d="M185.77639,136.98076l-2.00851-3.68226c-1.339.6695-2.51063,1.50638-3.68226,2.17589l2.17589,3.51489Z"/><path class="cls-3" d="M159.66576,156.73112l-3.01277-3.01277-3.01276,3.01277,3.01276,2.84539C157.65724,158.73963,158.6615,157.73538,159.66576,156.73112Z"/><path class="cls-3" d="M231.97213,120.24318l-.6695-4.1844a37.01341,37.01341,0,0,0-4.1844.83688l.83688,4.1844A34.28149,34.28149,0,0,1,231.97213,120.24318Z"/><path class="cls-3" d="M248.375,118.40205l-.16738-4.1844a32.60768,32.60768,0,0,0-4.18439.33475l.33475,4.1844C245.52958,118.56942,247.036,118.56942,248.375,118.40205Z"/><path class="cls-3" d="M240.17354,119.07155l-.50212-4.18439c-1.339.16738-2.84539.33475-4.1844.50213l.50213,4.18439C237.32815,119.4063,238.83454,119.23892,240.17354,119.07155Z"/><path class="cls-3" d="M215.904,123.92545l-1.17162-4.017a37.66837,37.66837,0,0,0-4.017,1.339l1.339,4.017C213.39341,124.76233,214.73242,124.2602,215.904,123.92545Z"/><path class="cls-3" d="M223.93809,121.74956l-1.00426-4.017c-1.339.33475-2.678.6695-4.18439,1.00425l1.00426,4.017C221.26007,122.41907,222.59909,122.08431,223.93809,121.74956Z"/><path class="cls-3" d="M193.14093,132.96375l-2.00851-3.68228c-1.17164.66951-2.51064,1.339-3.68227,2.00852l2.00851,3.68227C190.63029,134.30275,191.80193,133.63325,193.14093,132.96375Z"/><path class="cls-3" d="M200.50546,129.61623l-1.67376-3.84965c-1.339.50213-2.678,1.17163-3.84964,1.67376l1.84113,3.84964A24.644,24.644,0,0,1,200.50546,129.61623Z"/><path class="cls-3" d="M208.20475,126.43609l-1.50638-4.017-4.017,1.50639,1.50639,3.84964A37.666,37.666,0,0,0,208.20475,126.43609Z"/><polygon class="cls-3" points="255.07 118.235 256.576 118.235 256.576 114.05 255.07 114.05 252.392 114.218 252.392 118.402 255.07 118.235"/><path class="cls-3" d="M290.21894,118.56942c-1.339-.33475-2.678-.6695-4.1844-1.00425l-.83688,4.017,4.017,1.00426Z"/><path class="cls-3" d="M298.253,120.91268a36.34891,36.34891,0,0,0-4.017-1.17163l-1.17162,4.017c1.339.33476,2.678.83689,3.84964,1.17164Z"/><path class="cls-3" d="M306.287,123.75807l-4.017-1.50638-1.339,4.017c1.339.50213,2.51063,1.00426,3.84964,1.50639Z"/><polygon class="cls-3" points="311.81 125.934 310.304 125.264 308.63 129.114 310.304 129.784 311.81 125.934"/><path class="cls-3" d="M281.85014,116.56091a36.24669,36.24669,0,0,0-4.18439-.6695l-.6695,4.1844c1.339.16738,2.678.50213,4.017.6695Z"/><path class="cls-3" d="M265.11256,114.5524a34.9842,34.9842,0,0,0-4.1844-.16738l-.16738,4.1844c1.339,0,2.678.16738,4.017.16738Z"/><path class="cls-3" d="M273.48135,115.38928c-1.339-.16738-2.84539-.33475-4.1844-.50213l-.50212,4.18439,4.017.50214Z"/><path class="cls-3" d="M114.9764,232.71976a25.77918,25.77918,0,0,0-.50213,2.678h0v.83688l4.1844.16738s.33475-2.00851.6695-3.68227A18.15642,18.15642,0,0,1,114.9764,232.71976Z"/></svg>