<?xml version="1.0" encoding="utf-8"?>
<!-- Generator: Adobe Illustrator 25.1.0, SVG Export Plug-In . SVG Version: 6.00 Build 0)  -->
<svg version="1.1" id="Capa_1" xmlns="http://www.w3.org/2000/svg" xmlns:xlink="http://www.w3.org/1999/xlink" x="0px" y="0px"
	 viewBox="0 0 512 512" style="enable-background:new 0 0 512 512;" xml:space="preserve">
<style type="text/css">
	.st0{fill:#F1F1F2;}
	.st1{fill:#FFFFFF;}
	.st2{fill:#667F00;}
</style>
<rect class="st0" width="512" height="512"/>
<circle class="st1" cx="256" cy="256.4" r="218.7"/>
<g>
	<path class="st2" d="M256,36.9C135,36.9,36.9,135,36.9,256c0,121,98.1,219.1,219.1,219.1c121,0,219-98.1,219.1-219
		C475.1,135,377.1,36.9,256,36.9C256,36.9,256,36.9,256,36.9z M404.8,404.8c-82,81.8-214.8,81.6-296.6-0.5
		c-81.8-82-81.6-214.8,0.5-296.6c82-81.8,214.8-81.6,296.6,0.5c60.2,60.4,77.8,151.2,44.6,229.7C439.4,362.9,424,385.7,404.8,404.8z
		"/>
	<polygon class="st2" points="341.1,190.8 337.5,183.3 307.2,198 360.4,93.6 353,89.8 288.4,216.5 	"/>
	<polygon class="st2" points="184.4,295.5 188,303 218.3,288.3 151.5,419.3 159,423.1 237.1,269.8 	"/>
	<path class="st2" d="M118.6,231.9L118.6,231.9c4.9,0,9.6-0.6,14.2-1.8c4.5-1.2,8.8-3.2,12.5-6.1c3.8-2.9,6.8-6.6,8.9-10.9
		c2.3-5,3.5-10.5,3.3-16c0.3-6-1.1-11.9-3.9-17.2c-2.2-3.7-5.1-6.8-8.6-9.2l-2.8-1.8c-3.8-2.1-7.9-3.5-12.2-4.2
		c-9.4-1.4-19-1.6-28.5-0.6c-4.3,0.4-8.6,0.9-12.9,1.7l-1.5,0.3v98.3h22.4v-32.8l0.3,0c1.1,0.1,2.2,0.2,3.3,0.2
		c1.1,0,2.2,0.1,3.2,0.1L118.6,231.9z M110.1,228c-0.7,0-1.4-0.1-2.1-0.3l-2.1-0.4v33.4H90.8v-91.7c3.5-0.6,7.2-1.1,11-1.4
		c9.2-1,18.5-0.8,27.6,0.5c3.8,0.6,7.6,1.9,11,3.8l2.6,1.7c3,2.1,5.6,4.8,7.4,8c2.5,4.8,3.7,10.1,3.4,15.5c0.1,5-0.9,9.9-3,14.5
		c-1.8,3.7-4.5,7-7.8,9.5c-3.4,2.5-7.2,4.4-11.2,5.5c-4.3,1.1-8.7,1.7-13.2,1.7h-2.3c-1,0-2,0-3.1-0.1
		C112.2,228.2,111.2,228.1,110.1,228L110.1,228z"/>
	<path class="st2" d="M130.6,212c2.2-1.5,4.1-3.5,5.3-5.9c1.3-2.9,2-6.1,1.9-9.3c0.1-2.9-0.5-5.8-1.9-8.4c-1.2-2.2-2.9-4-4.9-5.4
		c-2-1.3-4.3-2.3-6.7-2.7c-4.2-0.7-8.5-0.9-12.7-0.5c-1.7,0.1-3.1,0.3-4.1,0.5l-1.5,0.3v34l1.3,0.3c0.6,0.2,1.3,0.3,1.9,0.3
		c0.8,0.1,1.6,0.2,2.5,0.2c0.9,0,1.7,0.1,2.5,0.1h1.8c2.5,0,5-0.2,7.5-0.7C126,214.4,128.5,213.4,130.6,212z M115.8,212h-1.7
		c-0.7,0-1.5,0-2.3,0c-0.8-0.1-1.6-0.1-2.3-0.2h0v-28.1c0.7-0.1,1.5-0.2,2.3-0.2c3.9-0.4,7.8-0.2,11.7,0.5c1.9,0.4,3.8,1.1,5.5,2.2
		c1.5,1,2.8,2.4,3.7,4.1c1.1,2.1,1.6,4.4,1.5,6.7c0.1,2.7-0.4,5.3-1.5,7.7c-0.9,1.8-2.3,3.3-4,4.4c-1.8,1.1-3.8,1.9-5.9,2.3
		C120.5,211.7,118.2,212,115.8,212z"/>
	<path class="st2" d="M162.3,190.9c-2.9,7.6-4.2,15.6-4,23.7c-0.2,7.8,1,15.6,3.4,23c2,6,5.2,11.6,9.4,16.2c4,4.2,8.9,7.4,14.3,9.4
		c5.5,2,11.3,3,17.2,3l0.5,0c5.5,0,11-0.8,16.3-2.3c5.3-1.4,10.2-3.9,14.5-7.3l0.7-0.5v-45.4h-39.4v14.8l20.7,2.2v15.5
		c-1.4,0.9-2.9,1.5-4.4,1.9c-2.1,0.6-4.3,0.8-6.5,0.8c-3.1,0-6.2-0.6-9.1-1.8c-2.8-1.2-5.3-3.1-7.3-5.4c-2.3-2.8-4-6.1-5-9.6
		c-1.3-4.7-1.9-9.6-1.8-14.4c-0.1-5,0.5-10,1.9-14.8c1-3.6,2.8-6.9,5.2-9.7c2.1-2.4,4.8-4.2,7.8-5.3c3.2-1.1,6.5-1.7,9.9-1.7h0.3
		c3.5,0,7,0.2,10.5,0.7c2.5,0.4,5,1.1,7.3,2l1.9,0.7l4.7-19.3l-1.5-0.5c-3.3-1.2-6.7-2.1-10.2-2.7c-4.6-0.8-9.3-1.3-14-1.3
		c-6,0-11.9,0.9-17.5,2.8c-5.6,1.9-10.7,5-15,9.1C168.3,179.3,164.7,184.8,162.3,190.9z M189.2,169.1c5.3-1.8,10.8-2.7,16.4-2.6
		c4.5,0,8.9,0.4,13.4,1.2c2.8,0.5,5.5,1.2,8.1,2l-3,12.2c-2-0.7-4-1.2-6.1-1.5c-3.7-0.6-7.4-0.9-11.1-0.8c-3.9,0.1-7.7,0.7-11.5,1.9
		c-3.6,1.3-6.8,3.5-9.3,6.3c-2.8,3.2-4.8,7-6,11c-1.5,5.1-2.2,10.5-2.1,15.8c-0.1,5.2,0.6,10.4,2,15.4c1.1,4,3.1,7.7,5.7,10.9
		c2.4,2.8,5.3,5,8.7,6.5c3.3,1.4,6.8,2,10.3,2c2.6,0,5.1-0.3,7.6-0.9c2.3-0.5,4.5-1.6,6.4-3l0.7-0.5v-20.6l-20.7-2.2v-8h32.2v40.1
		c-3.7,2.9-7.9,5-12.4,6.1c-5,1.4-10.2,2.1-15.4,2.1c-5.6,0.1-11.2-0.9-16.4-2.8c-4.9-1.8-9.3-4.7-12.9-8.5
		c-3.9-4.3-6.9-9.4-8.7-14.9c-2.3-7.1-3.4-14.5-3.2-21.9v-0.1c-0.2-7.6,1.1-15.2,3.8-22.4c2.2-5.6,5.5-10.7,9.8-14.8
		C179.4,173.6,184.1,170.8,189.2,169.1z"/>
	<path class="st2" d="M356.1,326.3l-8.8-24.5l0.3-0.3l-0.6-0.5l-25.5-71.2h-13.8l-34.5,96.6H292l7.3-21.2h29.5l2.4,6.7l-0.1,0.1
		l0.2,0.2l5.2,14.3L356.1,326.3z M304.1,290l7-21.3l2.9-15.2h0.7l2.9,15.1l7.1,21.4H304.1z"/>
	<polygon class="st2" points="275.3,227.3 347.6,85.5 340.1,81.7 266.9,225.4 267.7,227.4 	"/>
	<polygon class="st2" points="250.8,257.3 250.6,257.5 164.4,426.5 171.9,430.3 263.5,250.5 261.7,249.3 	"/>
	<polygon class="st2" points="240.6,231.6 252.9,240.5 249.5,255.3 261.7,246.3 274.7,254.2 270,239.7 281.5,229.8 266.3,229.9 
		260.4,215.9 255.7,230.4 	"/>
	<path class="st2" d="M114.1,252.2l4.2,0.1c0-1.4,0.1-2.7,0.2-4.1l-4.2-0.2C114.2,249.4,114.2,250.8,114.1,252.2z"/>
	<path class="st2" d="M119.2,240l-4.2-0.5c-0.2,1.4-0.3,2.8-0.4,4.2l4.2,0.4C118.9,242.8,119,241.4,119.2,240z"/>
	<path class="st2" d="M155.1,355.8c1,1,2,2,3,2.9l2.9-3c-1-1-2-1.9-3-2.9L155.1,355.8z"/>
	<path class="st2" d="M167.7,367.1c1.1,0.9,2.2,1.7,3.4,2.6l2.5-3.4c-1.1-0.8-2.2-1.7-3.3-2.5L167.7,367.1z"/>
	<path class="st2" d="M164.4,364.4l2.7-3.2c-1-0.9-2.1-1.8-3.1-2.7l-2.8,3.1C162.3,362.6,163.4,363.5,164.4,364.4z"/>
	<path class="st2" d="M142.3,333.9l-3.4,2.4c0.8,1.1,1.6,2.3,2.4,3.4l3.4-2.5C143.9,336.1,143.1,335,142.3,333.9z"/>
	<path class="st2" d="M133.9,319.7l-3.7,2c0.7,1.3,1.3,2.5,2,3.7l3.6-2.1C135.2,322.2,134.5,321,133.9,319.7z"/>
	<path class="st2" d="M130.3,312.4l-3.8,1.7c0.6,1.3,1.2,2.6,1.8,3.8l3.8-1.8C131.4,314.9,130.8,313.6,130.3,312.4z"/>
	<path class="st2" d="M137.9,326.9l-3.6,2.2c0.7,1.2,1.5,2.4,2.2,3.6l3.5-2.3C139.3,329.3,138.6,328.1,137.9,326.9z"/>
	<path class="st2" d="M150.4,167.6l-3-3c-1.3,1.3-2.7,2.9-2.7,2.9l0,0l-0.5,0.6l3.4,2.5C147.7,170.5,149.1,168.9,150.4,167.6z"/>
	<path class="st2" d="M124.5,297l-4,1.2c0.4,1.4,0.9,2.7,1.3,4l4-1.4C125.3,299.6,124.9,298.3,124.5,297z"/>
	<path class="st2" d="M127.1,304.8l-3.9,1.5c0.5,1.3,1,2.6,1.6,4l3.9-1.6C128.1,307.3,127.6,306,127.1,304.8z"/>
	<path class="st2" d="M155.2,349.9c-0.9-1-1.8-2-2.8-3.1l-3.2,2.7c0.9,1.1,1.9,2.1,2.9,3.2L155.2,349.9z"/>
	<path class="st2" d="M119.3,272.9l-4.2,0.5c0.2,1.4,0.4,2.8,0.6,4.2l4.1-0.7C119.6,275.6,119.4,274.3,119.3,272.9z"/>
	<path class="st2" d="M122.2,289.1l-4.1,1c0.3,1.4,0.7,2.7,1.1,4.1l4-1.1C122.9,291.7,122.6,290.4,122.2,289.1z"/>
	<path class="st2" d="M118.5,264.7l-4.2,0.3c0.1,1.4,0.2,2.8,0.3,4.2l4.2-0.4C118.7,267.4,118.6,266.1,118.5,264.7z"/>
	<path class="st2" d="M120.5,281l-4.1,0.8c0.3,1.4,0.5,2.8,0.8,4.2l4.1-0.9C121,283.7,120.8,282.4,120.5,281z"/>
	<path class="st2" d="M118.3,256.5l-4.2,0c0,1.4,0,2.8,0.1,4.2l4.2-0.1C118.3,259.2,118.3,257.8,118.3,256.5z"/>
	<path class="st2" d="M147.2,340.5l-3.3,2.6c0.9,1.1,1.7,2.2,2.7,3.3l3.2-2.7C148.9,342.6,148.1,341.6,147.2,340.5z"/>
	<path class="st2" d="M350.6,155.9c1,0.9,2,1.9,2.9,2.9l3-3c-1-1-2-2-3-3L350.6,155.9z"/>
	<path class="st2" d="M391.3,230.5l4.1-0.7c-0.2-1.4-0.5-2.8-0.8-4.2l-4.1,0.9C390.8,227.8,391,229.1,391.3,230.5z"/>
	<path class="st2" d="M389.6,222.5l4.1-1c-0.3-1.4-0.7-2.7-1.1-4.1l-4,1.1C388.9,219.8,389.2,221.1,389.6,222.5z"/>
	<path class="st2" d="M387.4,214.6l4-1.3c-0.4-1.3-0.9-2.7-1.3-4l-4,1.4C386.5,212,386.9,213.3,387.4,214.6z"/>
	<path class="st2" d="M384.6,206.8l3.9-1.5c-0.5-1.3-1-2.6-1.6-4l-3.9,1.6C383.6,204.3,384.1,205.5,384.6,206.8z"/>
	<path class="st2" d="M341.2,147.9l2.6-3.3c-1.1-0.9-2.2-1.7-3.4-2.6l-2.5,3.4C339,146.2,340.2,147,341.2,147.9z"/>
	<path class="st2" d="M393.4,246.8l4.2-0.2c-0.1-1.4-0.2-2.8-0.3-4.2l-4.2,0.4C393.2,244.1,393.3,245.4,393.4,246.8z"/>
	<path class="st2" d="M392.6,238.6l4.2-0.5c-0.2-1.4-0.4-2.8-0.6-4.2l-4.1,0.6C392.2,235.9,392.4,237.3,392.6,238.6z"/>
	<path class="st2" d="M364.4,171.1l3.3-2.6c-0.9-1.1-1.8-2.2-2.7-3.3l-3.2,2.7C362.7,169,363.6,170.1,364.4,171.1z"/>
	<path class="st2" d="M381.5,199.2l3.8-1.8c-0.6-1.3-1.2-2.5-1.8-3.8l-3.8,1.8C380.3,196.7,380.9,198,381.5,199.2z"/>
	<polygon class="st2" points="347.6,153.2 350.3,150 347.1,147.3 344.4,150.5 	"/>
	<path class="st2" d="M356.4,161.8c0.9,1,1.8,2,2.8,3l3.1-2.8c-0.9-1.1-1.9-2.1-2.9-3.1L356.4,161.8z"/>
	<path class="st2" d="M369.3,177.8l3.5-2.4c-0.8-1.2-1.6-2.3-2.5-3.5l-3.4,2.5C367.7,175.5,368.5,176.6,369.3,177.8z"/>
	<path class="st2" d="M377.9,191.8l3.7-2c-0.7-1.3-1.3-2.5-2-3.7l-3.6,2.1C376.5,189.4,377.2,190.6,377.9,191.8z"/>
	<path class="st2" d="M373.8,184.7l3.6-2.2c-0.7-1.2-1.5-2.4-2.2-3.6l-3.5,2.3C372.4,182.3,373.1,183.5,373.8,184.7z"/>
	<path class="st2" d="M354.7,352l3,2.9c1-1,2-2,2.9-3.1l-3.1-2.8C356.6,350,355.7,351,354.7,352z"/>
	<polygon class="st2" points="360.3,345.9 363.5,348.6 366.2,345.4 362.9,342.7 	"/>
	<polygon class="st2" points="370.3,332.9 373.8,335.1 376.1,331.6 372.5,329.4 	"/>
	<path class="st2" d="M348.8,357.7l2.8,3.1c1.1-1,2.1-1.9,3.1-2.9l-2.9-3C350.8,355.8,349.8,356.8,348.8,357.7z"/>
	<path class="st2" d="M365.5,339.5l3.3,2.5c0.9-1.1,1.7-2.3,2.5-3.4l-3.4-2.5C367.1,337.3,366.3,338.4,365.5,339.5z"/>
	<path class="st2" d="M336.1,368.1l2.4,3.4c1.1-0.8,2.3-1.7,3.4-2.5l-2.5-3.3C338.2,366.4,337.2,367.3,336.1,368.1z"/>
	<path class="st2" d="M322.1,376.8l2,3.7c1.3-0.7,2.5-1.4,3.7-2.1l-2.1-3.6C324.5,375.5,323.3,376.1,322.1,376.8z"/>
	<path class="st2" d="M342.6,363.1l2.6,3.3c1.1-0.9,2.2-1.8,3.3-2.7l-2.7-3.2C344.7,361.3,343.7,362.2,342.6,363.1z"/>
	<path class="st2" d="M329.2,372.6l2.3,3.5c1.2-0.8,2.4-1.5,3.5-2.3l-2.3-3.5C331.5,371.1,330.4,371.9,329.2,372.6z"/>
	<path class="st2" d="M374.7,325.9l3.6,2.1c0.7-1.2,1.4-2.5,2.1-3.7l-3.7-2C376,323.5,375.4,324.7,374.7,325.9z"/>
	<path class="st2" d="M382.2,311.2l3.8,1.7c0.6-1.3,1.1-2.6,1.7-3.9l-3.9-1.6C383.3,308.6,382.7,309.9,382.2,311.2z"/>
	<path class="st2" d="M391.7,279.6l4.1,0.7c0.2-1.4,0.5-2.8,0.7-4.2l-4.2-0.6C392.1,277,391.9,278.3,391.7,279.6z"/>
	<path class="st2" d="M393.5,263.3l4.2,0.2c0.1-1.4,0.1-2.8,0.2-4.3l-4.2-0.1C393.6,260.6,393.6,261.9,393.5,263.3z"/>
	<path class="st2" d="M392.8,271.5l4.2,0.5c0.2-1.4,0.3-2.8,0.4-4.2l-4.2-0.4C393.1,268.8,393,270.1,392.8,271.5z"/>
	<path class="st2" d="M393.6,250.9c0,1.4,0.1,2.7,0.1,4.1h4.2c0-1.4,0-2.8-0.1-4.3L393.6,250.9z"/>
	<path class="st2" d="M385.3,303.5l3.9,1.5c0.5-1.3,1-2.7,1.4-4l-4-1.3C386.2,300.9,385.8,302.2,385.3,303.5z"/>
	<path class="st2" d="M201.3,387c1.3,0.5,2.6,1,3.9,1.6l1.5-3.9c-1.3-0.5-2.6-1-3.9-1.6L201.3,387z"/>
	<path class="st2" d="M314.8,380.6l1.8,3.8c1.3-0.6,2.5-1.2,3.8-1.9l-1.9-3.7C317.3,379.4,316,380,314.8,380.6z"/>
	<path class="st2" d="M378.7,318.6l3.7,1.9c0.6-1.2,1.3-2.5,1.9-3.8l-3.8-1.8C379.9,316.2,379.3,317.4,378.7,318.6z"/>
	<path class="st2" d="M387.9,295.7l4,1.2c0.4-1.4,0.8-2.7,1.2-4.1l-4.1-1.1C388.7,293,388.3,294.3,387.9,295.7z"/>
	<path class="st2" d="M390,287.7l4.1,1c0.3-1.4,0.6-2.8,0.9-4.2l-4.1-0.8C390.6,285,390.3,286.4,390,287.7z"/>
	<path class="st2" d="M275.6,392.3l0.6,4.2c1.4-0.2,2.8-0.4,4.2-0.7l-0.8-4.1C278.3,391.9,276.9,392.1,275.6,392.3z"/>
	<path class="st2" d="M299.5,386.7l1.3,4c1.4-0.5,2.7-0.9,4-1.4l-1.4-3.9C302.2,385.8,300.9,386.2,299.5,386.7z"/>
	<path class="st2" d="M267.4,393.2l0.4,4.2c1.4-0.1,2.8-0.3,4.2-0.4l-0.5-4.2C270.1,393,268.7,393.1,267.4,393.2z"/>
	<path class="st2" d="M283.7,390.9l0.8,4.1c1.4-0.3,2.8-0.6,4.1-0.9l-1-4.1C286.3,390.4,285,390.7,283.7,390.9z"/>
	<path class="st2" d="M307.3,383.8l1.6,3.9c1.3-0.5,2.6-1.1,3.9-1.7l-1.7-3.8C309.8,382.8,308.6,383.3,307.3,383.8z"/>
	<path class="st2" d="M259.1,393.7l0.1,4.2c1.4,0,2.8-0.1,4.2-0.1l-0.2-4.2C261.9,393.6,260.5,393.6,259.1,393.7z"/>
	<path class="st2" d="M291.7,389l1.1,4.1c1.4-0.4,2.7-0.8,4.1-1.1l-1.2-4C294.3,388.3,293,388.7,291.7,389z"/>
	<path class="st2" d="M233.9,396.2c1.4,0.2,2.8,0.4,4.2,0.6l0.5-4.2c-1.4-0.2-2.7-0.4-4.1-0.6L233.9,396.2z"/>
	<path class="st2" d="M217.3,392.6c1.4,0.4,2.7,0.8,4.1,1.1l1-4.1c-1.3-0.3-2.7-0.7-4-1.1L217.3,392.6z"/>
	<path class="st2" d="M209.2,390c1.3,0.5,2.7,0.9,4,1.3l1.3-4c-1.3-0.4-2.6-0.9-3.9-1.3L209.2,390z"/>
	<path class="st2" d="M250.8,397.8c1.4,0,2.8,0.1,4.2,0.1l0-4.2c-1.4,0-2.8,0-4.1-0.1L250.8,397.8z"/>
	<path class="st2" d="M225.5,394.6c1.4,0.3,2.8,0.6,4.1,0.9l0.8-4.1c-1.4-0.3-2.7-0.5-4-0.8L225.5,394.6z"/>
	<path class="st2" d="M242.3,397.2c1.4,0.1,2.8,0.3,4.2,0.4l0.3-4.2c-1.4-0.1-2.8-0.2-4.1-0.3L242.3,397.2z"/>
	<path class="st2" d="M154.8,162.6l-3.1-2.8c-1,1-1.9,2.1-2.8,3.2l3.2,2.7C152.9,164.7,153.8,163.6,154.8,162.6z"/>
	<path class="st2" d="M173,146.1l-2.5-3.4c-1.1,0.9-2.2,1.7-3.3,2.6l2.6,3.3C170.8,147.7,171.9,146.9,173,146.1z"/>
	<path class="st2" d="M179.7,141.3l-2.3-3.5c-1.2,0.8-2.4,1.6-3.5,2.4l2.4,3.4C177.5,142.8,178.6,142,179.7,141.3z"/>
	<path class="st2" d="M166.6,151.2l-2.7-3.2c-1.1,0.9-2.1,1.8-3.2,2.8l2.8,3.1C164.5,153,165.6,152.1,166.6,151.2z"/>
	<path class="st2" d="M186.7,136.9l-2.1-3.6c-1.2,0.7-2.4,1.4-3.6,2.2l2.2,3.5C184.4,138.3,185.5,137.6,186.7,136.9z"/>
	<path class="st2" d="M160.5,156.7l-2.9-3c-1,1-2,2-3,3l3,2.9C158.5,158.7,159.5,157.7,160.5,156.7z"/>
	<path class="st2" d="M232.9,120.2l-0.7-4.1c-1.4,0.2-2.8,0.5-4.2,0.8l0.8,4.1C230.2,120.7,231.5,120.5,232.9,120.2z"/>
	<path class="st2" d="M249.2,118.5l-0.2-4.2c-1.4,0.1-2.8,0.2-4.2,0.3l0.3,4.2C246.5,118.6,247.9,118.5,249.2,118.5z"/>
	<path class="st2" d="M241,119.1l-0.5-4.2c-1.4,0.2-2.8,0.3-4.2,0.5l0.6,4.2C238.3,119.4,239.7,119.2,241,119.1z"/>
	<path class="st2" d="M216.8,123.9l-1.2-4c-1.4,0.4-2.7,0.8-4,1.3l1.3,4C214.2,124.7,215.5,124.3,216.8,123.9z"/>
	<path class="st2" d="M224.8,121.8l-0.9-4.1c-1.4,0.3-2.8,0.7-4.1,1l1.1,4.1C222.1,122.5,223.5,122.1,224.8,121.8z"/>
	<path class="st2" d="M194,133l-1.9-3.7c-1.3,0.6-2.5,1.3-3.7,2l2,3.7C191.5,134.3,192.7,133.6,194,133z"/>
	<path class="st2" d="M201.4,129.5l-1.6-3.8c-1.3,0.6-2.6,1.1-3.9,1.7l1.8,3.8C198.9,130.6,200.1,130.1,201.4,129.5z"/>
	<path class="st2" d="M209,126.5l-1.4-3.9c-1.3,0.5-2.6,1-4,1.5l1.6,3.9C206.5,127.4,207.8,127,209,126.5z"/>
	<polygon class="st2" points="256,118.3 257.5,118.3 257.5,114.1 256,114.1 253.2,114.1 253.3,118.3 	"/>
	<path class="st2" d="M291.1,118.5c-1.4-0.4-2.7-0.7-4.1-1l-0.9,4.1c1.3,0.3,2.7,0.6,4,1L291.1,118.5z"/>
	<path class="st2" d="M299.2,120.8c-1.3-0.4-2.7-0.8-4.1-1.2l-1.1,4c1.3,0.4,2.6,0.8,3.9,1.2L299.2,120.8z"/>
	<path class="st2" d="M307.2,123.7c-1.3-0.5-2.6-1-4-1.5l-1.4,3.9c1.3,0.5,2.6,0.9,3.8,1.4L307.2,123.7z"/>
	<polygon class="st2" points="312.8,125.9 311.2,125.3 309.5,129.1 311.1,129.8 	"/>
	<path class="st2" d="M282.8,116.6c-1.4-0.3-2.8-0.5-4.2-0.7L278,120c1.4,0.2,2.7,0.5,4.1,0.7L282.8,116.6z"/>
	<path class="st2" d="M266,114.5c-1.4-0.1-2.8-0.2-4.3-0.2l-0.2,4.2c1.4,0.1,2.7,0.1,4.1,0.2L266,114.5z"/>
	<path class="st2" d="M274.4,115.3c-1.4-0.2-2.8-0.3-4.2-0.5l-0.4,4.2c1.4,0.1,2.7,0.3,4.1,0.5L274.4,115.3z"/>
	<path class="st2" d="M115.9,232.8c-0.3,1.4-0.5,2.8-0.5,2.8l0,0l-0.1,0.7l4.2,0.2c0,0,0.3-2,0.7-3.7
		C118.2,232.9,116.7,232.8,115.9,232.8z"/>
</g>
</svg>
