<?xml version="1.0" encoding="utf-8"?>
<!-- Generator: Adobe Illustrator 25.1.0, SVG Export Plug-In . SVG Version: 6.00 Build 0)  -->
<svg version="1.1" id="Capa_1" xmlns="http://www.w3.org/2000/svg" xmlns:xlink="http://www.w3.org/1999/xlink" x="0px" y="0px"
	 viewBox="0 0 512 512" style="enable-background:new 0 0 512 512;" xml:space="preserve">
<style type="text/css">
	.st0{fill:#F1F1F2;}
	.st1{fill:#FFFFFF;}
	.st2{fill:#667F00;}
</style>
<rect x="0" class="st0" width="512" height="512"/>
<g>
	<circle class="st1" cx="256" cy="256.94" r="218.73"/>
	<g>
		<path class="st2" d="M256,36.34c-120.97,0-219.15,98.13-219.15,219.16c0,120.96,98.18,219.06,219.15,219.06
			c121.03,0,219.15-98.1,219.15-219.06C475.15,134.46,377.04,36.34,256,36.34z M107.16,106.63c19.34-19.34,41.86-34.52,66.92-45.13
			c25.95-10.98,53.51-16.54,81.92-16.54c28.42,0,55.99,5.57,81.94,16.54c25.07,10.6,47.58,25.79,66.92,45.12
			c19.34,19.34,34.52,41.85,45.12,66.92c10.66,25.2,16.2,51.92,16.51,79.48h-64.99c-1.55,0-2.99,0.84-3.75,2.19l-6.55,11.56
			l-10.12-41.66c-0.48-1.97-2.24-3.34-4.28-3.29c-2.02,0.04-3.75,1.49-4.14,3.47l-14.1,71.24l-12.36-32.32v-51.45H327.3l-14-38.24
			c-0.65-1.79-2.4-2.93-4.3-2.82c-1.9,0.11-3.5,1.45-3.95,3.3l-9.06,37.76h-3.45V199H275.1v-10.84h-8.24v-77.68h-22.21v77.68h-8.24
			V199h-17.44v13.75h-35.74l-13.08-40.46c-0.61-1.89-2.43-3.13-4.41-2.98c-1.98,0.14-3.61,1.61-3.94,3.57l-21.86,126.89
			l-16.99-83.57c-0.38-1.86-1.93-3.26-3.82-3.44c-1.89-0.18-3.68,0.9-4.4,2.66l-13.69,33.52H45.59c0.79-26.11,6.3-51.45,16.44-75.4
			C72.63,148.49,87.82,125.97,107.16,106.63z M337.58,352.42v51.4H173.93v-51.4c0-1.48,1.05-2.72,2.44-3.02
			c0.22,0.01,0.43,0.03,0.65,0.03h157.47c0.22,0,0.43-0.02,0.65-0.03C336.53,349.7,337.58,350.94,337.58,352.42z M173.93,337.71
			v-48.31c0-1.71,1.39-3.09,3.09-3.09h157.47c1.71,0,3.09,1.39,3.09,3.09v48.31c0,1.48-1.05,2.72-2.44,3.02
			c-0.22-0.01-0.43-0.03-0.65-0.03H177.02c-0.22,0-0.43,0.02-0.65,0.03C174.97,340.44,173.93,339.2,173.93,337.71z M218.97,221.38
			h73.57h45.04v34.93H173.93v-34.93H218.97z M253.28,119.11h4.95v11.56h-4.95V119.11z M253.28,134.98h4.95v53.18h-4.95V134.98z
			 M266.47,196.79v1.8h-21.44v-1.8H266.47z M283.91,207.63v5.12h-56.32v-5.12H283.91z M304.86,212.75l5.24-21.86l8,21.86H304.86z
			 M316.54,264.93v12.76H194.97v-12.76H316.54z M320.85,277.69v-12.76h6.59v12.76H320.85z M190.66,264.93v12.76h-6.59v-12.76H190.66
			z M334.49,277.69h-2.73v-12.76h5.49l6.75,17.66C341.87,279.63,338.41,277.69,334.49,277.69z M404.86,404.28
			c-19.34,19.33-41.85,34.51-66.92,45.11c-25.95,10.97-53.52,16.54-81.94,16.54c-28.41,0-55.97-5.56-81.92-16.54
			c-25.07-10.6-47.58-25.78-66.92-45.11c-19.34-19.33-34.53-41.84-45.13-66.89c-10.71-25.3-16.26-52.14-16.52-79.81h58.43
			c1.75,0,3.33-1.06,3.99-2.68l9.4-23.03l18.73,92.13c0.41,2.01,2.18,3.45,4.23,3.45c0.02,0,0.04,0,0.07,0
			c2.07-0.03,3.83-1.53,4.19-3.58l22.79-132.28l6.84,21.15h-8.86v52.18h14.45v12.76h-2.73c-6.46,0-11.72,5.26-11.72,11.72v48.31
			c0,2.78,0.98,5.34,2.61,7.35c-1.63,2.01-2.61,4.57-2.61,7.35v60.03h180.91v-60.03c0-2.78-0.98-5.34-2.61-7.35
			c1.63-2.01,2.61-4.57,2.61-7.35v-48.31c0-0.41-0.02-0.81-0.06-1.21l9.71,25.41c0.64,1.68,2.25,2.77,4.03,2.77
			c0.12,0,0.24-0.01,0.37-0.02c1.92-0.16,3.49-1.57,3.87-3.46l13.21-66.73l8.08,33.23c0.42,1.72,1.84,3.01,3.6,3.25
			c1.75,0.24,3.48-0.61,4.35-2.15l10.68-18.85h62.41c-0.75,26.23-6.26,51.68-16.44,75.74C439.38,362.45,424.2,384.95,404.86,404.28z
			"/>
		<path class="st2" d="M201.36,327.31c7.58,0,13.75-6.17,13.75-13.75c0-7.58-6.17-13.75-13.75-13.75s-13.75,6.17-13.75,13.75
			C187.61,321.14,193.77,327.31,201.36,327.31z M201.36,308.44c2.83,0,5.12,2.3,5.12,5.12s-2.3,5.12-5.12,5.12s-5.12-2.3-5.12-5.12
			S198.53,308.44,201.36,308.44z"/>
		<path class="st2" d="M310.58,362.09c-7.58,0-13.75,6.17-13.75,13.75c0,7.58,6.17,13.75,13.75,13.75c7.58,0,13.75-6.17,13.75-13.75
			C324.33,368.26,318.16,362.09,310.58,362.09z M310.58,380.97c-2.83,0-5.12-2.3-5.12-5.12c0-2.82,2.3-5.12,5.12-5.12
			c2.83,0,5.12,2.3,5.12,5.12C315.7,378.67,313.4,380.97,310.58,380.97z"/>
		<rect x="191.92" y="373.69" class="st2" width="76.65" height="4.31"/>
		<rect x="191.92" y="384.77" class="st2" width="76.65" height="4.31"/>
		<rect x="191.92" y="362.73" class="st2" width="76.65" height="4.31"/>
		<rect x="243.68" y="309.91" class="st2" width="76.65" height="4.31"/>
		<rect x="243.68" y="320.99" class="st2" width="76.65" height="4.31"/>
		<rect x="243.68" y="298.95" class="st2" width="76.65" height="4.31"/>
		<rect x="182.97" y="226.41" class="st2" width="8.78" height="8.78"/>
		<rect x="200.53" y="226.41" class="st2" width="8.78" height="8.78"/>
		<rect x="218.09" y="226.41" class="st2" width="8.78" height="8.78"/>
		<rect x="235.65" y="226.41" class="st2" width="8.78" height="8.78"/>
		<rect x="253.21" y="226.41" class="st2" width="8.78" height="8.78"/>
		<rect x="270.77" y="226.41" class="st2" width="8.78" height="8.78"/>
		<rect x="288.33" y="226.41" class="st2" width="8.78" height="8.78"/>
		<rect x="305.89" y="226.41" class="st2" width="8.78" height="8.78"/>
		<rect x="323.46" y="226.41" class="st2" width="8.78" height="8.78"/>
		<rect x="182.97" y="241.45" class="st2" width="8.78" height="8.78"/>
		<rect x="200.53" y="241.45" class="st2" width="8.78" height="8.78"/>
		<rect x="218.09" y="241.45" class="st2" width="8.78" height="8.78"/>
		<rect x="235.65" y="243.65" class="st2" width="96.58" height="4.31"/>
		<rect x="287.81" y="116.57" class="st2" width="6.13" height="6.13"/>
		<rect x="300.07" y="116.57" class="st2" width="6.13" height="6.13"/>
		<rect x="312.32" y="116.57" class="st2" width="6.13" height="6.13"/>
		<rect x="324.57" y="116.57" class="st2" width="6.13" height="6.13"/>
		<rect x="336.82" y="116.57" class="st2" width="6.13" height="6.13"/>
		<rect x="312.32" y="150.1" class="st2" width="6.13" height="6.13"/>
		<rect x="300.07" y="138.92" class="st2" width="6.13" height="6.13"/>
		<rect x="312.32" y="138.92" class="st2" width="6.13" height="6.13"/>
		<rect x="324.57" y="138.92" class="st2" width="6.13" height="6.13"/>
		<rect x="294.05" y="127.74" class="st2" width="6.13" height="6.13"/>
		<rect x="306.3" y="127.74" class="st2" width="6.13" height="6.13"/>
		<rect x="318.55" y="127.74" class="st2" width="6.13" height="6.13"/>
		<rect x="330.8" y="127.74" class="st2" width="6.13" height="6.13"/>
		<rect x="312.53" y="83.04" class="st2" width="6.13" height="6.13"/>
		<rect x="324.79" y="94.21" class="st2" width="6.13" height="6.13"/>
		<rect x="312.53" y="94.21" class="st2" width="6.13" height="6.13"/>
		<rect x="300.28" y="94.21" class="st2" width="6.13" height="6.13"/>
		<rect x="330.8" y="105.39" class="st2" width="6.13" height="6.13"/>
		<rect x="318.55" y="105.39" class="st2" width="6.13" height="6.13"/>
		<rect x="306.3" y="105.39" class="st2" width="6.13" height="6.13"/>
		<rect x="294.05" y="105.39" class="st2" width="6.13" height="6.13"/>
		<rect x="169.05" y="116.57" class="st2" width="6.13" height="6.13"/>
		<rect x="181.3" y="116.57" class="st2" width="6.13" height="6.13"/>
		<rect x="193.56" y="116.57" class="st2" width="6.13" height="6.13"/>
		<rect x="205.81" y="116.57" class="st2" width="6.13" height="6.13"/>
		<rect x="218.06" y="116.57" class="st2" width="6.13" height="6.13"/>
		<rect x="193.56" y="150.1" class="st2" width="6.13" height="6.13"/>
		<rect x="181.3" y="138.92" class="st2" width="6.13" height="6.13"/>
		<rect x="193.56" y="138.92" class="st2" width="6.13" height="6.13"/>
		<rect x="205.81" y="138.92" class="st2" width="6.13" height="6.13"/>
		<rect x="175.28" y="127.74" class="st2" width="6.13" height="6.13"/>
		<rect x="187.54" y="127.74" class="st2" width="6.13" height="6.13"/>
		<rect x="199.79" y="127.74" class="st2" width="6.13" height="6.13"/>
		<rect x="212.04" y="127.74" class="st2" width="6.13" height="6.13"/>
		<rect x="193.77" y="83.04" class="st2" width="6.13" height="6.13"/>
		<rect x="206.02" y="94.21" class="st2" width="6.13" height="6.13"/>
		<rect x="193.77" y="94.21" class="st2" width="6.13" height="6.13"/>
		<rect x="181.52" y="94.21" class="st2" width="6.13" height="6.13"/>
		<rect x="212.04" y="105.39" class="st2" width="6.13" height="6.13"/>
		<rect x="199.79" y="105.39" class="st2" width="6.13" height="6.13"/>
		<rect x="187.54" y="105.39" class="st2" width="6.13" height="6.13"/>
		<rect x="175.28" y="105.39" class="st2" width="6.13" height="6.13"/>
	</g>
</g>
</svg>
