<?xml version="1.0" encoding="utf-8"?>
<!-- Generator: Adobe Illustrator 25.1.0, SVG Export Plug-In . SVG Version: 6.00 Build 0)  -->
<svg version="1.1" id="Capa_1" xmlns="http://www.w3.org/2000/svg" xmlns:xlink="http://www.w3.org/1999/xlink" x="0px" y="0px"
	 viewBox="0 0 512 512" style="enable-background:new 0 0 512 512;" xml:space="preserve">
<style type="text/css">
	.st0{fill:#F1F1F2;}
	.st1{fill:#FFFFFF;}
	.st2{fill:#667F00;}
</style>
<rect x="0" class="st0" width="512" height="512"/>
<g>
	<circle class="st1" cx="256" cy="256" r="218.73"/>
	<g>
		<path class="st2" d="M256.1,36.89c-119.71,0-217.08,96.1-219.1,215.39c-0.15,0.44-0.26,0.91-0.26,1.41c0,0.46,0.09,0.89,0.22,1.3
			c0,0.36-0.01,0.71-0.01,1.07c0,120.96,98.18,219.06,219.15,219.06c121.03,0,219.15-98.1,219.15-219.06
			C475.25,135.02,377.14,36.89,256.1,36.89z M107.27,107.18c19.34-19.34,41.86-34.52,66.92-45.13
			c25.95-10.98,53.51-16.54,81.92-16.54c28.42,0,55.99,5.57,81.94,16.54c25.07,10.6,47.58,25.79,66.92,45.12
			c19.34,19.34,34.52,41.86,45.12,66.92c10.64,25.15,16.18,51.83,16.51,79.34h-65.17c-1.55,0-2.99,0.84-3.75,2.19l-1.29,2.28
			l-2.56-0.03v-4.29l3-0.05c-0.02-1.45-0.07-2.93-0.14-4.38l-2.86,0.14V245l2.58-0.2c-0.11-1.45-0.25-2.92-0.41-4.36l-2.17,0.24
			v-4.35l1.62-0.23c-0.2-1.44-0.43-2.89-0.68-4.33l-0.94,0.16v-4.44l0.12-0.03c-0.04-0.19-0.08-0.37-0.12-0.56v-81.67
			c0-13.51-10.99-24.5-24.5-24.5c-13.51,0-24.5,10.99-24.5,24.5v119.43l-8.71,5.98l-22.58-114.92c-0.4-2.05-2.21-3.51-4.3-3.48
			c-2.09,0.03-3.85,1.56-4.19,3.62l-4.72,28.92c-10.58-12.67-26.48-20.74-44.23-20.74c-3.27,0-6.47,0.29-9.6,0.81l-7.09-83.62
			c-0.18-2.18-1.98-3.88-4.17-3.95c-2.18-0.07-4.08,1.53-4.4,3.69l-14.27,98.82c-11.12,10.51-18.09,25.38-18.09,41.86
			c0,10.56,2.87,20.46,7.85,28.98l-5.1,35.32c-0.1,0.68-0.02,1.34,0.19,1.95h-7.81c0.25-0.75,0.3-1.58,0.09-2.4l-24-94.23
			c-0.48-1.88-2.15-3.21-4.09-3.25c-1.92-0.02-3.66,1.21-4.22,3.07l-19.87,66.06l-16.53-35.17c-0.71-1.5-2.22-2.47-3.88-2.48
			c-1.63-0.02-3.18,0.94-3.91,2.43l-13.29,27.43H45.7c0.81-26.06,6.31-51.35,16.43-75.26C72.74,149.04,87.92,126.52,107.27,107.18z
			 M310.6,346.87v59.35c0,0.15,0.03,0.29,0.04,0.44H204.49c0.01-0.15,0.04-0.29,0.04-0.44v-58.55c0-2.38-1.93-4.31-4.31-4.31
			s-4.31,1.93-4.31,4.31v58.55c0,0.15,0.03,0.29,0.04,0.44h-31.03c0.01-0.15,0.04-0.29,0.04-0.44v-82.88v-10.94
			c0-8.75,7.12-15.87,15.87-15.87h54.97c3.01,6.68,8.98,11.6,16.04,13.33c0.67,0.43,1.47,0.68,2.31,0.68c0.12,0,0.25-0.01,0.37-0.02
			c0.2-0.02,0.39-0.07,0.59-0.11c0.76,0.08,1.53,0.13,2.3,0.13c9.38,0,17.84-5.62,21.61-14.01h8.14c0,0,0.01,0,0.01,0
			c0,0,0.01,0,0.01,0h25.1c0.87,0,1.72-0.26,2.44-0.76l20.83-14.29c0.01,0,0.01-0.01,0.02-0.01l16-10.98
			c1.17-0.8,1.87-2.13,1.87-3.56v-121.7c0-8.75,7.12-15.87,15.87-15.87c8.75,0,15.87,7.12,15.87,15.87v144.8l-72.83,53.36
			C311.26,344.2,310.6,345.5,310.6,346.87z M256.1,172.66c27.01,0,48.99,21.98,48.99,48.99s-21.98,48.99-48.99,48.99
			s-48.99-21.98-48.99-48.99S229.09,172.66,256.1,172.66z M226.37,172.32l7.63-52.83l4.02,47.47
			C233.92,168.32,230.01,170.12,226.37,172.32z M276.04,287.91c-0.08,0-0.16,0.02-0.24,0.02c-0.16,0.01-0.31,0.02-0.46,0.05
			c-0.14,0.02-0.27,0.05-0.4,0.09c-0.14,0.04-0.27,0.08-0.4,0.13c-0.13,0.05-0.26,0.11-0.38,0.17c-0.12,0.06-0.24,0.12-0.36,0.2
			c-0.12,0.07-0.23,0.15-0.34,0.23c-0.11,0.08-0.22,0.17-0.33,0.27c-0.1,0.09-0.19,0.19-0.28,0.28c-0.1,0.11-0.19,0.21-0.27,0.33
			c-0.08,0.11-0.16,0.23-0.23,0.35c-0.07,0.12-0.14,0.23-0.19,0.36c-0.07,0.14-0.12,0.28-0.17,0.43c-0.03,0.08-0.07,0.14-0.09,0.22
			c-1.78,6.18-7.39,10.55-13.78,10.86l-1.92-22.62c11.03-0.02,21.35-3.16,30.11-8.58l-2.81,17.23H276.04z M296.34,262.84
			c10.71-10.47,17.38-25.06,17.38-41.19c0-9.47-2.31-18.4-6.37-26.29l2.36-14.44l18.67,95.03l-17.42,11.96h-18.71L296.34,262.84z
			 M213.63,260.53c8.7,9.5,20.54,16.08,33.87,18.09l1.77,20.88c-2.99-1.93-5.3-4.9-6.33-8.47c-0.02-0.08-0.06-0.15-0.09-0.22
			c-0.05-0.15-0.11-0.29-0.17-0.43c-0.06-0.12-0.13-0.24-0.2-0.36c-0.07-0.12-0.15-0.24-0.23-0.35c-0.09-0.12-0.18-0.23-0.27-0.33
			c-0.09-0.1-0.18-0.19-0.28-0.28c-0.11-0.1-0.21-0.19-0.33-0.27c-0.11-0.08-0.22-0.16-0.34-0.23c-0.12-0.07-0.24-0.14-0.36-0.2
			c-0.13-0.06-0.25-0.12-0.38-0.17c-0.13-0.05-0.27-0.09-0.4-0.13c-0.13-0.03-0.26-0.07-0.4-0.09c-0.15-0.03-0.3-0.04-0.46-0.05
			c-0.08,0-0.16-0.02-0.24-0.02H209.6c0.08-0.23,0.14-0.47,0.17-0.72L213.63,260.53z M393.82,262.43v-0.26l0.14,0.01L393.82,262.43z
			 M404.97,404.84c-19.34,19.33-41.85,34.51-66.92,45.11c-25.95,10.97-53.52,16.54-81.94,16.54c-28.41,0-55.97-5.56-81.92-16.54
			c-25.07-10.6-47.58-25.78-66.92-45.11C87.92,385.51,72.74,363,62.13,337.95C51.4,312.6,45.85,285.71,45.6,258h61.02
			c1.65,0,3.16-0.94,3.88-2.43l10.53-21.73l17.48,37.18c0.76,1.62,2.43,2.6,4.22,2.47c1.78-0.13,3.3-1.35,3.81-3.06l18.63-61.96
			l20.16,79.17c0.02,0.1,0.06,0.18,0.1,0.27h-4.6c-13.51,0-24.5,10.99-24.5,24.5v10.94v82.88c0,0.15,0.03,0.29,0.04,0.44h-26.66
			v8.63h252.75v-8.63h-63.29c0.01-0.15,0.04-0.29,0.04-0.44v-57.17l65.72-48.15c-0.31,0.89-0.62,1.78-0.94,2.66l4.04,1.5
			c0.51-1.36,1-2.75,1.46-4.13l-3.16-1.06l4.32-3.16l0.17,0.05c0.02-0.07,0.04-0.15,0.06-0.23l1.15-0.84
			c1.11-0.81,1.76-2.1,1.76-3.48v-7.14c0.07-0.35,0.16-0.7,0.23-1.05l-0.23-0.05v-4.05l0.2-0.36l0.83,0.14
			c0.12-0.73,0.23-1.47,0.34-2.2l8.75-15.44h62.6c-0.73,26.28-6.25,51.78-16.45,75.88C439.48,363,424.3,385.51,404.97,404.84z"/>
		<rect x="254.46" y="330.2" class="st2" width="5.91" height="5.91"/>
		<rect x="254.46" y="341.24" class="st2" width="5.91" height="5.91"/>
		<rect x="254.46" y="352.28" class="st2" width="5.91" height="5.91"/>
		<path class="st2" d="M363.93,339.59l3.41,2.64c0.89-1.15,1.78-2.33,2.63-3.5l-3.49-2.54
			C365.65,337.33,364.79,338.48,363.93,339.59z"/>
		<path class="st2" d="M340,363.59l2.66,3.4c1.15-0.9,2.29-1.82,3.41-2.75l-2.76-3.32C342.23,361.82,341.11,362.72,340,363.59z"/>
		<path class="st2" d="M346.53,358.15l2.86,3.23c1.09-0.96,2.17-1.95,3.23-2.95l-2.96-3.14
			C348.64,356.26,347.58,357.22,346.53,358.15z"/>
		<path class="st2" d="M352.71,352.33l3.05,3.05c1.03-1.03,2.05-2.09,3.04-3.15l-3.15-2.95C354.7,350.3,353.71,351.33,352.71,352.33
			z"/>
		<path class="st2" d="M368.93,332.73l3.56,2.43c0.82-1.21,1.63-2.44,2.41-3.66l-3.64-2.32
			C370.51,330.37,369.72,331.56,368.93,332.73z"/>
		<path class="st2" d="M358.51,346.14l3.24,2.85c0.97-1.1,1.92-2.22,2.84-3.33l-3.32-2.75
			C360.38,343.98,359.45,345.07,358.51,346.14z"/>
		<path class="st2" d="M381.23,310.45l3.95,1.72c0.58-1.33,1.15-2.69,1.69-4.04l-4.01-1.6
			C382.34,307.85,381.79,309.17,381.23,310.45z"/>
		<path class="st2" d="M326.01,373.18l2.21,3.7c1.24-0.74,2.49-1.52,3.72-2.31l-2.33-3.63
			C328.42,371.71,327.21,372.46,326.01,373.18z"/>
		<path class="st2" d="M373.49,325.56l3.71,2.2c0.74-1.25,1.47-2.53,2.18-3.8l-3.77-2.09C374.92,323.11,374.21,324.35,373.49,325.56
			z"/>
		<path class="st2" d="M377.59,318.13l3.84,1.97c0.67-1.3,1.32-2.62,1.94-3.93l-3.9-1.85C378.87,315.59,378.24,316.87,377.59,318.13
			z"/>
		<path class="st2" d="M333.15,368.6l2.44,3.56c1.21-0.83,2.41-1.68,3.57-2.53l-2.55-3.48C335.49,366.97,334.32,367.8,333.15,368.6z
			"/>
		<path class="st2" d="M310.51,126.16c-1.35-0.56-2.71-1.11-4.07-1.63l-1.54,4.03c1.31,0.5,2.64,1.03,3.94,1.58L310.51,126.16z"/>
		<path class="st2" d="M318.48,129.8c-1.3-0.64-2.63-1.28-3.96-1.88l-1.79,3.92c1.28,0.59,2.57,1.2,3.83,1.82L318.48,129.8z"/>
		<path class="st2" d="M326.21,133.94c-1.26-0.73-2.55-1.44-3.83-2.13l-2.03,3.8c1.24,0.66,2.49,1.36,3.71,2.06L326.21,133.94z"/>
		<path class="st2" d="M293.96,120.41c-1.4-0.39-2.82-0.76-4.24-1.11l-1.03,4.19c1.37,0.34,2.76,0.7,4.11,1.08L293.96,120.41z"/>
		<path class="st2" d="M302.33,123.03c-1.37-0.48-2.77-0.94-4.16-1.37l-1.29,4.12c1.34,0.42,2.7,0.87,4.03,1.33L302.33,123.03z"/>
		<path class="st2" d="M333.66,138.54c-1.21-0.8-2.45-1.6-3.69-2.36l-2.27,3.67c1.2,0.74,2.4,1.51,3.58,2.29L333.66,138.54z"/>
		<path class="st2" d="M340.81,143.6c-1.16-0.88-2.35-1.74-3.54-2.58l-2.49,3.52c1.15,0.81,2.3,1.66,3.43,2.51L340.81,143.6z"/>
		<path class="st2" d="M256.1,119.57c1.05,0,2.11,0.01,3.16,0.04l0.1-4.31c-1.08-0.02-2.17-0.04-3.26-0.04l-1.13,0l0.03,4.31
			L256.1,119.57z"/>
		<path class="st2" d="M285.45,118.33c-1.43-0.3-2.88-0.59-4.3-0.84l-0.76,4.24c1.38,0.25,2.79,0.52,4.17,0.82L285.45,118.33z"/>
		<path class="st2" d="M268.11,115.77c-1.44-0.12-2.92-0.22-4.37-0.3l-0.23,4.31c1.41,0.08,2.84,0.17,4.24,0.29L268.11,115.77z"/>
		<path class="st2" d="M250.76,119.68l-0.17-4.31c-1.45,0.06-2.92,0.13-4.37,0.24l0.3,4.3
			C247.92,119.81,249.35,119.73,250.76,119.68z"/>
		<path class="st2" d="M276.82,116.78c-1.44-0.21-2.9-0.4-4.35-0.57l-0.5,4.28c1.4,0.16,2.82,0.35,4.21,0.55L276.82,116.78z"/>
		<path class="st2" d="M179.59,143.03l-2.42-3.57c-1.21,0.82-2.41,1.67-3.58,2.51l2.53,3.49
			C177.25,144.65,178.42,143.83,179.59,143.03z"/>
		<path class="st2" d="M172.72,148.01l-2.64-3.41c-1.15,0.89-2.3,1.81-3.42,2.73l2.74,3.33
			C170.49,149.77,171.6,148.88,172.72,148.01z"/>
		<path class="st2" d="M166.17,153.41l-2.84-3.24c-1.09,0.96-2.19,1.95-3.25,2.94l2.94,3.15
			C164.05,155.3,165.11,154.34,166.17,153.41z"/>
		<path class="st2" d="M186.76,138.49l-2.2-3.71c-1.25,0.74-2.5,1.51-3.73,2.29l2.31,3.64C184.33,139.95,185.55,139.2,186.76,138.49
			z"/>
		<path class="st2" d="M217.79,125.03l-1.21-4.14c-1.4,0.41-2.8,0.84-4.18,1.29l1.34,4.1C215.08,125.84,216.44,125.42,217.79,125.03
			z"/>
		<path class="st2" d="M209.73,127.66l-1.47-4.06c-1.37,0.5-2.75,1.02-4.09,1.55l1.59,4.01
			C207.07,128.64,208.41,128.14,209.73,127.66z"/>
		<path class="st2" d="M194.19,134.4l-1.96-3.84c-1.29,0.66-2.59,1.35-3.87,2.05l2.08,3.78
			C191.67,135.71,192.93,135.04,194.19,134.4z"/>
		<path class="st2" d="M201.86,130.78l-1.72-3.96c-1.33,0.58-2.67,1.18-3.99,1.8l1.84,3.9
			C199.27,131.93,200.57,131.34,201.86,130.78z"/>
		<path class="st2" d="M143.65,178.74l-3.55-2.45c-0.82,1.2-1.64,2.42-2.43,3.65l3.63,2.33
			C142.06,181.08,142.85,179.89,143.65,178.74z"/>
		<path class="st2" d="M131.24,200.96l-3.95-1.74c-0.59,1.33-1.16,2.69-1.71,4.04l4,1.62C130.11,203.56,130.67,202.25,131.24,200.96
			z"/>
		<path class="st2" d="M134.91,193.3l-3.83-1.99c-0.67,1.29-1.33,2.61-1.96,3.92l3.89,1.86
			C133.62,195.83,134.26,194.55,134.91,193.3z"/>
		<path class="st2" d="M128.05,208.84l-4.05-1.49c-0.5,1.36-0.99,2.75-1.45,4.14l4.09,1.36
			C127.09,211.51,127.56,210.16,128.05,208.84z"/>
		<path class="st2" d="M148.68,171.89l-3.39-2.66c-0.9,1.15-1.79,2.32-2.65,3.49l3.47,2.56C146.95,174.14,147.81,173,148.68,171.89z
			"/>
		<path class="st2" d="M139.05,185.88l-3.7-2.22c-0.75,1.25-1.49,2.53-2.2,3.79l3.77,2.1C137.61,188.33,138.32,187.09,139.05,185.88
			z"/>
		<path class="st2" d="M154.13,165.37l-3.22-2.87c-0.96,1.08-1.93,2.2-2.86,3.32l3.31,2.77
			C152.26,167.51,153.19,166.42,154.13,165.37z"/>
		<path class="st2" d="M159.96,159.21l-3.04-3.06c-1.03,1.02-2.06,2.08-3.06,3.13l3.13,2.96
			C157.97,161.22,158.97,160.2,159.96,159.21z"/>
		<path class="st2" d="M121,275.1l-4.27,0.6c0.2,1.43,0.43,2.89,0.67,4.32l4.25-0.73C121.42,277.9,121.2,276.49,121,275.1z"/>
		<path class="st2" d="M122.44,283.46l-4.23,0.86c0.29,1.42,0.61,2.86,0.94,4.27l4.2-0.99
			C123.03,286.23,122.72,284.84,122.44,283.46z"/>
		<path class="st2" d="M124.4,291.71l-4.16,1.13c0.38,1.4,0.79,2.81,1.21,4.21l4.13-1.26C125.16,294.44,124.77,293.07,124.4,291.71z
			"/>
		<path class="st2" d="M135.22,319.3c-0.65-1.25-1.3-2.52-1.91-3.79l-3.88,1.88c0.64,1.31,1.3,2.62,1.97,3.91L135.22,319.3z"/>
		<path class="st2" d="M129.84,307.77l-3.99,1.64c0.55,1.34,1.13,2.69,1.73,4.02l3.94-1.76
			C130.94,310.38,130.37,309.07,129.84,307.77z"/>
		<path class="st2" d="M126.87,299.82l-4.08,1.38c0.47,1.37,0.96,2.76,1.47,4.12l4.04-1.51C127.8,302.5,127.32,301.16,126.87,299.82
			z"/>
		<path class="st2" d="M135.71,328.93l3.69-2.24c-0.73-1.2-1.45-2.44-2.15-3.66l-3.76,2.12
			C134.21,326.41,134.96,327.69,135.71,328.93z"/>
		<path class="st2" d="M145.7,343.3l3.38-2.68c-0.87-1.1-1.74-2.24-2.58-3.37l-3.46,2.57C143.91,340.99,144.8,342.16,145.7,343.3z"
			/>
		<path class="st2" d="M151.35,349.99l3.21-2.88c-0.94-1.05-1.88-2.13-2.79-3.2l-3.3,2.78C149.41,347.8,150.38,348.91,151.35,349.99
			z"/>
		<path class="st2" d="M140.48,336.27l3.54-2.46c-0.81-1.16-1.6-2.34-2.37-3.52l-3.62,2.35
			C138.83,333.85,139.65,335.07,140.48,336.27z"/>
		<path class="st2" d="M120.09,266.67l-4.3,0.33c0.11,1.44,0.25,2.91,0.4,4.35l4.29-0.47C120.33,269.49,120.2,268.07,120.09,266.67z
			"/>
		<path class="st2" d="M119.7,258.2l-4.31,0.07c0.02,1.46,0.07,2.93,0.14,4.38l4.31-0.2C119.76,261.04,119.72,259.61,119.7,258.2z"
			/>
		<path class="st2" d="M119.76,251.27l-4.31-0.15c-0.03,0.92-0.05,1.84-0.07,2.76l4.31,0.06
			C119.71,253.06,119.73,252.16,119.76,251.27z"/>
	</g>
</g>
</svg>
