<?xml version="1.0" encoding="utf-8"?>
<!-- Generator: Adobe Illustrator 24.1.3, SVG Export Plug-In . SVG Version: 6.00 Build 0)  -->
<svg version="1.1" id="Capa_1" xmlns="http://www.w3.org/2000/svg" xmlns:xlink="http://www.w3.org/1999/xlink" x="0px" y="0px"
	 viewBox="0 0 27 27" style="enable-background:new 0 0 27 27;" xml:space="preserve">
<style type="text/css">
	.st0{fill:#C9D644;}
</style>
<g>
	<path class="st0" d="M13.5,0.4c-7.2,0-13,5.7-13.1,12.9c0,0,0,0.1,0,0.1c0,0,0,0.1,0,0.1c0,0,0,0,0,0.1c0,7.2,5.9,13.1,13.1,13.1
		c7.2,0,13.1-5.9,13.1-13.1C26.6,6.3,20.7,0.4,13.5,0.4z M1.9,8.6c0.6-1.5,1.5-2.8,2.7-4c1.2-1.2,2.5-2.1,4-2.7c1.5-0.7,3.2-1,4.9-1
		c1.7,0,3.3,0.3,4.9,1c1.5,0.6,2.8,1.5,4,2.7c1.2,1.2,2.1,2.5,2.7,4c0.6,1.5,1,3.1,1,4.7h-3.9c-0.1,0-0.2,0-0.2,0.1l-0.1,0.1l-0.2,0
		v-0.3l0.2,0c0-0.1,0-0.2,0-0.3l-0.2,0v-0.3l0.2,0c0-0.1,0-0.2,0-0.3l-0.1,0v-0.3l0.1,0c0-0.1,0-0.2,0-0.3l-0.1,0v-0.3l0,0
		c0,0,0,0,0,0V6.9c0-0.8-0.7-1.5-1.5-1.5c-0.8,0-1.5,0.7-1.5,1.5V14l-0.5,0.4l-1.3-6.9c0-0.1-0.1-0.2-0.3-0.2
		c-0.1,0-0.2,0.1-0.3,0.2l-0.3,1.7C15.5,8.5,14.6,8,13.5,8c-0.2,0-0.4,0-0.6,0l-0.4-5c0-0.1-0.1-0.2-0.2-0.2C12.1,2.8,12,2.9,12,3
		l-0.9,5.9c-0.7,0.6-1.1,1.5-1.1,2.5c0,0.6,0.2,1.2,0.5,1.7l-0.3,2.1c0,0,0,0.1,0,0.1H9.8c0,0,0-0.1,0-0.1L8.3,9.6
		c0-0.1-0.1-0.2-0.2-0.2c0,0,0,0,0,0C8,9.4,7.9,9.5,7.8,9.6l-1.2,3.9l-1-2.1c0-0.1-0.1-0.1-0.2-0.1c0,0,0,0,0,0
		c-0.1,0-0.2,0.1-0.2,0.1l-0.8,1.6H0.9C1,11.5,1.3,10,1.9,8.6z M21.7,13.9L21.7,13.9L21.7,13.9L21.7,13.9z M16.8,22.5h-6.3
		c0,0,0,0,0,0V19c0-0.1-0.1-0.3-0.3-0.3S9.9,18.8,9.9,19v3.5c0,0,0,0,0,0H8.1c0,0,0,0,0,0v-5v-0.7c0-0.5,0.4-0.9,0.9-0.9l3.3,0
		c0.2,0.4,0.5,0.7,1,0.8c0,0,0.1,0,0.1,0c0,0,0,0,0,0c0,0,0,0,0,0c0,0,0.1,0,0.1,0c0.6,0,1.1-0.3,1.3-0.8l0.5,0c0,0,0,0,0,0
		c0,0,0,0,0,0l1.5,0c0.1,0,0.1,0,0.1,0l1.2-0.9c0,0,0,0,0,0l1-0.7c0.1,0,0.1-0.1,0.1-0.2V6.9c0-0.5,0.4-0.9,0.9-0.9s0.9,0.4,0.9,0.9
		v8.6l-4.4,3.2c-0.1,0-0.1,0.1-0.1,0.2L16.8,22.5C16.8,22.5,16.8,22.5,16.8,22.5z M13.5,8.5c1.6,0,2.9,1.3,2.9,2.9s-1.3,2.9-2.9,2.9
		s-2.9-1.3-2.9-2.9S11.9,8.5,13.5,8.5z M11.7,8.5l0.5-3.2l0.2,2.8C12.2,8.3,11.9,8.4,11.7,8.5z M16.6,9.9L16.7,9l1.1,5.7l-1,0.7
		l-1.1,0l0.2-1.5c0.6-0.6,1-1.5,1-2.5C16.9,10.9,16.8,10.3,16.6,9.9z M15.3,14.4l-0.2,1l-0.4,0c0,0,0,0,0,0c0,0,0,0,0,0c0,0,0,0,0,0
		c0,0,0,0,0,0c0,0,0,0,0,0c0,0,0,0,0,0c0,0,0,0,0,0c0,0,0,0,0,0c0,0,0,0,0,0c0,0,0,0,0,0c0,0,0,0,0,0c0,0,0,0,0,0c0,0,0,0,0,0
		c0,0,0,0,0,0c-0.1,0.4-0.4,0.6-0.8,0.6l-0.1-1.4C14.2,14.9,14.8,14.7,15.3,14.4z M13.1,16.1c-0.2-0.1-0.3-0.3-0.4-0.5c0,0,0,0,0,0
		c0,0,0,0,0,0c0,0,0,0,0,0c0,0,0,0,0,0c0,0,0,0,0,0c0,0,0,0,0,0c0,0,0,0,0,0c0,0,0,0,0,0c0,0,0,0,0,0c0,0,0,0,0,0c0,0,0,0,0,0
		c0,0,0,0,0,0c0,0,0,0,0,0c0,0,0,0,0,0l-1.7,0c0,0,0,0,0,0l0.2-1.6c0.5,0.6,1.2,1,2,1.1L13.1,16.1z M25.1,18.4
		c-0.6,1.5-1.5,2.8-2.7,4c-1.2,1.2-2.5,2.1-4,2.7c-1.6,0.7-3.2,1-4.9,1c-1.7,0-3.3-0.3-4.9-1c-1.5-0.6-2.8-1.5-4-2.7
		c-1.2-1.2-2.1-2.5-2.7-4c-0.6-1.5-1-3.1-1-4.8h3.6c0.1,0,0.2-0.1,0.2-0.1l0.6-1.3l1,2.2c0,0.1,0.1,0.2,0.3,0.1
		c0.1,0,0.2-0.1,0.2-0.2l1.1-3.7l1.2,4.7c0,0,0,0,0,0l-0.3,0c-0.8,0-1.5,0.7-1.5,1.5v0.7v5c0,0,0,0,0,0H6V23h15.1v-0.5h-3.8
		c0,0,0,0,0,0v-3.4l3.9-2.9c0,0.1,0,0.1-0.1,0.2l0.2,0.1c0-0.1,0.1-0.2,0.1-0.2l-0.2-0.1l0.3-0.2l0,0c0,0,0,0,0,0l0.1-0.1
		c0.1,0,0.1-0.1,0.1-0.2v-0.4c0,0,0,0,0-0.1l0,0v-0.2l0,0l0,0c0,0,0-0.1,0-0.1l0.5-0.9h3.7C26,15.4,25.7,17,25.1,18.4z"/>
	<rect x="13.4" y="17.9" class="st0" width="0.4" height="0.4"/>
	<rect x="13.4" y="18.6" class="st0" width="0.4" height="0.4"/>
	<rect x="13.4" y="19.3" class="st0" width="0.4" height="0.4"/>
	<path class="st0" d="M20.5,17.7l0.2,0.1c0-0.1,0.1-0.2,0.1-0.2l-0.2-0.1C20.6,17.5,20.6,17.6,20.5,17.7z"/>
	<path class="st0" d="M19.9,18.5l0.2,0.2c0.1-0.1,0.1-0.1,0.2-0.2l-0.2-0.2C20,18.4,20,18.4,19.9,18.5z"/>
	<path class="st0" d="M20.2,18.1l0.2,0.1c0-0.1,0.1-0.1,0.1-0.2l-0.2-0.1C20.3,17.9,20.3,18,20.2,18.1z"/>
	<path class="st0" d="M19.6,18.9l0.2,0.2c0.1-0.1,0.1-0.1,0.2-0.2l-0.2-0.2C19.7,18.8,19.7,18.8,19.6,18.9z"/>
	<path class="st0" d="M20.8,17.2l0.2,0.1c0-0.1,0.1-0.2,0.1-0.2L20.9,17C20.8,17.1,20.8,17.1,20.8,17.2z"/>
	<path class="st0" d="M21,16.8l0.2,0.1c0-0.1,0.1-0.2,0.1-0.2l-0.2-0.1C21,16.6,21,16.7,21,16.8z"/>
	<path class="st0" d="M19.3,19.3l0.2,0.2c0.1-0.1,0.1-0.1,0.2-0.2l-0.2-0.2C19.4,19.1,19.3,19.2,19.3,19.3z"/>
	<path class="st0" d="M17.7,20.5l0.1,0.2c0.1,0,0.1-0.1,0.2-0.1l-0.1-0.2C17.8,20.4,17.8,20.5,17.7,20.5z"/>
	<path class="st0" d="M18.5,19.9l0.2,0.2c0.1-0.1,0.1-0.1,0.2-0.2l-0.2-0.2C18.7,19.8,18.6,19.9,18.5,19.9z"/>
	<path class="st0" d="M18.9,19.6l0.2,0.2c0.1-0.1,0.1-0.1,0.2-0.2l-0.2-0.2C19,19.5,19,19.5,18.9,19.6z"/>
	<path class="st0" d="M18.1,20.2l0.1,0.2c0.1,0,0.1-0.1,0.2-0.2l-0.2-0.2C18.2,20.1,18.2,20.2,18.1,20.2z"/>
	<path class="st0" d="M13.2,5.4l0-0.3c-0.1,0-0.2,0-0.3,0l0,0.3C13,5.4,13.1,5.4,13.2,5.4z"/>
	<path class="st0" d="M14.7,5.2c-0.1,0-0.2,0-0.3,0l0,0.3c0.1,0,0.2,0,0.3,0L14.7,5.2z"/>
	<path class="st0" d="M18.1,6.5c-0.1,0-0.1-0.1-0.2-0.1l-0.1,0.2c0.1,0,0.1,0.1,0.2,0.1L18.1,6.5z"/>
	<path class="st0" d="M17.7,6.2c-0.1,0-0.2-0.1-0.2-0.1l-0.1,0.2c0.1,0,0.1,0.1,0.2,0.1L17.7,6.2z"/>
	<path class="st0" d="M17.2,6c-0.1,0-0.2-0.1-0.2-0.1l-0.1,0.2c0.1,0,0.2,0.1,0.2,0.1L17.2,6z"/>
	<path class="st0" d="M18.6,6.8c-0.1-0.1-0.1-0.1-0.2-0.2l-0.1,0.2c0.1,0,0.1,0.1,0.2,0.1L18.6,6.8z"/>
	<path class="st0" d="M13.5,5.4c0.1,0,0.1,0,0.2,0l0-0.3c-0.1,0-0.1,0-0.2,0l-0.1,0L13.5,5.4L13.5,5.4z"/>
	<path class="st0" d="M16.8,5.7c-0.1,0-0.2-0.1-0.2-0.1l-0.1,0.2c0.1,0,0.2,0.1,0.2,0.1L16.8,5.7z"/>
	<path class="st0" d="M15.8,5.4c-0.1,0-0.2,0-0.3-0.1l-0.1,0.3c0.1,0,0.2,0,0.2,0.1L15.8,5.4z"/>
	<path class="st0" d="M14.2,5.1c-0.1,0-0.2,0-0.3,0l0,0.3c0.1,0,0.2,0,0.3,0L14.2,5.1z"/>
	<path class="st0" d="M15.3,5.3c-0.1,0-0.2,0-0.3-0.1l0,0.3c0.1,0,0.2,0,0.2,0L15.3,5.3z"/>
	<path class="st0" d="M16.3,5.6c-0.1,0-0.2-0.1-0.2-0.1l-0.1,0.2c0.1,0,0.2,0.1,0.2,0.1L16.3,5.6z"/>
	<path class="st0" d="M8.5,7L8.4,6.8C8.3,6.9,8.2,7,8.2,7l0.2,0.2C8.4,7.2,8.5,7.1,8.5,7z"/>
	<path class="st0" d="M8.9,6.8L8.8,6.5c-0.1,0-0.1,0.1-0.2,0.2l0.2,0.2C8.8,6.8,8.9,6.8,8.9,6.8z"/>
	<path class="st0" d="M8.1,7.4L8,7.2C7.9,7.2,7.8,7.3,7.8,7.4l0.2,0.2C8,7.5,8.1,7.4,8.1,7.4z"/>
	<path class="st0" d="M9.4,6.5L9.2,6.3C9.2,6.3,9.1,6.3,9,6.4l0.1,0.2C9.2,6.6,9.3,6.5,9.4,6.5z"/>
	<path class="st0" d="M7.8,7.7L7.6,7.5C7.5,7.6,7.5,7.7,7.4,7.7l0.2,0.2C7.6,7.8,7.7,7.8,7.8,7.7z"/>
	<path class="st0" d="M10.7,5.8l-0.1-0.2c-0.1,0-0.2,0.1-0.2,0.1l0.1,0.2C10.6,5.9,10.7,5.9,10.7,5.8z"/>
	<path class="st0" d="M10.3,6l-0.1-0.2c-0.1,0-0.2,0.1-0.2,0.1L10,6.1C10.1,6.1,10.2,6.1,10.3,6z"/>
	<path class="st0" d="M9.8,6.2L9.7,6C9.6,6,9.5,6.1,9.5,6.1l0.1,0.2C9.7,6.3,9.7,6.3,9.8,6.2z"/>
	<path class="st0" d="M5.9,10.7l-0.2-0.1c0,0.1-0.1,0.2-0.1,0.2l0.2,0.1C5.8,10.8,5.8,10.8,5.9,10.7z"/>
	<path class="st0" d="M6,10.2l-0.2-0.1c0,0.1-0.1,0.2-0.1,0.2l0.2,0.1C6,10.4,6,10.3,6,10.2z"/>
	<path class="st0" d="M11.2,5.7l-0.1-0.2c-0.1,0-0.2,0.1-0.2,0.1L11,5.8C11.1,5.7,11.1,5.7,11.2,5.7z"/>
	<path class="st0" d="M6.3,9.8L6,9.6C6,9.7,6,9.8,5.9,9.9L6.2,10C6.2,9.9,6.2,9.8,6.3,9.8z"/>
	<path class="st0" d="M6.8,8.9L6.6,8.7c0,0.1-0.1,0.1-0.1,0.2l0.2,0.1C6.7,9,6.7,9,6.8,8.9z"/>
	<path class="st0" d="M7.1,8.5L6.9,8.3C6.8,8.4,6.8,8.5,6.7,8.5l0.2,0.2C7,8.6,7,8.5,7.1,8.5z"/>
	<path class="st0" d="M7.4,8.1L7.2,7.9C7.2,8,7.1,8,7.1,8.1l0.2,0.2C7.3,8.2,7.4,8.1,7.4,8.1z"/>
	<path class="st0" d="M6.5,9.3L6.3,9.2c0,0.1-0.1,0.2-0.1,0.2l0.2,0.1C6.4,9.5,6.5,9.4,6.5,9.3z"/>
	<path class="st0" d="M5.4,13.6l-0.3,0c0,0.1,0,0.2,0,0.3l0.3,0C5.4,13.8,5.4,13.7,5.4,13.6z"/>
	<path class="st0" d="M5.6,15.6l-0.2,0.1c0,0.1,0,0.2,0.1,0.3l0.2-0.1C5.7,15.8,5.7,15.7,5.6,15.6z"/>
	<path class="st0" d="M5.5,15.1l-0.3,0.1c0,0.1,0,0.2,0.1,0.3l0.3-0.1C5.6,15.3,5.5,15.2,5.5,15.1z"/>
	<path class="st0" d="M5.8,16.1l-0.2,0.1c0,0.1,0.1,0.2,0.1,0.2l0.2-0.1C5.8,16.3,5.8,16.2,5.8,16.1z"/>
	<path class="st0" d="M6.3,17.3c0-0.1-0.1-0.2-0.1-0.2l-0.2,0.1c0,0.1,0.1,0.2,0.1,0.2L6.3,17.3z"/>
	<path class="st0" d="M6,16.6l-0.2,0.1c0,0.1,0.1,0.2,0.1,0.2l0.2-0.1C6,16.7,6,16.7,6,16.6z"/>
	<path class="st0" d="M7.2,19.1l0.2-0.2c-0.1-0.1-0.1-0.1-0.2-0.2l-0.2,0.2C7.1,19,7.2,19.1,7.2,19.1z"/>
	<path class="st0" d="M5.4,14.6l-0.3,0c0,0.1,0,0.2,0,0.3l0.3,0C5.5,14.8,5.4,14.7,5.4,14.6z"/>
	<path class="st0" d="M5.4,14.1l-0.3,0c0,0.1,0,0.2,0,0.3l0.3,0C5.4,14.3,5.4,14.2,5.4,14.1z"/>
	<path class="st0" d="M6.9,18.7l0.2-0.2C7.1,18.5,7,18.4,7,18.4l-0.2,0.2C6.8,18.6,6.9,18.6,6.9,18.7z"/>
	<path class="st0" d="M6.6,18.3l0.2-0.1c0-0.1-0.1-0.1-0.1-0.2l-0.2,0.1C6.5,18.2,6.6,18.2,6.6,18.3z"/>
	<path class="st0" d="M6.3,17.9l0.2-0.1c0-0.1-0.1-0.1-0.1-0.2l-0.2,0.1C6.2,17.7,6.3,17.8,6.3,17.9z"/>
	<path class="st0" d="M5.4,13.2l-0.3,0c0,0.1,0,0.1,0,0.2l0.3,0C5.4,13.3,5.4,13.3,5.4,13.2z"/>
</g>
</svg>
