<?xml version="1.0" encoding="utf-8"?>
<!-- Generator: Adobe Illustrator 24.1.3, SVG Export Plug-In . SVG Version: 6.00 Build 0)  -->
<svg version="1.1" id="Capa_1" xmlns="http://www.w3.org/2000/svg" xmlns:xlink="http://www.w3.org/1999/xlink" x="0px" y="0px"
	 viewBox="0 0 27 27" style="enable-background:new 0 0 27 27;" xml:space="preserve">
<style type="text/css">
	.st0{fill:#C9D644;}
</style>
<g>
	<path class="st0" d="M13.5,0.4C6.3,0.4,0.4,6.3,0.4,13.5c0,7.2,5.9,13.1,13.1,13.1c7.2,0,13.1-5.9,13.1-13.1
		C26.6,6.3,20.7,0.4,13.5,0.4z M4.6,4.6c1.2-1.2,2.5-2.1,4-2.7c1.5-0.7,3.2-1,4.9-1c1.7,0,3.3,0.3,4.9,1c1.5,0.6,2.8,1.5,4,2.7
		c1.2,1.2,2.1,2.5,2.7,4c0.6,1.5,1,3.1,1,4.7h-3.9c-0.1,0-0.2,0-0.2,0.1l-0.4,0.7L21,11.7c0-0.1-0.1-0.2-0.3-0.2
		c-0.1,0-0.2,0.1-0.2,0.2L19.6,16L18.9,14v-3.1h-1.1l-0.8-2.3c0-0.1-0.1-0.2-0.3-0.2c-0.1,0-0.2,0.1-0.2,0.2l-0.5,2.3h-0.2v-0.8h-1
		V9.5h-0.5V4.8h-1.3v4.6h-0.5v0.6h-1v0.8H9.2L8.4,8.5c0-0.1-0.1-0.2-0.3-0.2C8,8.4,7.9,8.5,7.9,8.6l-1.3,7.6l-1-5
		C5.5,11,5.4,11,5.3,11c-0.1,0-0.2,0.1-0.3,0.2l-0.8,2H0.9c0-1.6,0.4-3.1,1-4.5C2.5,7.1,3.5,5.8,4.6,4.6z M18.4,19.3v3.1H8.6v-3.1
		c0-0.1,0.1-0.2,0.1-0.2c0,0,0,0,0,0h9.4c0,0,0,0,0,0C18.3,19.1,18.4,19.2,18.4,19.3z M8.6,18.4v-2.9c0-0.1,0.1-0.2,0.2-0.2h9.4
		c0.1,0,0.2,0.1,0.2,0.2v2.9c0,0.1-0.1,0.2-0.1,0.2c0,0,0,0,0,0H8.8c0,0,0,0,0,0C8.7,18.6,8.6,18.5,8.6,18.4z M11.3,11.5h4.4h2.7
		v2.1H8.6v-2.1H11.3z M13.3,5.4h0.3V6h-0.3V5.4z M13.3,6.3h0.3v3.2h-0.3V6.3z M14.1,10v0.1h-1.3V10H14.1z M15.2,10.6v0.3h-3.4v-0.3
		H15.2z M16.4,10.9l0.3-1.3l0.5,1.3H16.4z M17.1,14.1v0.8H9.9v-0.8H17.1z M17.4,14.8v-0.8h0.4v0.8H17.4z M9.6,14.1v0.8H9.2v-0.8H9.6
		z M18.2,14.8H18v-0.8h0.3l0.4,1.1C18.6,14.9,18.4,14.8,18.2,14.8z M22.4,22.4c-1.2,1.2-2.5,2.1-4,2.7c-1.6,0.7-3.2,1-4.9,1
		c-1.7,0-3.3-0.3-4.9-1c-1.5-0.6-2.8-1.5-4-2.7c-1.2-1.2-2.1-2.5-2.7-4c-0.6-1.5-1-3.1-1-4.8h3.5c0.1,0,0.2-0.1,0.2-0.2l0.6-1.4
		l1.1,5.5c0,0.1,0.1,0.2,0.3,0.2c0,0,0,0,0,0c0.1,0,0.2-0.1,0.3-0.2l1.4-7.9l0.4,1.3H8.1v3.1h0.9v0.8H8.8c-0.4,0-0.7,0.3-0.7,0.7
		v2.9c0,0.2,0.1,0.3,0.2,0.4c-0.1,0.1-0.2,0.3-0.2,0.4v3.6h10.8v-3.6c0-0.2-0.1-0.3-0.2-0.4c0.1-0.1,0.2-0.3,0.2-0.4v-2.9
		c0,0,0,0,0-0.1l0.6,1.5c0,0.1,0.1,0.2,0.2,0.2c0,0,0,0,0,0c0.1,0,0.2-0.1,0.2-0.2l0.8-4l0.5,2c0,0.1,0.1,0.2,0.2,0.2
		c0.1,0,0.2,0,0.3-0.1l0.6-1.1h3.7c0,1.6-0.4,3.1-1,4.5C24.5,19.9,23.5,21.2,22.4,22.4z"/>
	<path class="st0" d="M10.2,17.8c0.5,0,0.8-0.4,0.8-0.8c0-0.5-0.4-0.8-0.8-0.8c-0.5,0-0.8,0.4-0.8,0.8C9.4,17.4,9.8,17.8,10.2,17.8z
		 M10.2,16.7c0.2,0,0.3,0.1,0.3,0.3c0,0.2-0.1,0.3-0.3,0.3c-0.2,0-0.3-0.1-0.3-0.3C9.9,16.8,10.1,16.7,10.2,16.7z"/>
	<path class="st0" d="M16.8,19.9c-0.5,0-0.8,0.4-0.8,0.8c0,0.5,0.4,0.8,0.8,0.8c0.5,0,0.8-0.4,0.8-0.8
		C17.6,20.2,17.2,19.9,16.8,19.9z M16.8,21c-0.2,0-0.3-0.1-0.3-0.3c0-0.2,0.1-0.3,0.3-0.3c0.2,0,0.3,0.1,0.3,0.3
		C17.1,20.9,16.9,21,16.8,21z"/>
	<rect x="9.7" y="20.6" class="st0" width="4.6" height="0.3"/>
	<rect x="9.7" y="21.2" class="st0" width="4.6" height="0.3"/>
	<rect x="9.7" y="19.9" class="st0" width="4.6" height="0.3"/>
	<rect x="12.8" y="16.8" class="st0" width="4.6" height="0.3"/>
	<rect x="12.8" y="17.4" class="st0" width="4.6" height="0.3"/>
	<rect x="12.8" y="16.1" class="st0" width="4.6" height="0.3"/>
	<rect x="9.1" y="11.8" class="st0" width="0.5" height="0.5"/>
	<rect x="10.2" y="11.8" class="st0" width="0.5" height="0.5"/>
	<rect x="11.2" y="11.8" class="st0" width="0.5" height="0.5"/>
	<rect x="12.3" y="11.8" class="st0" width="0.5" height="0.5"/>
	<rect x="13.3" y="11.8" class="st0" width="0.5" height="0.5"/>
	<rect x="14.4" y="11.8" class="st0" width="0.5" height="0.5"/>
	<rect x="15.4" y="11.8" class="st0" width="0.5" height="0.5"/>
	<rect x="16.5" y="11.8" class="st0" width="0.5" height="0.5"/>
	<rect x="17.5" y="11.8" class="st0" width="0.5" height="0.5"/>
	<rect x="9.1" y="12.7" class="st0" width="0.5" height="0.5"/>
	<rect x="10.2" y="12.7" class="st0" width="0.5" height="0.5"/>
	<rect x="11.2" y="12.7" class="st0" width="0.5" height="0.5"/>
	<rect x="12.3" y="12.8" class="st0" width="5.8" height="0.3"/>
	<rect x="15.4" y="5.2" class="st0" width="0.4" height="0.4"/>
	<rect x="16.1" y="5.2" class="st0" width="0.4" height="0.4"/>
	<rect x="16.9" y="5.2" class="st0" width="0.4" height="0.4"/>
	<rect x="17.6" y="5.2" class="st0" width="0.4" height="0.4"/>
	<rect x="18.3" y="5.2" class="st0" width="0.4" height="0.4"/>
	<rect x="16.9" y="7.2" class="st0" width="0.4" height="0.4"/>
	<rect x="16.1" y="6.5" class="st0" width="0.4" height="0.4"/>
	<rect x="16.9" y="6.5" class="st0" width="0.4" height="0.4"/>
	<rect x="17.6" y="6.5" class="st0" width="0.4" height="0.4"/>
	<rect x="15.8" y="5.9" class="st0" width="0.4" height="0.4"/>
	<rect x="16.5" y="5.9" class="st0" width="0.4" height="0.4"/>
	<rect x="17.2" y="5.9" class="st0" width="0.4" height="0.4"/>
	<rect x="18" y="5.9" class="st0" width="0.4" height="0.4"/>
	<rect x="16.9" y="3.2" class="st0" width="0.4" height="0.4"/>
	<rect x="17.6" y="3.9" class="st0" width="0.4" height="0.4"/>
	<rect x="16.9" y="3.9" class="st0" width="0.4" height="0.4"/>
	<rect x="16.1" y="3.9" class="st0" width="0.4" height="0.4"/>
	<rect x="18" y="4.5" class="st0" width="0.4" height="0.4"/>
	<rect x="17.2" y="4.5" class="st0" width="0.4" height="0.4"/>
	<rect x="16.5" y="4.5" class="st0" width="0.4" height="0.4"/>
	<rect x="15.8" y="4.5" class="st0" width="0.4" height="0.4"/>
	<rect x="8.3" y="5.2" class="st0" width="0.4" height="0.4"/>
	<rect x="9" y="5.2" class="st0" width="0.4" height="0.4"/>
	<rect x="9.8" y="5.2" class="st0" width="0.4" height="0.4"/>
	<rect x="10.5" y="5.2" class="st0" width="0.4" height="0.4"/>
	<rect x="11.2" y="5.2" class="st0" width="0.4" height="0.4"/>
	<rect x="9.8" y="7.2" class="st0" width="0.4" height="0.4"/>
	<rect x="9" y="6.5" class="st0" width="0.4" height="0.4"/>
	<rect x="9.8" y="6.5" class="st0" width="0.4" height="0.4"/>
	<rect x="10.5" y="6.5" class="st0" width="0.4" height="0.4"/>
	<rect x="8.7" y="5.9" class="st0" width="0.4" height="0.4"/>
	<rect x="9.4" y="5.9" class="st0" width="0.4" height="0.4"/>
	<rect x="10.1" y="5.9" class="st0" width="0.4" height="0.4"/>
	<rect x="10.9" y="5.9" class="st0" width="0.4" height="0.4"/>
	<rect x="9.8" y="3.2" class="st0" width="0.4" height="0.4"/>
	<rect x="10.5" y="3.9" class="st0" width="0.4" height="0.4"/>
	<rect x="9.8" y="3.9" class="st0" width="0.4" height="0.4"/>
	<rect x="9.1" y="3.9" class="st0" width="0.4" height="0.4"/>
	<rect x="10.9" y="4.5" class="st0" width="0.4" height="0.4"/>
	<rect x="10.1" y="4.5" class="st0" width="0.4" height="0.4"/>
	<rect x="9.4" y="4.5" class="st0" width="0.4" height="0.4"/>
	<rect x="8.7" y="4.5" class="st0" width="0.4" height="0.4"/>
</g>
</svg>
