<?xml version="1.0" encoding="utf-8"?>
<!-- Generator: Adobe Illustrator 24.1.3, SVG Export Plug-In . SVG Version: 6.00 Build 0)  -->
<svg version="1.1" id="Capa_1" xmlns="http://www.w3.org/2000/svg" xmlns:xlink="http://www.w3.org/1999/xlink" x="0px" y="0px"
	 viewBox="0 0 27 27" style="enable-background:new 0 0 27 27;" xml:space="preserve">
<style type="text/css">
	.st0{fill:#C9D644;}
</style>
<g>
	<path class="st0" d="M13.5,0.4C6.3,0.4,0.4,6.3,0.4,13.5c0,7.2,5.9,13.1,13.1,13.1c7.2,0,13.1-5.9,13.1-13.1
		C26.6,6.3,20.7,0.4,13.5,0.4z M22.4,22.4c-1.2,1.2-2.5,2.1-4,2.7c-1.6,0.7-3.2,1-4.9,1c-1.7,0-3.3-0.3-4.9-1
		c-1.5-0.6-2.8-1.5-4-2.7c-1.2-1.2-2.1-2.5-2.7-4c-0.7-1.5-1-3.2-1-4.9c0-1.7,0.3-3.3,1-4.9c0.6-1.5,1.5-2.8,2.7-4
		c1.2-1.2,2.5-2.1,4-2.7c1.5-0.7,3.2-1,4.9-1c1.7,0,3.3,0.3,4.9,1c1.5,0.6,2.8,1.5,4,2.7c1.2,1.2,2.1,2.5,2.7,4c0.7,1.6,1,3.2,1,4.9
		c0,1.7-0.3,3.3-1,4.9C24.5,19.9,23.5,21.2,22.4,22.4z"/>
	<polygon class="st0" points="4.3,6.6 9.8,6.6 9.8,6 3.8,6 3.8,21.3 14.6,21.3 14.6,20.8 4.3,20.8 	"/>
	<polygon class="st0" points="15.1,6.6 22.5,6.6 22.5,20.8 17.6,20.8 17.6,21.3 23,21.3 23,6 15.1,6 	"/>
	<circle class="st0" cx="13.5" cy="13.6" r="0.4"/>
	<path class="st0" d="M13.5,12.6c-0.6,0-1,0.5-1,1c0,0.6,0.5,1,1,1c0.6,0,1-0.5,1-1C14.5,13,14.1,12.6,13.5,12.6z M13.5,14.4
		c-0.4,0-0.8-0.4-0.8-0.8s0.4-0.8,0.8-0.8c0.4,0,0.8,0.4,0.8,0.8S13.9,14.4,13.5,14.4z"/>
	<path class="st0" d="M10.9,15.7h5.2v-4.2h-5.2V15.7z M11.1,11.8h4.7v3.6h-4.7V11.8z"/>
	<path class="st0" d="M17.1,18.1l-0.3-0.3l0.4-0.6l0-0.7l0.6-0.1l1.2,0l0.6,0.9l0.7-0.5L20,15.5l-0.5-0.6l0.3-0.7L19,12.5l0.7-1.1
		l-0.5-0.8l-0.8,0.2l-1,0.1l-0.7-0.6l-0.3-0.2l-1.3,0l-0.6,0l-0.3-0.4l0.2-0.5L13.9,8l-0.4-0.4l0.3-1l0.4-0.5l0.5-0.5l0.6-0.4
		l0.2-0.7L15,4.2h-0.6l-0.6,0.6l-0.7,0.5l-0.5,0.2l-1-0.1l-1.2,0.8l0,0.1c-0.1,0.2-0.2,0.5-0.3,0.6l-0.1,0L10,7.3L9.9,7.6L9.7,7.7
		L9.3,8.2L8.7,8.3l0.1,0.3L8.3,8.2L7.8,8.7L8,9.5l-0.3,0.6l0.5,1.4L8,11.7l0.2,1.9l0.3,0.6l-0.1,0.3l-1,0.8l-0.6,0.5l0.1,1L8,17.5
		l0.7,0.1l1.6,0.2c0.6,0.4,1.3,0.9,1.4,1c0.1,0.1,0.3,0.4,0.6,0.9l0,0l1.1,0.6l1.6-0.2l0.7,0.6l-0.2,0.3L15,22.5l1.3,0.2l0.7,0.7
		l0.4-2.6l0.3-1.4L17.1,18.1z M16.8,20.6l-0.2,1.7l-0.1-0.1L15.7,22l0.3-0.7l0.3-0.7l-1.1-1l-1.7,0.2l-0.8-0.5
		c-0.2-0.3-0.5-0.7-0.6-0.8c0-0.1-0.1-0.2-0.3-0.3c-0.1-0.1-0.3-0.2-0.5-0.4c-0.4-0.3-0.8-0.6-0.8-0.6l-0.1,0L8.8,17L8.2,17
		l-0.8-0.6l-0.1-0.5l0.4-0.3l1.1-0.9l0.3-0.7l-0.4-0.7l-0.1-1.5l0.3-0.3l-0.6-1.5l0.3-0.5L8.4,9l0.5,0.5l0.6,0.1L9.3,8.7l0.3-0.1
		L10,8.1L10.4,8l0.2-0.5l0.1-0.4c0.1-0.1,0.1-0.2,0.3-0.6l0.9-0.6L12.7,6l0.6-0.2l0.8-0.6l0.4-0.5h0.2l0.1,0.1l0,0.2l-0.5,0.3
		l-0.6,0.5l-0.5,0.6l-0.4,1.4l0.5,0.6l0.5,0.8l-0.2,0.6l0.6,0.9l0.9,0l1.1,0l0.1,0.1l0.9,0.7l1.2-0.1l0.5-0.1l0.1,0.3l-0.7,1
		l0.8,1.7L18.8,15l0.7,0.8l0.2,0.7l-0.4-0.6l-1.4,0L16.7,16l0,1l-0.5,0.8l0.5,0.6l0.4,0.9L16.8,20.6z"/>
	<rect x="21" y="7.4" class="st0" width="0.6" height="0.5"/>
	<rect x="21" y="8.6" class="st0" width="0.6" height="0.5"/>
	<rect x="21" y="9.8" class="st0" width="0.6" height="0.5"/>
</g>
</svg>
