<?xml version="1.0" encoding="utf-8"?>
<!-- Generator: Adobe Illustrator 25.1.0, SVG Export Plug-In . SVG Version: 6.00 Build 0)  -->
<svg version="1.1" id="Capa_1" xmlns="http://www.w3.org/2000/svg" xmlns:xlink="http://www.w3.org/1999/xlink" x="0px" y="0px"
	 viewBox="0 0 512 512" style="enable-background:new 0 0 512 512;" xml:space="preserve">
<style type="text/css">
	.st0{fill:#F1F1F2;}
	.st1{fill:#FFFFFF;}
	.st2{fill:#667F00;}
</style>
<rect x="0" class="st0" width="512" height="512"/>
<g>
	<circle class="st1" cx="256" cy="256" r="218.73"/>
	<g>
		<path class="st2" d="M256,36.89c-120.97,0-219.15,98.13-219.15,219.16c0,120.96,98.18,219.06,219.15,219.06
			c121.03,0,219.15-98.1,219.15-219.06C475.15,135.02,377.04,36.89,256,36.89z M404.86,404.84c-19.34,19.33-41.85,34.51-66.92,45.11
			c-25.95,10.97-53.52,16.54-81.94,16.54c-28.41,0-55.97-5.56-81.92-16.54c-25.07-10.6-47.58-25.78-66.92-45.11
			C87.82,385.51,72.63,363,62.03,337.95c-10.98-25.94-16.55-53.49-16.55-81.89c0-28.42,5.57-55.99,16.55-81.94
			c10.61-25.07,25.79-47.58,45.14-66.93c19.34-19.34,41.86-34.52,66.92-45.13c25.95-10.98,53.51-16.54,81.92-16.54
			c28.42,0,55.99,5.57,81.94,16.54c25.07,10.6,47.58,25.79,66.92,45.12c19.34,19.34,34.52,41.85,45.12,66.92
			c10.98,25.95,16.54,53.52,16.54,81.95c0,28.41-5.56,55.96-16.54,81.89C439.38,363,424.2,385.51,404.86,404.84z"/>
		<polygon class="st2" points="102.2,139.79 194.51,139.79 194.51,131.16 93.58,131.16 93.58,386.54 273.79,386.54 273.79,377.91 
			102.2,377.91 		"/>
		<polygon class="st2" points="282.15,139.79 405.98,139.79 405.98,377.91 324,377.91 324,386.54 414.61,386.54 414.61,131.16 
			282.15,131.16 		"/>
		<path class="st2" d="M256.09,250.25c-4.14,0-7.5,3.36-7.5,7.5c0,4.14,3.36,7.5,7.5,7.5c4.14,0,7.5-3.36,7.5-7.5
			C263.6,253.61,260.24,250.25,256.09,250.25z"/>
		<path class="st2" d="M256.09,240.33c-9.63,0-17.43,7.8-17.43,17.43c0,9.63,7.8,17.43,17.43,17.43c9.63,0,17.43-7.8,17.43-17.43
			C273.52,248.13,265.72,240.33,256.09,240.33z M256.09,270.87c-7.23,0-13.12-5.88-13.12-13.12c0-7.23,5.88-13.12,13.12-13.12
			c7.23,0,13.12,5.88,13.12,13.12C269.21,264.99,263.32,270.87,256.09,270.87z"/>
		<path class="st2" d="M212.31,292.62h87.13V222.9h-87.13V292.62z M216.63,227.21h78.5v61.1h-78.5V227.21z"/>
		<path class="st2" d="M315.9,333.76l-4.51-5.69l7.09-10.56l0.21-11.77l10.62-1.21l19.29-0.07l10.39,15.09l11.08-8.53l-5.82-21.93
			l-9.07-10l5.69-11.56l-12.35-28.07l11.49-17.6l-8.17-14.18l-13.95,2.76l-16.87,1.81l-11.56-9.89l-4.96-3.93l-21.29,0.75
			l-10.01,0.44l-4.85-7.36l4-9.18l-10.26-18.74l-6.15-6.57l4.28-16.48l6.86-8.66l8.97-7.55l10.53-7.23l2.76-11.62l-8.47-5.98h-10.2
			l-9.31,10.86l-11.74,8l-7.54,2.75l-16.7-2.27l-19.57,13.9l-0.48,0.94c-1.87,3.66-4.16,7.98-5.06,9.5l-0.87,0.58l-1.46,8.34
			l-1.38,3.92l-3.89,1.47l-6.41,8.45l-10.51,2.49l1.07,5.42l-8.17-8.12l-7.36,8.46l2,13.56l-5.15,10.12l9.16,23.46l-3.09,3.16
			l2.65,31.29l5.42,9.68l-2.1,4.98l-16.98,13.13l-10.71,8.49l1.84,16.62l19.19,12.91l12.17,1.49l27.57,3.56
			c10.3,7.36,21.34,15.43,23.82,17.49c1.25,2.31,4.21,6.47,10.75,15.43l0.53,0.73l17.7,10.36l27.54-3.04l10.95,9.83l-2.8,5.76
			l-11.39,22.28l21.14,2.55l11.64,11.06l6.57-44.1l4.71-22.85L315.9,333.76z M311.22,374.09l-4.18,28.04l-1.68-1.6l-11.7-1.41
			l5.78-11.31l5.69-11.72l-18.66-16.76l-28.54,3.15l-13.68-8.01c-3.95-5.42-8.16-11.37-9.39-13.34c-0.48-1.62-2.26-2.96-5.59-5.48
			c-2.15-1.62-5.15-3.84-8.92-6.58c-6.4-4.66-12.9-9.3-12.97-9.35l-0.88-0.63l-29.75-3.85l-10.15-1.24l-14.15-9.53l-0.87-7.9
			l6.93-5.5l18.73-14.49l4.61-10.95l-6.57-11.73l-2.16-25.5l4.22-4.31l-9.77-25.05l4.64-9.12l-1.34-9.11l7.68,7.63l10.19,1.94
			l-2.93-14.77l5.43-1.29l6.79-8.94l5.33-2.02l2.94-8.37l1.1-6.27c0.91-1.43,2.37-4.11,5.12-9.46l15.07-10.7l15.43,2.09l10.56-3.85
			l13.58-9.25l7.47-8.71h3.5l1.47,1.04l-0.64,2.71l-7.97,5.47l-10.14,8.51l-8.53,10.77l-5.93,22.84l8.66,9.24l7.7,14.07l-4.18,9.59
			l10.12,15.36l14.86-0.66l18.08-0.64l2.28,1.81l14.33,12.26l20.76-2.23l8.45-1.66l2.44,4.24l-11.15,17.08l12.62,28.67l-6.51,13.22
			l11.6,12.79l3.16,11.92l-6.5-9.44l-24.08,0.09l-18.84,2.12l-0.29,16.79l-9.18,13.68l7.75,9.78l6.93,15.58L311.22,374.09z"/>
		<rect x="377.03" y="153.33" class="st2" width="15.15" height="8.63"/>
		<rect x="377.03" y="173.72" class="st2" width="15.15" height="8.63"/>
		<rect x="377.03" y="194.11" class="st2" width="15.15" height="8.63"/>
	</g>
</g>
</svg>
