<?xml version="1.0" encoding="utf-8"?>
<!-- Generator: Adobe Illustrator 24.1.3, SVG Export Plug-In . SVG Version: 6.00 Build 0)  -->
<svg version="1.1" id="Capa_1" xmlns="http://www.w3.org/2000/svg" xmlns:xlink="http://www.w3.org/1999/xlink" x="0px" y="0px"
	 viewBox="0 0 27 27" style="enable-background:new 0 0 27 27;" xml:space="preserve">
<style type="text/css">
	.st0{fill:#C9D644;}
</style>
<g>
	<path class="st0" d="M13.5,0.4C6.3,0.4,0.4,6.3,0.4,13.5c0,7.2,5.9,13.1,13.1,13.1c7.2,0,13.1-5.9,13.1-13.1
		C26.6,6.3,20.7,0.4,13.5,0.4z M22.4,22.4c-1.2,1.2-2.5,2.1-4,2.7c-1.6,0.7-3.2,1-4.9,1c-1.7,0-3.3-0.3-4.9-1
		c-1.5-0.6-2.8-1.5-4-2.7c-1.2-1.2-2.1-2.5-2.7-4c-0.7-1.5-1-3.2-1-4.9c0-1.7,0.3-3.3,1-4.9c0.6-1.5,1.5-2.8,2.7-4
		c1.2-1.2,2.5-2.1,4-2.7c1.5-0.7,3.2-1,4.9-1c1.7,0,3.3,0.3,4.9,1c1.5,0.6,2.8,1.5,4,2.7c1.2,1.2,2.1,2.5,2.7,4c0.7,1.6,1,3.2,1,4.9
		c0,1.7-0.3,3.3-1,4.9C24.5,19.9,23.5,21.2,22.4,22.4z"/>
	<path class="st0" d="M13.5,4.4c-1.5,0-2.8,0.3-4.1,0.9c0,0,0,0-0.1,0c-3,1.5-5.1,4.6-5.1,8.2c0,0.8,0.1,1.7,0.3,2.4c0,0,0,0,0,0
		c0.9,3.3,3.7,5.9,7.1,6.6c0,0,0,0,0,0c0.5,0.1,1.1,0.2,1.7,0.2c5.1,0,9.2-4.1,9.2-9.2S18.6,4.4,13.5,4.4z M13.5,18.4
		c-0.8,2-1.5,3.3-1.8,3.7C8.6,21.4,6,19,5.1,16c2.2-3.8,5-5.6,7.1-6.4C14,8.9,15.4,8.8,16,8.8C15.5,12.8,14.4,16.2,13.5,18.4z
		 M16.1,7.9c-1.3-1.4-4.1-2.1-5.7-2.4c1-0.4,2-0.6,3.1-0.6c0.9,0,1.7,0.1,2.6,0.4C16.1,5.7,16.2,7,16.1,7.9z M22.2,13.6
		c0,1.4-0.3,2.7-0.9,3.8c-0.1-1.9-0.8-5.6-4.5-8.7c1.9-0.4,3.7,0.1,4,0.2C21.7,10.3,22.2,11.9,22.2,13.6z"/>
</g>
</svg>
