<?xml version="1.0" encoding="utf-8"?>
<!-- Generator: Adobe Illustrator 25.1.0, SVG Export Plug-In . SVG Version: 6.00 Build 0)  -->
<svg version="1.1" id="Capa_1" xmlns="http://www.w3.org/2000/svg" xmlns:xlink="http://www.w3.org/1999/xlink" x="0px" y="0px"
	 viewBox="0 0 512 512" style="enable-background:new 0 0 512 512;" xml:space="preserve">
<style type="text/css">
	.st0{fill:#F1F1F2;}
	.st1{fill:#FFFFFF;}
	.st2{fill:#667F00;}
</style>
<rect x="0" class="st0" width="512" height="512"/>
<g>
	<circle class="st1" cx="256" cy="256.35" r="218.73"/>
	<g>
		<path class="st2" d="M256,36.89c-120.97,0-219.15,98.13-219.15,219.16c0,120.96,98.18,219.06,219.15,219.06
			c121.03,0,219.15-98.1,219.15-219.06C475.15,135.02,377.04,36.89,256,36.89z M404.86,404.84c-19.34,19.33-41.85,34.51-66.92,45.11
			c-25.95,10.97-53.52,16.54-81.94,16.54c-28.41,0-55.97-5.56-81.92-16.54c-25.07-10.6-47.58-25.78-66.92-45.11
			C87.82,385.51,72.63,363,62.03,337.95c-10.98-25.94-16.55-53.49-16.55-81.89c0-28.42,5.57-55.99,16.55-81.94
			c10.61-25.07,25.79-47.58,45.14-66.93c19.34-19.34,41.86-34.52,66.92-45.13c25.95-10.98,53.51-16.54,81.92-16.54
			c28.42,0,55.99,5.57,81.94,16.54c25.07,10.6,47.58,25.79,66.92,45.12c19.34,19.34,34.52,41.86,45.12,66.92
			c10.98,25.95,16.54,53.52,16.54,81.95c0,28.41-5.56,55.96-16.54,81.89C439.38,363,424.2,385.51,404.86,404.84z"/>
		<path class="st2" d="M256,102.9c-24.35,0-47.39,5.68-67.89,15.77c-0.38,0.13-0.75,0.31-1.08,0.54
			c-50.5,25.36-85.24,77.64-85.24,137.9c0,14.1,1.91,27.77,5.48,40.76c0.04,0.21,0.1,0.41,0.17,0.62
			c15.59,55.92,61.98,99.12,119.65,110.1c0.24,0.07,0.48,0.11,0.73,0.14c9.14,1.7,18.56,2.59,28.18,2.59
			c85.03,0,154.21-69.18,154.21-154.21S341.03,102.9,256,102.9z M298.81,117.95c0.58,7.42,2.09,29.04,1.22,43.97
			c-21.75-23.8-68.37-35.81-95.49-40.99c16.01-6.07,33.35-9.4,51.46-9.4C270.89,111.53,285.27,113.78,298.81,117.95z M116.14,297.56
			c36.07-63.88,84.51-93.2,118.93-106.55c28.93-11.22,53.06-13.37,62.85-13.76c-7.8,66.73-26.91,123.64-41.75,159.97
			c-13.43,32.87-25.83,55.13-30.04,62.39C173.36,388.56,131,348.84,116.14,297.56z M386.9,320.77
			c-1.79-32.19-13.81-94.34-74.56-145.67c31.46-5.86,61.35,2.51,66.59,4.11c14.33,22.54,22.65,49.26,22.65,77.9
			C401.58,279.92,396.3,301.53,386.9,320.77z"/>
	</g>
</g>
</svg>
