<?xml version="1.0" encoding="utf-8"?>
<!-- Generator: Adobe Illustrator 25.1.0, SVG Export Plug-In . SVG Version: 6.00 Build 0)  -->
<svg version="1.1" id="Capa_1" xmlns="http://www.w3.org/2000/svg" xmlns:xlink="http://www.w3.org/1999/xlink" x="0px" y="0px"
	 viewBox="0 0 512 512" style="enable-background:new 0 0 512 512;" xml:space="preserve">
<style type="text/css">
	.st0{fill:#F1F1F2;}
	.st1{fill:#FFFFFF;}
	.st2{fill:#667F00;}
</style>
<rect x="0" class="st0" width="512" height="512"/>
<g>
	<circle class="st1" cx="256" cy="256.35" r="218.73"/>
	<g>
		<path class="st2" d="M256,36.89c-120.97,0-219.15,98.13-219.15,219.16c0,120.96,98.18,219.06,219.15,219.06
			c121.03,0,219.15-98.1,219.15-219.06C475.15,135.02,377.04,36.89,256,36.89z M404.86,404.84c-19.34,19.33-41.85,34.51-66.92,45.11
			c-25.95,10.97-53.52,16.54-81.94,16.54c-28.41,0-55.97-5.56-81.92-16.54c-25.07-10.6-47.58-25.78-66.92-45.11
			C87.82,385.51,72.63,363,62.03,337.95c-10.98-25.94-16.55-53.49-16.55-81.89c0-28.42,5.57-55.99,16.55-81.94
			c10.61-25.07,25.79-47.58,45.14-66.92c19.34-19.34,41.86-34.52,66.92-45.13c25.95-10.98,53.51-16.54,81.92-16.54
			c28.42,0,55.99,5.57,81.94,16.54c25.07,10.6,47.58,25.79,66.92,45.12c19.34,19.34,34.52,41.85,45.12,66.92
			c10.98,25.95,16.54,53.52,16.54,81.95c0,28.41-5.56,55.96-16.54,81.89C439.38,363,424.2,385.51,404.86,404.84z"/>
		<rect x="155.35" y="299.39" class="st2" width="105.36" height="8.63"/>
		<polygon class="st2" points="155.35,321.63 155.35,321.63 155.35,330.25 346.73,330.25 346.73,329.74 346.73,329.74 
			346.73,321.12 155.35,321.12 		"/>
		<polygon class="st2" points="155.35,343.35 155.35,343.35 155.35,351.98 346.73,351.98 346.73,351.47 346.73,351.47 
			346.73,342.84 155.35,342.84 		"/>
		<polygon class="st2" points="155.35,365.08 155.35,365.08 155.35,373.71 346.73,373.71 346.73,373.2 346.73,373.2 346.73,364.57 
			155.35,364.57 		"/>
		<path class="st2" d="M366.07,152.34V97.58H185.51v0.01c-1.12,0-2.23,0.43-3.05,1.25l-44.82,44.82c-1.05,1.05-1.47,2.55-1.16,3.97
			h-0.11v268.51h229.7V297.61c23.43-15.69,38.88-42.39,38.88-72.64S389.5,168.02,366.07,152.34z M242.19,247.63
			c15.76-27.6,37.39-46.91,64.34-57.41c13.94-5.43,25.85-6.99,32.11-7.44c-7.6,61.09-32.2,107.72-38.56,118.96
			C272.44,295.44,250.29,274.55,242.19,247.63z M339.5,149.35c0.36,4.79,0.76,12.21,0.7,18.52c-11.31-9.78-29.79-15.57-43.71-18.74
			c6.72-1.87,13.8-2.88,21.11-2.88C325.2,146.24,332.54,147.33,339.5,149.35z M181.2,112.3v30.1h-30.1L181.2,112.3z M357.44,407.52
			H145V151.03h40.51c2.38,0,4.31-1.93,4.31-4.31v-40.51h167.62v41.04c-11.95-6.15-25.5-9.63-39.85-9.63
			c-13.79,0-26.83,3.21-38.44,8.93c-0.21,0.08-0.41,0.18-0.6,0.3c-16.35,8.2-29.78,21.38-38.3,37.55h-22.14
			c-1.04,0-1.93,0.74-2.12,1.77l-2.03,11.13l-9.47-30.98c-0.29-0.94-1.18-1.59-2.16-1.52c-0.98,0.05-1.81,0.75-2.01,1.72
			l-7.85,38.07l-3.2-20.99c-0.16-1.05-1.07-1.83-2.13-1.83h-31.8v4.31h29.94l4.73,31.06c0.16,1.03,1.03,1.8,2.08,1.83
			c0.02,0,0.04,0,0.06,0c1.02,0,1.9-0.72,2.11-1.72l8.57-41.59l9.59,31.38c0.29,0.95,1.19,1.59,2.19,1.52
			c0.99-0.06,1.82-0.79,2-1.77l3.3-18.08h18.22c-5.07,11.05-7.9,23.34-7.9,36.27c0,0.38,0.01,0.75,0.01,1.12h-74.9v8.63h75.43
			c0.5,4.48,1.34,8.85,2.49,13.1h-77.93v8.63h80.76c10.76,27.76,35.32,48.7,65.22,54.36c0.12,0.03,0.25,0.06,0.37,0.07
			c5.16,0.95,10.47,1.45,15.9,1.45c14.35,0,27.89-3.48,39.85-9.63V407.52z M391.34,252.55c-2.36-18.57-10.76-47.07-38.14-71.73
			c14.41-1.73,27.5,1.56,31.26,2.64c7.52,12.06,11.87,26.29,11.87,41.52C396.33,234.67,394.56,243.96,391.34,252.55z"/>
	</g>
</g>
</svg>
