<?xml version="1.0" encoding="utf-8"?>
<!-- Generator: Adobe Illustrator 24.1.3, SVG Export Plug-In . SVG Version: 6.00 Build 0)  -->
<svg version="1.1" id="Capa_1" xmlns="http://www.w3.org/2000/svg" xmlns:xlink="http://www.w3.org/1999/xlink" x="0px" y="0px"
	 viewBox="0 0 27 27" style="enable-background:new 0 0 27 27;" xml:space="preserve">
<style type="text/css">
	.st0{fill:#C9D644;}
</style>
<g>
	<g>
		<g>
			<path id="XMLID_16_" class="st0" d="M13.5,0.9c1.7,0,3.3,0.3,4.9,1c1.5,0.6,2.8,1.5,4,2.7c1.2,1.2,2.1,2.5,2.7,4
				c0.7,1.6,1,3.2,1,4.9c0,1.7-0.3,3.3-1,4.9c-0.6,1.5-1.5,2.8-2.7,4c-1.2,1.2-2.5,2.1-4,2.7c-1.6,0.7-3.2,1-4.9,1
				c-1.7,0-3.3-0.3-4.9-1c-1.5-0.6-2.8-1.5-4-2.7c-1.2-1.2-2.1-2.5-2.7-4c-0.7-1.5-1-3.2-1-4.9c0-1.7,0.3-3.3,1-4.9
				c0.6-1.5,1.5-2.8,2.7-4c1.2-1.2,2.5-2.1,4-2.7C10.2,1.3,11.8,0.9,13.5,0.9 M13.5,0.4C6.3,0.4,0.4,6.3,0.4,13.5
				c0,7.2,5.9,13.1,13.1,13.1c7.2,0,13.1-5.9,13.1-13.1C26.6,6.3,20.7,0.4,13.5,0.4L13.5,0.4z"/>
		</g>
	</g>
	<g>
		<rect x="7.5" y="16.1" class="st0" width="6.3" height="0.5"/>
		<polygon class="st0" points="7.5,17.4 7.5,17.4 7.5,17.9 18.9,17.9 18.9,17.9 18.9,17.9 18.9,17.4 7.5,17.4 		"/>
		<polygon class="st0" points="7.5,18.7 7.5,18.7 7.5,19.2 18.9,19.2 18.9,19.2 18.9,19.2 18.9,18.7 7.5,18.7 		"/>
		<polygon class="st0" points="7.5,20 7.5,20 7.5,20.5 18.9,20.5 18.9,20.5 18.9,20.5 18.9,20 7.5,20 		"/>
		<path class="st0" d="M22.4,11.6c0-1.8-0.9-3.4-2.3-4.3V4H9.3v0c-0.1,0-0.1,0-0.2,0.1L6.4,6.8C6.4,6.9,6.3,6.9,6.4,7h0v16h13.7V16
			C21.5,15,22.4,13.5,22.4,11.6z M12.7,13c0.9-1.6,2.2-2.8,3.8-3.4c0.8-0.3,1.5-0.4,1.9-0.4c-0.5,3.6-1.9,6.4-2.3,7.1
			C14.5,15.9,13.2,14.6,12.7,13z M18.5,7.1c0,0.3,0,0.7,0,1.1c-0.7-0.6-1.8-0.9-2.6-1.1c0.4-0.1,0.8-0.2,1.3-0.2
			C17.6,6.9,18.1,7,18.5,7.1z M21.6,13.3c-0.1-1.1-0.6-2.8-2.3-4.3c0.9-0.1,1.6,0.1,1.9,0.2c0.4,0.7,0.7,1.6,0.7,2.5
			C21.9,12.2,21.8,12.8,21.6,13.3z M9,4.9v1.8H7.2L9,4.9z M19.6,22.6H6.9V7.2h2.4c0.1,0,0.3-0.1,0.3-0.3V4.6h10V7
			c-0.7-0.4-1.5-0.6-2.4-0.6c-0.8,0-1.6,0.2-2.3,0.5c0,0,0,0,0,0c-1,0.5-1.8,1.3-2.3,2.2h-1.3c-0.1,0-0.1,0-0.1,0.1L11,10l-0.6-1.9
			c0-0.1-0.1-0.1-0.1-0.1c-0.1,0-0.1,0-0.1,0.1l-0.5,2.3L9.5,9.2c0-0.1-0.1-0.1-0.1-0.1H7.5v0.3h1.8l0.3,1.9c0,0.1,0.1,0.1,0.1,0.1
			c0,0,0,0,0,0c0.1,0,0.1,0,0.1-0.1l0.5-2.5l0.6,1.9c0,0.1,0.1,0.1,0.1,0.1c0.1,0,0.1,0,0.1-0.1l0.2-1.1h1.1
			c-0.3,0.7-0.5,1.4-0.5,2.2c0,0,0,0,0,0.1H7.5v0.5H12c0,0.3,0.1,0.5,0.1,0.8H7.5v0.5h4.8c0.6,1.7,2.1,2.9,3.9,3.2c0,0,0,0,0,0
			c0.3,0.1,0.6,0.1,0.9,0.1c0.9,0,1.7-0.2,2.4-0.6V22.6z"/>
	</g>
</g>
</svg>
