<?xml version="1.0" encoding="utf-8"?>
<!-- Generator: Adobe Illustrator 24.1.3, SVG Export Plug-In . SVG Version: 6.00 Build 0)  -->
<svg version="1.1" id="Capa_1" xmlns="http://www.w3.org/2000/svg" xmlns:xlink="http://www.w3.org/1999/xlink" x="0px" y="0px"
	 viewBox="0 0 27 27" style="enable-background:new 0 0 27 27;" xml:space="preserve">
<style type="text/css">
	.st0{fill:#C9D644;}
</style>
<g>
	<path class="st0" d="M13.5,0.4C6.3,0.4,0.4,6.3,0.4,13.5c0,7.2,5.9,13.1,13.1,13.1c7.2,0,13.1-5.9,13.1-13.1
		C26.6,6.3,20.7,0.4,13.5,0.4z M22.4,22.4c-1.2,1.2-2.5,2.1-4,2.7c-1.6,0.7-3.2,1-4.9,1c-1.7,0-3.3-0.3-4.9-1
		c-1.5-0.6-2.8-1.5-4-2.7c-1.2-1.2-2.1-2.5-2.7-4c-0.7-1.5-1-3.2-1-4.9c0-1.7,0.3-3.3,1-4.9c0.6-1.5,1.5-2.8,2.7-4
		c1.2-1.2,2.5-2.1,4-2.7c1.5-0.7,3.2-1,4.9-1c1.7,0,3.3,0.3,4.9,1c1.5,0.6,2.8,1.5,4,2.7c1.2,1.2,2.1,2.5,2.7,4c0.7,1.6,1,3.2,1,4.9
		c0,1.7-0.3,3.3-1,4.9C24.5,19.9,23.5,21.2,22.4,22.4z"/>
	<path class="st0" d="M13.2,6.4v1.4h0.5V6.4c0.6-0.1,1-0.6,1-1.2c0-0.7-0.5-1.2-1.2-1.2s-1.2,0.5-1.2,1.2
		C12.3,5.8,12.7,6.3,13.2,6.4z M13.5,4.5c0.4,0,0.7,0.3,0.7,0.7c0,0.4-0.3,0.7-0.7,0.7s-0.7-0.3-0.7-0.7C12.8,4.8,13.1,4.5,13.5,4.5
		z"/>
	<path class="st0" d="M13.8,20.6v-1.4h-0.5v1.4c-0.6,0.1-1,0.6-1,1.2c0,0.7,0.5,1.2,1.2,1.2s1.2-0.5,1.2-1.2
		C14.7,21.2,14.3,20.7,13.8,20.6z M13.5,22.5c-0.4,0-0.7-0.3-0.7-0.7c0-0.4,0.3-0.7,0.7-0.7s0.7,0.3,0.7,0.7
		C14.2,22.2,13.9,22.5,13.5,22.5z"/>
	<path class="st0" d="M21.8,12.3c-0.6,0-1.1,0.4-1.2,1h-1.4v0.5h1.4c0.1,0.6,0.6,1,1.2,1c0.7,0,1.2-0.5,1.2-1.2S22.5,12.3,21.8,12.3
		z M21.8,14.2c-0.4,0-0.7-0.3-0.7-0.7s0.3-0.7,0.7-0.7s0.7,0.3,0.7,0.7S22.2,14.2,21.8,14.2z"/>
	<path class="st0" d="M18.3,8.3l-1,1l0.4,0.4l1-1c0.2,0.1,0.4,0.2,0.7,0.2c0.3,0,0.6-0.1,0.9-0.4l0,0c0.5-0.5,0.5-1.3,0-1.7
		c-0.5-0.5-1.3-0.5-1.7,0C18.1,7.2,18,7.8,18.3,8.3z M18.9,7.1C19,7,19.2,6.9,19.4,6.9c0.2,0,0.4,0.1,0.5,0.2c0.3,0.3,0.3,0.7,0,1
		c-0.3,0.3-0.7,0.3-1,0C18.6,7.9,18.6,7.4,18.9,7.1z"/>
	<path class="st0" d="M8.7,18.7l1-1l-0.4-0.4l-1,1c-0.5-0.3-1.1-0.3-1.5,0.2l0,0c-0.5,0.5-0.5,1.3,0,1.7c0.2,0.2,0.6,0.4,0.9,0.4
		c0.3,0,0.6-0.1,0.9-0.4C8.9,19.8,9,19.2,8.7,18.7z M8.1,19.9c-0.3,0.3-0.7,0.3-1,0c-0.3-0.3-0.3-0.7,0-1l0,0c0.3-0.3,0.7-0.3,1,0
		C8.4,19.1,8.4,19.6,8.1,19.9z"/>
	<path class="st0" d="M18.7,18.3l-1-1l-0.4,0.4l1,1c-0.3,0.5-0.3,1.1,0.2,1.5h0c0.2,0.2,0.6,0.4,0.9,0.4c0.3,0,0.6-0.1,0.9-0.4
		c0.5-0.5,0.5-1.3,0-1.7C19.8,18.1,19.2,18,18.7,18.3z M19.9,19.9c-0.3,0.3-0.7,0.3-1,0h0c-0.3-0.3-0.3-0.7,0-1c0.3-0.3,0.7-0.3,1,0
		C20.1,19.1,20.1,19.6,19.9,19.9z"/>
	<path class="st0" d="M7.6,8.9c0.2,0,0.5-0.1,0.7-0.2l1,1l0.4-0.4l-1-1C9,7.8,8.9,7.2,8.5,6.8h0C8,6.3,7.3,6.3,6.8,6.8
		C6.3,7.3,6.3,8,6.8,8.5C7,8.7,7.3,8.9,7.6,8.9z M7.1,7.1C7.3,7,7.5,6.9,7.6,6.9C7.8,6.9,8,7,8.1,7.1c0.3,0.3,0.3,0.7,0,1
		c-0.3,0.3-0.7,0.3-1,0C6.9,7.9,6.9,7.4,7.1,7.1z"/>
	<path class="st0" d="M5.9,10.5l-0.2-0.1c0,0.1-0.1,0.2-0.1,0.2l0.2,0.1C5.8,10.7,5.9,10.6,5.9,10.5z"/>
	<path class="st0" d="M5.7,11l-0.2-0.1c0,0.1-0.1,0.2-0.1,0.2l0.2,0.1C5.7,11.1,5.7,11.1,5.7,11z"/>
	<path class="st0" d="M5.6,11.5l-0.2-0.1c0,0.1,0,0.2-0.1,0.2l0.3,0.1C5.6,11.6,5.6,11.5,5.6,11.5z"/>
	<path class="st0" d="M5.5,11.9l-0.3,0c0,0.1,0,0.2,0,0.3l0.3,0C5.5,12.1,5.5,12,5.5,11.9z"/>
	<path class="st0" d="M6.5,8.8L6.7,9c0-0.1,0.1-0.1,0.1-0.2L6.6,8.6C6.6,8.7,6.5,8.8,6.5,8.8z"/>
	<path class="st0" d="M6.6,9.2L6.4,9c0,0.1-0.1,0.1-0.1,0.2l0.2,0.1C6.5,9.3,6.5,9.3,6.6,9.2z"/>
	<path class="st0" d="M6.3,9.6L6.1,9.5C6.1,9.6,6,9.6,6,9.7l0.2,0.1C6.2,9.8,6.3,9.7,6.3,9.6z"/>
	<path class="st0" d="M6.1,10.1L5.9,9.9c0,0.1-0.1,0.2-0.1,0.2L6,10.3C6,10.2,6.1,10.1,6.1,10.1z"/>
	<path class="st0" d="M5.7,15.9L5.4,16c0,0.1,0.1,0.2,0.1,0.2l0.2-0.1C5.7,16,5.7,16,5.7,15.9z"/>
	<path class="st0" d="M5.8,16.3l-0.2,0.1c0,0.1,0.1,0.2,0.1,0.2l0.2-0.1C5.9,16.5,5.9,16.4,5.8,16.3z"/>
	<path class="st0" d="M6,16.8l-0.2,0.1c0,0.1,0.1,0.2,0.1,0.2L6.1,17C6.1,16.9,6.1,16.9,6,16.8z"/>
	<path class="st0" d="M6.2,17.2L6,17.3c0,0.1,0.1,0.1,0.1,0.2l0.2-0.1C6.3,17.4,6.3,17.3,6.2,17.2z"/>
	<path class="st0" d="M6.7,18.4l0.2-0.2c0-0.1-0.1-0.1-0.1-0.2l-0.2,0.1C6.6,18.3,6.6,18.3,6.7,18.4z"/>
	<path class="st0" d="M6.5,17.6l-0.2,0.1c0,0.1,0.1,0.1,0.1,0.2l0.2-0.1C6.6,17.8,6.5,17.7,6.5,17.6z"/>
	<path class="st0" d="M5.5,14.9l-0.3,0c0,0.1,0,0.2,0,0.2l0.3-0.1C5.5,15.1,5.5,15,5.5,14.9z"/>
	<path class="st0" d="M5.6,15.4l-0.3,0.1c0,0.1,0,0.2,0.1,0.2l0.2-0.1C5.6,15.6,5.6,15.5,5.6,15.4z"/>
	<path class="st0" d="M6.4,13.8h1.4v-0.5H6.4c-0.1-0.6-0.6-1-1.2-1c-0.7,0-1.2,0.5-1.2,1.2c0,0.7,0.5,1.2,1.2,1.2c0,0,0,0,0,0l0.1,0
		C5.8,14.7,6.3,14.3,6.4,13.8z M4.5,13.5c0-0.4,0.3-0.7,0.7-0.7c0.4,0,0.7,0.3,0.7,0.7s-0.3,0.7-0.7,0.7C4.8,14.2,4.5,13.9,4.5,13.5
		z"/>
	<path class="st0" d="M10.9,21.5c0.1,0,0.2,0.1,0.2,0.1l0.1-0.2c-0.1,0-0.2,0-0.2-0.1L10.9,21.5z"/>
	<path class="st0" d="M11.4,21.6c0.1,0,0.2,0,0.2,0.1l0.1-0.3c-0.1,0-0.2,0-0.2-0.1L11.4,21.6z"/>
	<path class="st0" d="M9.9,21.1c0.1,0,0.2,0.1,0.2,0.1l0.1-0.2c-0.1,0-0.1-0.1-0.2-0.1L9.9,21.1z"/>
	<path class="st0" d="M10.4,21.3c0.1,0,0.2,0.1,0.2,0.1l0.1-0.2c-0.1,0-0.2-0.1-0.2-0.1L10.4,21.3z"/>
	<path class="st0" d="M11.8,21.8c0.1,0,0.2,0,0.2,0l0-0.3c-0.1,0-0.2,0-0.2,0L11.8,21.8z"/>
	<path class="st0" d="M8.6,20.4c0.1,0,0.1,0.1,0.2,0.1L9,20.3c-0.1,0-0.1-0.1-0.2-0.1L8.6,20.4z"/>
	<path class="st0" d="M9.1,20.7c0.1,0,0.1,0.1,0.2,0.1l0.1-0.2c-0.1,0-0.1-0.1-0.2-0.1L9.1,20.7z"/>
	<path class="st0" d="M9.5,20.9c0.1,0,0.1,0.1,0.2,0.1l0.1-0.2c-0.1,0-0.1-0.1-0.2-0.1L9.5,20.9z"/>
	<path class="st0" d="M17.2,20.8l0.1,0.2c0.1,0,0.2-0.1,0.2-0.1l-0.1-0.2C17.3,20.7,17.2,20.8,17.2,20.8z"/>
	<path class="st0" d="M18,20.3l0.1,0.2c0.1,0,0.1-0.1,0.2-0.1l-0.1-0.2C18.2,20.2,18.1,20.2,18,20.3z"/>
	<path class="st0" d="M15.3,21.5l0.1,0.3c0.1,0,0.2,0,0.2-0.1l-0.1-0.2C15.5,21.4,15.4,21.4,15.3,21.5z"/>
	<path class="st0" d="M16.7,21l0.1,0.2c0.1,0,0.2-0.1,0.2-0.1l-0.1-0.2C16.9,20.9,16.8,21,16.7,21z"/>
	<path class="st0" d="M14.8,21.6l0,0.3c0.1,0,0.2,0,0.3,0l0-0.3C15,21.5,14.9,21.5,14.8,21.6z"/>
	<path class="st0" d="M15.8,21.3l0.1,0.2c0.1,0,0.2,0,0.2-0.1L16,21.3C15.9,21.3,15.9,21.3,15.8,21.3z"/>
	<path class="st0" d="M17.6,20.6l0.1,0.2c0.1,0,0.1-0.1,0.2-0.1l-0.1-0.2C17.8,20.5,17.7,20.5,17.6,20.6z"/>
	<path class="st0" d="M16.3,21.2l0.1,0.2c0.1,0,0.2-0.1,0.2-0.1l-0.1-0.2C16.4,21.1,16.3,21.2,16.3,21.2z"/>
	<path class="st0" d="M21.4,15.6l0.2,0.1c0-0.1,0-0.2,0.1-0.2l-0.3-0.1C21.4,15.5,21.4,15.5,21.4,15.6z"/>
	<path class="st0" d="M21.5,15.2l0.3,0.1c0-0.1,0-0.2,0-0.2l-0.3,0C21.5,15,21.5,15.1,21.5,15.2z"/>
	<path class="st0" d="M21.1,16.5l0.2,0.1c0-0.1,0.1-0.2,0.1-0.2l-0.2-0.1C21.1,16.4,21.1,16.5,21.1,16.5z"/>
	<path class="st0" d="M20.9,17l0.2,0.1c0-0.1,0.1-0.2,0.1-0.2L21,16.8C21,16.8,20.9,16.9,20.9,17z"/>
	<path class="st0" d="M20.5,18.2L20.3,18c0,0.1-0.1,0.1-0.1,0.2l0.2,0.1C20.4,18.3,20.5,18.2,20.5,18.2z"/>
	<path class="st0" d="M20.7,17.4l0.2,0.1c0-0.1,0.1-0.1,0.1-0.2l-0.2-0.1C20.7,17.3,20.7,17.3,20.7,17.4z"/>
	<path class="st0" d="M21.2,16.1l0.2,0.1c0-0.1,0.1-0.2,0.1-0.2l-0.2-0.1C21.3,15.9,21.3,16,21.2,16.1z"/>
	<path class="st0" d="M20.4,17.8l0.2,0.1c0-0.1,0.1-0.1,0.1-0.2l-0.2-0.1C20.5,17.7,20.5,17.8,20.4,17.8z"/>
	<path class="st0" d="M21.6,12.2l0.3,0c0-0.1,0-0.2,0-0.3l-0.3,0C21.5,12,21.5,12.1,21.6,12.2z"/>
	<path class="st0" d="M20.2,8.8c0,0.1,0.1,0.1,0.1,0.2l0.2-0.1c0-0.1-0.1-0.1-0.1-0.2L20.2,8.8z"/>
	<path class="st0" d="M21.5,11.7l0.3-0.1c0-0.1,0-0.2-0.1-0.2l-0.2,0.1C21.4,11.5,21.4,11.6,21.5,11.7z"/>
	<path class="st0" d="M21,10.3l0.2-0.1c0-0.1-0.1-0.2-0.1-0.2l-0.2,0.1C20.9,10.1,21,10.2,21,10.3z"/>
	<path class="st0" d="M20.8,9.8L21,9.7c0-0.1-0.1-0.2-0.1-0.2l-0.2,0.1C20.7,9.7,20.8,9.8,20.8,9.8z"/>
	<path class="st0" d="M21.3,11.2l0.2-0.1c0-0.1,0-0.2-0.1-0.2L21.3,11C21.3,11.1,21.3,11.1,21.3,11.2z"/>
	<path class="st0" d="M21.2,10.7l0.2-0.1c0-0.1-0.1-0.2-0.1-0.2l-0.2,0.1C21.1,10.6,21.2,10.7,21.2,10.7z"/>
	<path class="st0" d="M20.6,9.4l0.2-0.1c0-0.1-0.1-0.1-0.1-0.2l-0.2,0.1C20.5,9.3,20.5,9.3,20.6,9.4z"/>
	<path class="st0" d="M17.5,6.1c-0.1,0-0.1-0.1-0.2-0.1l-0.1,0.2c0.1,0,0.1,0.1,0.2,0.1L17.5,6.1z"/>
	<path class="st0" d="M18,6.4c-0.1,0-0.1-0.1-0.2-0.1l-0.1,0.2c0.1,0,0.1,0.1,0.2,0.1L18,6.4z"/>
	<path class="st0" d="M17.1,5.9c-0.1,0-0.2-0.1-0.2-0.1L16.8,6c0.1,0,0.2,0.1,0.2,0.1L17.1,5.9z"/>
	<path class="st0" d="M18.4,6.7c-0.1,0-0.1-0.1-0.2-0.1l-0.1,0.2c0.1,0,0.1,0.1,0.2,0.1L18.4,6.7z"/>
	<path class="st0" d="M15.7,5.4c-0.1,0-0.2,0-0.2-0.1l-0.1,0.3c0.1,0,0.2,0,0.2,0.1L15.7,5.4z"/>
	<path class="st0" d="M16.6,5.7c-0.1,0-0.2-0.1-0.2-0.1l-0.1,0.2c0.1,0,0.2,0.1,0.2,0.1L16.6,5.7z"/>
	<path class="st0" d="M15.2,5.2c-0.1,0-0.2,0-0.3,0l0,0.3c0.1,0,0.2,0,0.2,0L15.2,5.2z"/>
	<path class="st0" d="M16.2,5.5c-0.1,0-0.2-0.1-0.2-0.1l-0.1,0.2c0.1,0,0.2,0,0.2,0.1L16.2,5.5z"/>
	<path class="st0" d="M9.4,6.5L9.3,6.2C9.2,6.3,9.1,6.3,9,6.4l0.1,0.2C9.2,6.5,9.3,6.5,9.4,6.5z"/>
	<path class="st0" d="M9.8,6.2L9.7,6C9.6,6,9.6,6.1,9.5,6.1l0.1,0.2C9.7,6.3,9.7,6.3,9.8,6.2z"/>
	<path class="st0" d="M9,6.7L8.8,6.5c-0.1,0-0.1,0.1-0.2,0.1l0.1,0.2C8.8,6.8,8.9,6.8,9,6.7z"/>
	<path class="st0" d="M10.3,6l-0.1-0.2c-0.1,0-0.2,0.1-0.2,0.1L10,6.1C10.1,6.1,10.2,6,10.3,6z"/>
	<path class="st0" d="M11.7,5.5l-0.1-0.3c-0.1,0-0.2,0-0.2,0.1l0.1,0.2C11.5,5.6,11.6,5.6,11.7,5.5z"/>
	<path class="st0" d="M10.7,5.8l-0.1-0.2c-0.1,0-0.2,0.1-0.2,0.1l0.1,0.2C10.6,5.9,10.7,5.8,10.7,5.8z"/>
	<path class="st0" d="M12.2,5.4l0-0.3c-0.1,0-0.2,0-0.3,0l0,0.3C12,5.5,12.1,5.5,12.2,5.4z"/>
	<path class="st0" d="M11.2,5.7l-0.1-0.2c-0.1,0-0.2,0-0.2,0.1L11,5.7C11,5.7,11.1,5.7,11.2,5.7z"/>
	<path class="st0" d="M13.3,18.2c0,0.1,0.1,0.1,0.2,0.1c0.1,0,0.2,0,0.2-0.1c0,0,2.6-3.5,2.7-3.6c0.5-0.7,0.8-1.4,0.8-2.3
		c0-2-1.6-3.7-3.7-3.7c-2,0-3.7,1.6-3.7,3.7c0,0.8,0.3,1.6,0.8,2.3L13.3,18.2z M13.5,9.2c1.7,0,3.2,1.4,3.2,3.2c0,0.7-0.2,1.4-0.7,2
		l0,0c0,0-0.1,0.1-0.1,0.2l-2.4,3.2l-2.5-3.4c0,0,0,0,0,0c-0.4-0.6-0.7-1.2-0.7-2C10.4,10.6,11.8,9.2,13.5,9.2z"/>
	<path class="st0" d="M13.6,14.3c1,0,1.9-0.8,1.9-1.9c0-1-0.8-1.9-1.9-1.9c-1,0-1.9,0.8-1.9,1.9C11.8,13.5,12.6,14.3,13.6,14.3z
		 M13.6,11.1c0.7,0,1.3,0.6,1.3,1.3c0,0.7-0.6,1.3-1.3,1.3c-0.7,0-1.3-0.6-1.3-1.3C12.3,11.7,12.9,11.1,13.6,11.1z"/>
</g>
</svg>
