<?xml version="1.0" encoding="utf-8"?>
<!-- Generator: Adobe Illustrator 25.1.0, SVG Export Plug-In . SVG Version: 6.00 Build 0)  -->
<svg version="1.1" id="Capa_1" xmlns="http://www.w3.org/2000/svg" xmlns:xlink="http://www.w3.org/1999/xlink" x="0px" y="0px"
	 viewBox="0 0 512 512" style="enable-background:new 0 0 512 512;" xml:space="preserve">
<style type="text/css">
	.st0{fill:#F1F1F2;}
	.st1{fill:#FFFFFF;}
	.st2{fill:#667F00;}
</style>
<rect x="0" class="st0" width="512" height="512"/>
<g>
	<circle class="st1" cx="256" cy="256" r="218.73"/>
	<g>
		<path class="st2" d="M256,36.89c-120.97,0-219.15,98.13-219.15,219.16c0,120.96,98.18,219.06,219.15,219.06
			c121.03,0,219.15-98.1,219.15-219.06C475.15,135.02,377.04,36.89,256,36.89z M404.86,404.84c-19.34,19.33-41.85,34.51-66.92,45.11
			c-25.95,10.97-53.52,16.54-81.94,16.54c-28.41,0-55.97-5.56-81.92-16.54c-25.07-10.6-47.58-25.78-66.92-45.11
			C87.82,385.51,72.63,363,62.03,337.95c-10.98-25.94-16.55-53.49-16.55-81.89c0-28.42,5.57-55.99,16.55-81.94
			c10.61-25.07,25.79-47.58,45.14-66.93c19.34-19.34,41.86-34.52,66.92-45.13c25.95-10.98,53.51-16.54,81.92-16.54
			c28.42,0,55.99,5.57,81.94,16.54c25.07,10.6,47.58,25.79,66.92,45.12c19.34,19.34,34.52,41.85,45.12,66.92
			c10.98,25.95,16.54,53.52,16.54,81.95c0,28.41-5.56,55.96-16.54,81.89C439.38,363,424.2,385.51,404.86,404.84z"/>
		<path class="st2" d="M251.69,137.28v22.96h8.63v-22.96c9.25-1.99,16.2-10.22,16.2-20.05c0-11.31-9.2-20.51-20.51-20.51
			c-11.31,0-20.51,9.2-20.51,20.51C235.49,127.06,242.44,135.29,251.69,137.28z M256,105.34c6.55,0,11.88,5.33,11.88,11.88
			c0,6.55-5.33,11.88-11.88,11.88c-6.55,0-11.88-5.33-11.88-11.88C244.12,110.67,249.45,105.34,256,105.34z"/>
		<path class="st2" d="M260.31,374.72v-22.96h-8.63v22.96c-9.24,1.99-16.2,10.22-16.2,20.05c0,11.31,9.2,20.51,20.51,20.51
			c11.31,0,20.51-9.2,20.51-20.51C276.51,384.94,269.56,376.71,260.31,374.72z M256,406.66c-6.55,0-11.88-5.33-11.88-11.88
			c0-6.55,5.33-11.88,11.88-11.88c6.55,0,11.88,5.33,11.88,11.88C267.88,401.33,262.55,406.66,256,406.66z"/>
		<path class="st2" d="M394.77,235.49c-9.83,0-18.06,6.95-20.05,16.2h-22.96v8.63h22.96c1.99,9.25,10.22,16.2,20.05,16.2
			c11.31,0,20.51-9.2,20.51-20.51C415.28,244.69,406.08,235.49,394.77,235.49z M394.77,267.88c-6.55,0-11.88-5.33-11.88-11.88
			c0-6.55,5.33-11.88,11.88-11.88c6.55,0,11.88,5.33,11.88,11.88C406.66,262.55,401.33,267.88,394.77,267.88z"/>
		<path class="st2" d="M336.9,169l-16.23,16.23l6.1,6.1L343,175.1c3.37,2.18,7.25,3.28,11.12,3.28c5.25,0,10.5-2,14.5-6
			c3.87-3.87,6.01-9.02,6.01-14.5c0-5.48-2.13-10.63-6.01-14.5c-8-8-21.01-8-29.01,0c-3.87,3.87-6.01,9.02-6.01,14.5
			C333.62,161.88,334.76,165.72,336.9,169z M354.13,145.99c3.04,0,6.09,1.16,8.4,3.48c2.25,2.24,3.48,5.23,3.48,8.4
			s-1.24,6.16-3.48,8.4c-2.24,2.24-5.23,3.48-8.4,3.48c-3.17,0-6.16-1.24-8.4-3.48c-2.25-2.24-3.48-5.23-3.48-8.4
			s1.24-6.16,3.48-8.4C348.04,147.15,351.08,145.99,354.13,145.99z"/>
		<path class="st2" d="M175.1,343l16.24-16.24l-6.1-6.1L169,336.9c-3.29-2.13-7.12-3.28-11.13-3.28c-5.48,0-10.63,2.13-14.5,6.01
			c-8,8-8,21.01,0,29.01c3.87,3.87,9.02,6.01,14.5,6.01c5.48,0,10.63-2.13,14.5-6.01C179.33,361.68,180.23,350.95,175.1,343z
			 M157.87,366.01c-3.17,0-6.16-1.24-8.4-3.48c-2.24-2.24-3.48-5.23-3.48-8.4c0-3.17,1.24-6.16,3.48-8.4
			c2.24-2.25,5.23-3.48,8.4-3.48c3.17,0,6.16,1.24,8.4,3.48c4.63,4.63,4.63,12.17,0,16.81
			C164.03,364.78,161.05,366.01,157.87,366.01z"/>
		<path class="st2" d="M354.13,333.62c-4.01,0-7.84,1.15-11.13,3.28l-16.23-16.23l-6.1,6.1L336.9,343
			c-2.13,3.29-3.28,7.12-3.28,11.13c0,5.48,2.13,10.63,6.01,14.5s9.02,6.01,14.5,6.01c5.48,0,10.63-2.13,14.5-6.01
			s6.01-9.02,6.01-14.5c0-5.48-2.13-10.63-6.01-14.5S359.61,333.62,354.13,333.62z M362.53,362.53c-2.24,2.25-5.23,3.48-8.4,3.48
			c-3.17,0-6.16-1.24-8.4-3.48c-2.25-2.24-3.48-5.23-3.48-8.4c0-3.17,1.24-6.16,3.48-8.4c2.24-2.25,5.23-3.48,8.4-3.48
			c3.17,0,6.16,1.24,8.4,3.48c2.25,2.24,3.48,5.23,3.48,8.4C366.01,357.3,364.78,360.29,362.53,362.53z"/>
		<path class="st2" d="M157.87,178.37c3.88,0,7.75-1.1,11.12-3.28l16.24,16.24l6.1-6.1L175.1,169c5.13-7.94,4.23-18.68-2.72-25.63
			c-8-8-21.01-8-29.01,0c-8,8-8,21.01,0,29.01C147.37,176.37,152.62,178.37,157.87,178.37z M149.47,149.47
			c2.32-2.32,5.36-3.48,8.4-3.48c3.04,0,6.09,1.16,8.4,3.48c4.63,4.63,4.63,12.17,0,16.81c-4.63,4.63-12.17,4.63-16.81,0
			C144.84,161.64,144.84,154.1,149.47,149.47z"/>
		<path class="st2" d="M121.9,229.78l-4.23-0.82c-0.27,1.4-0.52,2.82-0.75,4.21l4.26,0.69C121.39,232.51,121.63,231.14,121.9,229.78
			z"/>
		<path class="st2" d="M138.71,177.84l3.59,2.39c0.77-1.15,1.56-2.3,2.36-3.41l-3.51-2.5C140.32,175.47,139.5,176.65,138.71,177.84z
			"/>
		<path class="st2" d="M132.13,198.3l-3.91-1.83c-0.6,1.28-1.19,2.6-1.75,3.91l3.96,1.7C130.98,200.81,131.55,199.54,132.13,198.3z"
			/>
		<path class="st2" d="M140.05,183.72l-3.66-2.29c-0.75,1.2-1.49,2.43-2.21,3.66l3.73,2.17
			C138.6,186.08,139.32,184.88,140.05,183.72z"/>
		<path class="st2" d="M135.87,190.89l-3.79-2.06c-0.67,1.24-1.34,2.52-1.99,3.79l3.85,1.94
			C134.57,193.33,135.21,192.09,135.87,190.89z"/>
		<path class="st2" d="M128.85,205.92l-4.01-1.58c-0.52,1.32-1.03,2.67-1.51,4.01l4.06,1.46
			C127.86,208.51,128.35,207.2,128.85,205.92z"/>
		<path class="st2" d="M126.05,213.73l-4.1-1.33c-0.44,1.35-0.86,2.73-1.26,4.09l4.14,1.21
			C125.21,216.37,125.62,215.04,126.05,213.73z"/>
		<path class="st2" d="M123.73,221.69l-4.18-1.08c-0.36,1.37-0.69,2.77-1.01,4.16l4.21,0.95
			C123.05,224.38,123.38,223.02,123.73,221.69z"/>
		<path class="st2" d="M138.32,325.43l-3.71,2.19c0.7,1.19,1.44,2.39,2.18,3.56l3.65-2.3C139.71,327.74,139,326.58,138.32,325.43z"
			/>
		<path class="st2" d="M123.16,288.04l-4.19,1.01c0.33,1.35,0.67,2.71,1.04,4.05l4.16-1.13
			C123.81,290.67,123.47,289.35,123.16,288.04z"/>
		<path class="st2" d="M141.45,338.12l3.5-2.52c-0.78-1.09-1.56-2.21-2.31-3.32l-3.58,2.41C139.84,335.84,140.65,337,141.45,338.12z
			"/>
		<path class="st2" d="M121.5,280.11l-4.25,0.75c0.24,1.36,0.51,2.74,0.79,4.1l4.22-0.88C122,282.76,121.74,281.42,121.5,280.11z"/>
		<path class="st2" d="M127.88,303.52l-4.04,1.5c0.48,1.3,0.99,2.61,1.51,3.9l4-1.62C128.84,306.05,128.34,304.78,127.88,303.52z"/>
		<path class="st2" d="M125.29,295.85l-4.13,1.26c0.4,1.33,0.83,2.66,1.28,3.98l4.09-1.38
			C126.09,298.43,125.68,297.13,125.29,295.85z"/>
		<path class="st2" d="M130.92,311.03l-3.95,1.74c0.56,1.27,1.15,2.55,1.74,3.8l3.89-1.86C132.03,313.5,131.46,312.26,130.92,311.03
			z"/>
		<path class="st2" d="M134.4,318.34l-3.84,1.97c0.63,1.23,1.29,2.47,1.96,3.69l3.78-2.08C135.66,320.73,135.02,319.53,134.4,318.34
			z"/>
		<path class="st2" d="M118.18,276.49c9.4-0.43,17.17-7.23,19.09-16.17h22.96v-8.63h-22.96c-1.99-9.24-10.22-16.2-20.05-16.2
			c-11.31,0-20.51,9.2-20.51,20.51c0,11.08,8.84,20.14,19.83,20.49c0.01,0.08,0.02,0.15,0.03,0.23L118.18,276.49z M105.34,256
			c0-6.55,5.33-11.88,11.88-11.88c6.55,0,11.88,5.33,11.88,11.88c0,6.55-5.33,11.88-11.88,11.88
			C110.67,267.88,105.34,262.55,105.34,256z"/>
		<path class="st2" d="M181.59,375.71c1.18,0.74,2.4,1.47,3.61,2.18l2.17-3.73c-1.17-0.68-2.35-1.39-3.5-2.11L181.59,375.71z"/>
		<path class="st2" d="M212.07,389.95c1.33,0.44,2.68,0.86,4.03,1.25l1.22-4.14c-1.3-0.38-2.61-0.79-3.9-1.21L212.07,389.95z"/>
		<path class="st2" d="M220.16,392.33c1.34,0.35,2.72,0.69,4.09,1.01l0.97-4.2c-1.33-0.31-2.67-0.64-3.97-0.98L220.16,392.33z"/>
		<path class="st2" d="M228.37,394.22c1.37,0.27,2.76,0.53,4.15,0.76l0.71-4.25c-1.34-0.22-2.69-0.47-4.02-0.74L228.37,394.22z"/>
		<path class="st2" d="M174.57,371.04c1.14,0.81,2.31,1.61,3.47,2.39l2.39-3.59c-1.13-0.75-2.26-1.53-3.37-2.31L174.57,371.04z"/>
		<path class="st2" d="M204.14,387.08c1.3,0.51,2.63,1.02,3.94,1.49l1.47-4.06c-1.28-0.46-2.56-0.95-3.82-1.45L204.14,387.08z"/>
		<path class="st2" d="M196.4,383.74c1.26,0.59,2.56,1.17,3.85,1.73l1.71-3.96c-1.25-0.54-2.5-1.1-3.73-1.67L196.4,383.74z"/>
		<path class="st2" d="M188.87,379.95c1.23,0.67,2.49,1.33,3.73,1.95l1.94-3.85c-1.21-0.61-2.43-1.25-3.62-1.9L188.87,379.95z"/>
		<path class="st2" d="M324.77,374.07l2.18,3.72c1.23-0.72,2.46-1.46,3.66-2.21l-2.29-3.66
			C327.16,372.65,325.97,373.37,324.77,374.07z"/>
		<path class="st2" d="M317.48,378.04l1.94,3.85c1.27-0.64,2.55-1.31,3.79-1.99l-2.06-3.79
			C319.95,376.76,318.71,377.41,317.48,378.04z"/>
		<path class="st2" d="M309.96,381.55l1.71,3.96c1.31-0.56,2.62-1.15,3.91-1.75l-1.83-3.91C312.5,380.43,311.22,381,309.96,381.55z"
			/>
		<path class="st2" d="M331.81,369.67l2.4,3.59c1.18-0.79,2.36-1.61,3.52-2.43l-2.5-3.51C334.1,368.11,332.95,368.91,331.81,369.67z
			"/>
		<path class="st2" d="M278.16,390.83l0.69,4.26c1.4-0.23,2.82-0.48,4.22-0.75l-0.82-4.23
			C280.89,390.36,279.51,390.61,278.16,390.83z"/>
		<path class="st2" d="M302.23,384.6l1.46,4.06c1.34-0.48,2.69-0.99,4.01-1.51l-1.58-4.01C304.84,383.64,303.53,384.13,302.23,384.6
			z"/>
		<path class="st2" d="M286.31,389.24l0.95,4.21c1.38-0.31,2.79-0.65,4.16-1.01l-1.08-4.18C289,388.61,287.65,388.94,286.31,389.24z
			"/>
		<path class="st2" d="M294.34,387.16l1.21,4.14c1.36-0.4,2.74-0.82,4.09-1.26l-1.33-4.1C297,386.37,295.66,386.78,294.34,387.16z"
			/>
		<path class="st2" d="M387.94,291.57l4.16,1.12c0.36-1.33,0.7-2.69,1.02-4.03l-4.2-1C388.62,288.96,388.29,290.28,387.94,291.57z"
			/>
		<path class="st2" d="M385.62,299.29l4.09,1.37c0.44-1.31,0.86-2.65,1.26-3.96l-4.13-1.24
			C386.45,296.72,386.04,298.02,385.62,299.29z"/>
		<path class="st2" d="M389.8,283.72l4.22,0.87c0.28-1.34,0.54-2.72,0.78-4.09l-4.25-0.74C390.32,281.09,390.07,282.42,389.8,283.72
			z"/>
		<path class="st2" d="M375.96,321.43l3.79,2.07c0.66-1.22,1.32-2.45,1.94-3.68l-3.84-1.96
			C377.23,319.06,376.6,320.26,375.96,321.43z"/>
		<path class="st2" d="M382.84,306.86l4,1.61c0.52-1.29,1.02-2.59,1.49-3.88l-4.05-1.49C383.82,304.34,383.34,305.61,382.84,306.86z
			"/>
		<path class="st2" d="M379.61,314.25l3.9,1.84c0.59-1.24,1.16-2.52,1.72-3.79l-3.95-1.73
			C380.74,311.81,380.18,313.04,379.61,314.25z"/>
		<path class="st2" d="M373.28,334.17l-3.59-2.39c-0.74,1.11-1.51,2.23-2.29,3.32l3.52,2.5
			C371.72,336.47,372.52,335.32,373.28,334.17z"/>
		<path class="st2" d="M371.88,328.39l3.66,2.29c0.73-1.16,1.45-2.36,2.15-3.56l-3.72-2.18
			C373.29,326.1,372.59,327.26,371.88,328.39z"/>
		<path class="st2" d="M367.39,176.89c0.8,1.12,1.59,2.27,2.35,3.41l3.59-2.39c-0.79-1.18-1.6-2.36-2.42-3.52L367.39,176.89z"/>
		<path class="st2" d="M378.08,194.61l3.85-1.94c-0.64-1.27-1.3-2.54-1.98-3.79l-3.79,2.06
			C376.82,192.15,377.46,193.38,378.08,194.61z"/>
		<path class="st2" d="M384.62,209.82l4.06-1.46c-0.48-1.34-0.99-2.69-1.51-4l-4.01,1.58C383.66,207.22,384.15,208.52,384.62,209.82
			z"/>
		<path class="st2" d="M389.25,225.72l4.21-0.95c-0.31-1.38-0.65-2.78-1.01-4.15l-4.18,1.08
			C388.62,223.03,388.95,224.39,389.25,225.72z"/>
		<path class="st2" d="M390.83,233.85l4.26-0.69c-0.23-1.4-0.48-2.82-0.75-4.21l-4.23,0.82
			C390.36,231.12,390.61,232.5,390.83,233.85z"/>
		<path class="st2" d="M381.58,202.12l3.96-1.7c-0.56-1.31-1.15-2.62-1.75-3.9l-3.91,1.82
			C380.47,199.58,381.04,200.85,381.58,202.12z"/>
		<path class="st2" d="M387.18,217.7l4.14-1.21c-0.4-1.36-0.82-2.73-1.26-4.08l-4.1,1.33C386.38,215.05,386.79,216.39,387.18,217.7z
			"/>
		<path class="st2" d="M374.13,187.33l3.73-2.17c-0.71-1.23-1.46-2.46-2.21-3.66l-3.66,2.28
			C372.72,184.95,373.44,186.14,374.13,187.33z"/>
		<path class="st2" d="M331.14,136.75c-1.2-0.76-2.42-1.5-3.64-2.22l-2.19,3.72c1.18,0.7,2.37,1.42,3.53,2.15L331.14,136.75z"/>
		<path class="st2" d="M323.79,132.42c-1.24-0.68-2.51-1.35-3.77-2l-1.96,3.84c1.22,0.62,2.45,1.28,3.65,1.94L323.79,132.42z"/>
		<path class="st2" d="M316.2,128.54c-1.28-0.6-2.58-1.2-3.88-1.76l-1.72,3.95c1.26,0.55,2.52,1.12,3.76,1.71L316.2,128.54z"/>
		<path class="st2" d="M338.2,141.52c-1.15-0.82-2.32-1.64-3.5-2.44l-2.41,3.58c1.14,0.77,2.28,1.56,3.39,2.36L338.2,141.52z"/>
		<path class="st2" d="M300.38,122.2c-1.34-0.44-2.71-0.87-4.07-1.28l-1.23,4.13c1.32,0.39,2.64,0.81,3.94,1.24L300.38,122.2z"/>
		<path class="st2" d="M308.39,125.13c-1.32-0.53-2.66-1.04-3.98-1.52l-1.48,4.05c1.29,0.47,2.58,0.97,3.86,1.48L308.39,125.13z"/>
		<path class="st2" d="M292.21,119.77c-1.36-0.36-2.75-0.71-4.14-1.03l-0.98,4.2c1.34,0.31,2.69,0.65,4.01,1L292.21,119.77z"/>
		<path class="st2" d="M283.9,117.83c-1.39-0.28-2.8-0.54-4.19-0.78l-0.72,4.25c1.35,0.23,2.72,0.48,4.06,0.75L283.9,117.83z"/>
		<path class="st2" d="M201.97,130.48l-1.71-3.96c-1.31,0.56-2.62,1.15-3.91,1.76l1.83,3.91
			C199.42,131.6,200.7,131.03,201.97,130.48z"/>
		<path class="st2" d="M209.7,127.43l-1.46-4.06c-1.34,0.48-2.69,0.99-4.01,1.52l1.59,4.01C207.09,128.39,208.4,127.9,209.7,127.43z
			"/>
		<path class="st2" d="M187.14,137.98l-2.18-3.72c-1.23,0.72-2.46,1.47-3.67,2.22l2.29,3.66
			C184.75,139.4,185.95,138.68,187.14,137.98z"/>
		<path class="st2" d="M180.09,142.4l-2.4-3.58c-1.18,0.79-2.37,1.61-3.53,2.44l2.51,3.51C177.8,143.96,178.95,143.16,180.09,142.4z
			"/>
		<path class="st2" d="M194.44,134.01l-1.95-3.85c-1.27,0.64-2.55,1.31-3.8,1.99l2.06,3.79
			C191.97,135.28,193.21,134.63,194.44,134.01z"/>
		<path class="st2" d="M233.81,121.18l-0.69-4.26c-1.41,0.23-2.83,0.48-4.22,0.76l0.83,4.23
			C231.07,121.65,232.45,121.4,233.81,121.18z"/>
		<path class="st2" d="M225.65,122.77l-0.95-4.21c-1.39,0.32-2.79,0.66-4.17,1.01l1.08,4.18
			C222.94,123.4,224.3,123.07,225.65,122.77z"/>
		<path class="st2" d="M217.6,124.85l-1.21-4.14c-1.36,0.4-2.74,0.82-4.1,1.27l1.34,4.1C214.95,125.65,216.28,125.24,217.6,124.85z"
			/>
		<path class="st2" d="M253.06,335.42c0.81,1.11,2.1,1.76,3.48,1.76c1.37,0,2.67-0.65,3.48-1.76c0.44-0.6,43.24-58.99,44.72-61
			c8.68-10.95,13.26-24.14,13.26-38.14c0-33.89-27.57-61.46-61.47-61.46c-33.89,0-61.46,27.57-61.46,61.46
			c0,14,4.59,27.19,13.26,38.13L253.06,335.42z M256.54,183.44c29.14,0,52.84,23.7,52.84,52.84c0,12.06-3.95,23.41-11.44,32.83
			l0.04,0.03c-0.54,0.64-1.19,1.52-2.07,2.72l-39.38,53.7l-41.29-56.33c-0.03-0.05-0.07-0.09-0.1-0.13
			c-7.49-9.41-11.44-20.77-11.44-32.83C203.71,207.15,227.41,183.44,256.54,183.44z"/>
		<path class="st2" d="M257.93,269.68c17.2,0,31.14-13.94,31.14-31.14c0-17.2-13.94-31.14-31.14-31.14
			c-17.2,0-31.14,13.94-31.14,31.14C226.79,255.73,240.73,269.68,257.93,269.68z M257.93,216.02c12.41,0,22.51,10.1,22.51,22.52
			c0,12.42-10.1,22.52-22.51,22.52c-12.42,0-22.52-10.1-22.52-22.52C235.42,226.12,245.52,216.02,257.93,216.02z"/>
	</g>
</g>
</svg>
