<?xml version="1.0" encoding="utf-8"?>
<!-- Generator: Adobe Illustrator 25.1.0, SVG Export Plug-In . SVG Version: 6.00 Build 0)  -->
<svg version="1.1" id="Capa_1" xmlns="http://www.w3.org/2000/svg" xmlns:xlink="http://www.w3.org/1999/xlink" x="0px" y="0px"
	 viewBox="0 0 512 512" style="enable-background:new 0 0 512 512;" xml:space="preserve">
<style type="text/css">
	.st0{fill:#F1F1F2;}
	.st1{fill:#FFFFFF;}
	.st2{fill:#667F00;}
</style>
<rect x="0" class="st0" width="512" height="512"/>
<g>
	<circle class="st1" cx="251.33" cy="256.39" r="218.73"/>
	<g>
		<g>
			<path class="st2" d="M251.33,37.28c-120.97,0-219.15,98.13-219.15,219.16c0,120.96,98.18,219.06,219.15,219.06
				c121.03,0,219.15-98.1,219.15-219.06C470.48,135.41,372.37,37.28,251.33,37.28z M400.2,405.23
				c-19.34,19.33-41.85,34.51-66.92,45.11c-25.95,10.97-53.52,16.54-81.94,16.54c-28.41,0-55.97-5.56-81.92-16.54
				c-25.07-10.6-47.58-25.78-66.92-45.11c-19.34-19.33-34.53-41.84-45.13-66.89c-10.98-25.94-16.55-53.49-16.55-81.89
				c0-28.42,5.57-55.99,16.55-81.94c10.61-25.07,25.79-47.58,45.14-66.93c19.34-19.34,41.86-34.52,66.92-45.13
				c25.95-10.98,53.51-16.54,81.92-16.54c28.42,0,55.99,5.57,81.94,16.54c25.07,10.6,47.58,25.79,66.92,45.12
				c19.34,19.34,34.52,41.85,45.12,66.92c10.98,25.95,16.54,53.52,16.54,81.95c0,28.41-5.56,55.96-16.54,81.89
				C434.71,363.4,419.53,385.9,400.2,405.23z"/>
			<path class="st2" d="M364.92,143.2L320.1,98.37c-0.82-0.82-1.93-1.25-3.05-1.25v-0.01H136.48v318.57h229.7V147.16h-0.11
				C366.38,145.75,365.97,144.25,364.92,143.2z M321.36,111.84l30.1,30.1h-30.1V111.84z M145.11,407.05V105.74h167.62v40.51
				c0,2.38,1.93,4.31,4.31,4.31h40.51v256.49H145.11z"/>
			<path class="st2" d="M253.53,188.8h-99.85v121.96h99.85V188.8z M249.21,306.44h-91.23V193.11h91.23V306.44z"/>
			<rect x="260.33" y="190.8" class="st2" width="86.87" height="8.63"/>
			<rect x="260.33" y="212.53" class="st2" width="86.87" height="8.63"/>
			<rect x="155.83" y="169.14" class="st2" width="86.87" height="8.63"/>
			<rect x="157.34" y="147.42" class="st2" width="44.06" height="8.63"/>
			<rect x="260.33" y="234.26" class="st2" width="86.87" height="8.63"/>
			<rect x="260.33" y="255.98" class="st2" width="86.87" height="8.63"/>
			<rect x="260.33" y="277.71" class="st2" width="86.87" height="8.63"/>
			<rect x="260.33" y="299.43" class="st2" width="86.87" height="8.63"/>
			<rect x="155.83" y="321.16" class="st2" width="191.38" height="8.63"/>
			<rect x="155.83" y="342.89" class="st2" width="191.38" height="8.63"/>
			<rect x="155.83" y="364.61" class="st2" width="191.38" height="8.63"/>
			<path class="st2" d="M203.6,256.31c3.61,0,6.53-2.92,6.53-6.53c0-3.61-2.92-6.53-6.53-6.53c-3.61,0-6.53,2.92-6.53,6.53
				C197.07,253.39,199.99,256.31,203.6,256.31z"/>
			<path class="st2" d="M203.6,264.95c8.38,0,15.17-6.79,15.17-15.17c0-8.38-6.79-15.17-15.17-15.17c-8.38,0-15.17,6.79-15.17,15.17
				C188.43,258.16,195.22,264.95,203.6,264.95z M203.6,238.92c5.99,0,10.85,4.87,10.85,10.85c0,5.99-4.87,10.85-10.85,10.85
				c-5.99,0-10.85-4.87-10.85-10.85C192.74,243.79,197.61,238.92,203.6,238.92z"/>
		</g>
	</g>
</g>
</svg>
