<svg xmlns="http://www.w3.org/2000/svg" viewBox="0 0 512 512"><g id="Capa_4" data-name="Capa 4"><path d="M256,2C115.77,2,2,115.75,2,256.06S115.77,510,256,510,510.05,396.28,510.05,256.06,396.31,2,256,2ZM428.57,428.54A243.14,243.14,0,1,1,480.87,351,243.34,243.34,0,0,1,428.57,428.54Z"/><path d="M387.67,124.78l-52-52a5,5,0,0,0-3.53-1.46H122.86v369.3H389.14V129.38H389A5,5,0,0,0,387.67,124.78ZM337.18,88.42l34.88,34.89H337.18ZM132.86,430.65V81.35H327.18v47a5,5,0,0,0,5,5h47V430.65Z"/><path d="M258.54,177.64H142.79V319H258.54Zm-5,136.38H147.79V182.64H253.54Z"/><rect x="266.43" y="179.97" width="100.71" height="10"/><rect x="266.43" y="205.15" width="100.71" height="10"/><rect x="145.29" y="154.86" width="100.71" height="10"/><rect x="147.04" y="129.67" width="51.08" height="10"/><rect x="266.43" y="230.34" width="100.71" height="10"/><rect x="266.43" y="255.52" width="100.71" height="10"/><rect x="266.43" y="280.71" width="100.71" height="10"/><rect x="266.43" y="305.89" width="100.71" height="10"/><rect x="145.29" y="331.08" width="221.85" height="10"/><rect x="145.29" y="356.26" width="221.85" height="10"/><rect x="145.29" y="381.45" width="221.85" height="10"/><path d="M200.66,255.9a7.57,7.57,0,1,0-7.57-7.57A7.57,7.57,0,0,0,200.66,255.9Z"/><path d="M200.66,265.91a17.58,17.58,0,1,0-17.58-17.58A17.58,17.58,0,0,0,200.66,265.91Zm0-30.16a12.58,12.58,0,1,1-12.58,12.58A12.6,12.6,0,0,1,200.66,235.75Z"/></g></svg>