<?xml version="1.0" encoding="utf-8"?>
<!-- Generator: Adobe Illustrator 24.1.3, SVG Export Plug-In . SVG Version: 6.00 Build 0)  -->
<svg version="1.1" id="Capa_1" xmlns="http://www.w3.org/2000/svg" xmlns:xlink="http://www.w3.org/1999/xlink" x="0px" y="0px"
	 viewBox="0 0 27 27" style="enable-background:new 0 0 27 27;" xml:space="preserve">
<style type="text/css">
	.st0{fill:#C9D644;}
</style>
<g>
	<path class="st0" d="M13.5,0.4C6.3,0.4,0.4,6.3,0.4,13.5c0,7.2,5.9,13.1,13.1,13.1c7.2,0,13.1-5.9,13.1-13.1
		C26.6,6.3,20.7,0.4,13.5,0.4z M22.4,22.4c-1.2,1.2-2.5,2.1-4,2.7c-1.6,0.7-3.2,1-4.9,1c-1.7,0-3.3-0.3-4.9-1
		c-1.5-0.6-2.8-1.5-4-2.7c-1.2-1.2-2.1-2.5-2.7-4c-0.7-1.5-1-3.2-1-4.9c0-1.7,0.3-3.3,1-4.9c0.6-1.5,1.5-2.8,2.7-4
		c1.2-1.2,2.5-2.1,4-2.7c1.5-0.7,3.2-1,4.9-1c1.7,0,3.3,0.3,4.9,1c1.5,0.6,2.8,1.5,4,2.7c1.2,1.2,2.1,2.5,2.7,4c0.7,1.6,1,3.2,1,4.9
		c0,1.7-0.3,3.3-1,4.9C24.5,19.9,23.5,21.2,22.4,22.4z"/>
	<path class="st0" d="M20.3,6.7l-2.7-2.7c0,0-0.1-0.1-0.2-0.1v0H6.6v19h13.7V7h0C20.4,6.9,20.3,6.8,20.3,6.7z M17.7,4.9l1.8,1.8
		h-1.8V4.9z M7.2,22.5v-18h10v2.4c0,0.1,0.1,0.3,0.3,0.3h2.4v15.3H7.2z"/>
	<path class="st0" d="M13.6,9.5h-6v7.3h6V9.5z M13.4,16.5H7.9V9.7h5.4V16.5z"/>
	<rect x="14" y="9.6" class="st0" width="5.2" height="0.5"/>
	<rect x="14" y="10.9" class="st0" width="5.2" height="0.5"/>
	<rect x="7.8" y="8.3" class="st0" width="5.2" height="0.5"/>
	<rect x="7.9" y="7" class="st0" width="2.6" height="0.5"/>
	<rect x="14" y="12.2" class="st0" width="5.2" height="0.5"/>
	<rect x="14" y="13.5" class="st0" width="5.2" height="0.5"/>
	<rect x="14" y="14.8" class="st0" width="5.2" height="0.5"/>
	<rect x="14" y="16.1" class="st0" width="5.2" height="0.5"/>
	<rect x="7.8" y="17.4" class="st0" width="11.4" height="0.5"/>
	<rect x="7.8" y="18.7" class="st0" width="11.4" height="0.5"/>
	<rect x="7.8" y="20" class="st0" width="11.4" height="0.5"/>
	<circle class="st0" cx="10.6" cy="13.1" r="0.4"/>
	<path class="st0" d="M10.6,14c0.5,0,0.9-0.4,0.9-0.9c0-0.5-0.4-0.9-0.9-0.9c-0.5,0-0.9,0.4-0.9,0.9C9.7,13.6,10.1,14,10.6,14z
		 M10.6,12.5c0.4,0,0.6,0.3,0.6,0.6c0,0.4-0.3,0.6-0.6,0.6c-0.4,0-0.6-0.3-0.6-0.6C10,12.7,10.3,12.5,10.6,12.5z"/>
</g>
</svg>
