<?xml version="1.0" encoding="utf-8"?>
<!-- Generator: Adobe Illustrator 25.1.0, SVG Export Plug-In . SVG Version: 6.00 Build 0)  -->
<svg version="1.1" id="Capa_1" xmlns="http://www.w3.org/2000/svg" xmlns:xlink="http://www.w3.org/1999/xlink" x="0px" y="0px"
	 viewBox="0 0 512 512" style="enable-background:new 0 0 512 512;" xml:space="preserve">
<style type="text/css">
	.st0{fill:#F1F1F2;}
	.st1{fill:#FFFFFF;}
	.st2{fill:#667F00;}
</style>
<rect x="0" class="st0" width="512" height="512"/>
<g>
	<circle class="st1" cx="256" cy="256.35" r="218.73"/>
	<g>
		<path class="st2" d="M256,36.89c-120.97,0-219.15,98.13-219.15,219.16c0,120.96,98.18,219.06,219.15,219.06
			c121.03,0,219.15-98.1,219.15-219.06C475.15,135.02,377.04,36.89,256,36.89z M404.86,404.84c-19.34,19.33-41.85,34.51-66.92,45.11
			c-25.95,10.97-53.52,16.54-81.94,16.54c-28.41,0-55.97-5.56-81.92-16.54c-25.07-10.6-47.58-25.78-66.92-45.11
			C87.82,385.51,72.63,363,62.03,337.95c-10.98-25.94-16.55-53.49-16.55-81.89c0-28.42,5.57-55.99,16.55-81.94
			c10.61-25.07,25.79-47.58,45.14-66.93c19.34-19.34,41.86-34.52,66.92-45.13c25.95-10.98,53.51-16.54,81.92-16.54
			c28.42,0,55.99,5.57,81.94,16.54c25.07,10.6,47.58,25.79,66.92,45.12c19.34,19.34,34.52,41.85,45.12,66.92
			c10.98,25.95,16.54,53.52,16.54,81.95c0,28.41-5.56,55.96-16.54,81.89C439.38,363,424.2,385.51,404.86,404.84z"/>
		<path class="st2" d="M319.96,130.25c-1.28-0.65-2.6-1.3-3.93-1.92l-1.84,3.9c1.28,0.61,2.57,1.23,3.81,1.87L319.96,130.25z"/>
		<path class="st2" d="M389.75,211.1l-2.48,0.83h-42.05v-14.07c0-2.4-1.94-4.34-4.34-4.34h-15.4c-2.4,0-4.34,1.94-4.34,4.34v14.07
			h-26.22v-88.97l0.69-2.37c-0.23-0.07-0.46-0.12-0.69-0.19V97.39H147.45v0.01c-1.12,0-2.23,0.43-3.05,1.25l-42.39,42.39
			c-0.82,0.82-1.25,1.93-1.25,3.05h-0.01V386.5h72.49c1.78,11.09,11.41,19.6,23,19.6H387c12.84,0,23.29-10.45,23.29-23.29V211.93
			h-20.27C389.93,211.65,389.84,211.37,389.75,211.1z M329.76,202.15h6.83v26.87h-6.83V202.15z M143.13,112.11v27.66h-27.66
			L143.13,112.11z M109.38,148.4h38.07c2.38,0,4.31-1.93,4.31-4.31v-38.07h134.53v105.91h-24.2v-14.04c0-2.41-1.96-4.37-4.37-4.37
			h-15.34c-2.41,0-4.37,1.96-4.37,4.37v14.04h-18.65v-57.27h-99.29v122.49h52.87v25.44h-19.59c-0.95,0-1.79,0.62-2.06,1.53
			l-2.46,8.11l-8.08-26.45c-0.29-0.94-1.16-1.55-2.15-1.52c-0.98,0.04-1.81,0.73-2.02,1.69l-7.03,31.85l-3.02-21.49l-4.27,0.6
			l4.68,33.34c0.14,1.03,1.01,1.81,2.05,1.86c0.03,0,0.06,0,0.08,0c1.01,0,1.89-0.7,2.11-1.69l7.84-35.51l7.75,25.37
			c0.28,0.91,1.11,1.53,2.06,1.53c0.97-0.02,1.79-0.62,2.06-1.53l4.05-13.36h17.99v28.84H119.5v8.63h53.44v7.14H119.5v8.63h53.44
			v17.74h-63.56V148.4z M253.47,202.15v26.87h-6.83v-26.87H253.47z M194.85,211.93c-1.92-12.35-12.44-21.48-25.13-21.48
			c-14.03,0-25.45,11.42-25.45,25.45c0,14.03,11.42,25.45,25.45,25.45c1.08,0,2.16-0.07,3.22-0.2v27.37H128.7V163.28h82.03v48.64
			H194.85z M172.94,211.93v20.49c-1.06,0.2-2.14,0.31-3.22,0.31c-9.28,0-16.82-7.55-16.82-16.82c0-9.28,7.55-16.82,16.82-16.82
			c7.92,0,14.55,5.38,16.33,12.85H172.94z M401.66,382.81c0,8.09-6.58,14.66-14.66,14.66H196.23c-8.09,0-14.66-6.58-14.66-14.66
			V220.56h56.44v12.71c0,2.41,1.96,4.37,4.37,4.37h15.34c2.41,0,4.37-1.96,4.37-4.37v-12.71h59.05v12.74c0,2.4,1.94,4.34,4.34,4.34
			h15.4c2.4,0,4.34-1.94,4.34-4.34v-12.74h56.44V382.81z"/>
		<path class="st2" d="M327.63,134.47c-1.24-0.73-2.52-1.46-3.8-2.17l-2.08,3.78c1.24,0.68,2.48,1.39,3.69,2.1L327.63,134.47z"/>
		<path class="st2" d="M303.92,123.3c-1.37-0.49-2.76-0.97-4.13-1.42l-1.34,4.1c1.33,0.43,2.68,0.9,4.01,1.38L303.92,123.3z"/>
		<path class="st2" d="M335.02,139.15c-1.21-0.82-2.44-1.62-3.66-2.4l-2.31,3.64c1.19,0.75,2.38,1.53,3.55,2.33L335.02,139.15z"/>
		<path class="st2" d="M312.05,126.53c-1.32-0.57-2.68-1.13-4.04-1.68l-1.59,4.01c1.32,0.52,2.64,1.07,3.92,1.63L312.05,126.53z"/>
		<path class="st2" d="M358.09,165.03l3.22-2.87c-0.96-1.08-1.96-2.16-2.96-3.22l-3.13,2.97
			C356.19,162.94,357.16,163.99,358.09,165.03z"/>
		<path class="st2" d="M381.04,200.58l3.94-1.75c-0.59-1.33-1.21-2.67-1.84-3.98l-3.89,1.87C379.87,198,380.47,199.29,381.04,200.58
			z"/>
		<path class="st2" d="M377.35,192.93l3.83-1.99c-0.67-1.29-1.37-2.59-2.08-3.86l-3.76,2.11
			C376.02,190.42,376.7,191.68,377.35,192.93z"/>
		<path class="st2" d="M384.25,208.46l4.04-1.5c-0.51-1.36-1.04-2.74-1.59-4.09l-3.99,1.63
			C383.24,205.81,383.76,207.14,384.25,208.46z"/>
		<path class="st2" d="M373.2,185.52l3.69-2.23c-0.75-1.25-1.53-2.5-2.32-3.72l-3.62,2.34C371.71,183.09,372.47,184.31,373.2,185.52
			z"/>
		<path class="st2" d="M368.59,178.38l3.55-2.45c-0.83-1.2-1.68-2.4-2.55-3.57l-3.47,2.56
			C366.95,176.06,367.79,177.22,368.59,178.38z"/>
		<path class="st2" d="M348.88,149.84c-1.09-0.95-2.21-1.91-3.34-2.83l-2.74,3.33c1.09,0.9,2.18,1.82,3.24,2.75L348.88,149.84z"/>
		<path class="st2" d="M363.55,171.54l3.39-2.67c-0.89-1.13-1.81-2.27-2.76-3.4l-3.31,2.77
			C361.78,169.34,362.69,170.45,363.55,171.54z"/>
		<path class="st2" d="M342.11,144.28c-1.13-0.87-2.31-1.76-3.5-2.62l-2.53,3.49c1.16,0.84,2.3,1.69,3.4,2.54L342.11,144.28z"/>
		<path class="st2" d="M355.28,155.81c-1.02-1.02-2.09-2.04-3.16-3.03l-2.94,3.15c1.04,0.97,2.07,1.96,3.06,2.94L355.28,155.81z"/>
		<path class="st2" d="M193.52,386.63h195.82V251.69H193.52V386.63z M202.15,260.31h178.57V378H202.15V260.31z"/>
		<path class="st2" d="M258.43,284.71h17.01v-17.01h-17.01V284.71z M262.75,272.02h8.38v8.38h-8.38V272.02z"/>
		<path class="st2" d="M282.73,284.71h17.01v-17.01h-17.01V284.71z M287.04,272.02h8.38v8.38h-8.38V272.02z"/>
		<path class="st2" d="M307.02,284.71h17.01v-17.01h-17.01V284.71z M311.33,272.02h8.38v8.38h-8.38V272.02z"/>
		<path class="st2" d="M331.31,284.71h17.01v-17.01h-17.01V284.71z M335.63,272.02h8.38v8.38h-8.38V272.02z"/>
		<path class="st2" d="M355.61,284.71h17.01v-17.01h-17.01V284.71z M359.92,272.02h8.38v8.38h-8.38V272.02z"/>
		<path class="st2" d="M209.85,306.43h17.01v-17.01h-17.01V306.43z M214.16,293.73h8.38v8.38h-8.38V293.73z"/>
		<path class="st2" d="M234.14,306.43h17.01v-17.01h-17.01V306.43z M238.46,293.73h8.38v8.38h-8.38V293.73z"/>
		<path class="st2" d="M258.43,306.43h17.01v-17.01h-17.01V306.43z M262.75,293.73h8.38v8.38h-8.38V293.73z"/>
		<path class="st2" d="M282.73,306.43h17.01v-17.01h-17.01V306.43z M287.04,293.73h8.38v8.38h-8.38V293.73z"/>
		<path class="st2" d="M307.02,306.43h17.01v-17.01h-17.01V306.43z M311.33,293.73h8.38v8.38h-8.38V293.73z"/>
		<path class="st2" d="M331.31,306.43h17.01v-17.01h-17.01V306.43z M335.63,293.73h8.38v8.38h-8.38V293.73z"/>
		<path class="st2" d="M355.61,306.43h17.01v-17.01h-17.01V306.43z M359.92,293.73h8.38v8.38h-8.38V293.73z"/>
		<path class="st2" d="M209.85,328.14h17.01v-17.01h-17.01V328.14z M214.16,315.45h8.38v8.38h-8.38V315.45z"/>
		<path class="st2" d="M234.14,328.14h17.01v-17.01h-17.01V328.14z M238.46,315.45h8.38v8.38h-8.38V315.45z"/>
		<path class="st2" d="M258.43,328.14h17.01v-17.01h-17.01V328.14z M262.75,315.45h8.38v8.38h-8.38V315.45z"/>
		<path class="st2" d="M282.73,328.14h17.01v-17.01h-17.01V328.14z M287.04,315.45h8.38v8.38h-8.38V315.45z"/>
		<rect x="307.02" y="311.13" class="st2" width="17.01" height="17.01"/>
		<rect x="331.31" y="311.13" class="st2" width="17.01" height="17.01"/>
		<rect x="355.61" y="311.13" class="st2" width="17.01" height="17.01"/>
		<path class="st2" d="M209.85,349.85h17.01v-17.01h-17.01V349.85z M214.16,337.16h8.38v8.38h-8.38V337.16z"/>
		<path class="st2" d="M234.14,349.85h17.01v-17.01h-17.01V349.85z M238.46,337.16h8.38v8.38h-8.38V337.16z"/>
		<path class="st2" d="M258.43,349.85h17.01v-17.01h-17.01V349.85z M262.75,337.16h8.38v8.38h-8.38V337.16z"/>
		<path class="st2" d="M282.73,349.85h17.01v-17.01h-17.01V349.85z M287.04,337.16h8.38v8.38h-8.38V337.16z"/>
		<path class="st2" d="M307.02,349.85h17.01v-17.01h-17.01V349.85z M311.33,337.16h8.38v8.38h-8.38V337.16z"/>
		<path class="st2" d="M331.31,349.85h17.01v-17.01h-17.01V349.85z M335.63,337.16h8.38v8.38h-8.38V337.16z"/>
		<path class="st2" d="M355.61,349.85h17.01v-17.01h-17.01V349.85z M359.92,337.16h8.38v8.38h-8.38V337.16z"/>
		<path class="st2" d="M209.85,371.56h17.01v-17.01h-17.01V371.56z M214.16,358.87h8.38v8.38h-8.38V358.87z"/>
		<path class="st2" d="M234.14,371.56h17.01v-17.01h-17.01V371.56z M238.46,358.87h8.38v8.38h-8.38V358.87z"/>
		<path class="st2" d="M258.43,371.56h17.01v-17.01h-17.01V371.56z M262.75,358.87h8.38v8.38h-8.38V358.87z"/>
		<path class="st2" d="M282.73,371.56h17.01v-17.01h-17.01V371.56z M287.04,358.87h8.38v8.38h-8.38V358.87z"/>
		<rect x="226.86" y="165.3" class="st2" width="36.11" height="8.63"/>
		<rect x="226.86" y="179.96" class="st2" width="52.07" height="8.63"/>
	</g>
</g>
</svg>
