<?xml version="1.0" encoding="utf-8"?>
<!-- Generator: Adobe Illustrator 25.1.0, SVG Export Plug-In . SVG Version: 6.00 Build 0)  -->
<svg version="1.1" id="Capa_1" xmlns="http://www.w3.org/2000/svg" xmlns:xlink="http://www.w3.org/1999/xlink" x="0px" y="0px"
	 viewBox="0 0 512 512" style="enable-background:new 0 0 512 512;" xml:space="preserve">
<style type="text/css">
	.st0{fill:#F1F1F2;}
	.st1{fill:#FFFFFF;}
	.st2{fill:#667F00;}
</style>
<rect x="0" class="st0" width="512" height="512"/>
<g>
	<circle class="st1" cx="256" cy="256.35" r="218.73"/>
	<g>
		<path class="st2" d="M134.18,318.18l-3.84,1.96c0.66,1.29,1.35,2.59,2.06,3.87l3.78-2.08
			C135.49,320.69,134.82,319.42,134.18,318.18z"/>
		<path class="st2" d="M138.28,325.61l-3.71,2.2c0.74,1.25,1.51,2.51,2.29,3.73l3.64-2.31C139.75,328.04,139,326.82,138.28,325.61z"
			/>
		<path class="st2" d="M153.23,346.2l-3.24,2.85c0.96,1.1,1.95,2.19,2.94,3.24l3.15-2.95C155.13,348.32,154.17,347.26,153.23,346.2z
			"/>
		<path class="st2" d="M162.34,361.46c1.08,0.96,2.19,1.92,3.32,2.86l2.77-3.31c-1.09-0.91-2.17-1.84-3.22-2.77L162.34,361.46z"/>
		<path class="st2" d="M147.83,339.65l-3.41,2.64c0.89,1.14,1.81,2.29,2.73,3.42l3.33-2.74
			C149.58,341.88,148.69,340.76,147.83,339.65z"/>
		<path class="st2" d="M142.84,332.78l-3.57,2.42c0.82,1.2,1.66,2.41,2.52,3.58l3.49-2.53
			C144.45,335.11,143.63,333.94,142.84,332.78z"/>
		<path class="st2" d="M155.97,355.45c1.02,1.03,2.08,2.06,3.13,3.06l2.96-3.13c-1.02-0.97-2.05-1.97-3.04-2.97L155.97,355.45z"/>
		<path class="st2" d="M285.45,118.03c-1.43-0.3-2.87-0.59-4.3-0.84l-0.76,4.25c1.38,0.25,2.78,0.52,4.16,0.82L285.45,118.03z"/>
		<path class="st2" d="M293.96,120.12c-1.41-0.39-2.83-0.77-4.24-1.11l-1.03,4.19c1.36,0.33,2.74,0.7,4.11,1.08L293.96,120.12z"/>
		<path class="st2" d="M302.3,122.72c-1.36-0.47-2.75-0.93-4.15-1.37l-1.29,4.12c1.35,0.42,2.71,0.87,4.02,1.33L302.3,122.72z"/>
		<path class="st2" d="M276.83,116.48c-1.43-0.21-2.89-0.41-4.34-0.58l-0.5,4.28c1.4,0.16,2.82,0.35,4.21,0.56L276.83,116.48z"/>
		<path class="st2" d="M310.46,125.85c-1.33-0.56-2.69-1.1-4.06-1.63l-1.54,4.03c1.32,0.51,2.65,1.04,3.93,1.58L310.46,125.85z"/>
		<path class="st2" d="M256,119.26c1.1,0,2.2,0.01,3.29,0.04l0.1-4.31c-1.13-0.03-2.26-0.04-3.39-0.04l-0.99,0l0.03,4.31L256,119.26
			z"/>
		<path class="st2" d="M220.36,119.49l1.09,4.17c1.35-0.35,2.74-0.69,4.12-1.01l-0.96-4.21
			C223.18,118.78,221.75,119.13,220.36,119.49z"/>
		<path class="st2" d="M268.14,115.46c-1.45-0.12-2.92-0.23-4.37-0.3l-0.23,4.31c1.4,0.08,2.83,0.18,4.24,0.3L268.14,115.46z"/>
		<path class="st2" d="M229.72,121.79c1.38-0.27,2.78-0.52,4.18-0.75l-0.69-4.26c-1.44,0.23-2.89,0.49-4.31,0.77L229.72,121.79z"/>
		<path class="st2" d="M318.41,129.48c-1.3-0.64-2.62-1.27-3.95-1.88l-1.79,3.92c1.28,0.59,2.57,1.2,3.83,1.82L318.41,129.48z"/>
		<path class="st2" d="M246.56,119.58c1.4-0.1,2.83-0.17,4.24-0.22l-0.16-4.31c-1.46,0.05-2.93,0.13-4.37,0.23L246.56,119.58z"/>
		<path class="st2" d="M376.56,191.43l3.8-2.04c-0.69-1.28-1.4-2.57-2.13-3.83l-3.74,2.16C375.2,188.94,375.9,190.19,376.56,191.43z
			"/>
		<path class="st2" d="M362.49,170.22l3.36-2.71c-0.91-1.13-1.86-2.26-2.8-3.37l-3.27,2.81
			C360.69,168.02,361.6,169.12,362.49,170.22z"/>
		<path class="st2" d="M367.62,176.99l3.52-2.5c-0.83-1.18-1.7-2.36-2.59-3.53l-3.44,2.6C365.96,174.7,366.81,175.85,367.62,176.99z
			"/>
		<path class="st2" d="M360.14,160.87c-0.98-1.07-1.99-2.14-3-3.19l-3.09,3.01c0.98,1.01,1.96,2.05,2.91,3.09L360.14,160.87z"/>
		<path class="st2" d="M238.11,120.42c1.39-0.18,2.81-0.35,4.22-0.49l-0.43-4.29c-1.45,0.14-2.92,0.31-4.35,0.5L238.11,120.42z"/>
		<path class="st2" d="M372.31,184.07l3.67-2.27c-0.77-1.24-1.57-2.49-2.37-3.69l-3.59,2.39
			C370.79,181.66,371.57,182.87,372.31,184.07z"/>
		<path class="st2" d="M333.58,138.18c-1.21-0.8-2.45-1.59-3.69-2.35l-2.27,3.67c1.2,0.74,2.41,1.51,3.58,2.28L333.58,138.18z"/>
		<path class="st2" d="M326.13,133.59c-1.27-0.73-2.56-1.44-3.83-2.12l-2.03,3.81c1.23,0.66,2.48,1.35,3.71,2.05L326.13,133.59z"/>
		<path class="st2" d="M354.03,154.59c-1.04-1.01-2.11-2.01-3.19-2.99l-2.9,3.19c1.05,0.95,2.09,1.93,3.1,2.9L354.03,154.59z"/>
		<path class="st2" d="M340.73,143.22c-1.15-0.87-2.34-1.73-3.54-2.58l-2.49,3.52c1.16,0.82,2.32,1.66,3.43,2.5L340.73,143.22z"/>
		<path class="st2" d="M347.56,148.7c-1.11-0.95-2.24-1.88-3.37-2.79l-2.7,3.36c1.1,0.88,2.2,1.79,3.27,2.71L347.56,148.7z"/>
		<path class="st2" d="M383.65,206.88l4.03-1.55c-0.52-1.36-1.07-2.73-1.64-4.07l-3.97,1.67
			C382.61,204.24,383.14,205.57,383.65,206.88z"/>
		<path class="st2" d="M380.35,199.05l3.92-1.8c-0.61-1.32-1.24-2.65-1.89-3.96l-3.86,1.92
			C379.14,196.48,379.76,197.77,380.35,199.05z"/>
		<circle class="st2" cx="192.32" cy="177.82" r="7.5"/>
		<path class="st2" d="M192.32,195.25c9.63,0,17.43-7.8,17.43-17.43c0-9.63-7.8-17.43-17.43-17.43c-9.63,0-17.43,7.8-17.43,17.43
			C174.89,187.44,182.7,195.25,192.32,195.25z M192.32,164.7c7.23,0,13.12,5.88,13.12,13.12s-5.88,13.12-13.12,13.12
			c-7.23,0-13.12-5.88-13.12-13.12S185.09,164.7,192.32,164.7z"/>
		<path class="st2" d="M187.2,198.18c-2.9,0-5.25,2.35-5.25,5.25c0,2.9,2.35,5.25,5.25,5.25c2.9,0,5.25-2.35,5.25-5.25
			C192.45,200.53,190.1,198.18,187.2,198.18z"/>
		<path class="st2" d="M205.82,160.74c2.9,0,5.25-2.35,5.25-5.25c0-2.9-2.35-5.25-5.25-5.25c-2.9,0-5.25,2.35-5.25,5.25
			C200.56,158.39,202.91,160.74,205.82,160.74z"/>
		<path class="st2" d="M166.16,172.56c-2.9,0-5.25,2.35-5.25,5.25c0,2.9,2.35,5.25,5.25,5.25c2.9,0,5.25-2.35,5.25-5.25
			C171.42,174.92,169.07,172.56,166.16,172.56z"/>
		<path class="st2" d="M256,36.89c-120.97,0-219.15,98.13-219.15,219.16c0,120.96,98.18,219.06,219.15,219.06
			c121.03,0,219.15-98.1,219.15-219.06C475.15,135.02,377.04,36.89,256,36.89z M404.86,404.84c-19.34,19.33-41.85,34.51-66.92,45.11
			c-25.95,10.97-53.52,16.54-81.94,16.54c-28.41,0-55.97-5.56-81.92-16.54c-25.07-10.6-47.58-25.78-66.92-45.11
			C87.82,385.51,72.63,363,62.03,337.95c-10.98-25.94-16.55-53.49-16.55-81.89c0-28.42,5.57-55.99,16.55-81.94
			c10.61-25.07,25.79-47.58,45.14-66.92c19.34-19.34,41.86-34.52,66.92-45.13c25.95-10.98,53.51-16.54,81.92-16.54
			c28.42,0,55.99,5.57,81.94,16.54c25.07,10.6,47.58,25.79,66.92,45.12c19.34,19.34,34.52,41.85,45.12,66.92
			c10.98,25.95,16.54,53.52,16.54,81.95c0,28.41-5.56,55.96-16.54,81.89C439.38,363,424.2,385.51,404.86,404.84z"/>
		<path class="st2" d="M193.52,386.63h195.82V251.69H193.52V386.63z M202.15,260.31h178.57V378H202.15V260.31z"/>
		<path class="st2" d="M345.22,197.86c0-2.4-1.94-4.34-4.34-4.34h-15.4c-2.4,0-4.34,1.94-4.34,4.34v3.3l-5.1-8.85l-14.81,2.93
			l-18.33,1.97l-12.56-10.75l-5.24-4.15l-22.81,0.81l-10.97,0.49l-5.43-8.24l4.32-9.91l-10.95-20.01l-6.72-7.18l4.67-18l7.46-9.41
			l9.7-8.17l11.25-7.72l2.89-12.18l-8.86-6.25h-10.73l-9.96,11.61l-12.72,8.67l-8.24,3l-17.94-2.43l-20.91,14.85l-0.48,0.94
			c-2.04,4-4.55,8.73-5.5,10.31l-0.88,0.59l-1.55,8.87l-1.54,4.39l-4.25,1.61l-6.92,9.12l-11.12,2.64l1.31,6.6l-9.32-9.26l-7.6,8.73
			l2.14,14.56l-5.53,10.86l9.89,25.34l-3.37,3.45l2.84,33.48l5.88,10.51l-2.36,5.6l-18.36,14.2l-11.39,9.03l1.94,17.57l20.48,13.78
			l13.04,1.59l29.78,3.85c2.56,1.83,10.23,7.34,16.68,12.07v50.17c0,12.84,10.45,23.29,23.29,23.29H387
			c12.84,0,23.29-10.45,23.29-23.29V211.93h-65.07V197.86z M329.76,202.15h6.83v26.87h-6.83V202.15z M160.4,312.92l-0.88-0.63
			l-31.96-4.13l-11.01-1.34l-15.44-10.39l-0.98-8.85l7.61-6.04l20.11-15.55l4.87-11.57l-7.03-12.55l-2.35-27.69l4.5-4.6l-10.5-26.92
			l5.02-9.86l-1.57-10.69l8.91,8.86l10.39,1.98l-3.12-15.74l6.05-1.43l7.3-9.61l5.68-2.15l3.11-8.85l1.19-6.8
			c0.96-1.51,2.54-4.39,5.57-10.29l16.41-11.65l16.67,2.26l11.26-4.11l14.56-9.92l8.12-9.47h4.03l1.85,1.31l-0.78,3.26l-8.69,5.96
			l-10.87,9.12l-9.12,11.52l-6.33,24.36l9.23,9.85l8.4,15.34l-4.5,10.32l10.69,16.23l15.83-0.7l19.6-0.69l2.56,2.03l15.33,13.12
			l22.22-2.39l9.31-1.83l2.85,4.95l-3.27,5.01h-49.14v-14.04c0-2.41-1.96-4.37-4.37-4.37h-15.34c-2.41,0-4.37,1.96-4.37,4.37v14.04
			h-65.07v110.03C166.53,317.3,160.48,312.98,160.4,312.92z M253.47,202.15v26.87h-6.83v-26.87H253.47z M401.66,220.56v162.25
			c0,8.09-6.58,14.66-14.66,14.66H196.23c-8.09,0-14.66-6.58-14.66-14.66V220.56h56.44v12.71c0,2.41,1.96,4.37,4.37,4.37h15.34
			c2.41,0,4.37-1.96,4.37-4.37v-12.71h59.05v12.74c0,2.4,1.94,4.34,4.34,4.34h15.4c2.4,0,4.34-1.94,4.34-4.34v-12.74H401.66z"/>
		<path class="st2" d="M258.43,284.71h17.01v-17.01h-17.01V284.71z M262.75,272.02h8.38v8.38h-8.38V272.02z"/>
		<path class="st2" d="M282.73,284.71h17.01v-17.01h-17.01V284.71z M287.04,272.02h8.38v8.38h-8.38V272.02z"/>
		<path class="st2" d="M307.02,284.71h17.01v-17.01h-17.01V284.71z M311.33,272.02h8.38v8.38h-8.38V272.02z"/>
		<path class="st2" d="M331.31,284.71h17.01v-17.01h-17.01V284.71z M335.63,272.02h8.38v8.38h-8.38V272.02z"/>
		<path class="st2" d="M355.61,284.71h17.01v-17.01h-17.01V284.71z M359.92,272.02h8.38v8.38h-8.38V272.02z"/>
		<path class="st2" d="M209.85,306.43h17.01v-17.01h-17.01V306.43z M214.16,293.73h8.38v8.38h-8.38V293.73z"/>
		<path class="st2" d="M234.14,306.43h17.01v-17.01h-17.01V306.43z M238.46,293.73h8.38v8.38h-8.38V293.73z"/>
		<path class="st2" d="M258.43,306.43h17.01v-17.01h-17.01V306.43z M262.75,293.73h8.38v8.38h-8.38V293.73z"/>
		<path class="st2" d="M282.73,306.43h17.01v-17.01h-17.01V306.43z M287.04,293.73h8.38v8.38h-8.38V293.73z"/>
		<path class="st2" d="M307.02,306.43h17.01v-17.01h-17.01V306.43z M311.33,293.73h8.38v8.38h-8.38V293.73z"/>
		<path class="st2" d="M331.31,306.43h17.01v-17.01h-17.01V306.43z M335.63,293.73h8.38v8.38h-8.38V293.73z"/>
		<path class="st2" d="M355.61,306.43h17.01v-17.01h-17.01V306.43z M359.92,293.73h8.38v8.38h-8.38V293.73z"/>
		<path class="st2" d="M209.85,328.14h17.01v-17.01h-17.01V328.14z M214.16,315.45h8.38v8.38h-8.38V315.45z"/>
		<path class="st2" d="M234.14,328.14h17.01v-17.01h-17.01V328.14z M238.46,315.45h8.38v8.38h-8.38V315.45z"/>
		<path class="st2" d="M258.43,328.14h17.01v-17.01h-17.01V328.14z M262.75,315.45h8.38v8.38h-8.38V315.45z"/>
		<path class="st2" d="M282.73,328.14h17.01v-17.01h-17.01V328.14z M287.04,315.45h8.38v8.38h-8.38V315.45z"/>
		<rect x="307.02" y="311.13" class="st2" width="17.01" height="17.01"/>
		<rect x="331.31" y="311.13" class="st2" width="17.01" height="17.01"/>
		<rect x="355.61" y="311.13" class="st2" width="17.01" height="17.01"/>
		<path class="st2" d="M209.85,349.85h17.01v-17.01h-17.01V349.85z M214.16,337.16h8.38v8.38h-8.38V337.16z"/>
		<path class="st2" d="M234.14,349.85h17.01v-17.01h-17.01V349.85z M238.46,337.16h8.38v8.38h-8.38V337.16z"/>
		<path class="st2" d="M258.43,349.85h17.01v-17.01h-17.01V349.85z M262.75,337.16h8.38v8.38h-8.38V337.16z"/>
		<path class="st2" d="M282.73,349.85h17.01v-17.01h-17.01V349.85z M287.04,337.16h8.38v8.38h-8.38V337.16z"/>
		<path class="st2" d="M307.02,349.85h17.01v-17.01h-17.01V349.85z M311.33,337.16h8.38v8.38h-8.38V337.16z"/>
		<path class="st2" d="M331.31,349.85h17.01v-17.01h-17.01V349.85z M335.63,337.16h8.38v8.38h-8.38V337.16z"/>
		<path class="st2" d="M355.61,349.85h17.01v-17.01h-17.01V349.85z M359.92,337.16h8.38v8.38h-8.38V337.16z"/>
		<path class="st2" d="M209.85,371.56h17.01v-17.01h-17.01V371.56z M214.16,358.87h8.38v8.38h-8.38V358.87z"/>
		<path class="st2" d="M234.14,371.56h17.01v-17.01h-17.01V371.56z M238.46,358.87h8.38v8.38h-8.38V358.87z"/>
		<path class="st2" d="M258.43,371.56h17.01v-17.01h-17.01V371.56z M262.75,358.87h8.38v8.38h-8.38V358.87z"/>
		<path class="st2" d="M282.73,371.56h17.01v-17.01h-17.01V371.56z M287.04,358.87h8.38v8.38h-8.38V358.87z"/>
	</g>
</g>
</svg>
