<?xml version="1.0" encoding="utf-8"?>
<!-- Generator: Adobe Illustrator 24.1.3, SVG Export Plug-In . SVG Version: 6.00 Build 0)  -->
<svg version="1.1" id="Capa_1" xmlns="http://www.w3.org/2000/svg" xmlns:xlink="http://www.w3.org/1999/xlink" x="0px" y="0px"
	 viewBox="0 0 27 27" style="enable-background:new 0 0 27 27;" xml:space="preserve">
<style type="text/css">
	.st0{fill:#C9D644;}
</style>
<g>
	<path class="st0" d="M13.5,0.4C6.3,0.4,0.4,6.3,0.4,13.5c0,7.2,5.9,13.1,13.1,13.1c7.2,0,13.1-5.9,13.1-13.1
		C26.6,6.3,20.7,0.4,13.5,0.4z M22.4,22.4c-1.2,1.2-2.5,2.1-4,2.7c-1.6,0.7-3.2,1-4.9,1c-1.7,0-3.3-0.3-4.9-1
		c-1.5-0.6-2.8-1.5-4-2.7c-1.2-1.2-2.1-2.5-2.7-4c-0.7-1.5-1-3.2-1-4.9c0-1.7,0.3-3.3,1-4.9c0.6-1.5,1.5-2.8,2.7-4
		c1.2-1.2,2.5-2.1,4-2.7c1.5-0.7,3.2-1,4.9-1c1.7,0,3.3,0.3,4.9,1c1.5,0.6,2.8,1.5,4,2.7c1.2,1.2,2.1,2.5,2.7,4c0.7,1.6,1,3.2,1,4.9
		c0,1.7-0.3,3.3-1,4.9C24.5,19.9,23.5,21.2,22.4,22.4z"/>
	<path class="st0" d="M20.7,9.7L21,9.6c0-0.1-0.1-0.2-0.1-0.2l-0.2,0.1C20.7,9.6,20.7,9.7,20.7,9.7z"/>
	<path class="st0" d="M21.5,10.8l-0.1,0h-2.5V10c0-0.1-0.1-0.3-0.3-0.3h-0.9c-0.1,0-0.3,0.1-0.3,0.3v0.8h-1.6V5.6l0-0.1c0,0,0,0,0,0
		V4H7v0c-0.1,0-0.1,0-0.2,0.1L4.3,6.6c0,0-0.1,0.1-0.1,0.2h0v14.5h4.3c0.1,0.7,0.7,1.2,1.4,1.2h11.4c0.8,0,1.4-0.6,1.4-1.4V10.9
		L21.5,10.8C21.5,10.9,21.5,10.8,21.5,10.8z M17.9,10.3h0.4v1.6h-0.4V10.3z M6.8,4.9v1.7H5.1L6.8,4.9z M8.5,16.3H7.4
		c-0.1,0-0.1,0-0.1,0.1l-0.1,0.5l-0.5-1.6c0-0.1-0.1-0.1-0.1-0.1c-0.1,0-0.1,0-0.1,0.1l-0.4,1.9l-0.2-1.3l-0.3,0l0.3,2
		C5.8,18,5.9,18,5.9,18c0,0,0,0,0,0C6,18,6,18,6,17.9l0.5-2.1L7,17.3c0,0.1,0.1,0.1,0.1,0.1c0,0,0,0,0,0c0.1,0,0.1,0,0.1-0.1
		l0.2-0.8h1.1v1.7H5.3v0.5h3.2v0.4H5.3v0.5h3.2v1.1H4.7V7.1H7c0.1,0,0.3-0.1,0.3-0.3V4.5h8v6.3h-1.4V10c0-0.1-0.1-0.3-0.3-0.3h-0.9
		c-0.1,0-0.3,0.1-0.3,0.3v0.8h-1.1V7.4H5.4v7.3h3.2V16.3z M13.3,10.3v1.6h-0.4v-1.6H13.3z M8.5,14.2H5.9V8h4.9v2.9H9.8
		c-0.1-0.7-0.7-1.3-1.5-1.3c-0.8,0-1.5,0.7-1.5,1.5c0,0.8,0.7,1.5,1.5,1.5c0.1,0,0.1,0,0.2,0V14.2z M8.5,10.9v1.2
		c-0.1,0-0.1,0-0.2,0c-0.6,0-1-0.5-1-1s0.5-1,1-1c0.5,0,0.9,0.3,1,0.8H8.5z M22.2,21.1c0,0.5-0.4,0.9-0.9,0.9H9.9
		c-0.5,0-0.9-0.4-0.9-0.9v-9.7h3.4v0.8c0,0.1,0.1,0.3,0.3,0.3h0.9c0.1,0,0.3-0.1,0.3-0.3v-0.8h3.5v0.8c0,0.1,0.1,0.3,0.3,0.3h0.9
		c0.1,0,0.3-0.1,0.3-0.3v-0.8h3.4V21.1z"/>
	<path class="st0" d="M20.5,9.3l0.2-0.1c0-0.1-0.1-0.1-0.1-0.2l-0.2,0.1C20.4,9.1,20.5,9.2,20.5,9.3z"/>
	<path class="st0" d="M19.6,8.1l0.2-0.2c-0.1-0.1-0.1-0.1-0.2-0.2l-0.2,0.2C19.5,7.9,19.5,8,19.6,8.1z"/>
	<path class="st0" d="M19,7.2C19,7.1,18.9,7,18.8,7l-0.2,0.2c0.1,0.1,0.1,0.1,0.2,0.2L19,7.2z"/>
	<path class="st0" d="M21.2,10.7l0.2-0.1c0-0.1-0.1-0.2-0.1-0.2l-0.2,0.1C21.1,10.5,21.1,10.6,21.2,10.7z"/>
	<path class="st0" d="M21,10.2l0.2-0.1c0-0.1-0.1-0.2-0.1-0.2L20.9,10C20.9,10,20.9,10.1,21,10.2z"/>
	<path class="st0" d="M17.3,6c-0.1,0-0.2-0.1-0.2-0.1L17,6.1c0.1,0,0.2,0.1,0.2,0.1L17.3,6z"/>
	<path class="st0" d="M18.2,6.5c-0.1,0-0.1-0.1-0.2-0.1l-0.1,0.2c0.1,0,0.1,0.1,0.2,0.1L18.2,6.5z"/>
	<path class="st0" d="M18.6,6.8c-0.1-0.1-0.1-0.1-0.2-0.2l-0.2,0.2c0.1,0,0.1,0.1,0.2,0.2L18.6,6.8z"/>
	<path class="st0" d="M17.8,6.2c-0.1,0-0.2-0.1-0.2-0.1l-0.1,0.2c0.1,0,0.1,0.1,0.2,0.1L17.8,6.2z"/>
	<path class="st0" d="M20.2,8.9l0.2-0.1c0-0.1-0.1-0.1-0.2-0.2l-0.2,0.2C20.1,8.7,20.2,8.8,20.2,8.9z"/>
	<path class="st0" d="M16.8,5.8c-0.1,0-0.2-0.1-0.2-0.1l-0.1,0.2c0.1,0,0.2,0.1,0.2,0.1L16.8,5.8z"/>
	<path class="st0" d="M16.4,5.6c-0.1,0-0.2-0.1-0.2-0.1L16,5.7c0.1,0,0.2,0.1,0.2,0.1L16.4,5.6z"/>
	<path class="st0" d="M19.9,8.5l0.2-0.2C20.1,8.2,20,8.2,20,8.1l-0.2,0.2C19.8,8.3,19.9,8.4,19.9,8.5z"/>
	<path class="st0" d="M19.4,7.5c-0.1-0.1-0.1-0.1-0.2-0.2l-0.2,0.2c0.1,0.1,0.1,0.1,0.2,0.2L19.4,7.5z"/>
	<path class="st0" d="M9.8,21.3h11.7v-8.1H9.8V21.3z M10.3,13.8h10.7v7H10.3V13.8z"/>
	<path class="st0" d="M13.6,15.2h1v-1h-1V15.2z M13.9,14.5h0.5V15h-0.5V14.5z"/>
	<path class="st0" d="M15.1,15.2h1v-1h-1V15.2z M15.4,14.5h0.5V15h-0.5V14.5z"/>
	<path class="st0" d="M16.5,15.2h1v-1h-1V15.2z M16.8,14.5h0.5V15h-0.5V14.5z"/>
	<path class="st0" d="M19,14.2h-1v1h1V14.2z M18.8,15h-0.5v-0.5h0.5V15z"/>
	<path class="st0" d="M19.4,15.2h1v-1h-1V15.2z M19.7,14.5h0.5V15h-0.5V14.5z"/>
	<path class="st0" d="M10.7,16.5h1v-1h-1V16.5z M11,15.8h0.5v0.5H11V15.8z"/>
	<path class="st0" d="M12.2,16.5h1v-1h-1V16.5z M12.5,15.8H13v0.5h-0.5V15.8z"/>
	<path class="st0" d="M13.6,16.5h1v-1h-1V16.5z M13.9,15.8h0.5v0.5h-0.5V15.8z"/>
	<path class="st0" d="M15.1,16.5h1v-1h-1V16.5z M15.4,15.8h0.5v0.5h-0.5V15.8z"/>
	<path class="st0" d="M16.5,16.5h1v-1h-1V16.5z M16.8,15.8h0.5v0.5h-0.5V15.8z"/>
	<path class="st0" d="M19,15.5h-1v1h1V15.5z M18.8,16.3h-0.5v-0.5h0.5V16.3z"/>
	<path class="st0" d="M19.4,16.5h1v-1h-1V16.5z M19.7,15.8h0.5v0.5h-0.5V15.8z"/>
	<path class="st0" d="M10.7,17.8h1v-1h-1V17.8z M11,17.1h0.5v0.5H11V17.1z"/>
	<path class="st0" d="M12.2,17.8h1v-1h-1V17.8z M12.5,17.1H13v0.5h-0.5V17.1z"/>
	<path class="st0" d="M13.6,17.8h1v-1h-1V17.8z M13.9,17.1h0.5v0.5h-0.5V17.1z"/>
	<path class="st0" d="M15.1,17.8h1v-1h-1V17.8z M15.4,17.1h0.5v0.5h-0.5V17.1z"/>
	<rect x="16.5" y="16.8" class="st0" width="1" height="1"/>
	<rect x="18" y="16.8" class="st0" width="1" height="1"/>
	<rect x="19.4" y="16.8" class="st0" width="1" height="1"/>
	<path class="st0" d="M10.7,19.1h1v-1h-1V19.1z M11,18.3h0.5v0.5H11V18.3z"/>
	<path class="st0" d="M12.2,19.1h1v-1h-1V19.1z M12.5,18.3H13v0.5h-0.5V18.3z"/>
	<path class="st0" d="M13.6,19.1h1v-1h-1V19.1z M13.9,18.3h0.5v0.5h-0.5V18.3z"/>
	<path class="st0" d="M15.1,19.1h1v-1h-1V19.1z M15.4,18.3h0.5v0.5h-0.5V18.3z"/>
	<path class="st0" d="M16.5,19.1h1v-1h-1V19.1z M16.8,18.3h0.5v0.5h-0.5V18.3z"/>
	<path class="st0" d="M18,19.1h1v-1h-1V19.1z M18.3,18.3h0.5v0.5h-0.5V18.3z"/>
	<path class="st0" d="M19.4,19.1h1v-1h-1V19.1z M19.7,18.3h0.5v0.5h-0.5V18.3z"/>
	<path class="st0" d="M10.7,20.4h1v-1h-1V20.4z M11,19.6h0.5v0.5H11V19.6z"/>
	<path class="st0" d="M12.2,20.4h1v-1h-1V20.4z M12.5,19.6H13v0.5h-0.5V19.6z"/>
	<path class="st0" d="M13.6,20.4h1v-1h-1V20.4z M13.9,19.6h0.5v0.5h-0.5V19.6z"/>
	<path class="st0" d="M15.1,20.4h1v-1h-1V20.4z M15.4,19.6h0.5v0.5h-0.5V19.6z"/>
	<rect x="11.8" y="8.1" class="st0" width="2.2" height="0.5"/>
	<rect x="11.8" y="9" class="st0" width="3.1" height="0.5"/>
</g>
</svg>
