<?xml version="1.0" encoding="utf-8"?>
<!-- Generator: Adobe Illustrator 24.1.1, SVG Export Plug-In . SVG Version: 6.00 Build 0)  -->
<svg version="1.1" id="Capa_1" xmlns="http://www.w3.org/2000/svg" xmlns:xlink="http://www.w3.org/1999/xlink" x="0px" y="0px"
	 viewBox="0 0 512 217" style="enable-background:new 0 0 512 217;" xml:space="preserve">
<style type="text/css">
	.st0{fill:#FFFFFF;}
</style>
<g id="XMLID_3036_">
	<g id="XMLID_3041_">
		<g id="XMLID_3092_">
			<path id="XMLID_3108_" class="st0" d="M94.7,82.5c-0.9-0.3-1.7-0.7-2.4-1.1c-0.7-0.4-1.3-0.9-1.8-1.5c-0.5-0.6-0.9-1.2-1.1-2
				c-0.3-0.8-0.4-1.7-0.4-2.8c0-1.3,0.2-2.5,0.7-3.5c0.5-1,1.1-1.9,1.9-2.6c0.8-0.7,1.9-1.2,3-1.6c1.2-0.4,2.5-0.5,4-0.5
				c1.3,0,2.6,0.1,3.8,0.4c1.2,0.2,2.4,0.6,3.7,1c-0.2,1.5-0.6,3-1.2,4.5c-0.4-0.2-0.8-0.3-1.2-0.5c-0.4-0.2-0.8-0.3-1.3-0.4
				c-0.5-0.1-1-0.2-1.5-0.3c-0.6-0.1-1.2-0.1-2-0.1c-0.5,0-0.9,0-1.4,0.1c-0.5,0.1-0.9,0.2-1.2,0.4c-0.4,0.2-0.7,0.5-0.9,0.9
				c-0.2,0.4-0.4,0.9-0.4,1.6c0,0.5,0.1,1,0.3,1.3c0.2,0.3,0.4,0.6,0.8,0.9c0.3,0.2,0.7,0.5,1,0.6c0.4,0.2,0.8,0.3,1.2,0.5l2.4,0.9
				c1,0.4,1.9,0.8,2.7,1.2c0.8,0.4,1.5,0.9,2.1,1.5c0.6,0.6,1,1.4,1.3,2.2c0.3,0.9,0.5,2,0.5,3.2c0,1.3-0.2,2.6-0.7,3.6
				c-0.5,1.1-1.2,2-2.1,2.8c-0.9,0.8-2.1,1.4-3.4,1.8c-1.4,0.5-2.9,0.7-4.6,0.7c-0.9,0-1.6,0-2.3-0.1c-0.7-0.1-1.3-0.1-2-0.2
				c-0.6-0.1-1.2-0.3-1.8-0.5c-0.6-0.2-1.2-0.4-1.9-0.7c0.1-0.8,0.2-1.6,0.4-2.4c0.2-0.8,0.4-1.7,0.7-2.5c1.1,0.4,2.1,0.8,3.1,1
				c1,0.2,2,0.3,3.1,0.3c1.6,0,2.9-0.3,3.9-0.9c1-0.6,1.4-1.5,1.4-2.8c0-0.6-0.1-1.1-0.3-1.6c-0.2-0.4-0.5-0.8-0.9-1.1
				c-0.3-0.3-0.7-0.5-1.2-0.7c-0.5-0.2-0.9-0.4-1.4-0.6L94.7,82.5z"/>
			<path id="XMLID_3106_" class="st0" d="M111.1,67.4h16c0.2,0.8,0.2,1.6,0.2,2.4c0,0.9-0.1,1.7-0.2,2.5h-10.3v6.1h8.2
				c0.2,0.8,0.2,1.7,0.2,2.4c0,0.8-0.1,1.7-0.2,2.5h-8.2v7.5h10.6c0.2,0.8,0.2,1.6,0.2,2.4c0,0.9-0.1,1.7-0.2,2.5h-16.3V67.4z"/>
			<path id="XMLID_3104_" class="st0" d="M132.2,67.4c1.1-0.1,2.2-0.2,3.2-0.3c1-0.1,2.1-0.1,3.4-0.1c1.4,0,2.8,0.1,4.3,0.4
				c1.4,0.3,2.7,0.7,3.8,1.4c1.1,0.7,2,1.6,2.7,2.7c0.7,1.1,1.1,2.6,1.1,4.3c0,1.1-0.1,2-0.4,2.8c-0.2,0.8-0.6,1.5-1,2.1
				c-0.4,0.6-0.8,1.1-1.3,1.5c-0.5,0.4-0.9,0.8-1.3,1.1l-0.7,0.4l6.9,11.9c-0.5,0.1-1.1,0.1-1.6,0.2c-0.6,0.1-1.2,0.1-1.8,0.1
				c-1,0-2-0.1-2.9-0.2l-7.4-13.1L140,82c0.4-0.2,0.8-0.4,1.3-0.7c0.5-0.3,1-0.6,1.5-1.1c0.5-0.4,0.9-0.9,1.2-1.6
				c0.3-0.6,0.5-1.3,0.5-2.2c0-1.7-0.5-2.9-1.4-3.6c-1-0.8-2.2-1.2-3.7-1.2c-0.6,0-1.1,0-1.6,0.1v23.8c-0.5,0.1-1,0.1-1.4,0.2
				c-0.5,0-0.9,0.1-1.4,0.1c-0.4,0-0.9,0-1.4,0c-0.5,0-1-0.1-1.5-0.2V67.4z"/>
			<path id="XMLID_3102_" class="st0" d="M152.8,67.4c0.4-0.1,1-0.1,1.5-0.2c0.6-0.1,1.1-0.1,1.5-0.1c1,0,2,0.1,3.1,0.2l6.1,22.3
				l6.2-22.3c0.5-0.1,1-0.1,1.5-0.2c0.5,0,1,0,1.5,0c0.5,0,1,0,1.4,0c0.5,0,1,0.1,1.5,0.2l-9.1,28.2c-0.5,0.1-1.1,0.2-1.6,0.2
				c-0.5,0-1,0.1-1.6,0.1c-0.5,0-1,0-1.5-0.1c-0.5,0-1.1-0.1-1.7-0.2L152.8,67.4z"/>
			<path id="XMLID_3100_" class="st0" d="M180.5,67.4c1-0.2,1.9-0.2,2.9-0.2c0.9,0,1.9,0.1,2.9,0.2v28.2c-1,0.2-1.9,0.2-2.9,0.2
				c-1,0-1.9-0.1-2.9-0.2V67.4z"/>
			<path id="XMLID_3098_" class="st0" d="M210.4,90.3c0.3,0.7,0.6,1.5,0.8,2.3c0.2,0.8,0.4,1.5,0.5,2.3c-1.4,0.5-2.6,0.8-3.7,1
				c-1.1,0.2-2.3,0.2-3.5,0.2c-2.2,0-4.2-0.4-5.8-1.1c-1.7-0.7-3.1-1.7-4.2-3c-1.1-1.3-2-2.8-2.6-4.6c-0.6-1.8-0.9-3.7-0.9-5.8
				c0-2.1,0.3-4,0.9-5.8c0.6-1.8,1.5-3.3,2.6-4.6c1.1-1.3,2.5-2.3,4.2-3.1c1.7-0.7,3.6-1.1,5.7-1.1c1.3,0,2.4,0.1,3.5,0.2
				c1.1,0.2,2.2,0.5,3.4,1c-0.1,0.8-0.2,1.5-0.5,2.3c-0.3,0.8-0.5,1.5-0.9,2.3c-0.9-0.3-1.7-0.5-2.4-0.7c-0.7-0.1-1.5-0.2-2.5-0.2
				c-2.5,0-4.4,0.8-5.8,2.4c-1.3,1.6-2,4.1-2,7.3c0,6.4,2.7,9.6,8.1,9.6c1,0,1.8-0.1,2.5-0.2C208.6,90.8,209.4,90.6,210.4,90.3z"/>
			<path id="XMLID_3096_" class="st0" d="M216,67.4c1-0.2,1.9-0.2,2.9-0.2c0.9,0,1.9,0.1,2.9,0.2v28.2c-1,0.2-2,0.2-2.9,0.2
				c-1,0-1.9-0.1-2.9-0.2V67.4z"/>
			<path id="XMLID_3093_" class="st0" d="M238.7,96.1c-2.1,0-4-0.4-5.5-1.1c-1.5-0.7-2.8-1.7-3.8-3c-1-1.3-1.7-2.8-2.2-4.6
				c-0.5-1.8-0.7-3.7-0.7-5.8c0-2.1,0.2-4,0.7-5.8c0.5-1.8,1.2-3.3,2.2-4.6c1-1.3,2.3-2.3,3.8-3.1c1.5-0.7,3.4-1.1,5.5-1.1
				c2.1,0,4,0.4,5.5,1.1c1.5,0.7,2.8,1.8,3.8,3.1c1,1.3,1.7,2.9,2.2,4.6c0.5,1.8,0.7,3.7,0.7,5.8c0,2.1-0.2,4-0.7,5.8
				c-0.5,1.8-1.2,3.3-2.2,4.6c-1,1.3-2.3,2.3-3.8,3C242.7,95.7,240.9,96.1,238.7,96.1z M238.7,91.3c4.1,0,6.1-3.2,6.1-9.7
				c0-3.2-0.5-5.7-1.5-7.3c-1-1.6-2.5-2.4-4.6-2.4c-4.1,0-6.2,3.2-6.2,9.7C232.6,88,234.7,91.3,238.7,91.3z"/>
		</g>
		<g id="XMLID_3069_">
			<path id="XMLID_3090_" class="st0" d="M60,124.5c1-0.2,1.9-0.2,2.8-0.2c0.9,0,1.9,0.1,2.9,0.2v13.9c-1.4,0.5-2.8,0.8-4.2,1
				c-1.5,0.2-2.8,0.3-3.9,0.3c-2.3,0-4.3-0.4-6-1.1c-1.7-0.7-3.2-1.7-4.3-3c-1.2-1.3-2-2.8-2.6-4.6c-0.6-1.8-0.9-3.7-0.9-5.8
				c0-2.1,0.3-4,0.9-5.8c0.6-1.8,1.5-3.3,2.6-4.6c1.1-1.3,2.5-2.3,4.2-3.1c1.7-0.7,3.6-1.1,5.7-1.1c1.3,0,2.4,0.1,3.5,0.2
				c1.1,0.2,2.2,0.5,3.4,1c-0.1,0.8-0.2,1.5-0.5,2.3c-0.3,0.7-0.5,1.5-0.9,2.3c-0.9-0.3-1.7-0.5-2.4-0.7c-0.7-0.1-1.5-0.2-2.5-0.2
				c-2.5,0-4.4,0.8-5.8,2.4c-1.3,1.6-2,4.1-2,7.3c0,3.2,0.7,5.6,2,7.2c1.3,1.6,3.3,2.4,5.9,2.4c0.4,0,0.8,0,1.2-0.1
				c0.4-0.1,0.7-0.1,1-0.2V124.5z"/>
			<path id="XMLID_3088_" class="st0" d="M70.7,111h16c0.2,0.8,0.2,1.6,0.2,2.4c0,0.9-0.1,1.7-0.2,2.5H76.4v6.1h8.2
				c0.2,0.8,0.2,1.6,0.2,2.4c0,0.9-0.1,1.7-0.2,2.5h-8.2v7.4H87c0.1,0.8,0.2,1.6,0.2,2.4c0,0.9-0.1,1.7-0.2,2.5H70.7V111z"/>
			<path id="XMLID_3085_" class="st0" d="M103,139.7c-2.1,0-3.9-0.4-5.5-1.1c-1.5-0.7-2.8-1.7-3.8-3c-1-1.3-1.7-2.8-2.2-4.6
				c-0.5-1.8-0.7-3.7-0.7-5.8c0-2.1,0.2-4,0.7-5.8c0.5-1.8,1.2-3.3,2.2-4.6c1-1.3,2.3-2.3,3.8-3.1c1.5-0.7,3.4-1.1,5.5-1.1
				c2.1,0,4,0.4,5.5,1.1c1.6,0.7,2.8,1.8,3.8,3.1c1,1.3,1.7,2.8,2.2,4.6c0.5,1.8,0.7,3.7,0.7,5.8c0,2.1-0.2,4-0.7,5.8
				c-0.5,1.8-1.2,3.3-2.2,4.6c-1,1.3-2.3,2.3-3.8,3C107,139.3,105.1,139.7,103,139.7z M103,134.9c4.1,0,6.1-3.2,6.1-9.7
				c0-3.3-0.5-5.7-1.5-7.3c-1-1.6-2.5-2.4-4.6-2.4c-4.1,0-6.2,3.2-6.2,9.7C96.9,131.6,98.9,134.9,103,134.9z"/>
			<path id="XMLID_3083_" class="st0" d="M120,111c1-0.2,1.9-0.2,2.8-0.2c0.9,0,1.9,0.1,2.9,0.2v23.3h9.8c0.1,0.5,0.1,0.9,0.2,1.3
				c0,0.4,0,0.8,0,1.2c0,0.4,0,0.8,0,1.2c0,0.4-0.1,0.8-0.2,1.3H120V111z"/>
			<path id="XMLID_3079_" class="st0" d="M149.7,139.7c-2.1,0-3.9-0.4-5.5-1.1c-1.6-0.7-2.8-1.7-3.8-3c-1-1.3-1.7-2.8-2.2-4.6
				c-0.5-1.8-0.7-3.7-0.7-5.8c0-2.1,0.2-4,0.7-5.8c0.5-1.8,1.2-3.3,2.2-4.6c1-1.3,2.3-2.3,3.8-3.1c1.5-0.7,3.4-1.1,5.5-1.1
				c2.1,0,4,0.4,5.5,1.1c1.5,0.7,2.8,1.8,3.8,3.1c1,1.3,1.7,2.8,2.2,4.6c0.5,1.8,0.7,3.7,0.7,5.8c0,2.1-0.3,4-0.7,5.8
				c-0.5,1.8-1.2,3.3-2.2,4.6c-1,1.3-2.3,2.3-3.8,3C153.6,139.3,151.8,139.7,149.7,139.7z M149.7,134.9c4.1,0,6.1-3.2,6.1-9.7
				c0-3.3-0.5-5.7-1.5-7.3c-1-1.6-2.5-2.4-4.6-2.4c-4.1,0-6.2,3.2-6.2,9.7C143.6,131.6,145.6,134.9,149.7,134.9z M150.4,104.4
				c0.6-0.1,1.2-0.1,1.9-0.2c0.7,0,1.4-0.1,2.1-0.1c0.7,0,1.3,0,2,0.1c0.6,0.1,1.2,0.1,1.6,0.2l-5.8,4.1c-0.5,0.1-0.9,0.2-1.4,0.2
				c-0.5,0-0.9,0-1.4,0c-1,0-1.9-0.1-2.9-0.2L150.4,104.4z"/>
			<path id="XMLID_3077_" class="st0" d="M182.2,124.5c1-0.2,1.9-0.2,2.8-0.2c0.9,0,1.9,0.1,2.9,0.2v13.9c-1.4,0.5-2.8,0.8-4.3,1
				c-1.5,0.2-2.8,0.3-3.9,0.3c-2.3,0-4.3-0.4-6.1-1.1c-1.7-0.7-3.2-1.7-4.3-3c-1.1-1.3-2-2.8-2.6-4.6c-0.6-1.8-0.9-3.7-0.9-5.8
				c0-2.1,0.3-4,0.9-5.8c0.6-1.8,1.5-3.3,2.6-4.6c1.1-1.3,2.5-2.3,4.2-3.1c1.6-0.7,3.6-1.1,5.7-1.1c1.3,0,2.4,0.1,3.5,0.2
				c1.1,0.2,2.2,0.5,3.4,1c0,0.8-0.2,1.5-0.5,2.3c-0.3,0.7-0.6,1.5-0.9,2.3c-0.9-0.3-1.7-0.5-2.4-0.7c-0.7-0.1-1.5-0.2-2.5-0.2
				c-2.5,0-4.4,0.8-5.8,2.4c-1.3,1.6-2,4.1-2,7.3c0,3.2,0.7,5.6,2,7.2c1.3,1.6,3.3,2.4,5.9,2.4c0.4,0,0.8,0,1.2-0.1
				c0.3-0.1,0.7-0.1,1-0.2V124.5z"/>
			<path id="XMLID_3075_" class="st0" d="M192.9,111c1-0.2,1.9-0.2,2.9-0.2c0.9,0,1.9,0.1,2.9,0.2v28.2c-1,0.2-2,0.2-2.9,0.2
				c-1,0-1.9-0.1-2.9-0.2V111z"/>
			<path id="XMLID_3073_" class="st0" d="M222.8,133.8c0.3,0.7,0.6,1.5,0.8,2.3c0.2,0.8,0.4,1.5,0.5,2.3c-1.4,0.5-2.6,0.8-3.7,1
				c-1.1,0.2-2.3,0.2-3.5,0.2c-2.2,0-4.2-0.4-5.9-1.1c-1.7-0.7-3.1-1.7-4.2-3c-1.1-1.3-2-2.8-2.6-4.6c-0.6-1.8-0.9-3.7-0.9-5.8
				c0-2.1,0.3-4,0.9-5.8c0.6-1.8,1.5-3.3,2.6-4.6c1.1-1.3,2.6-2.3,4.2-3.1c1.7-0.7,3.6-1.1,5.7-1.1c1.2,0,2.4,0.1,3.5,0.2
				c1.1,0.2,2.2,0.5,3.4,1c0,0.8-0.2,1.5-0.5,2.3c-0.3,0.7-0.5,1.5-0.9,2.3c-0.9-0.3-1.7-0.5-2.4-0.7c-0.7-0.1-1.5-0.2-2.5-0.2
				c-2.5,0-4.4,0.8-5.8,2.4c-1.4,1.6-2,4.1-2,7.3c0,6.4,2.7,9.6,8.1,9.6c1,0,1.8-0.1,2.6-0.2C221.1,134.4,221.9,134.2,222.8,133.8z"
				/>
			<path id="XMLID_3070_" class="st0" d="M238.7,139.7c-2.1,0-4-0.4-5.5-1.1c-1.5-0.7-2.8-1.7-3.8-3c-1-1.3-1.7-2.8-2.2-4.6
				c-0.5-1.8-0.7-3.7-0.7-5.8c0-2.1,0.2-4,0.7-5.8c0.5-1.8,1.2-3.3,2.2-4.6c1-1.3,2.3-2.3,3.8-3.1c1.5-0.7,3.4-1.1,5.5-1.1
				c2.1,0,4,0.4,5.5,1.1c1.5,0.7,2.8,1.8,3.8,3.1c1,1.3,1.7,2.8,2.2,4.6c0.5,1.8,0.7,3.7,0.7,5.8c0,2.1-0.2,4-0.7,5.8
				c-0.5,1.8-1.2,3.3-2.2,4.6c-1,1.3-2.3,2.3-3.8,3C242.7,139.3,240.9,139.7,238.7,139.7z M238.7,134.9c4.1,0,6.1-3.2,6.1-9.7
				c0-3.3-0.5-5.7-1.5-7.3c-1-1.6-2.5-2.4-4.6-2.4c-4.1,0-6.2,3.2-6.2,9.7C232.6,131.6,234.7,134.9,238.7,134.9z"/>
		</g>
		<g id="XMLID_3042_">
			<path id="XMLID_3067_" class="st0" d="M29.4,177.4c0.3,0.7,0.6,1.5,0.8,2.3c0.2,0.8,0.4,1.5,0.5,2.3c-1.4,0.5-2.6,0.8-3.7,1
				c-1.1,0.2-2.3,0.2-3.5,0.2c-2.2,0-4.2-0.4-5.9-1.1c-1.7-0.7-3.1-1.7-4.2-3c-1.1-1.3-2-2.8-2.6-4.6c-0.6-1.8-0.9-3.7-0.9-5.8
				c0-2.1,0.3-4,0.9-5.8c0.6-1.8,1.5-3.3,2.6-4.6c1.1-1.3,2.5-2.3,4.2-3.1c1.7-0.7,3.6-1.1,5.7-1.1c1.3,0,2.4,0.1,3.5,0.2
				c1.1,0.2,2.2,0.5,3.4,1c0,0.8-0.2,1.5-0.5,2.3c-0.3,0.7-0.5,1.5-0.9,2.2c-0.9-0.3-1.7-0.5-2.4-0.7c-0.7-0.1-1.5-0.2-2.5-0.2
				c-2.5,0-4.4,0.8-5.8,2.5c-1.4,1.6-2,4.1-2,7.3c0,6.4,2.7,9.6,8.1,9.6c1,0,1.8-0.1,2.5-0.2C27.6,178,28.5,177.7,29.4,177.4z"/>
			<path id="XMLID_3064_" class="st0" d="M45.3,183.2c-2.1,0-3.9-0.4-5.5-1.1c-1.5-0.7-2.8-1.8-3.8-3c-1-1.3-1.7-2.8-2.2-4.6
				c-0.5-1.8-0.7-3.7-0.7-5.8c0-2.1,0.2-4,0.7-5.8c0.5-1.8,1.2-3.3,2.2-4.6c1-1.3,2.3-2.3,3.8-3.1c1.5-0.7,3.4-1.1,5.5-1.1
				c2.1,0,3.9,0.4,5.5,1.1c1.5,0.7,2.8,1.8,3.8,3.1c1,1.3,1.7,2.9,2.2,4.6c0.5,1.8,0.7,3.7,0.7,5.8c0,2.1-0.2,4-0.7,5.8
				c-0.5,1.8-1.2,3.3-2.2,4.6c-1,1.3-2.3,2.3-3.8,3C49.3,182.9,47.5,183.2,45.3,183.2z M45.3,178.5c4.1,0,6.1-3.3,6.1-9.7
				c0-3.3-0.5-5.7-1.5-7.3c-1-1.6-2.5-2.4-4.6-2.4c-4.1,0-6.2,3.3-6.2,9.7C39.2,175.2,41.2,178.5,45.3,178.5z"/>
			<path id="XMLID_3062_" class="st0" d="M62.3,154.6c1-0.2,1.9-0.2,2.8-0.2c0.9,0,1.9,0.1,2.9,0.2v23.3h9.8
				c0.1,0.4,0.1,0.9,0.2,1.3c0,0.4,0,0.8,0,1.2c0,0.4,0,0.8,0,1.2c0,0.4-0.1,0.8-0.2,1.3H62.3V154.6z"/>
			<path id="XMLID_3059_" class="st0" d="M92,183.2c-2.1,0-4-0.4-5.5-1.1c-1.5-0.7-2.8-1.8-3.8-3c-1-1.3-1.7-2.8-2.2-4.6
				c-0.5-1.8-0.7-3.7-0.7-5.8c0-2.1,0.2-4,0.7-5.8c0.5-1.8,1.2-3.3,2.2-4.6c1-1.3,2.3-2.3,3.8-3.1c1.5-0.7,3.4-1.1,5.5-1.1
				c2.1,0,4,0.4,5.5,1.1c1.5,0.7,2.8,1.8,3.8,3.1c1,1.3,1.7,2.9,2.2,4.6c0.5,1.8,0.7,3.7,0.7,5.8c0,2.1-0.3,4-0.7,5.8
				c-0.5,1.8-1.2,3.3-2.2,4.6c-1,1.3-2.3,2.3-3.8,3C95.9,182.9,94.1,183.2,92,183.2z M92,178.5c4,0,6.1-3.3,6.1-9.7
				c0-3.3-0.5-5.7-1.5-7.3c-1-1.6-2.5-2.4-4.6-2.4c-4.1,0-6.2,3.3-6.2,9.7C85.9,175.2,87.9,178.5,92,178.5z"/>
			<path id="XMLID_3057_" class="st0" d="M109.8,154.6c1-0.2,2-0.2,3-0.2c1,0,2,0.1,3,0.2l6.5,16.2l6.7-16.2
				c0.8-0.2,1.7-0.2,2.7-0.2c1,0,1.9,0.1,2.9,0.2l1.3,28.2c-1,0.2-1.9,0.2-2.8,0.2c-0.9,0-1.8-0.1-2.6-0.2l-0.7-19.2l-5.7,13.3
				c-0.4,0.1-0.8,0.1-1.1,0.1c-0.4,0-0.8,0.1-1.2,0.1c-0.3,0-0.7,0-1,0c-0.3,0-0.7-0.1-1.1-0.2l-5.3-13.5l-0.5,19.4
				c-0.8,0.2-1.6,0.2-2.4,0.2c-0.8,0-1.7-0.1-2.6-0.2L109.8,154.6z"/>
			<path id="XMLID_3053_" class="st0" d="M141.1,154.5c0.8-0.1,1.8-0.2,2.9-0.3c1.1-0.1,2.5-0.1,4.1-0.1c1.4,0,2.8,0.1,4.1,0.4
				c1.3,0.2,2.4,0.6,3.4,1.2c0.9,0.6,1.7,1.3,2.3,2.3c0.6,0.9,0.8,2.1,0.8,3.5c0,0.8-0.1,1.6-0.4,2.3c-0.2,0.7-0.6,1.3-1,1.9
				c-0.4,0.5-0.9,1-1.4,1.3c-0.5,0.4-1.1,0.6-1.6,0.7c0.6,0.1,1.3,0.2,2,0.5c0.7,0.3,1.4,0.7,2,1.3c0.6,0.6,1.1,1.3,1.6,2.2
				c0.4,0.9,0.6,2,0.6,3.2c0,1.7-0.3,3.1-0.9,4.2c-0.7,1.1-1.5,1.9-2.6,2.6c-1.1,0.6-2.3,1.1-3.8,1.3c-1.4,0.2-2.9,0.4-4.5,0.4
				c-1.2,0-2.4,0-3.6-0.1c-1.2-0.1-2.5-0.2-4-0.4V154.5z M148.5,166c0.7,0,1.3-0.1,1.8-0.2c0.6-0.1,1.1-0.3,1.5-0.6
				c0.4-0.3,0.7-0.7,1-1.2c0.2-0.5,0.4-1.2,0.4-1.9c0-0.8-0.1-1.4-0.4-1.9c-0.3-0.5-0.6-0.9-1.1-1.1c-0.4-0.3-0.9-0.5-1.5-0.5
				c-0.5-0.1-1.1-0.1-1.6-0.1c-0.7,0-1.4,0-1.8,0.1v7.5H148.5z M146.8,178.5c0.4,0,0.8,0.1,1.3,0.1c0.5,0,0.9,0,1.3,0
				c0.5,0,1.1-0.1,1.7-0.2c0.6-0.1,1.2-0.3,1.7-0.6c0.5-0.3,1-0.7,1.3-1.3c0.3-0.5,0.5-1.2,0.5-2.1c0-0.8-0.1-1.5-0.4-2
				c-0.3-0.5-0.6-1-1.1-1.3c-0.5-0.3-1.1-0.6-1.7-0.7c-0.7-0.1-1.4-0.2-2.2-0.2h-2.4V178.5z"/>
			<path id="XMLID_3051_" class="st0" d="M164.8,154.6c1-0.2,1.9-0.2,2.9-0.2c0.9,0,1.9,0.1,2.9,0.2v28.2c-1,0.2-1.9,0.2-2.9,0.2
				c-1,0-1.9-0.1-2.9-0.2V154.6z"/>
			<path id="XMLID_3048_" class="st0" d="M182.6,154.6c0.6-0.1,1.1-0.1,1.6-0.2c0.5,0,1-0.1,1.6-0.1c0.5,0,1,0,1.5,0.1
				c0.5,0,1.1,0.1,1.7,0.2l8.8,28.2c-1.1,0.2-2.1,0.2-3.1,0.2c-1,0-2-0.1-2.9-0.2l-1.6-5.7h-9.3l-1.6,5.7c-0.9,0.2-1.9,0.2-2.7,0.2
				c-1,0-1.9-0.1-2.9-0.2L182.6,154.6z M188.9,172.4l-3.3-11.9l-3.4,11.9H188.9z"/>
			<path id="XMLID_3046_" class="st0" d="M201,154.6c0.8-0.2,1.6-0.2,2.3-0.2c0.8,0,1.6,0.1,2.4,0.2l10.9,18v-18
				c0.9-0.2,1.8-0.2,2.7-0.2c0.8,0,1.6,0.1,2.4,0.2v28.2c-0.8,0.2-1.6,0.2-2.3,0.2c-0.7,0-1.5-0.1-2.4-0.2l-11-17.9v17.9
				c-0.8,0.2-1.7,0.2-2.6,0.2c-0.9,0-1.7-0.1-2.5-0.2V154.6z"/>
			<path id="XMLID_3043_" class="st0" d="M238.7,183.2c-2.1,0-4-0.4-5.5-1.1c-1.5-0.7-2.8-1.8-3.8-3c-1-1.3-1.7-2.8-2.2-4.6
				c-0.5-1.8-0.7-3.7-0.7-5.8c0-2.1,0.2-4,0.7-5.8c0.5-1.8,1.2-3.3,2.2-4.6c1-1.3,2.3-2.3,3.8-3.1c1.5-0.7,3.4-1.1,5.5-1.1
				c2.1,0,4,0.4,5.5,1.1c1.5,0.7,2.8,1.8,3.8,3.1c1,1.3,1.7,2.9,2.2,4.6c0.5,1.8,0.7,3.7,0.7,5.8c0,2.1-0.2,4-0.7,5.8
				c-0.5,1.8-1.2,3.3-2.2,4.6c-1,1.3-2.3,2.3-3.8,3C242.7,182.9,240.9,183.2,238.7,183.2z M238.7,178.5c4.1,0,6.1-3.3,6.1-9.7
				c0-3.3-0.5-5.7-1.5-7.3c-1-1.6-2.5-2.4-4.6-2.4c-4.1,0-6.2,3.3-6.2,9.7C232.6,175.2,234.7,178.5,238.7,178.5z"/>
		</g>
	</g>
	<path id="XMLID_3040_" class="st0" d="M492.3,125.4c-5.4-20.2-18.4-37.2-36.5-47.6c-18.2-10.5-39.3-13.3-59.5-7.8
		c-24.9,6.7-45.8,23.1-58.8,46.1c-11.7,20.7-15.6,44.3-11.3,67.1h9.9c-9.4-45.2,18.4-92,62.7-103.9c17.7-4.8,36.3-2.3,52.2,6.9
		c15.9,9.2,27.3,24,32,41.7c3.7,13.9,1.8,28.5-5.4,41c-7.2,12.5-18.9,21.4-32.8,25.2c-10.9,2.9-22.3,1.4-32-4.2
		c-9.8-5.7-16.8-14.8-19.7-25.7c-2.3-8.5-1.1-17.3,3.3-24.9c4.4-7.6,11.4-13,19.9-15.3c13.5-3.6,27.4,4.4,31,17.9
		c2.7,10.3-3.4,20.8-13.6,23.6c-7.7,2.1-15.6-2.5-17.7-10.2c-1.5-5.6,1.9-11.5,7.5-13c1.9-0.5,3.9-0.3,5.7,0.8c1.7,1,3,2.6,3.5,4.5
		l9.4-2.5c-1.2-4.4-4-8.1-8-10.5c-4-2.3-8.6-2.9-13.1-1.7c-10.8,2.9-17.2,14-14.3,24.9c3.4,12.9,16.7,20.5,29.6,17.1
		c15.4-4.1,24.6-20,20.5-35.5c-5-18.6-24.2-29.7-42.9-24.7c-11,2.9-20.1,10-25.8,19.8c-5.7,9.8-7.2,21.3-4.3,32.3
		c3.6,13.4,12.2,24.6,24.2,31.5c8,4.6,16.9,7,25.9,7c4.5,0,9.1-0.6,13.5-1.8c16.4-4.4,30.2-15,38.7-29.7
		C494.4,159,496.7,141.9,492.3,125.4z"/>
	<path id="XMLID_3039_" class="st0" d="M502,37.3c-23.9-16.1-52.6-25.6-83.5-25.6c-82.5,0-149.6,67.1-149.6,149.6
		c0,7.4,0.5,14.7,1.6,21.9h9.8c-1.1-7.2-1.7-14.5-1.7-21.9c0-77.1,62.7-139.9,139.9-139.9c28.8,0,55.6,8.8,77.9,23.8L502,37.3z"/>
	<path id="XMLID_3038_" class="st0" d="M491.7,51.7c-21-14.1-46.2-22.3-73.3-22.3c-72.7,0-131.9,59.2-131.9,131.9
		c0,7.4,0.6,14.7,1.8,21.9h9.9c-1.3-7.2-2-14.5-2-21.9c0-67.4,54.8-122.2,122.2-122.2c25,0,48.3,7.6,67.7,20.5L491.7,51.7z"/>
	<path id="XMLID_3037_" class="st0" d="M480.9,67c-17.9-11.9-39.4-18.8-62.4-18.8c-62.4,0-113.1,50.7-113.1,113.1
		c0,7.4,0.7,14.7,2.1,21.9h9.9c-1.6-7.2-2.3-14.5-2.3-21.9c0-57,46.4-103.4,103.4-103.4c21,0,40.5,6.3,56.8,17L480.9,67z"/>
</g>
</svg>
