<?xml version="1.0" encoding="utf-8"?>
<!-- Generator: Adobe Illustrator 24.1.1, SVG Export Plug-In . SVG Version: 6.00 Build 0)  -->
<svg version="1.1" id="Capa_1" xmlns="http://www.w3.org/2000/svg" xmlns:xlink="http://www.w3.org/1999/xlink" x="0px" y="0px"
	 viewBox="0 0 512 512" style="enable-background:new 0 0 512 512;" xml:space="preserve">
<style type="text/css">
	.st0{fill:#FFFFFF;}
	.st1{fill:none;stroke:#FFFFFF;stroke-width:1.3;stroke-linecap:round;stroke-miterlimit:10;}
	.st2{fill:#B1B0B0;}
</style>
<g transform="translate(0,-952.36216)">
	<g>
		<path class="st0" d="M334.4,1430c-2,0-4-0.6-5.8-1.6l-8.5-5.2l-8.2-1.9c-1-0.2-2.9-1-3.7-1.6c-1.9-1.1-3.8-3.5-4.5-6.3
			c-0.8-2.8-0.3-5.9,1.2-8.5l10.8-18.3l-2-2.7l-21.6-3l-33.1,4.4c-3.7,0.5-7.3-0.9-9.7-3.6l-40.9-46.9l-36.7-19l-24.3,2.7
			c-3,0.3-6-0.6-8.2-2.4l-44.4-35.2c-2.5-2.1-4-4.9-4.2-8c-0.2-3,0.8-5.8,2.8-8c2-2.2,4.7-3.5,7.6-3.7l1.4-0.1l-0.1-0.8
			c-0.5-3.1,0.3-6.2,2-8.5l9.2-12.3c2.4-3.3,6.6-5,10.6-4.3l2.9,0.5l2-2.5l9.3-13.4l-3.6-7.1c-0.6-1.1-1.2-4.1-1.2-5.3l0.7-17.4
			l-2.9-16.5c-0.1-0.7-0.2-2.3-0.1-3c0.3-2.6,1.4-4.9,3.2-6.7l-1.9-5.3l-7.5-18.8c-0.3-0.7-0.7-2.4-0.7-3.1l-0.8-10.2
			c-0.3-3.6,1.2-7.2,4.1-9.5l5.1-4.9l-2.1-11.3c-0.7-4.2,0.8-8.2,4-10.8c2.2-1.8,5-2.7,8.1-2.3c2.1,0.2,4.1,1.1,5.7,2.4
			c1.5-3.1,4.4-5.4,8-6.1l4.6-0.8l11-13.5c1.6-2,3.7-3.3,6-3.9l0.1-1.2l4-20.9c0.5-2.4,1.7-4.6,3.5-6.2l17-14.7c3-2.6,7.3-3.4,11-2
			l0.7,0.3c1.2-1.4,2.7-2.5,4.5-3.2l7.6-3.1c2.5-1,5.1-1,7.6-0.3l10.4,3.5l8.3-6.9c0.4-0.4,1.5-1,2-1.3l8.1-4.3l4.8-5.5l11.8-10.3
			c2.3-2,5.4-3.1,8.5-2.6v0l15.6,3.2c4.5,0.9,8,4.6,8.6,9.1l1.5,9.1c0.9,5.2-2.1,10.4-7,12.2l-19.3,7.3l-7.3,9.7
			c-0.3,0.4-0.9,1-1.2,1.4l-8.7,9.3l-1,7.3c-0.1,0.4-0.3,1.4-0.4,1.8l-5.4,16.1c0,0.1,0,0.1-0.1,0.2l1.8,0.7
			c4.3,1.6,7.2,5.7,7.2,10.4v6.9l7.5,7.5c3.7,3.7,4.3,9.6,1.4,14l-1.6,2.4l1.2,3.5c2.2,0.9,4,2.5,5.2,4.4l1.7,2.7l21.6-2.4
			c0.5-0.1,2.1-0.1,2.6-0.1l16.4,1.6c2.7,0.3,5.2,1.5,7.1,3.5l17.4,18l30.5-4.5c0.8-0.1,2.8-0.1,3.6,0l8.5,1.5
			c3.3,0.6,6.2,2.7,7.8,5.7l2.4,4.9c2.4,4.7,1.1,10.4-3.1,13.7l-1.4,6c-0.6,2.6-2.1,4.8-4.1,6.4l-1.4,1l-0.9,10.4l10.2,22.4l4.5,6.2
			c2.6,3.8,2.6,8.9,0,12.7l-5.1,7.3l4.8,4.2c1.6,1.5,2.6,3.1,3.2,4.9l8.5,27c0.4,1.2,0.5,4.3,0.3,5.5l-0.8,3.8
			c-0.6,3.3-2.8,6.2-5.8,7.7c-2.3,1.3-5.3,1.6-8.2,0.8c-2.9-0.8-5.2-2.8-6.6-5.4l-6.3-11.8l-3.5,2.6c-3.2,2.4-7.5,2.8-11.1,1.1
			c-1.7,0.8-3.6,1.1-5.5,1l-15.9-1.2c1.6,1.6,2.8,3.8,3.1,6.2l1.5,9c0.5,2.7-0.1,5.5-1.6,7.8c-1.8,2.6-4.3,4.3-7.2,4.9
			c-2.9,0.6-5.9,0-8.3-1.7l-1-0.7l-2.8,1.7l-0.2,3.8l2.8,1.4c2.9,1.5,4.9,4,5.7,7l2.2,8.2l6.5,15.8c0.9,2.2,1.1,4.5,0.6,6.6
			l-13.8,70.4c-0.2,1-1,3-1.5,3.8c-1.4,2.3-3.8,4.1-6.7,4.8C336.2,1429.8,335.3,1430,334.4,1430z M320.7,1407.8l4.1,0.9
			c0.8,0.2,1.6,0.5,2.3,0.9l4.8,2.9l12.3-63.9l-6.4-15.6l-2.1-7.4l-5.6-2.8c-2.7-1.3-4.3-4.1-4.2-7.1l0.6-12.7
			c0.1-2.5,1.5-4.8,3.6-6.1l8.7-5.3c-3.3-0.5-6-3.1-6.4-6.4l-1.5-10.3c-0.5-3.7,1.7-7.2,5.3-8.3l6.5-2c0.9-0.3,1.9-0.4,2.8-0.3
			l27.2,2.1c2.4-2.7,6.5-3.4,9.6-1.4l1.2,0.8l8.4-6c1.8-1.3,4-1.7,6.1-1.2c0.7,0.2,1.3,0.4,1.9,0.7l-1.3-4l-9.1-7.9
			c-2.9-2.5-3.4-6.9-1.2-10l7.3-10.5l-3.6-5.1l-11.7-25.4c-0.5-1.2-0.8-2.5-0.6-3.7l1.3-15.9c0.2-2.2,1.3-4.2,3.1-5.5l2.8-2l1.7-7.3
			c0.3-1.4,1.1-2.7,2.1-3.7l-6.3-1.1l-33,5.1c-2.4,0.3-4.8-0.5-6.5-2.2l-19.2-19.9l-14.6-1.4l-8,1.5l-18.3,1.4
			c-2.9,0.3-5.4-1.1-6.9-3.4l-3.5-5.5l-1.6-0.5c-2.3-0.8-4-2.5-4.8-4.8l-3.5-10.5c-0.7-2.2-0.4-4.6,0.9-6.6l1.8-2.7l-7.4-7.4
			c-1.4-1.4-2.2-3.3-2.2-5.3v-7.3l-6.4-2.4c-1.9-0.7-3.4-2.1-4.2-4c-0.8-1.8-0.9-3.9-0.2-5.8l2.5-6.4c0,0,0-0.1,0-0.1l0,0l5.4-16.1
			l1.2-8.9c0.2-1.5,0.9-3,2-4.1l10.8-11.5l8.3-11.1c0.9-1.2,2-2,3.4-2.5l18.2-6.9l-0.6-3.3l-10-2.1l-9.2,7.9l-5.4,6.1
			c-0.6,0.7-1.3,1.2-2.1,1.6l-9.4,5.1l-10.9,9.1c-2,1.6-4.8,2.1-7.2,1.3l-12.9-4.3l-3.8,1.5c0,2.4-1.2,4.7-3.2,6.1
			c-2,1.4-4.5,1.8-6.9,1l-6.2-2.2l-14.1,12.1l-4.2,24.1c-0.2,1.5-0.8,2.9-1.8,4.1l-1.9,2.2c-1.6,1.9-4.1,2.9-6.5,2.6l-11.6,14.1
			c-1.1,1.3-2.7,2.2-4.4,2.5l-3.4,0.6l1.7,12.6c0.4,2.8-0.8,5.5-3.1,7.1c-2.3,1.6-5.3,1.8-7.8,0.6c-1-0.5-2.9-1.7-3.5-2.5l-1.8-2.3
			c0.1,1.8-0.5,3.5-1.6,4.9l-7.9,8.7l0.6,8l11.8,30.6c0.8,2.5,0.4,5.2-1.2,7.2c-0.8,1-1.9,1.8-3.1,2.3l2.4,13.8l-0.6,17.8l3.9,7.8
			c0.4,0.7,0.6,1.5,0.7,2.3l0.5,3.4c0.3,1.9-0.2,3.8-1.3,5.3l-16.5,22.8c-1.7,2.1-4.4,3.1-7.1,2.7l-4.8-0.8l-6.7,8.9l1.3,7.4
			c0.4,2.1-0.2,4.3-1.5,6c-1.2,1.5-3,2.5-4.9,2.8l35.1,27.8l24.9-2.8c1.5-0.2,3,0.1,4.3,0.8l40,20.7c0.8,0.4,1.6,1,2.2,1.7
			l40.4,46.3l32-4.3c0.7-0.1,1.4-0.1,2,0l25.7,3.6c2,0.3,3.8,1.3,5,2.9l6.9,9.2c1.8,2.4,2,5.8,0.5,8.4L320.7,1407.8z M344.3,1347.4
			c0,0.1,0,0.1,0,0.2L344.3,1347.4z M335.1,1323.9C335.2,1323.9,335.2,1323.9,335.1,1323.9L335.1,1323.9z M148.5,1304.2l0.2,0.1
			C148.7,1304.3,148.6,1304.2,148.5,1304.2z M353.5,1294.1L353.5,1294.1C353.5,1294.1,353.5,1294.1,353.5,1294.1z M345.8,1288.9
			c0,0.1,0,0.1,0,0.2L345.8,1288.9z M405.8,1282.9c0,0,0,0.1,0,0.1L405.8,1282.9z M413.2,1281.7L413.2,1281.7
			C413.2,1281.8,413.2,1281.7,413.2,1281.7z M101.9,1276.1L101.9,1276.1C101.9,1276.1,101.9,1276.1,101.9,1276.1z M371.2,1268.1
			C371.2,1268.1,371.2,1268.1,371.2,1268.1L371.2,1268.1z M381.2,1267.3C381.2,1267.4,381.2,1267.4,381.2,1267.3L381.2,1267.3z
			 M385.5,1267.1l0.1,0.1C385.6,1267.1,385.6,1267.1,385.5,1267.1z M374.6,1266.6L374.6,1266.6
			C374.7,1266.6,374.7,1266.6,374.6,1266.6z M125.6,1248.4L125.6,1248.4C125.6,1248.4,125.6,1248.4,125.6,1248.4z M392.3,1161
			C392.3,1161,392.3,1161,392.3,1161L392.3,1161z M392.9,1158.5C392.9,1158.5,392.9,1158.5,392.9,1158.5L392.9,1158.5z
			 M324.6,1138.9c0,0,0.1,0.1,0.1,0.1L324.6,1138.9z M273.4,1131.5c0,0,0.1,0.1,0.1,0.1L273.4,1131.5z M137.3,1128.4l-0.2,0.2
			C137.2,1128.5,137.3,1128.5,137.3,1128.4z M138.7,1125L138.7,1125C138.7,1125.1,138.7,1125,138.7,1125z M138.4,1101
			C138.4,1101,138.5,1101.1,138.4,1101L138.4,1101z M260,1088.5C260,1088.5,260.1,1088.5,260,1088.5L260,1088.5z M208.6,1034.7
			c0,0,0.1,0,0.1,0L208.6,1034.7z M224.6,1031.5L224.6,1031.5C224.5,1031.5,224.5,1031.5,224.6,1031.5z M301.5,1006.4
			C301.5,1006.4,301.5,1006.4,301.5,1006.4L301.5,1006.4z M300.5,1004.9C300.6,1004.9,300.6,1004.9,300.5,1004.9L300.5,1004.9z
			 M297.4,1001.7c0,0,0,0.1,0,0.1L297.4,1001.7z M289.4,1000.9L289.4,1000.9C289.4,1000.9,289.4,1000.9,289.4,1000.9z"/>
	</g>
</g>
</svg>
