<?xml version="1.0" encoding="utf-8"?>
<!-- Generator: Adobe Illustrator 24.1.1, SVG Export Plug-In . SVG Version: 6.00 Build 0)  -->
<svg version="1.1" id="Capa_1" xmlns="http://www.w3.org/2000/svg" xmlns:xlink="http://www.w3.org/1999/xlink" x="0px" y="0px"
	 viewBox="0 0 512 512" style="enable-background:new 0 0 512 512;" xml:space="preserve">
<style type="text/css">
	.st0{opacity:0.1;}
	.st1{fill:#F1F1F1;}
	.st2{fill:#FFFFFF;}
</style>
<g>
	<g class="st0">
		<path class="st1" d="M67.6,220.8c17.8,17,38,36.3,73,36.3c35.4,0,55.6-19.4,73.5-36.5c13.7-13.1,25.6-24.4,41.9-24.4
			c16.6,0,28.5,11.4,42.4,24.6c17.8,17,37.9,36.3,73,36.3c35.4,0,55.6-19.4,73.5-36.5c13-12.4,24.3-23.2,39.4-24.3
			c-1.8-6.7-3.8-13.3-6.2-19.8c-20.7,3-34.9,16.7-48.7,29.9c-16.3,15.6-31.7,30.3-58,30.3c-25.9,0-41.3-14.7-57.5-30.2
			c-15.8-15.1-32.2-30.7-57.8-30.7c-25.5,0-41.7,15.5-57.4,30.6c-16.3,15.6-31.7,30.3-58,30.3c-25.9,0-41.3-14.7-57.5-30.2
			c-13.9-13.3-28.3-27.1-49.2-30.1c-2.3,6.5-4.4,13.1-6.2,19.8C43.1,197.4,54.5,208.3,67.6,220.8z"/>
		<polygon class="st1" points="334.2,343.2 266.8,406.4 266.8,244.9 245.1,244.9 245.1,406.4 178.1,343.6 162.8,357.9 256,445.3 
			349.5,357.6 		"/>
	</g>
	<g>
		<path class="st2" d="M256,503C119.8,503,9,392.2,9,256S119.8,9,256,9c136.2,0,247,110.8,247,247S392.2,503,256,503z M256,20.1
			C125.9,20.1,20.1,125.9,20.1,256S125.9,491.9,256,491.9S491.9,386.1,491.9,256S386,20.1,256,20.1z"/>
	</g>
</g>
</svg>
