<?xml version="1.0" encoding="utf-8"?>
<!-- Generator: Adobe Illustrator 24.1.1, SVG Export Plug-In . SVG Version: 6.00 Build 0)  -->
<svg version="1.1" id="Capa_1" xmlns="http://www.w3.org/2000/svg" xmlns:xlink="http://www.w3.org/1999/xlink" x="0px" y="0px"
	 viewBox="0 0 512 512" style="enable-background:new 0 0 512 512;" xml:space="preserve">
<style type="text/css">
	.st0{opacity:0.1;}
	.st1{fill:#F1F1F1;}
	.st2{fill:#FFFFFF;}
</style>
<g>
	<g class="st0">
		<g>
			<path class="st1" d="M151.5,398.5C151.5,398.5,151.5,398.5,151.5,398.5c-2.5,0-4.5-1.9-4.7-4.3l-19-215.8l-10.2,146.1
				c-0.2,2.4-2.2,4.3-4.6,4.4c-2.2,0-4.5-1.8-4.8-4.2l-11.4-96.9l-10.2,40.9c-0.5,2.1-2.4,3.6-4.6,3.6H45.4c-2.6,0-4.7-2.1-4.7-4.7
				c0-2.6,2.1-4.7,4.7-4.7h32.9l15.5-62.6c0.6-2.2,2.7-3.7,4.9-3.6c2.3,0.1,4.1,1.9,4.4,4.2l8.5,72.4l10.8-155.3
				c0.2-2.5,2.2-4.4,4.7-4.4c0,0,0,0,0,0c2.5,0,4.5,1.9,4.7,4.3l20,226.1l11.5-112.1c0.2-2.3,2.1-4.1,4.5-4.3
				c2.4-0.1,4.4,1.5,4.9,3.8l9.9,50.1L188,266c0.6-1.9,2.4-3.2,4.5-3.2h126.9l15.6-62.6c0.5-2.2,2.5-3.7,4.9-3.6
				c2.3,0.1,4.1,1.9,4.4,4.2l8.5,72.3l10.8-155.2c0.2-2.5,2.2-4.4,4.7-4.4c2.7,0,4.5,1.9,4.8,4.3l20,226.1l11.5-112.1
				c0.2-2.3,2.1-4.1,4.5-4.3c2.4-0.1,4.4,1.5,4.9,3.8l9.9,50.1L429,266c0.7-1.9,2.5-3.2,4.5-3.2h33.2c2.6,0,4.7,2.1,4.7,4.7
				c0,2.6-2.1,4.7-4.7,4.7h-29.8l-9.9,29c-0.7,2-2.7,3.3-4.8,3.2c-2.1-0.1-3.9-1.7-4.3-3.8l-7.2-36.5l-13.4,130
				c-0.2,2.4-2.3,4.3-4.7,4.3c0,0,0,0,0,0c-2.5,0-4.5-1.9-4.7-4.3l-19.1-215.8l-10.2,146c-0.2,2.5-2.2,4.3-4.6,4.4
				c-2.3,0-4.5-1.8-4.8-4.2l-11.3-96.9l-10.2,40.9c-0.5,2.1-2.4,3.6-4.6,3.6H195.8l-9.9,29c-0.7,2-2.7,3.3-4.8,3.2
				c-2.1-0.2-3.9-1.7-4.3-3.8l-7.2-36.5l-13.4,130.1C156,396.7,154,398.5,151.5,398.5z"/>
		</g>
	</g>
	<g>
		<path class="st2" d="M256,503C119.8,503,9,392.2,9,256S119.8,9,256,9c136.2,0,247,110.8,247,247S392.2,503,256,503z M256,20.1
			C125.9,20.1,20.1,125.9,20.1,256S125.9,491.9,256,491.9S491.9,386.1,491.9,256S386,20.1,256,20.1z"/>
	</g>
</g>
</svg>
