<svg id="Capa_1" data-name="Capa 1" xmlns="http://www.w3.org/2000/svg" width="512" height="512" viewBox="0 0 512 512">
  <defs>
    <style>
      .cls-1 {
        fill: #fff;
      }
    </style>
  </defs>
  <g>
    <path class="cls-1" d="M409.48224,89.72576H102.513a64.13921,64.13921,0,0,0-63.9503,63.9503V358.32338a64.1394,64.1394,0,0,0,63.9503,63.95086H409.48224c36.77161,0,63.95505-28.77845,63.95505-63.95086V153.67606A64.14021,64.14021,0,0,0,409.48224,89.72576ZM102.513,115.3049H409.48224c20.78528,0,38.37126,17.5861,38.37126,38.37116V300.42153c-57.94181-2.72983-90.42233-21.74259-121.5072-38.026-33.57706-17.59028-67.14937-35.17162-123.10662-35.17162-62.84741,0-112.20341,34.06205-139.09794,57.74528V153.67606C64.14174,132.891,81.73248,115.3049,102.513,115.3049ZM409.48224,396.695H102.513c-20.78053,0-38.37127-17.58644-38.37127-38.37161V319.68222c13.26251-13.91414,66.99338-65.28459,137.49829-65.28459,49.56339,0,79.94161,15.99154,110.31484,33.57752,34.53618,18.0172,71.89014,38.85263,135.89863,41.324v29.02423C447.8535,379.10855,430.26752,396.695,409.48224,396.695Z"/>
    <path class="cls-1" d="M371.111,240.01118c20.78529,0,38.37127-17.586,38.37127-38.37115s-17.586-38.37116-38.37127-38.37116c-20.78506,0-38.371,17.586-38.371,38.37116S350.32591,240.01118,371.111,240.01118Zm0-51.163c7.99351,0,12.79223,4.79873,12.79223,12.7919s-4.79872,12.792-12.79223,12.792c-7.993,0-12.78725-4.79873-12.78725-12.792S363.11792,188.84813,371.111,188.84813Z"/>
  </g>
</svg>
