<svg id="Capa_1" data-name="Capa 1" xmlns="http://www.w3.org/2000/svg" width="512" height="512" viewBox="0 0 512 512">
  <defs>
    <style>
      .cls-1 {
        fill: #fff;
      }
    </style>
  </defs>
  <g>
    <path class="cls-1" d="M395.85559,193.207,273.1255,70.482c-7.13741-4.28249-17.12567-8.5651-25.69066-8.5651H164.66616a57.249,57.249,0,0,0-57.08244,57.08244V393.00067a57.24908,57.24908,0,0,0,57.08244,57.08244H347.33373c32.82376,0,57.08255-25.68624,57.08255-57.08244V218.89821C404.41628,208.90554,402.98848,200.34508,395.85559,193.207ZM267.41543,99.01851l99.89889,99.899H301.66678c-18.55325,0-34.25135-15.69809-34.25135-34.25134Zm79.9183,328.23339H164.66616c-18.55324,0-34.25134-15.6981-34.25134-34.25123V118.99933c0-18.54861,15.6981-34.2467,34.25134-34.2467V84.748h79.91807v79.91818a57.24917,57.24917,0,0,0,57.08255,57.08244h79.91353V393.00067C381.58031,411.5538,365.887,427.2519,347.33373,427.2519Z"/>
    <path class="cls-1" d="M324.498,370.16946H187.49726c-7.133,0-11.41561,4.278-11.41561,11.41561,0,7.133,4.28261,11.4156,11.41561,11.4156H324.498c7.13764,0,11.42013-4.2826,11.42013-11.4156C335.91812,374.44743,331.63563,370.16946,324.498,370.16946Z"/>
    <path class="cls-1" d="M324.498,313.082H187.49726c-7.133,0-11.41561,4.28295-11.41561,11.42059,0,7.13254,4.28261,11.41549,11.41561,11.41549H324.498c7.13764,0,11.42013-4.28295,11.42013-11.41549C335.91812,317.365,331.63563,313.082,324.498,313.082Z"/>
    <path class="cls-1" d="M324.498,255.99994H187.49726c-7.133,0-11.41561,4.28261-11.41561,11.41561,0,7.13764,4.28261,11.42013,11.41561,11.42013H324.498c7.13764,0,11.42013-4.28249,11.42013-11.42013C335.91812,260.28255,331.63563,255.99994,324.498,255.99994Z"/>
  </g>
</svg>
