<svg id="Capa_1" data-name="Capa 1" xmlns="http://www.w3.org/2000/svg" width="512" height="512" viewBox="0 0 512 512">
  <defs>
    <style>
      .cls-1 {
        fill: #fff;
      }
    </style>
  </defs>
  <g>
    <path class="cls-1" d="M247.02565,300.8648c1.49731,2.98987,5.98448,2.98987,8.97435,2.98987s7.477,0,5.98449-2.98987l71.78078-71.78554a11.63289,11.63289,0,1,0-16.4514-16.45139l-49.34965,49.34965V88.50745c0-7.477-4.48718-11.96422-11.96422-11.96422s-11.96422,4.48718-11.96422,11.96422v176.4639l-52.33952-52.34348a11.63293,11.63293,0,0,0-16.45151,16.45139Z"/>
    <path class="cls-1" d="M423.49487,315.819c-7.4818,0-11.96433,4.48242-11.96433,11.96422v47.85234c0,19.44126-16.4514,35.89277-35.89266,35.89277H136.36212c-19.44126,0-35.888-16.45151-35.888-35.89277V327.78322c0-7.4818-4.48717-11.96422-11.96433-11.96422s-11.96422,4.48242-11.96422,11.96422v47.85234a59.99465,59.99465,0,0,0,59.81657,59.82121H375.63788c34.39546,0,59.81657-26.91842,59.81657-59.82121V327.78322C435.45445,320.30142,430.97191,315.819,423.49487,315.819Z"/>
  </g>
</svg>
