<?xml version="1.0" encoding="utf-8"?>
<!-- Generator: Adobe Illustrator 24.1.1, SVG Export Plug-In . SVG Version: 6.00 Build 0)  -->
<svg version="1.1" id="Capa_1" xmlns="http://www.w3.org/2000/svg" xmlns:xlink="http://www.w3.org/1999/xlink" x="0px" y="0px"
	 viewBox="0 0 512 512" style="enable-background:new 0 0 512 512;" xml:space="preserve">
<style type="text/css">
	.st0{fill:#E5EAFF;}
	.st1{fill:#646464;}
	.st2{fill:#BFCCFF;}
	.st3{fill:#80FFFF;}
	.st4{fill:#7DF894;}
	.st5{fill:#FDFF20;}
	.st6{fill:#FFC800;}
	.st7{fill:#FFFFFF;}
	.st8{fill:#FF9100;}
	.st9{fill:#F03903;}
	.st10{fill:#C50700;}
</style>
<g>
	<path id="XMLID_2857_" class="st9" d="M255.8,4.7c140.3,0,254,113.7,254,254c0,140.2-113.7,253.9-254,253.9
		c-140.3,0-254-113.7-254-253.9C1.8,118.5,115.5,4.7,255.8,4.7z"/>
	<g>
		<path class="st7" d="M155.3,174.2h33.1v168.9h-33.1V174.2z"/>
		<path class="st7" d="M260.6,257.2l-47.1-83h39.8l26.1,48.8l5.8,17.1l5.6-17.1l27.3-48.8h36l-48.7,81.3l51.2,87.6H317L287.3,291
			l-6.5-17.9l-6.3,17.9l-29.9,52.1h-35.9L260.6,257.2z"/>
	</g>
</g>
</svg>
