<?xml version="1.0" encoding="utf-8"?>
<!-- Generator: Adobe Illustrator 24.1.1, SVG Export Plug-In . SVG Version: 6.00 Build 0)  -->
<svg version="1.1" id="Capa_1" xmlns="http://www.w3.org/2000/svg" xmlns:xlink="http://www.w3.org/1999/xlink" x="0px" y="0px"
	 viewBox="0 0 512 512" style="enable-background:new 0 0 512 512;" xml:space="preserve">
<style type="text/css">
	.st0{fill:#E5EAFF;}
	.st1{fill:#646464;}
	.st2{fill:#BFCCFF;}
	.st3{fill:#80FFFF;}
	.st4{fill:#7DF894;}
	.st5{fill:#FDFF20;}
	.st6{fill:#FFC800;}
	.st7{fill:#FFFFFF;}
	.st8{fill:#FF9100;}
	.st9{fill:#F03903;}
	.st10{fill:#C50700;}
</style>
<g>
	<path id="XMLID_2851_" class="st8" d="M255.7,1.7c140.3,0,254,113.7,254,254c0,140.2-113.7,253.9-254,253.9
		c-140.3,0-254-113.7-254-253.9C1.7,115.5,115.4,1.7,255.7,1.7z"/>
	<g>
		<path class="st7" d="M159.9,269.8l4.3,28.7h1.2l4.8-29l32.3-98.9h34.7l-62.7,170.1H151L87.8,170.6h38.4L159.9,269.8z"/>
		<path class="st7" d="M253.1,170.6h33.1v168.9h-33.1V170.6z"/>
		<path class="st7" d="M321.8,170.6h33.1v168.9h-33.1V170.6z"/>
		<path class="st7" d="M390.6,170.6h33.1v168.9h-33.1V170.6z"/>
	</g>
</g>
</svg>
