<?xml version="1.0" encoding="utf-8"?>
<!-- Generator: Adobe Illustrator 24.1.1, SVG Export Plug-In . SVG Version: 6.00 Build 0)  -->
<svg version="1.1" id="Capa_1" xmlns="http://www.w3.org/2000/svg" xmlns:xlink="http://www.w3.org/1999/xlink" x="0px" y="0px"
	 viewBox="0 0 512 512" style="enable-background:new 0 0 512 512;" xml:space="preserve">
<style type="text/css">
	.st0{fill:#E5EAFF;}
	.st1{fill:#646464;}
	.st2{fill:#BFCCFF;}
	.st3{fill:#80FFFF;}
	.st4{fill:#7DF894;}
	.st5{fill:#FDFF20;}
	.st6{fill:#FFC800;}
	.st7{fill:#FFFFFF;}
	.st8{fill:#FF9100;}
	.st9{fill:#F03903;}
	.st10{fill:#C50700;}
</style>
<g>
	<path id="XMLID_2849_" class="st2" d="M256.1,1.7c140.3,0,254,113.7,254,254c0,140.2-113.7,253.9-254,253.9
		c-140.3,0-254-113.7-254-253.9C2.1,115.5,115.8,1.7,256.1,1.7z"/>
	<g>
		<path class="st1" d="M58.6,171.2h33.1v168.9H58.6V171.2z"/>
		<path class="st1" d="M127.4,171.2h33.1v168.9h-33.1V171.2z"/>
		<path class="st1" d="M191.3,256.9h60.6v27.7h-60.6V256.9z"/>
		<path class="st1" d="M283,171.2h33.1v168.9H283V171.2z"/>
		<path class="st1" d="M351.8,171.2h33.1v168.9h-33.1V171.2z"/>
		<path class="st1" d="M420.5,171.2h33.1v168.9h-33.1V171.2z"/>
	</g>
</g>
</svg>
